<?xml version="1.0" standalone="no"?><!DOCTYPE svg PUBLIC "-//W3C//DTD SVG 1.1//EN" "http://www.w3.org/Graphics/SVG/1.1/DTD/svg11.dtd"><svg t="1659854687074" class="icon" viewBox="0 0 1024 1024" version="1.1" xmlns="http://www.w3.org/2000/svg" p-id="6543" xmlns:xlink="http://www.w3.org/1999/xlink" width="200" height="200"><defs><style type="text/css">@font-face { font-family: feedback-iconfont; src: url("//at.alicdn.com/t/font_1031158_u69w8yhxdu.woff2?t=1630033759944") format("woff2"), url("//at.alicdn.com/t/font_1031158_u69w8yhxdu.woff?t=1630033759944") format("woff"), url("//at.alicdn.com/t/font_1031158_u69w8yhxdu.ttf?t=1630033759944") format("truetype"); }
</style></defs><path d="M648.843242 461.265838H609.745086a9.309085 9.309085 0 0 0 0 13.032719l13.032719 13.032718a9.076357 9.076357 0 0 0 13.032718 0l13.032719-13.032718a9.076357 9.076357 0 0 0 0-13.032719zM500.363343 554.356684a15.127262 15.127262 0 0 0-8.610903-3.25818 14.894535 14.894535 0 0 0-10.472721 4.421815 13.963627 13.963627 0 0 0-4.189088 10.239993 14.661808 14.661808 0 0 0 4.189088 10.472721l5.585451 5.58545a250.647102 250.647102 0 0 1 13.498173-27.461799zM589.497827 567.156675H535.27241a23.272711 23.272711 0 0 0-15.592717 6.981814 77.032675 77.032675 0 0 0-16.290898 25.134528 216.668943 216.668943 0 0 0-10.47272 30.719979c-2.792725 10.47272-4.887269 20.712713-6.516359 29.556343-3.025452 15.825444-4.189088 27.229072-4.189088 27.229073v2.094544a46.545423 46.545423 0 0 0 39.796336 49.105421h66.559955a46.545423 46.545423 0 0 0 39.796337-51.199965s0-119.621737-38.865429-119.621737zM563.897845 442.182215l31.650887-6.283632a16.290898 16.290898 0 0 0 12.567265-18.850896l-6.283632-31.650888c-1.861817-8.610903-3.25818-15.592717-19.083624-12.567264a72.61086 72.61086 0 0 0-37.701792 56.785416c3.25818 15.825444 10.239993 14.429081 18.850896 12.567264zM456.377918 688.872956h-2.559998a14.661808 14.661808 0 0 0-14.661808 14.661808v29.323616a14.661808 14.661808 0 0 0 14.661808 14.429081h11.636356a86.807214 86.807214 0 0 1-12.10181-43.752697s1.396363-5.352724 3.025452-14.661808zM526.894234 304.873218a32.814523 32.814523 0 0 0-32.814523 32.814523 33.279977 33.279977 0 0 0 19.549077 30.254524 87.039941 87.039941 0 0 1 33.279978-55.62178 32.116342 32.116342 0 0 0-20.014532-7.447267z" p-id="6544" fill="#2c2c2c"></path><path d="M658.61778 674.211148m29.323617 0l29.090889 0q29.323616 0 29.323616 29.323616l0 29.090889q0 29.323616-29.323616 29.323617l-29.090889 0q-29.323616 0-29.323617-29.323617l0-29.090889q0-29.323616 29.323617-29.323616Z" p-id="6545" fill="#2c2c2c"></path><path d="M764.741344 337.687741a33.04725 33.04725 0 0 0-33.04725-32.814523 31.41816 31.41816 0 0 0-19.781805 7.447267A86.807214 86.807214 0 0 1 744.726813 367.942265a33.04725 33.04725 0 0 0 20.014531-30.254524z" p-id="6546" fill="#2c2c2c"></path><path d="M511.999699 0.000698a442.181517 442.181517 0 0 0-116.363558 869.003044A289.745257 289.745257 0 0 1 511.999699 1024a289.745257 289.745257 0 0 1 116.363557-154.996258A442.181517 442.181517 0 0 0 511.999699 0.000698z m-83.08358 283.461625a132.654455 132.654455 0 0 1 51.665419-30.952706 132.654455 132.654455 0 0 1-30.952706 51.665419 133.352636 133.352636 0 0 1-51.898146 31.185434 136.843543 136.843543 0 0 1 31.185433-51.898147zM380.741606 176.873305a133.352636 133.352636 0 0 1 14.894535 58.414505 133.818091 133.818091 0 0 1-14.661808 58.647233 133.818091 133.818091 0 0 1-14.661808-58.647233 133.352636 133.352636 0 0 1 14.429081-58.414505zM300.916206 93.091544a131.490819 131.490819 0 0 1 34.909067 49.338148 133.119909 133.119909 0 0 1 7.447268 59.810868 132.421728 132.421728 0 0 1-34.67634-49.338148A131.490819 131.490819 0 0 1 300.916206 93.091544z m-26.996345 161.27989a131.490819 131.490819 0 0 1 31.185433 51.665419 134.516272 134.516272 0 0 1-51.898146-30.952706 134.516272 134.516272 0 0 1-30.952706-51.898146 134.981726 134.981726 0 0 1 51.665419 31.185433z m19.083623 83.316307a133.352636 133.352636 0 0 1 58.414506 14.661808 133.352636 133.352636 0 0 1-58.414506 14.661808 133.818091 133.818091 0 0 1-58.647233-14.661808 133.818091 133.818091 0 0 1 58.647233-14.661808z m39.56361 83.549034a134.981726 134.981726 0 0 1-51.66542 31.185433 134.516272 134.516272 0 0 1 30.952706-51.898147 132.654455 132.654455 0 0 1 51.66542-30.952706 132.654455 132.654455 0 0 1-30.952706 51.66542zM287.650761 220.393275a14.661808 14.661808 0 1 1 25.134528-14.661808l161.047163 279.272537a14.661808 14.661808 0 0 1-25.367256 14.661808z m488.726939 483.141489a87.738122 87.738122 0 0 1-88.436303 87.738122h-146.385355a86.574486 86.574486 0 0 1-48.40724-14.661808H453.81792a43.985425 43.985425 0 0 1-43.985425-43.752698v-29.323616a43.985425 43.985425 0 0 1 43.985425-43.985425h8.610903c3.490907-14.196354 7.912722-30.719979 13.265446-46.545422l-15.127263-15.35999a43.752697 43.752697 0 0 1 0-61.905412 43.287243 43.287243 0 0 1 55.389053-4.421815 95.883571 95.883571 0 0 1 26.996346-23.272712A87.272668 87.272668 0 0 1 511.999699 440.087671v-49.570875a54.690872 54.690872 0 1 1 54.690871-90.065394 87.505395 87.505395 0 0 1 33.279978-6.516359h58.647232a87.039941 87.039941 0 0 1 33.047251 6.516359 54.690872 54.690872 0 1 1 54.690871 90.065394v49.570875a86.341759 86.341759 0 0 1-31.185433 66.559954c60.276323 37.701792 60.50905 196.887138 60.50905 196.887139z" p-id="6547" fill="#2c2c2c"></path><path d="M681.657765 372.364081c-15.825444-3.025452-17.221806 3.956361-18.850897 12.567264l-6.283632 31.650887a16.058171 16.058171 0 0 0 12.567264 18.850897l31.418161 6.749086c8.84363 1.62909 15.825444 3.025452 18.850896-12.567264A72.145405 72.145405 0 0 0 681.657765 372.364081zM687.941397 545.047599l-41.425427 41.425427a29.463253 29.463253 0 0 0 41.425427 41.89088l41.192699-41.425426a29.323616 29.323616 0 0 0-41.192699-41.425426z" p-id="6548" fill="#2c2c2c"></path></svg>