<?xml version="1.0" encoding="UTF-8" standalone="no"?><svg xmlns="http://www.w3.org/2000/svg" xmlns:xlink="http://www.w3.org/1999/xlink" contentStyleType="text/css" height="1379px" preserveAspectRatio="none" style="width:842px;height:1379px;background:#FFFFFF;" version="1.1" viewBox="0 0 842 1379" width="842px" zoomAndPan="magnify"><defs/><g><!--MD5=[6d7c25ce75b8f10d0b66144e7f1cb173]
cluster com.youkeda.application.art.member.service--><g id="cluster_com.youkeda.application.art.member.service"><path d="M8.5,524.5 L323.5,524.5 A3.75,3.75 0 0 1 326,527 L333,546.9883 L483.5,546.9883 A2.5,2.5 0 0 1 486,549.4883 L486,835 A2.5,2.5 0 0 1 483.5,837.5 L8.5,837.5 A2.5,2.5 0 0 1 6,835 L6,527 A2.5,2.5 0 0 1 8.5,524.5 " style="stroke:#000000;stroke-width:1.5;fill:none;"/><line style="stroke:#000000;stroke-width:1.5;fill:none;" x1="6" x2="333" y1="546.9883" y2="546.9883"/><text fill="#000000" font-family="sans-serif" font-size="14" font-weight="bold" lengthAdjust="spacing" textLength="314" x="10" y="540.0352">com.youkeda.application.art.member.service</text></g><!--MD5=[7af10aa7bb70fe9725064c9f227ae0dd]
cluster com.youkeda.application.art.member.service.impl--><g id="cluster_com.youkeda.application.art.member.service.impl"><path d="M41.5,961 L392.5,961 A3.75,3.75 0 0 1 395,963.5 L402,983.4883 L402.5,983.4883 A2.5,2.5 0 0 1 405,985.9883 L405,1172.5 A2.5,2.5 0 0 1 402.5,1175 L41.5,1175 A2.5,2.5 0 0 1 39,1172.5 L39,963.5 A2.5,2.5 0 0 1 41.5,961 " style="stroke:#000000;stroke-width:1.5;fill:none;"/><line style="stroke:#000000;stroke-width:1.5;fill:none;" x1="39" x2="402" y1="983.4883" y2="983.4883"/><text fill="#000000" font-family="sans-serif" font-size="14" font-weight="bold" lengthAdjust="spacing" textLength="350" x="43" y="976.5352">com.youkeda.application.art.member.service.impl</text></g><!--MD5=[a7adf3ddef2de4dbfb59128e461766f4]
cluster com.youkeda.application.art.member.repository--><g id="cluster_com.youkeda.application.art.member.repository"><path d="M264.5,1224 L603.5,1224 A3.75,3.75 0 0 1 606,1226.5 L613,1246.4883 L613.5,1246.4883 A2.5,2.5 0 0 1 616,1248.9883 L616,1369.5 A2.5,2.5 0 0 1 613.5,1372 L264.5,1372 A2.5,2.5 0 0 1 262,1369.5 L262,1226.5 A2.5,2.5 0 0 1 264.5,1224 " style="stroke:#000000;stroke-width:1.5;fill:none;"/><line style="stroke:#000000;stroke-width:1.5;fill:none;" x1="262" x2="613" y1="1246.4883" y2="1246.4883"/><text fill="#000000" font-family="sans-serif" font-size="14" font-weight="bold" lengthAdjust="spacing" textLength="338" x="266" y="1239.5352">com.youkeda.application.art.member.repository</text></g><!--MD5=[a4e5e89c2ef17a87970a04e8eb9b712a]
cluster org.springframework.data.mongodb.repository--><g id="cluster_org.springframework.data.mongodb.repository"><path d="M431.5,1018.5 L765.5,1018.5 A3.75,3.75 0 0 1 768,1021 L775,1040.9883 L775.5,1040.9883 A2.5,2.5 0 0 1 778,1043.4883 L778,1115 A2.5,2.5 0 0 1 775.5,1117.5 L431.5,1117.5 A2.5,2.5 0 0 1 429,1115 L429,1021 A2.5,2.5 0 0 1 431.5,1018.5 " style="stroke:#000000;stroke-width:1.5;fill:none;"/><line style="stroke:#000000;stroke-width:1.5;fill:none;" x1="429" x2="775" y1="1040.9883" y2="1040.9883"/><text fill="#000000" font-family="sans-serif" font-size="14" font-weight="bold" lengthAdjust="spacing" textLength="333" x="433" y="1034.0352">org.springframework.data.mongodb.repository</text></g><!--MD5=[c4f0faf0642ea81f6e021bf56b759958]
cluster com.youkeda.application.art.member.param--><g id="cluster_com.youkeda.application.art.member.param"><path d="M512.5,450 L822.5,450 A3.75,3.75 0 0 1 825,452.5 L832,472.4883 L832.5,472.4883 A2.5,2.5 0 0 1 835,474.9883 L835,909.5 A2.5,2.5 0 0 1 832.5,912 L512.5,912 A2.5,2.5 0 0 1 510,909.5 L510,452.5 A2.5,2.5 0 0 1 512.5,450 " style="stroke:#000000;stroke-width:1.5;fill:none;"/><line style="stroke:#000000;stroke-width:1.5;fill:none;" x1="510" x2="832" y1="472.4883" y2="472.4883"/><text fill="#000000" font-family="sans-serif" font-size="14" font-weight="bold" lengthAdjust="spacing" textLength="309" x="514" y="465.5352">com.youkeda.application.art.member.param</text></g><!--MD5=[ed0073de296ff6289039be097c6b722a]
cluster com.youkeda.model--><g id="cluster_com.youkeda.model"><path d="M499.5,154 L641.5,154 A3.75,3.75 0 0 1 644,156.5 L651,176.4883 L800.5,176.4883 A2.5,2.5 0 0 1 803,178.9883 L803,398.5 A2.5,2.5 0 0 1 800.5,401 L499.5,401 A2.5,2.5 0 0 1 497,398.5 L497,156.5 A2.5,2.5 0 0 1 499.5,154 " style="stroke:#000000;stroke-width:1.5;fill:none;"/><line style="stroke:#000000;stroke-width:1.5;fill:none;" x1="497" x2="651" y1="176.4883" y2="176.4883"/><text fill="#000000" font-family="sans-serif" font-size="14" font-weight="bold" lengthAdjust="spacing" textLength="141" x="501" y="169.5352">com.youkeda.model</text></g><!--MD5=[0d852700fdad35b7061d461d6907a324]
cluster java.io--><g id="cluster_java.io"><path d="M580.5,6 L627.5,6 A3.75,3.75 0 0 1 630,8.5 L637,28.4883 L719.5,28.4883 A2.5,2.5 0 0 1 722,30.9883 L722,102.5 A2.5,2.5 0 0 1 719.5,105 L580.5,105 A2.5,2.5 0 0 1 578,102.5 L578,8.5 A2.5,2.5 0 0 1 580.5,6 " style="stroke:#000000;stroke-width:1.5;fill:none;"/><line style="stroke:#000000;stroke-width:1.5;fill:none;" x1="578" x2="637" y1="28.4883" y2="28.4883"/><text fill="#000000" font-family="sans-serif" font-size="14" font-weight="bold" lengthAdjust="spacing" textLength="46" x="582" y="21.5352">java.io</text></g><!--MD5=[82518c96a43069d83d75a85d7f393109]
class com.youkeda.application.art.member.service.AccountService--><g id="elem_com.youkeda.application.art.member.service.AccountService"><rect codeLine="2" fill="#FFFFE0" height="262.3477" id="com.youkeda.application.art.member.service.AccountService" rx="2.5" ry="2.5" style="stroke:#B22222;stroke-width:0.5;" width="448" x="22" y="559.5"/><ellipse cx="189.75" cy="575.5" fill="#B4A7E5" rx="11" ry="11" style="stroke:#181818;stroke-width:1.0;"/><path d="M186.1777,571.7651 L186.1777,569.6069 L193.5571,569.6069 L193.5571,571.7651 L191.0918,571.7651 L191.0918,579.8418 L193.5571,579.8418 L193.5571,582 L186.1777,582 L186.1777,579.8418 L188.6431,579.8418 L188.6431,571.7651 Z " fill="#000000"/><text fill="#000000" font-family="sans-serif" font-size="14" font-style="italic" lengthAdjust="spacing" textLength="104" x="210.25" y="580.791">AccountService</text><line style="stroke:#B22222;stroke-width:0.5;" x1="23" x2="469" y1="591.5" y2="591.5"/><text fill="#000000" font-family="sans-serif" font-size="14" lengthAdjust="spacing" textLength="4" x="28" y="609.0352"> </text><line style="stroke:#B22222;stroke-width:1.0;" x1="23" x2="469" y1="615.9883" y2="615.9883"/><text fill="#000000" font-family="sans-serif" font-size="14" lengthAdjust="spacing" textLength="4" x="42" y="633.5234"> </text><text fill="#000000" font-family="sans-serif" font-size="14" lengthAdjust="spacing" textLength="172" x="42" y="650.0117">// 保存账户，创建或者修改</text><ellipse cx="33" cy="659.9648" fill="#84BE84" rx="3" ry="3" style="stroke:#038048;stroke-width:1.0;"/><text fill="#000000" font-family="sans-serif" font-size="14" lengthAdjust="spacing" textLength="156" x="42" y="666.5">Account save(Account)</text><text fill="#000000" font-family="sans-serif" font-size="14" lengthAdjust="spacing" textLength="4" x="42" y="682.9883"> </text><text fill="#000000" font-family="sans-serif" font-size="14" lengthAdjust="spacing" textLength="74" x="42" y="699.4766">// 删除账户</text><ellipse cx="33" cy="709.4297" fill="#84BE84" rx="3" ry="3" style="stroke:#038048;stroke-width:1.0;"/><text fill="#000000" font-family="sans-serif" font-size="14" lengthAdjust="spacing" textLength="126" x="42" y="715.9648">void delete(String)</text><text fill="#000000" font-family="sans-serif" font-size="14" lengthAdjust="spacing" textLength="4" x="42" y="732.4531"> </text><text fill="#000000" font-family="sans-serif" font-size="14" lengthAdjust="spacing" textLength="74" x="42" y="748.9414">// 获取用户</text><ellipse cx="33" cy="758.8945" fill="#84BE84" rx="3" ry="3" style="stroke:#038048;stroke-width:1.0;"/><text fill="#000000" font-family="sans-serif" font-size="14" lengthAdjust="spacing" textLength="318" x="42" y="765.4297">Paging&lt;Account&gt; query(AccountQueryParam)</text><text fill="#000000" font-family="sans-serif" font-size="14" lengthAdjust="spacing" textLength="4" x="42" y="781.918"> </text><text fill="#000000" font-family="sans-serif" font-size="14" lengthAdjust="spacing" textLength="200" x="42" y="798.4063">// 查询某企业下的用户，不分页</text><ellipse cx="33" cy="808.3594" fill="#84BE84" rx="3" ry="3" style="stroke:#038048;stroke-width:1.0;"/><text fill="#000000" font-family="sans-serif" font-size="14" lengthAdjust="spacing" textLength="422" x="42" y="814.8945">List&lt;Account&gt; query(String companyId, AccountQueryParam)</text></g><!--MD5=[03932687f11632c07375394ecc28ced1]
class com.youkeda.application.art.member.service.impl.AccountServiceImpl--><g id="elem_com.youkeda.application.art.member.service.impl.AccountServiceImpl"><rect codeLine="19" fill="#FFFFE0" height="163.418" id="com.youkeda.application.art.member.service.impl.AccountServiceImpl" rx="2.5" ry="2.5" style="stroke:#B22222;stroke-width:0.5;" width="286" x="103" y="996"/><ellipse cx="174.75" cy="1012" fill="#ADD1B2" rx="11" ry="11" style="stroke:#181818;stroke-width:1.0;"/><path d="M177.2231,1018.1431 Q176.6421,1018.4419 176.0029,1018.5913 Q175.3638,1018.7407 174.6582,1018.7407 Q172.1514,1018.7407 170.8315,1017.0889 Q169.5117,1015.437 169.5117,1012.3159 Q169.5117,1009.1865 170.8315,1007.5347 Q172.1514,1005.8828 174.6582,1005.8828 Q175.3638,1005.8828 176.0112,1006.0322 Q176.6587,1006.1816 177.2231,1006.4805 L177.2231,1009.2031 Q176.5923,1008.6221 175.9988,1008.3523 Q175.4053,1008.0825 174.7744,1008.0825 Q173.4297,1008.0825 172.7449,1009.1492 Q172.0601,1010.2158 172.0601,1012.3159 Q172.0601,1014.4077 172.7449,1015.4744 Q173.4297,1016.541 174.7744,1016.541 Q175.4053,1016.541 175.9988,1016.2712 Q176.5923,1016.0015 177.2231,1015.4204 Z " fill="#000000"/><text fill="#000000" font-family="sans-serif" font-size="14" lengthAdjust="spacing" textLength="134" x="195.25" y="1017.291">AccountServiceImpl</text><line style="stroke:#B22222;stroke-width:0.5;" x1="104" x2="388" y1="1028" y2="1028"/><text fill="#000000" font-family="sans-serif" font-size="14" lengthAdjust="spacing" textLength="4" x="123" y="1045.5352"> </text><rect fill="none" height="6" style="stroke:#C82930;stroke-width:1.0;" width="6" x="111" y="1052.4883"/><text fill="#000000" font-family="sans-serif" font-size="14" lengthAdjust="spacing" textLength="260" x="123" y="1062.0234">AccountRepository accountRepository</text><rect fill="none" height="6" style="stroke:#C82930;stroke-width:1.0;" width="6" x="111" y="1068.9766"/><text fill="#000000" font-family="sans-serif" font-size="14" lengthAdjust="spacing" textLength="229" x="123" y="1078.5117">MongoTemplate mongoTemplate</text><rect fill="none" height="6" style="stroke:#C82930;stroke-width:1.0;" width="6" x="111" y="1085.4648"/><text fill="#000000" font-family="sans-serif" font-size="14" lengthAdjust="spacing" textLength="161" x="123" y="1095">UserService userService</text><rect fill="none" height="6" style="stroke:#C82930;stroke-width:1.0;" width="6" x="111" y="1101.9531"/><text fill="#000000" font-family="sans-serif" font-size="14" lengthAdjust="spacing" textLength="211" x="123" y="1111.4883">UserRepository userRepository</text><text fill="#000000" font-family="sans-serif" font-size="14" lengthAdjust="spacing" textLength="4" x="123" y="1127.9766"> </text><line style="stroke:#B22222;stroke-width:1.0;" x1="104" x2="388" y1="1134.9297" y2="1134.9297"/><text fill="#000000" font-family="sans-serif" font-size="14" lengthAdjust="spacing" textLength="4" x="109" y="1152.4648"> </text></g><!--MD5=[5c0da5bd26910a3e8a01eae69b936a82]
class com.youkeda.application.art.member.repository.AccountRepository--><g id="elem_com.youkeda.application.art.member.repository.AccountRepository"><rect codeLine="30" fill="#FFFFE0" height="97.4648" id="com.youkeda.application.art.member.repository.AccountRepository" rx="2.5" ry="2.5" style="stroke:#B22222;stroke-width:0.5;" width="319" x="279.5" y="1259"/><ellipse cx="370.25" cy="1275" fill="#B4A7E5" rx="11" ry="11" style="stroke:#181818;stroke-width:1.0;"/><path d="M366.6777,1271.2651 L366.6777,1269.1069 L374.0571,1269.1069 L374.0571,1271.2651 L371.5918,1271.2651 L371.5918,1279.3418 L374.0571,1279.3418 L374.0571,1281.5 L366.6777,1281.5 L366.6777,1279.3418 L369.1431,1279.3418 L369.1431,1271.2651 Z " fill="#000000"/><text fill="#000000" font-family="sans-serif" font-size="14" font-style="italic" lengthAdjust="spacing" textLength="129" x="390.75" y="1280.291">AccountRepository</text><line style="stroke:#B22222;stroke-width:0.5;" x1="280.5" x2="597.5" y1="1291" y2="1291"/><line style="stroke:#B22222;stroke-width:0.5;" x1="280.5" x2="597.5" y1="1299" y2="1299"/><ellipse cx="290.5" cy="1310" fill="#84BE84" rx="3" ry="3" style="stroke:#038048;stroke-width:1.0;"/><text fill="#000000" font-family="sans-serif" font-size="14" lengthAdjust="spacing" textLength="293" x="299.5" y="1316.5352">List&lt;Account&gt; findByUserId(String userId);</text><text fill="#000000" font-family="sans-serif" font-size="14" lengthAdjust="spacing" textLength="4" x="299.5" y="1333.0234"> </text><ellipse cx="290.5" cy="1342.9766" fill="#84BE84" rx="3" ry="3" style="stroke:#038048;stroke-width:1.0;"/><text fill="#000000" font-family="sans-serif" font-size="14" lengthAdjust="spacing" textLength="233" x="299.5" y="1349.5117">Account findByOldId(String oldId);</text></g><!--MD5=[9b4ff873970f10bfdad59e416b4bc4cc]
class org.springframework.data.mongodb.repository.MongoRepository--><g id="elem_org.springframework.data.mongodb.repository.MongoRepository"><rect codeLine="36" fill="#F1F1F1" height="48" id="org.springframework.data.mongodb.repository.MongoRepository" rx="2.5" ry="2.5" style="stroke:#181818;stroke-width:0.5;" width="242" x="445" y="1053.5"/><ellipse cx="460" cy="1069.5" fill="#B4A7E5" rx="11" ry="11" style="stroke:#181818;stroke-width:1.0;"/><path d="M456.4277,1065.7651 L456.4277,1063.6069 L463.8071,1063.6069 L463.8071,1065.7651 L461.3418,1065.7651 L461.3418,1073.8418 L463.8071,1073.8418 L463.8071,1076 L456.4277,1076 L456.4277,1073.8418 L458.8931,1073.8418 L458.8931,1065.7651 Z " fill="#000000"/><text fill="#000000" font-family="sans-serif" font-size="14" font-style="italic" lengthAdjust="spacing" textLength="121" x="474" y="1074.791">MongoRepository</text><rect fill="#FFFFFF" height="16.1328" style="stroke:#000000;stroke-width:1.0;stroke-dasharray:2.0,2.0;" width="87" x="603" y="1050.5"/><text fill="#000000" font-family="sans-serif" font-size="12" font-style="italic" lengthAdjust="spacing" textLength="85" x="604" y="1063.1016">Account, String</text><line style="stroke:#181818;stroke-width:0.5;" x1="446" x2="686" y1="1085.5" y2="1085.5"/><line style="stroke:#181818;stroke-width:0.5;" x1="446" x2="686" y1="1093.5" y2="1093.5"/></g><!--MD5=[31f26fd0cf212ec0e42992116661f690]
class com.youkeda.application.art.member.param.AccountQueryParam--><g id="elem_com.youkeda.application.art.member.param.AccountQueryParam"><rect codeLine="39" fill="#F1F1F1" height="410.7422" id="com.youkeda.application.art.member.param.AccountQueryParam" rx="2.5" ry="2.5" style="stroke:#181818;stroke-width:0.5;" width="248" x="526" y="485"/><ellipse cx="575.75" cy="501" fill="#ADD1B2" rx="11" ry="11" style="stroke:#181818;stroke-width:1.0;"/><path d="M578.2231,507.1431 Q577.6421,507.4419 577.0029,507.5913 Q576.3638,507.7407 575.6582,507.7407 Q573.1514,507.7407 571.8315,506.0889 Q570.5117,504.437 570.5117,501.3159 Q570.5117,498.1865 571.8315,496.5347 Q573.1514,494.8828 575.6582,494.8828 Q576.3638,494.8828 577.0112,495.0322 Q577.6587,495.1816 578.2231,495.4805 L578.2231,498.2031 Q577.5923,497.6221 576.9988,497.3523 Q576.4053,497.0825 575.7744,497.0825 Q574.4297,497.0825 573.7449,498.1492 Q573.0601,499.2158 573.0601,501.3159 Q573.0601,503.4077 573.7449,504.4744 Q574.4297,505.541 575.7744,505.541 Q576.4053,505.541 576.9988,505.2712 Q577.5923,505.0015 578.2231,504.4204 Z " fill="#000000"/><text fill="#000000" font-family="sans-serif" font-size="14" lengthAdjust="spacing" textLength="140" x="596.25" y="506.291">AccountQueryParam</text><line style="stroke:#181818;stroke-width:0.5;" x1="527" x2="773" y1="517" y2="517"/><rect fill="none" height="6" style="stroke:#C82930;stroke-width:1.0;" width="6" x="534" y="525"/><text fill="#000000" font-family="sans-serif" font-size="14" lengthAdjust="spacing" textLength="222" x="546" y="534.5352">static final long serialVersionUID</text><text fill="#000000" font-family="sans-serif" font-size="14" lengthAdjust="spacing" textLength="4" x="546" y="551.0234"> </text><rect fill="none" height="6" style="stroke:#C82930;stroke-width:1.0;" width="6" x="534" y="557.9766"/><text fill="#000000" font-family="sans-serif" font-size="14" lengthAdjust="spacing" textLength="83" x="546" y="567.5117">String name</text><text fill="#000000" font-family="sans-serif" font-size="14" lengthAdjust="spacing" textLength="4" x="546" y="584"> </text><text fill="#000000" font-family="sans-serif" font-size="14" lengthAdjust="spacing" textLength="74" x="546" y="600.4883">// 用户名称</text><rect fill="none" height="6" style="stroke:#C82930;stroke-width:1.0;" width="6" x="534" y="607.4414"/><text fill="#000000" font-family="sans-serif" font-size="14" lengthAdjust="spacing" textLength="114" x="546" y="616.9766">String userName</text><text fill="#000000" font-family="sans-serif" font-size="14" lengthAdjust="spacing" textLength="4" x="546" y="633.4648"> </text><rect fill="none" height="6" style="stroke:#C82930;stroke-width:1.0;" width="6" x="534" y="640.418"/><text fill="#000000" font-family="sans-serif" font-size="14" lengthAdjust="spacing" textLength="92" x="546" y="649.9531">String mobile</text><text fill="#000000" font-family="sans-serif" font-size="14" lengthAdjust="spacing" textLength="4" x="546" y="666.4414"> </text><rect fill="none" height="6" style="stroke:#C82930;stroke-width:1.0;" width="6" x="534" y="673.3945"/><text fill="#000000" font-family="sans-serif" font-size="14" lengthAdjust="spacing" textLength="144" x="546" y="682.9297">List&lt;String&gt; mobiles</text><text fill="#000000" font-family="sans-serif" font-size="14" lengthAdjust="spacing" textLength="4" x="546" y="699.418"> </text><rect fill="none" height="6" style="stroke:#C82930;stroke-width:1.0;" width="6" x="534" y="706.3711"/><text fill="#000000" font-family="sans-serif" font-size="14" lengthAdjust="spacing" textLength="112" x="546" y="715.9063">String accountId</text><text fill="#000000" font-family="sans-serif" font-size="14" lengthAdjust="spacing" textLength="4" x="546" y="732.3945"> </text><text fill="#000000" font-family="sans-serif" font-size="14" lengthAdjust="spacing" textLength="74" x="546" y="748.8828">// 账户集合</text><rect fill="none" height="6" style="stroke:#C82930;stroke-width:1.0;" width="6" x="534" y="755.8359"/><text fill="#000000" font-family="sans-serif" font-size="14" lengthAdjust="spacing" textLength="164" x="546" y="765.3711">List&lt;String&gt; accountIds</text><text fill="#000000" font-family="sans-serif" font-size="14" lengthAdjust="spacing" textLength="4" x="546" y="781.8594"> </text><text fill="#000000" font-family="sans-serif" font-size="14" lengthAdjust="spacing" textLength="59" x="546" y="798.3477">// 用户id</text><rect fill="none" height="6" style="stroke:#C82930;stroke-width:1.0;" width="6" x="534" y="805.3008"/><text fill="#000000" font-family="sans-serif" font-size="14" lengthAdjust="spacing" textLength="88" x="546" y="814.8359">String userId</text><text fill="#000000" font-family="sans-serif" font-size="14" lengthAdjust="spacing" textLength="4" x="546" y="831.3242"> </text><rect fill="none" height="6" style="stroke:#C82930;stroke-width:1.0;" width="6" x="534" y="838.2773"/><text fill="#000000" font-family="sans-serif" font-size="14" lengthAdjust="spacing" textLength="120" x="546" y="847.8125">String companyId</text><text fill="#000000" font-family="sans-serif" font-size="14" lengthAdjust="spacing" textLength="4" x="546" y="864.3008"> </text><rect fill="none" height="6" style="stroke:#C82930;stroke-width:1.0;" width="6" x="534" y="871.2539"/><text fill="#000000" font-family="sans-serif" font-size="14" lengthAdjust="spacing" textLength="143" x="546" y="880.7891">AccountStatus status</text><line style="stroke:#181818;stroke-width:0.5;" x1="527" x2="773" y1="887.7422" y2="887.7422"/></g><!--MD5=[ca005f356a0fca38d62a5a27a11f9e56]
class com.youkeda.model.BasePagingParam--><g id="elem_com.youkeda.model.BasePagingParam"><rect codeLine="64" fill="#F1F1F1" height="196.3945" id="com.youkeda.model.BasePagingParam" rx="2.5" ry="2.5" style="stroke:#181818;stroke-width:0.5;" width="273" x="513.5" y="189"/><ellipse cx="528.5" cy="205" fill="#ADD1B2" rx="11" ry="11" style="stroke:#181818;stroke-width:1.0;"/><path d="M530.9731,211.1431 Q530.3921,211.4419 529.7529,211.5913 Q529.1138,211.7407 528.4082,211.7407 Q525.9014,211.7407 524.5815,210.0889 Q523.2617,208.437 523.2617,205.3159 Q523.2617,202.1865 524.5815,200.5347 Q525.9014,198.8828 528.4082,198.8828 Q529.1138,198.8828 529.7612,199.0322 Q530.4087,199.1816 530.9731,199.4805 L530.9731,202.2031 Q530.3423,201.6221 529.7488,201.3523 Q529.1553,201.0825 528.5244,201.0825 Q527.1797,201.0825 526.4949,202.1492 Q525.8101,203.2158 525.8101,205.3159 Q525.8101,207.4077 526.4949,208.4744 Q527.1797,209.541 528.5244,209.541 Q529.1553,209.541 529.7488,209.2712 Q530.3423,209.0015 530.9731,208.4204 Z " fill="#000000"/><text fill="#000000" font-family="sans-serif" font-size="14" lengthAdjust="spacing" textLength="121" x="542.5" y="210.291">BasePagingParam</text><rect fill="#FFFFFF" height="16.1328" style="stroke:#000000;stroke-width:1.0;stroke-dasharray:2.0,2.0;" width="118" x="671.5" y="186"/><text fill="#000000" font-family="sans-serif" font-size="12" font-style="italic" lengthAdjust="spacing" textLength="116" x="672.5" y="198.6016">AccountQueryParam</text><line style="stroke:#181818;stroke-width:0.5;" x1="514.5" x2="785.5" y1="221" y2="221"/><text fill="#000000" font-family="sans-serif" font-size="14" lengthAdjust="spacing" textLength="46" x="533.5" y="238.5352">// 页数</text><rect fill="none" height="6" style="stroke:#C82930;stroke-width:1.0;" width="6" x="521.5" y="245.4883"/><text fill="#000000" font-family="sans-serif" font-size="14" lengthAdjust="spacing" textLength="124" x="533.5" y="255.0234">int pagination = 0</text><text fill="#000000" font-family="sans-serif" font-size="14" lengthAdjust="spacing" textLength="4" x="533.5" y="271.5117"> </text><text fill="#000000" font-family="sans-serif" font-size="14" lengthAdjust="spacing" textLength="74" x="533.5" y="288">// 每页数量</text><rect fill="none" height="6" style="stroke:#C82930;stroke-width:1.0;" width="6" x="521.5" y="294.9531"/><text fill="#000000" font-family="sans-serif" font-size="14" lengthAdjust="spacing" textLength="121" x="533.5" y="304.4883">int pageSize = 15</text><text fill="#000000" font-family="sans-serif" font-size="14" lengthAdjust="spacing" textLength="4" x="533.5" y="320.9766"> </text><line style="stroke:#181818;stroke-width:1.0;" x1="514.5" x2="785.5" y1="327.9297" y2="327.9297"/><text fill="#000000" font-family="sans-serif" font-size="14" lengthAdjust="spacing" textLength="4" x="533.5" y="345.4648"> </text><ellipse cx="524.5" cy="355.418" fill="#84BE84" rx="3" ry="3" style="stroke:#038048;stroke-width:1.0;"/><text fill="#000000" font-family="sans-serif" font-size="14" lengthAdjust="spacing" textLength="212" x="533.5" y="361.9531">T setPagination(int pagination)</text><text fill="#000000" font-family="sans-serif" font-size="14" lengthAdjust="spacing" textLength="4" x="533.5" y="378.4414"> </text></g><!--MD5=[5a5af9b0547913863cbe0ddf55a9ab5e]
class java.io.Serializable--><g id="elem_java.io.Serializable"><rect fill="#F1F1F1" height="48" id="java.io.Serializable" rx="2.5" ry="2.5" style="stroke:#181818;stroke-width:0.5;" width="111" x="594.5" y="41"/><ellipse cx="609.5" cy="57" fill="#ADD1B2" rx="11" ry="11" style="stroke:#181818;stroke-width:1.0;"/><path d="M611.9731,63.1431 Q611.3921,63.4419 610.7529,63.5913 Q610.1138,63.7407 609.4082,63.7407 Q606.9014,63.7407 605.5815,62.0889 Q604.2617,60.437 604.2617,57.3159 Q604.2617,54.1865 605.5815,52.5347 Q606.9014,50.8828 609.4082,50.8828 Q610.1138,50.8828 610.7612,51.0322 Q611.4087,51.1816 611.9731,51.4805 L611.9731,54.2031 Q611.3423,53.6221 610.7488,53.3523 Q610.1553,53.0825 609.5244,53.0825 Q608.1797,53.0825 607.4949,54.1492 Q606.8101,55.2158 606.8101,57.3159 Q606.8101,59.4077 607.4949,60.4744 Q608.1797,61.541 609.5244,61.541 Q610.1553,61.541 610.7488,61.2712 Q611.3423,61.0015 611.9731,60.4204 Z " fill="#000000"/><text fill="#000000" font-family="sans-serif" font-size="14" lengthAdjust="spacing" textLength="79" x="623.5" y="62.291">Serializable</text><line style="stroke:#181818;stroke-width:0.5;" x1="595.5" x2="704.5" y1="73" y2="73"/><line style="stroke:#181818;stroke-width:0.5;" x1="595.5" x2="704.5" y1="81" y2="81"/></g><!--MD5=[db1648b04998170d90764cac28987883]
reverse link java.io.Serializable to com.youkeda.model.BasePagingParam--><g id="link_java.io.Serializable_com.youkeda.model.BasePagingParam"><path codeLine="77" d="M650,109.23 C650,132.03 650,160.99 650,188.83 " fill="none" id="java.io.Serializable-backto-com.youkeda.model.BasePagingParam" style="stroke:#181818;stroke-width:1.0;stroke-dasharray:7.0,7.0;"/><polygon fill="none" points="643,109.13,650,89.13,657,109.13,643,109.13" style="stroke:#181818;stroke-width:1.0;"/><text fill="#000000" font-family="sans-serif" font-size="13" lengthAdjust="spacing" textLength="74" x="651" y="134.5684">implements</text></g><!--MD5=[82fdba1576cc3336a443c4ffa5399891]
reverse link com.youkeda.application.art.member.service.AccountService to com.youkeda.application.art.member.service.impl.AccountServiceImpl--><g id="link_com.youkeda.application.art.member.service.AccountService_com.youkeda.application.art.member.service.impl.AccountServiceImpl"><path codeLine="79" d="M246,841.83 C246,894.32 246,951.22 246,995.85 " fill="none" id="com.youkeda.application.art.member.service.AccountService-backto-com.youkeda.application.art.member.service.impl.AccountServiceImpl" style="stroke:#181818;stroke-width:1.0;stroke-dasharray:7.0,7.0;"/><polygon fill="none" points="239,841.58,246,821.58,253,841.57,239,841.58" style="stroke:#181818;stroke-width:1.0;"/><text fill="#000000" font-family="sans-serif" font-size="13" lengthAdjust="spacing" textLength="74" x="247" y="941.5684">implements</text></g><!--MD5=[5230e1f1efb500f214b79c8b90cdae7b]
link com.youkeda.application.art.member.service.AccountService to com.youkeda.application.art.member.param.AccountQueryParam--><g id="link_com.youkeda.application.art.member.service.AccountService_com.youkeda.application.art.member.param.AccountQueryParam"><path codeLine="80" d="M470.09,690.5 C486.97,690.5 503.85,690.5 520.73,690.5 " fill="none" id="com.youkeda.application.art.member.service.AccountService-to-com.youkeda.application.art.member.param.AccountQueryParam" style="stroke:#181818;stroke-width:1.0;stroke-dasharray:7.0,7.0;"/><polygon fill="#181818" points="525.96,690.5,516.96,686.5,520.96,690.5,516.96,694.5,525.96,690.5" style="stroke:#181818;stroke-width:1.0;"/></g><!--MD5=[d5b73a2b4a7cbebc49c19e77aa33e7ac]
link com.youkeda.application.art.member.service.impl.AccountServiceImpl to com.youkeda.application.art.member.repository.AccountRepository--><g id="link_com.youkeda.application.art.member.service.impl.AccountServiceImpl_com.youkeda.application.art.member.repository.AccountRepository"><path codeLine="81" d="M314.32,1159.21 C341.19,1190.95 371.26,1226.47 395.13,1254.68 " fill="none" id="com.youkeda.application.art.member.service.impl.AccountServiceImpl-to-com.youkeda.application.art.member.repository.AccountRepository" style="stroke:#181818;stroke-width:1.0;stroke-dasharray:7.0,7.0;"/><polygon fill="#181818" points="398.61,1258.78,395.8485,1249.3262,395.3796,1254.9636,389.7423,1254.4948,398.61,1258.78" style="stroke:#181818;stroke-width:1.0;"/></g><!--MD5=[0500ffe5aa3a4805e591b007b5f5d340]
reverse link org.springframework.data.mongodb.repository.MongoRepository to com.youkeda.application.art.member.repository.AccountRepository--><g id="link_org.springframework.data.mongodb.repository.MongoRepository_com.youkeda.application.art.member.repository.AccountRepository"><path codeLine="83" d="M543.27,1119.31 C521.48,1158.42 488.59,1217.47 465.6,1258.75 " fill="none" id="org.springframework.data.mongodb.repository.MongoRepository-backto-com.youkeda.application.art.member.repository.AccountRepository" style="stroke:#181818;stroke-width:1.0;"/><polygon fill="none" points="537.28,1115.68,553.12,1101.62,549.51,1122.5,537.28,1115.68" style="stroke:#181818;stroke-width:1.0;"/><text fill="#000000" font-family="sans-serif" font-size="13" lengthAdjust="spacing" textLength="50" x="503" y="1204.5684">extends</text></g><!--MD5=[788eff0382211ada5ac4f9b17b920630]
reverse link com.youkeda.model.BasePagingParam to com.youkeda.application.art.member.param.AccountQueryParam--><g id="link_com.youkeda.model.BasePagingParam_com.youkeda.application.art.member.param.AccountQueryParam"><path codeLine="85" d="M650,405.27 C650,430.36 650,457.57 650,484.87 " fill="none" id="com.youkeda.model.BasePagingParam-backto-com.youkeda.application.art.member.param.AccountQueryParam" style="stroke:#181818;stroke-width:1.0;"/><polygon fill="none" points="643,405.19,650,385.19,657,405.19,643,405.19" style="stroke:#181818;stroke-width:1.0;"/><text fill="#000000" font-family="sans-serif" font-size="13" lengthAdjust="spacing" textLength="50" x="651" y="430.5684">extends</text></g><!--MD5=[674e92614e6eeac433e061d6c9e2b236]
@startuml

interface com.youkeda.application.art.member.service.AccountService #LightYellow##FireBrick {

- - - -

// 保存账户，创建或者修改
+ Account save(Account)

// 删除账户
+ void delete(String)

// 获取用户
+ Paging<Account> query(AccountQueryParam)

// 查询某企业下的用户，不分页
+ List<Account> query(String companyId, AccountQueryParam)
}

class com.youkeda.application.art.member.service.impl.AccountServiceImpl #LightYellow##FireBrick {

- AccountRepository accountRepository
- MongoTemplate mongoTemplate
- UserService userService
- UserRepository userRepository

- - - -

}

interface com.youkeda.application.art.member.repository.AccountRepository #LightYellow##FireBrick {
+ List<Account> findByUserId(String userId);

+ Account findByOldId(String oldId);
}

interface org.springframework.data.mongodb.repository.MongoRepository <Account, String> {
}

class com.youkeda.application.art.member.param.AccountQueryParam {
- static final long serialVersionUID

- String name

// 用户名称
- String userName

- String mobile

- List<String> mobiles

- String accountId

// 账户集合
- List<String> accountIds

// 用户id
- String userId

- String companyId

- AccountStatus status
}

class com.youkeda.model.BasePagingParam <AccountQueryParam> {
// 页数
- int pagination = 0

// 每页数量
- int pageSize = 15

- - - -

+ T setPagination(int pagination)

}

com.youkeda.model.BasePagingParam .up.|> java.io.Serializable : implements

com.youkeda.application.art.member.service.AccountService <|.. com.youkeda.application.art.member.service.impl.AccountServiceImpl : implements
com.youkeda.application.art.member.service.AccountService .right.> com.youkeda.application.art.member.param.AccountQueryParam
com.youkeda.application.art.member.service.impl.AccountServiceImpl ..> com.youkeda.application.art.member.repository.AccountRepository

com.youkeda.application.art.member.repository.AccountRepository -up-|> org.springframework.data.mongodb.repository.MongoRepository : extends

com.youkeda.application.art.member.param.AccountQueryParam -up-|> com.youkeda.model.BasePagingParam : extends

@enduml

PlantUML version 1.2022.6(Wed Jun 22 01:34:49 CST 2022)
(GPL source distribution)
Java Runtime: OpenJDK Runtime Environment
JVM: OpenJDK 64-Bit Server VM
Default Encoding: UTF-8
Language: zh
Country: CN
--></g></svg>