<?xml version="1.0" encoding="UTF-8" standalone="no"?><svg xmlns="http://www.w3.org/2000/svg" xmlns:xlink="http://www.w3.org/1999/xlink" contentStyleType="text/css" height="1579px" preserveAspectRatio="none" style="width:1104px;height:1579px;background:#FFFFFF;" version="1.1" viewBox="0 0 1104 1579" width="1104px" zoomAndPan="magnify"><defs/><g><!--MD5=[7b078e134de86c4042c37f938a8da126]
cluster com.youkeda.application.art.article.param--><g id="cluster_com.youkeda.application.art.article.param"><path d="M195.5,138 L491.5,138 A3.75,3.75 0 0 1 494,140.5 L501,160.4883 L756.5,160.4883 A2.5,2.5 0 0 1 759,162.9883 L759,795.5 A2.5,2.5 0 0 1 756.5,798 L195.5,798 A2.5,2.5 0 0 1 193,795.5 L193,140.5 A2.5,2.5 0 0 1 195.5,138 " style="stroke:#000000;stroke-width:1.5;fill:none;"/><line style="stroke:#000000;stroke-width:1.5;fill:none;" x1="193" x2="501" y1="160.4883" y2="160.4883"/><text fill="#000000" font-family="sans-serif" font-size="14" font-weight="bold" lengthAdjust="spacing" textLength="295" x="197" y="153.5352">com.youkeda.application.art.article.param</text></g><!--MD5=[28ee9c227e5dbd56bf61ddf49b5d38c6]
cluster com.youkeda.application.art.article.service--><g id="cluster_com.youkeda.application.art.article.service"><path d="M8.5,847 L309.5,847 A3.75,3.75 0 0 1 312,849.5 L319,869.4883 L701.5,869.4883 A2.5,2.5 0 0 1 704,871.9883 L704,1372.5 A2.5,2.5 0 0 1 701.5,1375 L8.5,1375 A2.5,2.5 0 0 1 6,1372.5 L6,849.5 A2.5,2.5 0 0 1 8.5,847 " style="stroke:#000000;stroke-width:1.5;fill:none;"/><line style="stroke:#000000;stroke-width:1.5;fill:none;" x1="6" x2="319" y1="869.4883" y2="869.4883"/><text fill="#000000" font-family="sans-serif" font-size="14" font-weight="bold" lengthAdjust="spacing" textLength="300" x="10" y="862.5352">com.youkeda.application.art.article.service</text></g><!--MD5=[e0ef6ae6bcb61811f02af53fe0239805]
cluster com.youkeda.application.art.article.service.impl--><g id="cluster_com.youkeda.application.art.article.service.impl"><path d="M566.5,1424 L903.5,1424 A3.75,3.75 0 0 1 906,1426.5 L913,1446.4883 L913.5,1446.4883 A2.5,2.5 0 0 1 916,1448.9883 L916,1569.5 A2.5,2.5 0 0 1 913.5,1572 L566.5,1572 A2.5,2.5 0 0 1 564,1569.5 L564,1426.5 A2.5,2.5 0 0 1 566.5,1424 " style="stroke:#000000;stroke-width:1.5;fill:none;"/><line style="stroke:#000000;stroke-width:1.5;fill:none;" x1="564" x2="913" y1="1446.4883" y2="1446.4883"/><text fill="#000000" font-family="sans-serif" font-size="14" font-weight="bold" lengthAdjust="spacing" textLength="336" x="568" y="1439.5352">com.youkeda.application.art.article.service.impl</text></g><!--MD5=[8b91d1bd361bddd06127e29a1c000366]
cluster com.youkeda.application.art.article.model--><g id="cluster_com.youkeda.application.art.article.model"><path d="M730.5,1020.5 L1026.5,1020.5 A3.75,3.75 0 0 1 1029,1023 L1036,1042.9883 L1094.5,1042.9883 A2.5,2.5 0 0 1 1097,1045.4883 L1097,1199 A2.5,2.5 0 0 1 1094.5,1201.5 L730.5,1201.5 A2.5,2.5 0 0 1 728,1199 L728,1023 A2.5,2.5 0 0 1 730.5,1020.5 " style="stroke:#000000;stroke-width:1.5;fill:none;"/><line style="stroke:#000000;stroke-width:1.5;fill:none;" x1="728" x2="1036" y1="1042.9883" y2="1042.9883"/><text fill="#000000" font-family="sans-serif" font-size="14" font-weight="bold" lengthAdjust="spacing" textLength="295" x="732" y="1036.0352">com.youkeda.application.art.article.model</text></g><!--MD5=[ed0073de296ff6289039be097c6b722a]
cluster com.youkeda.model--><g id="cluster_com.youkeda.model"><path d="M436.5,6 L578.5,6 A3.75,3.75 0 0 1 581,8.5 L588,28.4883 L617.5,28.4883 A2.5,2.5 0 0 1 620,30.9883 L620,102.5 A2.5,2.5 0 0 1 617.5,105 L436.5,105 A2.5,2.5 0 0 1 434,102.5 L434,8.5 A2.5,2.5 0 0 1 436.5,6 " style="stroke:#000000;stroke-width:1.5;fill:none;"/><line style="stroke:#000000;stroke-width:1.5;fill:none;" x1="434" x2="588" y1="28.4883" y2="28.4883"/><text fill="#000000" font-family="sans-serif" font-size="14" font-weight="bold" lengthAdjust="spacing" textLength="141" x="438" y="21.5352">com.youkeda.model</text></g><!--MD5=[5657d8680376392e1cfca8c11a550c7b]
class com.youkeda.application.art.article.param.QueryArticlePagingParam--><g id="elem_com.youkeda.application.art.article.param.QueryArticlePagingParam"><rect codeLine="1" fill="#F1F1F1" height="608.6016" id="com.youkeda.application.art.article.param.QueryArticlePagingParam" rx="2.5" ry="2.5" style="stroke:#181818;stroke-width:0.5;" width="207" x="535.5" y="173"/><ellipse cx="550.5" cy="189" fill="#ADD1B2" rx="11" ry="11" style="stroke:#181818;stroke-width:1.0;"/><path d="M552.9731,195.1431 Q552.3921,195.4419 551.7529,195.5913 Q551.1138,195.7407 550.4082,195.7407 Q547.9014,195.7407 546.5815,194.0889 Q545.2617,192.437 545.2617,189.3159 Q545.2617,186.1865 546.5815,184.5347 Q547.9014,182.8828 550.4082,182.8828 Q551.1138,182.8828 551.7612,183.0322 Q552.4087,183.1816 552.9731,183.4805 L552.9731,186.2031 Q552.3423,185.6221 551.7488,185.3523 Q551.1553,185.0825 550.5244,185.0825 Q549.1797,185.0825 548.4949,186.1492 Q547.8101,187.2158 547.8101,189.3159 Q547.8101,191.4077 548.4949,192.4744 Q549.1797,193.541 550.5244,193.541 Q551.1553,193.541 551.7488,193.2712 Q552.3423,193.0015 552.9731,192.4204 Z " fill="#000000"/><text fill="#000000" font-family="sans-serif" font-size="14" lengthAdjust="spacing" textLength="175" x="564.5" y="194.291">QueryArticlePagingParam</text><line style="stroke:#181818;stroke-width:0.5;" x1="536.5" x2="741.5" y1="205" y2="205"/><text fill="#000000" font-family="sans-serif" font-size="14" lengthAdjust="spacing" textLength="74" x="555.5" y="222.5352">// 文章类型</text><rect fill="none" height="6" style="stroke:#C82930;stroke-width:1.0;" width="6" x="543.5" y="229.4883"/><text fill="#000000" font-family="sans-serif" font-size="14" lengthAdjust="spacing" textLength="149" x="555.5" y="239.0234">String articleCategory</text><text fill="#000000" font-family="sans-serif" font-size="14" lengthAdjust="spacing" textLength="4" x="555.5" y="255.5117"> </text><text fill="#000000" font-family="sans-serif" font-size="14" lengthAdjust="spacing" textLength="74" x="555.5" y="272">// 排序类型</text><rect fill="none" height="6" style="stroke:#C82930;stroke-width:1.0;" width="6" x="543.5" y="278.9531"/><text fill="#000000" font-family="sans-serif" font-size="14" lengthAdjust="spacing" textLength="178" x="555.5" y="288.4883">OrderByType orderByType</text><text fill="#000000" font-family="sans-serif" font-size="14" lengthAdjust="spacing" textLength="4" x="555.5" y="304.9766"> </text><text fill="#000000" font-family="sans-serif" font-size="14" lengthAdjust="spacing" textLength="60" x="555.5" y="321.4648">// 关键字</text><rect fill="none" height="6" style="stroke:#C82930;stroke-width:1.0;" width="6" x="543.5" y="328.418"/><text fill="#000000" font-family="sans-serif" font-size="14" lengthAdjust="spacing" textLength="104" x="555.5" y="337.9531">String keyWord</text><text fill="#000000" font-family="sans-serif" font-size="14" lengthAdjust="spacing" textLength="4" x="555.5" y="354.4414"> </text><text fill="#000000" font-family="sans-serif" font-size="14" lengthAdjust="spacing" textLength="74" x="555.5" y="370.9297">// 文章标题</text><rect fill="none" height="6" style="stroke:#C82930;stroke-width:1.0;" width="6" x="543.5" y="377.8828"/><text fill="#000000" font-family="sans-serif" font-size="14" lengthAdjust="spacing" textLength="71" x="555.5" y="387.418">String title</text><text fill="#000000" font-family="sans-serif" font-size="14" lengthAdjust="spacing" textLength="4" x="555.5" y="403.9063"> </text><text fill="#000000" font-family="sans-serif" font-size="14" lengthAdjust="spacing" textLength="59" x="555.5" y="420.3945">// 公司id</text><rect fill="none" height="6" style="stroke:#C82930;stroke-width:1.0;" width="6" x="543.5" y="427.3477"/><text fill="#000000" font-family="sans-serif" font-size="14" lengthAdjust="spacing" textLength="120" x="555.5" y="436.8828">String companyId</text><text fill="#000000" font-family="sans-serif" font-size="14" lengthAdjust="spacing" textLength="4" x="555.5" y="453.3711"> </text><text fill="#000000" font-family="sans-serif" font-size="14" lengthAdjust="spacing" textLength="46" x="555.5" y="469.8594">// 状态</text><rect fill="none" height="6" style="stroke:#C82930;stroke-width:1.0;" width="6" x="543.5" y="476.8125"/><text fill="#000000" font-family="sans-serif" font-size="14" lengthAdjust="spacing" textLength="86" x="555.5" y="486.3477">String status</text><text fill="#000000" font-family="sans-serif" font-size="14" lengthAdjust="spacing" textLength="4" x="555.5" y="502.8359"> </text><text fill="#000000" font-family="sans-serif" font-size="14" lengthAdjust="spacing" textLength="46" x="555.5" y="519.3242">// 作者</text><rect fill="none" height="6" style="stroke:#C82930;stroke-width:1.0;" width="6" x="543.5" y="526.2773"/><text fill="#000000" font-family="sans-serif" font-size="14" lengthAdjust="spacing" textLength="91" x="555.5" y="535.8125">String author</text><text fill="#000000" font-family="sans-serif" font-size="14" lengthAdjust="spacing" textLength="4" x="555.5" y="552.3008"> </text><text fill="#000000" font-family="sans-serif" font-size="14" lengthAdjust="spacing" textLength="130" x="555.5" y="568.7891">// 根据多个作者查询</text><rect fill="none" height="6" style="stroke:#C82930;stroke-width:1.0;" width="6" x="543.5" y="575.7422"/><text fill="#000000" font-family="sans-serif" font-size="14" lengthAdjust="spacing" textLength="143" x="555.5" y="585.2773">List&lt;String&gt; authors</text><text fill="#000000" font-family="sans-serif" font-size="14" lengthAdjust="spacing" textLength="4" x="555.5" y="601.7656"> </text><text fill="#000000" font-family="sans-serif" font-size="14" lengthAdjust="spacing" textLength="102" x="555.5" y="618.2539">// 只查询自己的</text><rect fill="none" height="6" style="stroke:#C82930;stroke-width:1.0;" width="6" x="543.5" y="625.207"/><text fill="#000000" font-family="sans-serif" font-size="14" lengthAdjust="spacing" textLength="112" x="555.5" y="634.7422">boolean filterMe</text><text fill="#000000" font-family="sans-serif" font-size="14" lengthAdjust="spacing" textLength="4" x="555.5" y="651.2305"> </text><text fill="#000000" font-family="sans-serif" font-size="14" lengthAdjust="spacing" textLength="63" x="555.5" y="667.7188">// 账户 id</text><rect fill="none" height="6" style="stroke:#C82930;stroke-width:1.0;" width="6" x="543.5" y="674.6719"/><text fill="#000000" font-family="sans-serif" font-size="14" lengthAdjust="spacing" textLength="112" x="555.5" y="684.207">String accountId</text><text fill="#000000" font-family="sans-serif" font-size="14" lengthAdjust="spacing" textLength="4" x="555.5" y="700.6953"> </text><text fill="#000000" font-family="sans-serif" font-size="14" lengthAdjust="spacing" textLength="130" x="555.5" y="717.1836">// 是否需要文章详情</text><rect fill="none" height="6" style="stroke:#C82930;stroke-width:1.0;" width="6" x="543.5" y="724.1367"/><text fill="#000000" font-family="sans-serif" font-size="14" lengthAdjust="spacing" textLength="179" x="555.5" y="733.6719">boolean showArticleDetail</text><text fill="#000000" font-family="sans-serif" font-size="14" lengthAdjust="spacing" textLength="4" x="555.5" y="750.1602"> </text><line style="stroke:#181818;stroke-width:1.0;" x1="536.5" x2="741.5" y1="757.1133" y2="757.1133"/><line style="stroke:#181818;stroke-width:1.0;" x1="536.5" x2="741.5" y1="759.1133" y2="759.1133"/><text fill="#000000" font-family="sans-serif" font-size="14" lengthAdjust="spacing" textLength="4" x="541.5" y="774.6484"> </text></g><!--MD5=[40043a75fa2a04bb22f52353b5d375b7]
class com.youkeda.application.art.article.param.QueryArticleRefCategoryPagingParam--><g id="elem_com.youkeda.application.art.article.param.QueryArticleRefCategoryPagingParam"><rect codeLine="69" fill="#F1F1F1" height="163.418" id="com.youkeda.application.art.article.param.QueryArticleRefCategoryPagingParam" rx="2.5" ry="2.5" style="stroke:#181818;stroke-width:0.5;" width="291" x="209.5" y="396"/><ellipse cx="224.5" cy="412" fill="#ADD1B2" rx="11" ry="11" style="stroke:#181818;stroke-width:1.0;"/><path d="M226.9731,418.1431 Q226.3921,418.4419 225.7529,418.5913 Q225.1138,418.7407 224.4082,418.7407 Q221.9014,418.7407 220.5815,417.0889 Q219.2617,415.437 219.2617,412.3159 Q219.2617,409.1865 220.5815,407.5347 Q221.9014,405.8828 224.4082,405.8828 Q225.1138,405.8828 225.7612,406.0322 Q226.4087,406.1816 226.9731,406.4805 L226.9731,409.2031 Q226.3423,408.6221 225.7488,408.3523 Q225.1553,408.0825 224.5244,408.0825 Q223.1797,408.0825 222.4949,409.1492 Q221.8101,410.2158 221.8101,412.3159 Q221.8101,414.4077 222.4949,415.4744 Q223.1797,416.541 224.5244,416.541 Q225.1553,416.541 225.7488,416.2712 Q226.3423,416.0015 226.9731,415.4204 Z " fill="#000000"/><text fill="#000000" font-family="sans-serif" font-size="14" lengthAdjust="spacing" textLength="259" x="238.5" y="417.291">QueryArticleRefCategoryPagingParam</text><line style="stroke:#181818;stroke-width:0.5;" x1="210.5" x2="499.5" y1="428" y2="428"/><text fill="#000000" font-family="sans-serif" font-size="14" lengthAdjust="spacing" textLength="102" x="229.5" y="445.5352">// 关联活动类型</text><rect fill="none" height="6" style="stroke:#C82930;stroke-width:1.0;" width="6" x="217.5" y="452.4883"/><text fill="#000000" font-family="sans-serif" font-size="14" lengthAdjust="spacing" textLength="169" x="229.5" y="462.0234">RefCategory refCategory</text><text fill="#000000" font-family="sans-serif" font-size="14" lengthAdjust="spacing" textLength="4" x="229.5" y="478.5117"> </text><text fill="#000000" font-family="sans-serif" font-size="14" lengthAdjust="spacing" textLength="59" x="229.5" y="495">// 公司id</text><rect fill="none" height="6" style="stroke:#C82930;stroke-width:1.0;" width="6" x="217.5" y="501.9531"/><text fill="#000000" font-family="sans-serif" font-size="14" lengthAdjust="spacing" textLength="120" x="229.5" y="511.4883">String companyId</text><text fill="#000000" font-family="sans-serif" font-size="14" lengthAdjust="spacing" textLength="4" x="229.5" y="527.9766"> </text><line style="stroke:#181818;stroke-width:1.0;" x1="210.5" x2="499.5" y1="534.9297" y2="534.9297"/><line style="stroke:#181818;stroke-width:1.0;" x1="210.5" x2="499.5" y1="536.9297" y2="536.9297"/><text fill="#000000" font-family="sans-serif" font-size="14" lengthAdjust="spacing" textLength="4" x="215.5" y="552.4648"> </text></g><!--MD5=[831206e0092f11ca67a9b8ff137a86c5]
class com.youkeda.application.art.article.service.ArticleService--><g id="elem_com.youkeda.application.art.article.service.ArticleService"><rect codeLine="39" fill="#F1F1F1" height="476.6953" id="com.youkeda.application.art.article.service.ArticleService" rx="2.5" ry="2.5" style="stroke:#181818;stroke-width:0.5;" width="665" x="22.5" y="882"/><ellipse cx="304.75" cy="898" fill="#B4A7E5" rx="11" ry="11" style="stroke:#181818;stroke-width:1.0;"/><path d="M301.1777,894.2651 L301.1777,892.1069 L308.5571,892.1069 L308.5571,894.2651 L306.0918,894.2651 L306.0918,902.3418 L308.5571,902.3418 L308.5571,904.5 L301.1777,904.5 L301.1777,902.3418 L303.6431,902.3418 L303.6431,894.2651 Z " fill="#000000"/><text fill="#000000" font-family="sans-serif" font-size="14" font-style="italic" lengthAdjust="spacing" textLength="92" x="325.25" y="903.291">ArticleService</text><line style="stroke:#181818;stroke-width:0.5;" x1="23.5" x2="686.5" y1="914" y2="914"/><text fill="#000000" font-family="sans-serif" font-size="14" lengthAdjust="spacing" textLength="4" x="28.5" y="931.5352"> </text><line style="stroke:#181818;stroke-width:1.0;" x1="23.5" x2="686.5" y1="938.4883" y2="938.4883"/><line style="stroke:#181818;stroke-width:1.0;" x1="23.5" x2="686.5" y1="940.4883" y2="940.4883"/><text fill="#000000" font-family="sans-serif" font-size="14" lengthAdjust="spacing" textLength="4" x="42.5" y="956.0234"> </text><text fill="#000000" font-family="sans-serif" font-size="14" lengthAdjust="spacing" textLength="88" x="42.5" y="972.5117">// 添加或更新</text><ellipse cx="33.5" cy="982.4648" fill="#84BE84" rx="3" ry="3" style="stroke:#038048;stroke-width:1.0;"/><text fill="#000000" font-family="sans-serif" font-size="14" lengthAdjust="spacing" textLength="286" x="42.5" y="989">Result&lt;Article&gt; saveArticle(Article article)</text><text fill="#000000" font-family="sans-serif" font-size="14" lengthAdjust="spacing" textLength="4" x="42.5" y="1005.4883"> </text><text fill="#000000" font-family="sans-serif" font-size="14" lengthAdjust="spacing" textLength="102" x="42.5" y="1021.9766">// 添加文章详情</text><ellipse cx="33.5" cy="1031.9297" fill="#84BE84" rx="3" ry="3" style="stroke:#038048;stroke-width:1.0;"/><text fill="#000000" font-family="sans-serif" font-size="14" lengthAdjust="spacing" textLength="378" x="42.5" y="1038.4648">ArticleDetail saveArticleDetail(ArticleDetail articleDetail)</text><text fill="#000000" font-family="sans-serif" font-size="14" lengthAdjust="spacing" textLength="4" x="42.5" y="1054.9531"> </text><text fill="#000000" font-family="sans-serif" font-size="14" lengthAdjust="spacing" textLength="102" x="42.5" y="1071.4414">// 分页获取文章</text><ellipse cx="33.5" cy="1081.3945" fill="#84BE84" rx="3" ry="3" style="stroke:#038048;stroke-width:1.0;"/><text fill="#000000" font-family="sans-serif" font-size="14" lengthAdjust="spacing" textLength="480" x="42.5" y="1087.9297">Paging&lt;Article&gt; queryPagingArticle(QueryArticlePagingParam param)</text><text fill="#000000" font-family="sans-serif" font-size="14" lengthAdjust="spacing" textLength="4" x="42.5" y="1104.418"> </text><text fill="#000000" font-family="sans-serif" font-size="14" lengthAdjust="spacing" textLength="130" x="42.5" y="1120.9063">// 获取单个文章信息</text><ellipse cx="33.5" cy="1130.8594" fill="#84BE84" rx="3" ry="3" style="stroke:#038048;stroke-width:1.0;"/><text fill="#000000" font-family="sans-serif" font-size="14" lengthAdjust="spacing" textLength="344" x="42.5" y="1137.3945">Article getArticle(String articleId, boolean content)</text><text fill="#000000" font-family="sans-serif" font-size="14" lengthAdjust="spacing" textLength="4" x="42.5" y="1153.8828"> </text><text fill="#000000" font-family="sans-serif" font-size="14" lengthAdjust="spacing" textLength="228" x="42.5" y="1170.3711">// 删除文章，同时删除文章极其详情</text><ellipse cx="33.5" cy="1180.3242" fill="#84BE84" rx="3" ry="3" style="stroke:#038048;stroke-width:1.0;"/><text fill="#000000" font-family="sans-serif" font-size="14" lengthAdjust="spacing" textLength="212" x="42.5" y="1186.8594">boolean delete(String articleId)</text><text fill="#000000" font-family="sans-serif" font-size="14" lengthAdjust="spacing" textLength="4" x="42.5" y="1203.3477"> </text><text fill="#000000" font-family="sans-serif" font-size="14" lengthAdjust="spacing" textLength="144" x="42.5" y="1219.8359">// 获取所有的文章类别</text><ellipse cx="33.5" cy="1229.7891" fill="#84BE84" rx="3" ry="3" style="stroke:#038048;stroke-width:1.0;"/><text fill="#000000" font-family="sans-serif" font-size="14" lengthAdjust="spacing" textLength="228" x="42.5" y="1236.3242">List&lt;String&gt; getArticleCategory()</text><text fill="#000000" font-family="sans-serif" font-size="14" lengthAdjust="spacing" textLength="4" x="42.5" y="1252.8125"> </text><text fill="#000000" font-family="sans-serif" font-size="14" lengthAdjust="spacing" textLength="200" x="42.5" y="1269.3008">// 根据关联的活动类型分页查询</text><ellipse cx="33.5" cy="1279.2539" fill="#84BE84" rx="3" ry="3" style="stroke:#038048;stroke-width:1.0;"/><text fill="#000000" font-family="sans-serif" font-size="14" lengthAdjust="spacing" textLength="599" x="42.5" y="1285.7891">Paging&lt;Article&gt; getArticleByRefCategory(QueryArticleRefCategoryPagingParam param)</text><text fill="#000000" font-family="sans-serif" font-size="14" lengthAdjust="spacing" textLength="4" x="42.5" y="1302.2773"> </text><text fill="#000000" font-family="sans-serif" font-size="14" lengthAdjust="spacing" textLength="158" x="42.5" y="1318.7656">// 获取当前文章的下一篇</text><ellipse cx="33.5" cy="1328.7188" fill="#84BE84" rx="3" ry="3" style="stroke:#038048;stroke-width:1.0;"/><text fill="#000000" font-family="sans-serif" font-size="14" lengthAdjust="spacing" textLength="639" x="42.5" y="1335.2539">Article getNextArticle(String articleId, boolean next, String articleCategory, String companyId,</text><text fill="#000000" font-family="sans-serif" font-size="14" lengthAdjust="spacing" textLength="174" x="42.5" y="1351.7422">RefCategory refCategory)</text></g><!--MD5=[b0c8beee973c3179f2cbe211e7ca0587]
class com.youkeda.application.art.article.service.impl.ArticleServiceImpl--><g id="elem_com.youkeda.application.art.article.service.impl.ArticleServiceImpl"><rect codeLine="79" fill="#F1F1F1" height="97.4648" id="com.youkeda.application.art.article.service.impl.ArticleServiceImpl" rx="2.5" ry="2.5" style="stroke:#181818;stroke-width:0.5;" width="255" x="612.5" y="1459"/><ellipse cx="674.75" cy="1475" fill="#ADD1B2" rx="11" ry="11" style="stroke:#181818;stroke-width:1.0;"/><path d="M677.2231,1481.1431 Q676.6421,1481.4419 676.0029,1481.5913 Q675.3638,1481.7407 674.6582,1481.7407 Q672.1514,1481.7407 670.8315,1480.0889 Q669.5117,1478.437 669.5117,1475.3159 Q669.5117,1472.1865 670.8315,1470.5347 Q672.1514,1468.8828 674.6582,1468.8828 Q675.3638,1468.8828 676.0112,1469.0322 Q676.6587,1469.1816 677.2231,1469.4805 L677.2231,1472.2031 Q676.5923,1471.6221 675.9988,1471.3523 Q675.4053,1471.0825 674.7744,1471.0825 Q673.4297,1471.0825 672.7449,1472.1492 Q672.0601,1473.2158 672.0601,1475.3159 Q672.0601,1477.4077 672.7449,1478.4744 Q673.4297,1479.541 674.7744,1479.541 Q675.4053,1479.541 675.9988,1479.2712 Q676.5923,1479.0015 677.2231,1478.4204 Z " fill="#000000"/><text fill="#000000" font-family="sans-serif" font-size="14" lengthAdjust="spacing" textLength="122" x="695.25" y="1480.291">ArticleServiceImpl</text><line style="stroke:#181818;stroke-width:0.5;" x1="613.5" x2="866.5" y1="1491" y2="1491"/><rect fill="none" height="6" style="stroke:#C82930;stroke-width:1.0;" width="6" x="620.5" y="1499"/><text fill="#000000" font-family="sans-serif" font-size="14" lengthAdjust="spacing" textLength="229" x="632.5" y="1508.5352">MongoTemplate mongoTemplate</text><text fill="#000000" font-family="sans-serif" font-size="14" lengthAdjust="spacing" textLength="4" x="632.5" y="1525.0234"> </text><line style="stroke:#181818;stroke-width:1.0;" x1="613.5" x2="866.5" y1="1531.9766" y2="1531.9766"/><line style="stroke:#181818;stroke-width:1.0;" x1="613.5" x2="866.5" y1="1533.9766" y2="1533.9766"/><text fill="#000000" font-family="sans-serif" font-size="14" lengthAdjust="spacing" textLength="4" x="618.5" y="1549.5117"> </text></g><!--MD5=[eb869593e3f3247f87d534a5d4b3b705]
class com.youkeda.application.art.article.model.ArticleCategoryDefine--><g id="elem_com.youkeda.application.art.article.model.ArticleCategoryDefine"><rect codeLine="86" fill="#F1F1F1" height="97.4648" id="com.youkeda.application.art.article.model.ArticleCategoryDefine" rx="2.5" ry="2.5" style="stroke:#181818;stroke-width:0.5;" width="182" x="899" y="1072"/><ellipse cx="914" cy="1088" fill="#EB937F" rx="11" ry="11" style="stroke:#181818;stroke-width:1.0;"/><path d="M917.6143,1094.5 L909.8945,1094.5 L909.8945,1082.1069 L917.6143,1082.1069 L917.6143,1084.2651 L912.3433,1084.2651 L912.3433,1086.938 L917.1162,1086.938 L917.1162,1089.0962 L912.3433,1089.0962 L912.3433,1092.3418 L917.6143,1092.3418 Z " fill="#000000"/><text fill="#000000" font-family="sans-serif" font-size="14" lengthAdjust="spacing" textLength="150" x="928" y="1093.291">ArticleCategoryDefine</text><line style="stroke:#181818;stroke-width:0.5;" x1="900" x2="1080" y1="1104" y2="1104"/><ellipse cx="910" cy="1115" fill="none" rx="3" ry="3" style="stroke:#038048;stroke-width:1.0;"/><text fill="#000000" font-family="sans-serif" font-size="14" lengthAdjust="spacing" textLength="56" x="919" y="1121.5352">政策专区</text><text fill="#000000" font-family="sans-serif" font-size="14" lengthAdjust="spacing" textLength="4" x="919" y="1138.0234"> </text><ellipse cx="910" cy="1147.9766" fill="none" rx="3" ry="3" style="stroke:#038048;stroke-width:1.0;"/><text fill="#000000" font-family="sans-serif" font-size="14" lengthAdjust="spacing" textLength="56" x="919" y="1154.5117">下载专区</text><line style="stroke:#181818;stroke-width:0.5;" x1="900" x2="1080" y1="1161.4648" y2="1161.4648"/></g><!--MD5=[2fb850b3c86166cb3bfb69a12b3fdef2]
class com.youkeda.application.art.article.model.OrderByType--><g id="elem_com.youkeda.application.art.article.model.OrderByType"><rect codeLine="92" fill="#F1F1F1" height="130.4414" id="com.youkeda.application.art.article.model.OrderByType" rx="2.5" ry="2.5" style="stroke:#181818;stroke-width:0.5;" width="120" x="744" y="1055.5"/><ellipse cx="759" cy="1071.5" fill="#EB937F" rx="11" ry="11" style="stroke:#181818;stroke-width:1.0;"/><path d="M762.6143,1078 L754.8945,1078 L754.8945,1065.6069 L762.6143,1065.6069 L762.6143,1067.7651 L757.3433,1067.7651 L757.3433,1070.438 L762.1162,1070.438 L762.1162,1072.5962 L757.3433,1072.5962 L757.3433,1075.8418 L762.6143,1075.8418 Z " fill="#000000"/><text fill="#000000" font-family="sans-serif" font-size="14" lengthAdjust="spacing" textLength="88" x="773" y="1076.791">OrderByType</text><line style="stroke:#181818;stroke-width:0.5;" x1="745" x2="863" y1="1087.5" y2="1087.5"/><text fill="#000000" font-family="sans-serif" font-size="14" lengthAdjust="spacing" textLength="60" x="764" y="1105.0352">// 阅读数</text><ellipse cx="755" cy="1114.9883" fill="none" rx="3" ry="3" style="stroke:#038048;stroke-width:1.0;"/><text fill="#000000" font-family="sans-serif" font-size="14" lengthAdjust="spacing" textLength="37" x="764" y="1121.5234">READ</text><text fill="#000000" font-family="sans-serif" font-size="14" lengthAdjust="spacing" textLength="4" x="764" y="1138.0117"> </text><text fill="#000000" font-family="sans-serif" font-size="14" lengthAdjust="spacing" textLength="60" x="764" y="1154.5">// 点赞数</text><ellipse cx="755" cy="1164.4531" fill="none" rx="3" ry="3" style="stroke:#038048;stroke-width:1.0;"/><text fill="#000000" font-family="sans-serif" font-size="14" lengthAdjust="spacing" textLength="28" x="764" y="1170.9883">LIKE</text><line style="stroke:#181818;stroke-width:0.5;" x1="745" x2="863" y1="1177.9414" y2="1177.9414"/></g><!--MD5=[ca005f356a0fca38d62a5a27a11f9e56]
class com.youkeda.model.BasePagingParam--><g id="elem_com.youkeda.model.BasePagingParam"><rect fill="#F1F1F1" height="48" id="com.youkeda.model.BasePagingParam" rx="2.5" ry="2.5" style="stroke:#181818;stroke-width:0.5;" width="153" x="450.5" y="41"/><ellipse cx="465.5" cy="57" fill="#ADD1B2" rx="11" ry="11" style="stroke:#181818;stroke-width:1.0;"/><path d="M467.9731,63.1431 Q467.3921,63.4419 466.7529,63.5913 Q466.1138,63.7407 465.4082,63.7407 Q462.9014,63.7407 461.5815,62.0889 Q460.2617,60.437 460.2617,57.3159 Q460.2617,54.1865 461.5815,52.5347 Q462.9014,50.8828 465.4082,50.8828 Q466.1138,50.8828 466.7612,51.0322 Q467.4087,51.1816 467.9731,51.4805 L467.9731,54.2031 Q467.3423,53.6221 466.7488,53.3523 Q466.1553,53.0825 465.5244,53.0825 Q464.1797,53.0825 463.4949,54.1492 Q462.8101,55.2158 462.8101,57.3159 Q462.8101,59.4077 463.4949,60.4744 Q464.1797,61.541 465.5244,61.541 Q466.1553,61.541 466.7488,61.2712 Q467.3423,61.0015 467.9731,60.4204 Z " fill="#000000"/><text fill="#000000" font-family="sans-serif" font-size="14" lengthAdjust="spacing" textLength="121" x="479.5" y="62.291">BasePagingParam</text><line style="stroke:#181818;stroke-width:0.5;" x1="451.5" x2="602.5" y1="73" y2="73"/><line style="stroke:#181818;stroke-width:0.5;" x1="451.5" x2="602.5" y1="81" y2="81"/></g><!--MD5=[3252e32730227654fe3214d534cf008a]
reverse link com.youkeda.model.BasePagingParam to com.youkeda.application.art.article.param.QueryArticlePagingParam--><g id="link_com.youkeda.model.BasePagingParam_com.youkeda.application.art.article.param.QueryArticlePagingParam"><path codeLine="100" d="M538.66,108.73 C543.46,126.35 549.48,148.39 556.16,172.88 " fill="none" id="com.youkeda.model.BasePagingParam-backto-com.youkeda.application.art.article.param.QueryArticlePagingParam" style="stroke:#181818;stroke-width:1.0;"/><polygon fill="none" points="531.85,110.38,533.34,89.25,545.36,106.7,531.85,110.38" style="stroke:#181818;stroke-width:1.0;"/></g><!--MD5=[f726ab1bbb2ab67fec01bfb3e1e73eb4]
reverse link com.youkeda.model.BasePagingParam to com.youkeda.application.art.article.param.QueryArticleRefCategoryPagingParam--><g id="link_com.youkeda.model.BasePagingParam_com.youkeda.application.art.article.param.QueryArticleRefCategoryPagingParam"><path codeLine="101" d="M509.42,107.95 C481.12,175.49 424.98,309.5 388.75,395.96 " fill="none" id="com.youkeda.model.BasePagingParam-backto-com.youkeda.application.art.article.param.QueryArticleRefCategoryPagingParam" style="stroke:#181818;stroke-width:1.0;"/><polygon fill="none" points="503.07,104.99,517.26,89.25,515.99,110.4,503.07,104.99" style="stroke:#181818;stroke-width:1.0;"/></g><!--MD5=[e5a7c734036390a8154496e4ca1d38bc]
reverse link com.youkeda.application.art.article.service.ArticleService to com.youkeda.application.art.article.service.impl.ArticleServiceImpl--><g id="link_com.youkeda.application.art.article.service.ArticleService_com.youkeda.application.art.article.service.impl.ArticleServiceImpl"><path codeLine="102" d="M607.03,1373.53 C639.36,1405.86 669.21,1435.71 692.4,1458.9 " fill="none" id="com.youkeda.application.art.article.service.ArticleService-backto-com.youkeda.application.art.article.service.impl.ArticleServiceImpl" style="stroke:#181818;stroke-width:1.0;stroke-dasharray:7.0,7.0;"/><polygon fill="none" points="601.72,1378.12,592.53,1359.03,611.62,1368.22,601.72,1378.12" style="stroke:#181818;stroke-width:1.0;"/></g><!--MD5=[d178566c1d2c689c2545462019541ff0]
reverse link com.youkeda.application.art.article.param.QueryArticleRefCategoryPagingParam to com.youkeda.application.art.article.service.ArticleService--><g id="link_com.youkeda.application.art.article.param.QueryArticleRefCategoryPagingParam_com.youkeda.application.art.article.service.ArticleService"><path codeLine="104" d="M355,564.31 C355,645.33 355,770.63 355,881.71 " fill="none" id="com.youkeda.application.art.article.param.QueryArticleRefCategoryPagingParam-backto-com.youkeda.application.art.article.service.ArticleService" style="stroke:#181818;stroke-width:1.0;stroke-dasharray:7.0,7.0;"/><polygon fill="#181818" points="355,559.03,351,568.03,355,564.03,359,568.03,355,559.03" style="stroke:#181818;stroke-width:1.0;"/><text fill="#000000" font-family="sans-serif" font-size="13" lengthAdjust="spacing" textLength="77" x="356" y="827.5684">Dependency</text></g><!--MD5=[1fb41248d7549df0b35007beaf6646ce]
link com.youkeda.application.art.article.service.ArticleService to com.youkeda.application.art.article.param.QueryArticlePagingParam--><g id="link_com.youkeda.application.art.article.service.ArticleService_com.youkeda.application.art.article.param.QueryArticlePagingParam"><path codeLine="105" d="M482.52,881.81 C494.96,856.43 507.01,830.82 518,806 C523.2,794.26 528.36,782.21 533.47,770 " fill="none" id="com.youkeda.application.art.article.service.ArticleService-to-com.youkeda.application.art.article.param.QueryArticlePagingParam" style="stroke:#181818;stroke-width:1.0;stroke-dasharray:7.0,7.0;"/><polygon fill="#181818" points="535.5,765.13,528.3387,771.8914,533.5719,769.7433,535.72,774.9764,535.5,765.13" style="stroke:#181818;stroke-width:1.0;"/><text fill="#000000" font-family="sans-serif" font-size="13" lengthAdjust="spacing" textLength="77" x="515" y="827.5684">Dependency</text></g><!--MD5=[d3bff6e545d3fe543daa67c771b6f93d]
link com.youkeda.application.art.article.param.QueryArticlePagingParam to com.youkeda.application.art.article.model.OrderByType--><g id="link_com.youkeda.application.art.article.param.QueryArticlePagingParam_com.youkeda.application.art.article.model.OrderByType"><path codeLine="107" d="M717.15,782.11 C742.97,882.39 769.35,984.9 786.16,1050.18 " fill="none" id="com.youkeda.application.art.article.param.QueryArticlePagingParam-to-com.youkeda.application.art.article.model.OrderByType" style="stroke:#181818;stroke-width:1.0;"/><polygon fill="#181818" points="787.45,1055.21,789.0872,1045.4982,786.2071,1050.3669,781.3383,1047.4868,787.45,1055.21" style="stroke:#181818;stroke-width:1.0;"/><text fill="#000000" font-family="sans-serif" font-size="13" lengthAdjust="spacing" textLength="74" x="729" y="827.5684">Association</text></g><!--MD5=[7a2a1e295f568b460fe00d8b592bfafd]
reverse link com.youkeda.application.art.article.model.ArticleCategoryDefine to com.youkeda.application.art.article.service.impl.ArticleServiceImpl--><g id="link_com.youkeda.application.art.article.model.ArticleCategoryDefine_com.youkeda.application.art.article.service.impl.ArticleServiceImpl"><path codeLine="109" d="M976.12,1174.14 C959.77,1229.67 928.76,1317.96 882,1383 C861.5,1411.52 833.17,1437.86 807.21,1458.83 " fill="none" id="com.youkeda.application.art.article.model.ArticleCategoryDefine-backto-com.youkeda.application.art.article.service.impl.ArticleServiceImpl" style="stroke:#181818;stroke-width:1.0;stroke-dasharray:7.0,7.0;"/><polygon fill="#181818" points="977.56,1169.2,971.2,1176.72,976.16,1174,978.88,1178.96,977.56,1169.2" style="stroke:#181818;stroke-width:1.0;"/><text fill="#000000" font-family="sans-serif" font-size="13" lengthAdjust="spacing" textLength="77" x="876" y="1404.5684">Dependency</text></g><!--MD5=[ba80c6d6def1eb22fdb5f88c2aa9a85f]
@startuml
class com.youkeda.application.art.article.param.QueryArticlePagingParam {
// 文章类型
- String articleCategory

// 排序类型
- OrderByType orderByType

// 关键字
- String keyWord

// 文章标题
- String title

// 公司id
- String companyId

// 状态
- String status

// 作者
- String author

// 根据多个作者查询
- List<String> authors

// 只查询自己的
- boolean filterMe

// 账户 id
- String accountId

// 是否需要文章详情
- boolean showArticleDetail

====

}

interface com.youkeda.application.art.article.service.ArticleService {

====

// 添加或更新
+ Result<Article> saveArticle(Article article)

// 添加文章详情
+ ArticleDetail saveArticleDetail(ArticleDetail articleDetail)

// 分页获取文章
+ Paging<Article> queryPagingArticle(QueryArticlePagingParam param)

// 获取单个文章信息
+ Article getArticle(String articleId, boolean content)

// 删除文章，同时删除文章极其详情
+ boolean delete(String articleId)

// 获取所有的文章类别
+ List<String> getArticleCategory()

// 根据关联的活动类型分页查询
+ Paging<Article> getArticleByRefCategory(QueryArticleRefCategoryPagingParam param)

// 获取当前文章的下一篇
+ Article getNextArticle(String articleId, boolean next, String articleCategory, String companyId,
                                                    RefCategory refCategory)
}

class com.youkeda.application.art.article.param.QueryArticleRefCategoryPagingParam {
// 关联活动类型
- RefCategory refCategory

// 公司id
- String companyId

====

}
class com.youkeda.application.art.article.service.impl.ArticleServiceImpl {
- MongoTemplate mongoTemplate

====

}

enum com.youkeda.application.art.article.model.ArticleCategoryDefine {
+ 政策专区

+ 下载专区
}

enum com.youkeda.application.art.article.model.OrderByType {
// 阅读数
+ READ

// 点赞数
+ LIKE
}

com.youkeda.model.BasePagingParam <|-down- com.youkeda.application.art.article.param.QueryArticlePagingParam
com.youkeda.model.BasePagingParam <|-down- com.youkeda.application.art.article.param.QueryArticleRefCategoryPagingParam
com.youkeda.application.art.article.service.ArticleService <|.. com.youkeda.application.art.article.service.impl.ArticleServiceImpl

com.youkeda.application.art.article.service.ArticleService .up.> com.youkeda.application.art.article.param.QueryArticleRefCategoryPagingParam : Dependency
com.youkeda.application.art.article.service.ArticleService ..> com.youkeda.application.art.article.param.QueryArticlePagingParam : Dependency

com.youkeda.application.art.article.param.QueryArticlePagingParam - -> com.youkeda.application.art.article.model.OrderByType : Association

com.youkeda.application.art.article.service.impl.ArticleServiceImpl .up.> com.youkeda.application.art.article.model.ArticleCategoryDefine : Dependency

@enduml

PlantUML version 1.2022.6(Wed Jun 22 01:34:49 CST 2022)
(GPL source distribution)
Java Runtime: OpenJDK Runtime Environment
JVM: OpenJDK 64-Bit Server VM
Default Encoding: UTF-8
Language: zh
Country: CN
--></g></svg>