<?xml version="1.0" encoding="UTF-8" standalone="no"?><svg xmlns="http://www.w3.org/2000/svg" xmlns:xlink="http://www.w3.org/1999/xlink" contentStyleType="text/css" height="1431px" preserveAspectRatio="none" style="width:1179px;height:1431px;background:#FFFFFF;" version="1.1" viewBox="0 0 1179 1431" width="1179px" zoomAndPan="magnify"><defs/><g><!--MD5=[8b91d1bd361bddd06127e29a1c000366]
cluster com.youkeda.application.art.article.model--><g id="cluster_com.youkeda.application.art.article.model"><path d="M8.5,129 L304.5,129 A3.75,3.75 0 0 1 307,131.5 L314,151.4883 L1169.5,151.4883 A2.5,2.5 0 0 1 1172,153.9883 L1172,1421.5 A2.5,2.5 0 0 1 1169.5,1424 L8.5,1424 A2.5,2.5 0 0 1 6,1421.5 L6,131.5 A2.5,2.5 0 0 1 8.5,129 " style="stroke:#000000;stroke-width:1.5;fill:none;"/><line style="stroke:#000000;stroke-width:1.5;fill:none;" x1="6" x2="314" y1="151.4883" y2="151.4883"/><text fill="#000000" font-family="sans-serif" font-size="14" font-weight="bold" lengthAdjust="spacing" textLength="295" x="10" y="144.5352">com.youkeda.application.art.article.model</text></g><!--MD5=[ed0073de296ff6289039be097c6b722a]
cluster com.youkeda.model--><g id="cluster_com.youkeda.model"><path d="M858.5,6 L1000.5,6 A3.75,3.75 0 0 1 1003,8.5 L1010,28.4883 L1010.5,28.4883 A2.5,2.5 0 0 1 1013,30.9883 L1013,102.5 A2.5,2.5 0 0 1 1010.5,105 L858.5,105 A2.5,2.5 0 0 1 856,102.5 L856,8.5 A2.5,2.5 0 0 1 858.5,6 " style="stroke:#000000;stroke-width:1.5;fill:none;"/><line style="stroke:#000000;stroke-width:1.5;fill:none;" x1="856" x2="1010" y1="28.4883" y2="28.4883"/><text fill="#000000" font-family="sans-serif" font-size="14" font-weight="bold" lengthAdjust="spacing" textLength="141" x="860" y="21.5352">com.youkeda.model</text></g><!--MD5=[0c81b213ee76af625d58d7632befc1ea]
class com.youkeda.application.art.article.model.ArticleDetail--><g id="elem_com.youkeda.application.art.article.model.ArticleDetail"><rect codeLine="2" fill="#F1F1F1" height="212.8828" id="com.youkeda.application.art.article.model.ArticleDetail" rx="2.5" ry="2.5" style="stroke:#181818;stroke-width:0.5;" width="179" x="976.5" y="559.5"/><ellipse cx="1020.3" cy="575.5" fill="#ADD1B2" rx="11" ry="11" style="stroke:#181818;stroke-width:1.0;"/><path d="M1022.7731,581.6431 Q1022.1921,581.9419 1021.5529,582.0913 Q1020.9138,582.2407 1020.2082,582.2407 Q1017.7014,582.2407 1016.3815,580.5889 Q1015.0617,578.937 1015.0617,575.8159 Q1015.0617,572.6865 1016.3815,571.0347 Q1017.7014,569.3828 1020.2082,569.3828 Q1020.9138,569.3828 1021.5612,569.5322 Q1022.2087,569.6816 1022.7731,569.9805 L1022.7731,572.7031 Q1022.1423,572.1221 1021.5488,571.8523 Q1020.9553,571.5825 1020.3244,571.5825 Q1018.9797,571.5825 1018.2949,572.6492 Q1017.6101,573.7158 1017.6101,575.8159 Q1017.6101,577.9077 1018.2949,578.9744 Q1018.9797,580.041 1020.3244,580.041 Q1020.9553,580.041 1021.5488,579.7712 Q1022.1423,579.5015 1022.7731,578.9204 Z " fill="#000000"/><text fill="#000000" font-family="sans-serif" font-size="14" lengthAdjust="spacing" textLength="83" x="1040.7" y="580.791">ArticleDetail</text><line style="stroke:#181818;stroke-width:0.5;" x1="977.5" x2="1154.5" y1="591.5" y2="591.5"/><text fill="#000000" font-family="sans-serif" font-size="14" lengthAdjust="spacing" textLength="133" x="996.5" y="609.0352">// 所属文章的主键 id</text><rect fill="none" height="6" style="stroke:#C82930;stroke-width:1.0;" width="6" x="984.5" y="615.9883"/><text fill="#000000" font-family="sans-serif" font-size="14" lengthAdjust="spacing" textLength="100" x="996.5" y="625.5234">String articleId</text><text fill="#000000" font-family="sans-serif" font-size="14" lengthAdjust="spacing" textLength="4" x="996.5" y="642.0117"> </text><text fill="#000000" font-family="sans-serif" font-size="14" lengthAdjust="spacing" textLength="74" x="996.5" y="658.5">// 文章内容</text><rect fill="none" height="6" style="stroke:#C82930;stroke-width:1.0;" width="6" x="984.5" y="665.4531"/><text fill="#000000" font-family="sans-serif" font-size="14" lengthAdjust="spacing" textLength="97" x="996.5" y="674.9883">String content</text><text fill="#000000" font-family="sans-serif" font-size="14" lengthAdjust="spacing" textLength="4" x="996.5" y="691.4766"> </text><text fill="#000000" font-family="sans-serif" font-size="14" lengthAdjust="spacing" textLength="88" x="996.5" y="707.9648">// 源文章内容</text><rect fill="none" height="6" style="stroke:#C82930;stroke-width:1.0;" width="6" x="984.5" y="714.918"/><text fill="#000000" font-family="sans-serif" font-size="14" lengthAdjust="spacing" textLength="153" x="996.5" y="724.4531">String originalContent</text><text fill="#000000" font-family="sans-serif" font-size="14" lengthAdjust="spacing" textLength="4" x="996.5" y="740.9414"> </text><line style="stroke:#181818;stroke-width:1.0;" x1="977.5" x2="1154.5" y1="747.8945" y2="747.8945"/><line style="stroke:#181818;stroke-width:1.0;" x1="977.5" x2="1154.5" y1="749.8945" y2="749.8945"/><text fill="#000000" font-family="sans-serif" font-size="14" lengthAdjust="spacing" textLength="4" x="982.5" y="765.4297"> </text></g><!--MD5=[0b42ebd157f209e5a1b6ff5313691cc9]
class com.youkeda.application.art.article.model.ArticleSource--><g id="elem_com.youkeda.application.art.article.model.ArticleSource"><rect codeLine="16" fill="#F1F1F1" height="526.1602" id="com.youkeda.application.art.article.model.ArticleSource" rx="2.5" ry="2.5" style="stroke:#181818;stroke-width:0.5;" width="607" x="22.5" y="403"/><ellipse cx="276.25" cy="419" fill="#ADD1B2" rx="11" ry="11" style="stroke:#181818;stroke-width:1.0;"/><path d="M278.7231,425.1431 Q278.1421,425.4419 277.5029,425.5913 Q276.8638,425.7407 276.1582,425.7407 Q273.6514,425.7407 272.3315,424.0889 Q271.0117,422.437 271.0117,419.3159 Q271.0117,416.1865 272.3315,414.5347 Q273.6514,412.8828 276.1582,412.8828 Q276.8638,412.8828 277.5112,413.0322 Q278.1587,413.1816 278.7231,413.4805 L278.7231,416.2031 Q278.0923,415.6221 277.4988,415.3523 Q276.9053,415.0825 276.2744,415.0825 Q274.9297,415.0825 274.2449,416.1492 Q273.5601,417.2158 273.5601,419.3159 Q273.5601,421.4077 274.2449,422.4744 Q274.9297,423.541 276.2744,423.541 Q276.9053,423.541 277.4988,423.2712 Q278.0923,423.0015 278.7231,422.4204 Z " fill="#000000"/><text fill="#000000" font-family="sans-serif" font-size="14" lengthAdjust="spacing" textLength="91" x="296.75" y="424.291">ArticleSource</text><line style="stroke:#181818;stroke-width:0.5;" x1="23.5" x2="628.5" y1="435" y2="435"/><text fill="#000000" font-family="sans-serif" font-size="14" lengthAdjust="spacing" textLength="102" x="42.5" y="452.5352">// 文章来源链接</text><rect fill="none" height="6" style="stroke:#C82930;stroke-width:1.0;" width="6" x="30.5" y="459.4883"/><text fill="#000000" font-family="sans-serif" font-size="14" lengthAdjust="spacing" textLength="64" x="42.5" y="469.0234">String url</text><text fill="#000000" font-family="sans-serif" font-size="14" lengthAdjust="spacing" textLength="4" x="42.5" y="485.5117"> </text><text fill="#000000" font-family="sans-serif" font-size="14" lengthAdjust="spacing" textLength="102" x="42.5" y="502">// 文章来源名称</text><rect fill="none" height="6" style="stroke:#C82930;stroke-width:1.0;" width="6" x="30.5" y="508.9531"/><text fill="#000000" font-family="sans-serif" font-size="14" lengthAdjust="spacing" textLength="137" x="42.5" y="518.4883">String originalName</text><text fill="#000000" font-family="sans-serif" font-size="14" lengthAdjust="spacing" textLength="4" x="42.5" y="534.9766"> </text><text fill="#000000" font-family="sans-serif" font-size="14" lengthAdjust="spacing" textLength="102" x="42.5" y="551.4648">// 文章来源标题</text><rect fill="none" height="6" style="stroke:#C82930;stroke-width:1.0;" width="6" x="30.5" y="558.418"/><text fill="#000000" font-family="sans-serif" font-size="14" lengthAdjust="spacing" textLength="128" x="42.5" y="567.9531">String originalTitle</text><text fill="#000000" font-family="sans-serif" font-size="14" lengthAdjust="spacing" textLength="4" x="42.5" y="584.4414"> </text><text fill="#000000" font-family="sans-serif" font-size="14" lengthAdjust="spacing" textLength="102" x="42.5" y="600.9297">// 文章来源作者</text><rect fill="none" height="6" style="stroke:#C82930;stroke-width:1.0;" width="6" x="30.5" y="607.8828"/><text fill="#000000" font-family="sans-serif" font-size="14" lengthAdjust="spacing" textLength="146" x="42.5" y="617.418">String originalAuthor</text><text fill="#000000" font-family="sans-serif" font-size="14" lengthAdjust="spacing" textLength="4" x="42.5" y="633.9063"> </text><text fill="#000000" font-family="sans-serif" font-size="14" lengthAdjust="spacing" textLength="130" x="42.5" y="650.3945">// 文章来源创建时间</text><text fill="#000000" font-family="sans-serif" font-size="14" lengthAdjust="spacing" textLength="581" x="42.5" y="666.8828">@JsonFormat(shape = JsonFormat.Shape.STRING, pattern = "yyyy/MM/dd HH:mm:ss")</text><rect fill="none" height="6" style="stroke:#C82930;stroke-width:1.0;" width="6" x="30.5" y="673.8359"/><text fill="#000000" font-family="sans-serif" font-size="14" lengthAdjust="spacing" textLength="239" x="42.5" y="683.3711">LocalDateTime originalGmtCreated</text><text fill="#000000" font-family="sans-serif" font-size="14" lengthAdjust="spacing" textLength="4" x="42.5" y="699.8594"> </text><text fill="#000000" font-family="sans-serif" font-size="14" lengthAdjust="spacing" textLength="102" x="42.5" y="716.3477">// 源文章点赞数</text><rect fill="none" height="6" style="stroke:#C82930;stroke-width:1.0;" width="6" x="30.5" y="723.3008"/><text fill="#000000" font-family="sans-serif" font-size="14" lengthAdjust="spacing" textLength="134" x="42.5" y="732.8359">int originalLikeNum</text><text fill="#000000" font-family="sans-serif" font-size="14" lengthAdjust="spacing" textLength="4" x="42.5" y="749.3242"> </text><text fill="#000000" font-family="sans-serif" font-size="14" lengthAdjust="spacing" textLength="102" x="42.5" y="765.8125">// 是否需要版权</text><rect fill="none" height="6" style="stroke:#C82930;stroke-width:1.0;" width="6" x="30.5" y="772.7656"/><text fill="#000000" font-family="sans-serif" font-size="14" lengthAdjust="spacing" textLength="125" x="42.5" y="782.3008">boolean copyright</text><text fill="#000000" font-family="sans-serif" font-size="14" lengthAdjust="spacing" textLength="4" x="42.5" y="798.7891"> </text><text fill="#000000" font-family="sans-serif" font-size="14" lengthAdjust="spacing" textLength="102" x="42.5" y="815.2773">// 源文章阅读数</text><rect fill="none" height="6" style="stroke:#C82930;stroke-width:1.0;" width="6" x="30.5" y="822.2305"/><text fill="#000000" font-family="sans-serif" font-size="14" lengthAdjust="spacing" textLength="141" x="42.5" y="831.7656">int originalReadNum</text><text fill="#000000" font-family="sans-serif" font-size="14" lengthAdjust="spacing" textLength="4" x="42.5" y="848.2539"> </text><text fill="#000000" font-family="sans-serif" font-size="14" lengthAdjust="spacing" textLength="102" x="42.5" y="864.7422">// 源文章分享数</text><rect fill="none" height="6" style="stroke:#C82930;stroke-width:1.0;" width="6" x="30.5" y="871.6953"/><text fill="#000000" font-family="sans-serif" font-size="14" lengthAdjust="spacing" textLength="146" x="42.5" y="881.2305">int originalShareNum</text><text fill="#000000" font-family="sans-serif" font-size="14" lengthAdjust="spacing" textLength="4" x="42.5" y="897.7188"> </text><line style="stroke:#181818;stroke-width:1.0;" x1="23.5" x2="628.5" y1="904.6719" y2="904.6719"/><line style="stroke:#181818;stroke-width:1.0;" x1="23.5" x2="628.5" y1="906.6719" y2="906.6719"/><text fill="#000000" font-family="sans-serif" font-size="14" lengthAdjust="spacing" textLength="4" x="28.5" y="922.207"> </text></g><!--MD5=[e89c59f67b979dbee0dfe05473736fa6]
class com.youkeda.application.art.article.model.Article--><g id="elem_com.youkeda.application.art.article.model.Article"><rect codeLine="48" fill="#F1F1F1" height="1004.3203" id="com.youkeda.application.art.article.model.Article" rx="2.5" ry="2.5" style="stroke:#181818;stroke-width:0.5;" width="276" x="665" y="164"/><ellipse cx="776.75" cy="180" fill="#ADD1B2" rx="11" ry="11" style="stroke:#181818;stroke-width:1.0;"/><path d="M779.2231,186.1431 Q778.6421,186.4419 778.0029,186.5913 Q777.3638,186.7407 776.6582,186.7407 Q774.1514,186.7407 772.8315,185.0889 Q771.5117,183.437 771.5117,180.3159 Q771.5117,177.1865 772.8315,175.5347 Q774.1514,173.8828 776.6582,173.8828 Q777.3638,173.8828 778.0112,174.0322 Q778.6587,174.1816 779.2231,174.4805 L779.2231,177.2031 Q778.5923,176.6221 777.9988,176.3523 Q777.4053,176.0825 776.7744,176.0825 Q775.4297,176.0825 774.7449,177.1492 Q774.0601,178.2158 774.0601,180.3159 Q774.0601,182.4077 774.7449,183.4744 Q775.4297,184.541 776.7744,184.541 Q777.4053,184.541 777.9988,184.2712 Q778.5923,184.0015 779.2231,183.4204 Z " fill="#000000"/><text fill="#000000" font-family="sans-serif" font-size="14" lengthAdjust="spacing" textLength="44" x="797.25" y="185.291">Article</text><line style="stroke:#181818;stroke-width:0.5;" x1="666" x2="940" y1="196" y2="196"/><text fill="#000000" font-family="sans-serif" font-size="14" lengthAdjust="spacing" textLength="74" x="685" y="213.5352">// 文章标题</text><rect fill="none" height="6" style="stroke:#C82930;stroke-width:1.0;" width="6" x="673" y="220.4883"/><text fill="#000000" font-family="sans-serif" font-size="14" lengthAdjust="spacing" textLength="71" x="685" y="230.0234">String title</text><text fill="#000000" font-family="sans-serif" font-size="14" lengthAdjust="spacing" textLength="4" x="685" y="246.5117"> </text><text fill="#000000" font-family="sans-serif" font-size="14" lengthAdjust="spacing" textLength="127" x="685" y="263">// 发布人accountId</text><rect fill="none" height="6" style="stroke:#C82930;stroke-width:1.0;" width="6" x="673" y="269.9531"/><text fill="#000000" font-family="sans-serif" font-size="14" lengthAdjust="spacing" textLength="112" x="685" y="279.4883">String accountId</text><text fill="#000000" font-family="sans-serif" font-size="14" lengthAdjust="spacing" textLength="4" x="685" y="295.9766"> </text><text fill="#000000" font-family="sans-serif" font-size="14" lengthAdjust="spacing" textLength="74" x="685" y="312.4648">// 评价数量</text><rect fill="none" height="6" style="stroke:#C82930;stroke-width:1.0;" width="6" x="673" y="319.418"/><text fill="#000000" font-family="sans-serif" font-size="14" lengthAdjust="spacing" textLength="118" x="685" y="328.9531">int commentNum</text><text fill="#000000" font-family="sans-serif" font-size="14" lengthAdjust="spacing" textLength="4" x="685" y="345.4414"> </text><text fill="#000000" font-family="sans-serif" font-size="14" lengthAdjust="spacing" textLength="102" x="685" y="361.9297">// 关联活动类型</text><rect fill="none" height="6" style="stroke:#C82930;stroke-width:1.0;" width="6" x="673" y="368.8828"/><text fill="#000000" font-family="sans-serif" font-size="14" lengthAdjust="spacing" textLength="169" x="685" y="378.418">RefCategory refCategory</text><text fill="#000000" font-family="sans-serif" font-size="14" lengthAdjust="spacing" textLength="4" x="685" y="394.9063"> </text><text fill="#000000" font-family="sans-serif" font-size="14" lengthAdjust="spacing" textLength="65" x="685" y="411.3945">// 附件url</text><rect fill="none" height="6" style="stroke:#C82930;stroke-width:1.0;" width="6" x="673" y="418.3477"/><text fill="#000000" font-family="sans-serif" font-size="14" lengthAdjust="spacing" textLength="133" x="685" y="427.8828">List&lt;String&gt; ossUrl</text><text fill="#000000" font-family="sans-serif" font-size="14" lengthAdjust="spacing" textLength="4" x="685" y="444.3711"> </text><text fill="#000000" font-family="sans-serif" font-size="14" lengthAdjust="spacing" textLength="74" x="685" y="460.8594">// 文章详情</text><rect fill="none" height="6" style="stroke:#C82930;stroke-width:1.0;" width="6" x="673" y="467.8125"/><text fill="#000000" font-family="sans-serif" font-size="14" lengthAdjust="spacing" textLength="168" x="685" y="477.3477">ArticleDetail articleDetail</text><text fill="#000000" font-family="sans-serif" font-size="14" lengthAdjust="spacing" textLength="4" x="685" y="493.8359"> </text><text fill="#000000" font-family="sans-serif" font-size="14" lengthAdjust="spacing" textLength="74" x="685" y="510.3242">// 文章来源</text><rect fill="none" height="6" style="stroke:#C82930;stroke-width:1.0;" width="6" x="673" y="517.2773"/><text fill="#000000" font-family="sans-serif" font-size="14" lengthAdjust="spacing" textLength="184" x="685" y="526.8125">ArticleSource articleSource</text><text fill="#000000" font-family="sans-serif" font-size="14" lengthAdjust="spacing" textLength="4" x="685" y="543.3008"> </text><text fill="#000000" font-family="sans-serif" font-size="14" lengthAdjust="spacing" textLength="74" x="685" y="559.7891">// 总阅读数</text><rect fill="none" height="6" style="stroke:#C82930;stroke-width:1.0;" width="6" x="673" y="566.7422"/><text fill="#000000" font-family="sans-serif" font-size="14" lengthAdjust="spacing" textLength="132" x="685" y="576.2773">long totalReadNum</text><text fill="#000000" font-family="sans-serif" font-size="14" lengthAdjust="spacing" textLength="4" x="685" y="592.7656"> </text><text fill="#000000" font-family="sans-serif" font-size="14" lengthAdjust="spacing" textLength="74" x="685" y="609.2539">// 总点赞数</text><rect fill="none" height="6" style="stroke:#C82930;stroke-width:1.0;" width="6" x="673" y="616.207"/><text fill="#000000" font-family="sans-serif" font-size="14" lengthAdjust="spacing" textLength="125" x="685" y="625.7422">long totalLikeNum</text><text fill="#000000" font-family="sans-serif" font-size="14" lengthAdjust="spacing" textLength="4" x="685" y="642.2305"> </text><text fill="#000000" font-family="sans-serif" font-size="14" lengthAdjust="spacing" textLength="74" x="685" y="658.7188">// 编辑次数</text><rect fill="none" height="6" style="stroke:#C82930;stroke-width:1.0;" width="6" x="673" y="665.6719"/><text fill="#000000" font-family="sans-serif" font-size="14" lengthAdjust="spacing" textLength="80" x="685" y="675.207">int editNum</text><text fill="#000000" font-family="sans-serif" font-size="14" lengthAdjust="spacing" textLength="4" x="685" y="691.6953"> </text><text fill="#000000" font-family="sans-serif" font-size="14" lengthAdjust="spacing" textLength="74" x="685" y="708.1836">// 总分享数</text><rect fill="none" height="6" style="stroke:#C82930;stroke-width:1.0;" width="6" x="673" y="715.1367"/><text fill="#000000" font-family="sans-serif" font-size="14" lengthAdjust="spacing" textLength="137" x="685" y="724.6719">long totalShareNum</text><text fill="#000000" font-family="sans-serif" font-size="14" lengthAdjust="spacing" textLength="4" x="685" y="741.1602"> </text><text fill="#000000" font-family="sans-serif" font-size="14" lengthAdjust="spacing" textLength="95" x="685" y="757.6484">// 文章banner</text><rect fill="none" height="6" style="stroke:#C82930;stroke-width:1.0;" width="6" x="673" y="764.6016"/><text fill="#000000" font-family="sans-serif" font-size="14" lengthAdjust="spacing" textLength="94" x="685" y="774.1367">String banner</text><text fill="#000000" font-family="sans-serif" font-size="14" lengthAdjust="spacing" textLength="4" x="685" y="790.625"> </text><text fill="#000000" font-family="sans-serif" font-size="14" lengthAdjust="spacing" textLength="74" x="685" y="807.1133">// 文章来源</text><rect fill="none" height="6" style="stroke:#C82930;stroke-width:1.0;" width="6" x="673" y="814.0664"/><text fill="#000000" font-family="sans-serif" font-size="14" lengthAdjust="spacing" textLength="250" x="685" y="823.6016">ArticleSourceType articleSourceType</text><text fill="#000000" font-family="sans-serif" font-size="14" lengthAdjust="spacing" textLength="4" x="685" y="840.0898"> </text><text fill="#000000" font-family="sans-serif" font-size="14" lengthAdjust="spacing" textLength="74" x="685" y="856.5781">// 文章作者</text><rect fill="none" height="6" style="stroke:#C82930;stroke-width:1.0;" width="6" x="673" y="863.5313"/><text fill="#000000" font-family="sans-serif" font-size="14" lengthAdjust="spacing" textLength="91" x="685" y="873.0664">String author</text><text fill="#000000" font-family="sans-serif" font-size="14" lengthAdjust="spacing" textLength="4" x="685" y="889.5547"> </text><text fill="#000000" font-family="sans-serif" font-size="14" lengthAdjust="spacing" textLength="74" x="685" y="906.043">// 作者头像</text><rect fill="none" height="6" style="stroke:#C82930;stroke-width:1.0;" width="6" x="673" y="912.9961"/><text fill="#000000" font-family="sans-serif" font-size="14" lengthAdjust="spacing" textLength="107" x="685" y="922.5313">String avatarUrl</text><text fill="#000000" font-family="sans-serif" font-size="14" lengthAdjust="spacing" textLength="4" x="685" y="939.0195"> </text><text fill="#000000" font-family="sans-serif" font-size="14" lengthAdjust="spacing" textLength="74" x="685" y="955.5078">// 文章类型</text><rect fill="none" height="6" style="stroke:#C82930;stroke-width:1.0;" width="6" x="673" y="962.4609"/><text fill="#000000" font-family="sans-serif" font-size="14" lengthAdjust="spacing" textLength="149" x="685" y="971.9961">String articleCategory</text><text fill="#000000" font-family="sans-serif" font-size="14" lengthAdjust="spacing" textLength="4" x="685" y="988.4844"> </text><text fill="#000000" font-family="sans-serif" font-size="14" lengthAdjust="spacing" textLength="46" x="685" y="1004.9727">// 状态</text><rect fill="none" height="6" style="stroke:#C82930;stroke-width:1.0;" width="6" x="673" y="1011.9258"/><text fill="#000000" font-family="sans-serif" font-size="14" lengthAdjust="spacing" textLength="86" x="685" y="1021.4609">String status</text><text fill="#000000" font-family="sans-serif" font-size="14" lengthAdjust="spacing" textLength="4" x="685" y="1037.9492"> </text><text fill="#000000" font-family="sans-serif" font-size="14" lengthAdjust="spacing" textLength="74" x="685" y="1054.4375">// 链接地址</text><rect fill="none" height="6" style="stroke:#C82930;stroke-width:1.0;" width="6" x="673" y="1061.3906"/><text fill="#000000" font-family="sans-serif" font-size="14" lengthAdjust="spacing" textLength="90" x="685" y="1070.9258">String linkUrl</text><text fill="#000000" font-family="sans-serif" font-size="14" lengthAdjust="spacing" textLength="4" x="685" y="1087.4141"> </text><text fill="#000000" font-family="sans-serif" font-size="14" lengthAdjust="spacing" textLength="74" x="685" y="1103.9023">// 额外属性</text><rect fill="none" height="6" style="stroke:#C82930;stroke-width:1.0;" width="6" x="673" y="1110.8555"/><text fill="#000000" font-family="sans-serif" font-size="14" lengthAdjust="spacing" textLength="193" x="685" y="1120.3906">Map&lt;String,String&gt; context</text><text fill="#000000" font-family="sans-serif" font-size="14" lengthAdjust="spacing" textLength="4" x="685" y="1136.8789"> </text><line style="stroke:#181818;stroke-width:1.0;" x1="666" x2="940" y1="1143.832" y2="1143.832"/><line style="stroke:#181818;stroke-width:1.0;" x1="666" x2="940" y1="1145.832" y2="1145.832"/><text fill="#000000" font-family="sans-serif" font-size="14" lengthAdjust="spacing" textLength="4" x="671" y="1161.3672"> </text></g><!--MD5=[2f59e8f0c0fde480b5ec449b9589025e]
class com.youkeda.application.art.article.model.ArticleSourceType--><g id="elem_com.youkeda.application.art.article.model.ArticleSourceType"><rect codeLine="110" fill="#F1F1F1" height="130.4414" id="com.youkeda.application.art.article.model.ArticleSourceType" rx="2.5" ry="2.5" style="stroke:#181818;stroke-width:0.5;" width="156" x="633" y="1253"/><ellipse cx="648" cy="1269" fill="#EB937F" rx="11" ry="11" style="stroke:#181818;stroke-width:1.0;"/><path d="M651.6143,1275.5 L643.8945,1275.5 L643.8945,1263.1069 L651.6143,1263.1069 L651.6143,1265.2651 L646.3433,1265.2651 L646.3433,1267.938 L651.1162,1267.938 L651.1162,1270.0962 L646.3433,1270.0962 L646.3433,1273.3418 L651.6143,1273.3418 Z " fill="#000000"/><text fill="#000000" font-family="sans-serif" font-size="14" lengthAdjust="spacing" textLength="124" x="662" y="1274.291">ArticleSourceType</text><line style="stroke:#181818;stroke-width:0.5;" x1="634" x2="788" y1="1285" y2="1285"/><text fill="#000000" font-family="sans-serif" font-size="14" lengthAdjust="spacing" textLength="84" x="653" y="1302.5352">//自定义文章</text><ellipse cx="644" cy="1312.4883" fill="none" rx="3" ry="3" style="stroke:#038048;stroke-width:1.0;"/><text fill="#000000" font-family="sans-serif" font-size="14" lengthAdjust="spacing" textLength="65" x="653" y="1319.0234">ORIGINAL</text><text fill="#000000" font-family="sans-serif" font-size="14" lengthAdjust="spacing" textLength="4" x="653" y="1335.5117"> </text><text fill="#000000" font-family="sans-serif" font-size="14" lengthAdjust="spacing" textLength="70" x="653" y="1352">//爬取文章</text><ellipse cx="644" cy="1361.9531" fill="none" rx="3" ry="3" style="stroke:#038048;stroke-width:1.0;"/><text fill="#000000" font-family="sans-serif" font-size="14" lengthAdjust="spacing" textLength="72" x="653" y="1368.4883">CRAWLING</text><line style="stroke:#181818;stroke-width:0.5;" x1="634" x2="788" y1="1375.4414" y2="1375.4414"/></g><!--MD5=[bb9877b2d91f9eee1fdf9d819563127e]
class com.youkeda.application.art.article.model.RefCategory--><g id="elem_com.youkeda.application.art.article.model.RefCategory"><rect codeLine="118" fill="#F1F1F1" height="179.9063" id="com.youkeda.application.art.article.model.RefCategory" rx="2.5" ry="2.5" style="stroke:#181818;stroke-width:0.5;" width="140" x="824" y="1228"/><ellipse cx="849.8" cy="1244" fill="#EB937F" rx="11" ry="11" style="stroke:#181818;stroke-width:1.0;"/><path d="M853.4143,1250.5 L845.6945,1250.5 L845.6945,1238.1069 L853.4143,1238.1069 L853.4143,1240.2651 L848.1433,1240.2651 L848.1433,1242.938 L852.9162,1242.938 L852.9162,1245.0962 L848.1433,1245.0962 L848.1433,1248.3418 L853.4143,1248.3418 Z " fill="#000000"/><text fill="#000000" font-family="sans-serif" font-size="14" lengthAdjust="spacing" textLength="84" x="866.2" y="1249.291">RefCategory</text><line style="stroke:#181818;stroke-width:0.5;" x1="825" x2="963" y1="1260" y2="1260"/><text fill="#000000" font-family="sans-serif" font-size="14" lengthAdjust="spacing" textLength="70" x="844" y="1277.5352">//故事集锦</text><ellipse cx="835" cy="1287.4883" fill="none" rx="3" ry="3" style="stroke:#038048;stroke-width:1.0;"/><text fill="#000000" font-family="sans-serif" font-size="14" lengthAdjust="spacing" textLength="101" x="844" y="1294.0234">STORY_GROUP</text><text fill="#000000" font-family="sans-serif" font-size="14" lengthAdjust="spacing" textLength="4" x="844" y="1310.5117"> </text><text fill="#000000" font-family="sans-serif" font-size="14" lengthAdjust="spacing" textLength="70" x="844" y="1327">//专家课堂</text><ellipse cx="835" cy="1336.9531" fill="none" rx="3" ry="3" style="stroke:#038048;stroke-width:1.0;"/><text fill="#000000" font-family="sans-serif" font-size="14" lengthAdjust="spacing" textLength="101" x="844" y="1343.4883">EXPERT_CLASS</text><text fill="#000000" font-family="sans-serif" font-size="14" lengthAdjust="spacing" textLength="4" x="844" y="1359.9766"> </text><text fill="#000000" font-family="sans-serif" font-size="14" lengthAdjust="spacing" textLength="70" x="844" y="1376.4648">//官网文章</text><ellipse cx="835" cy="1386.418" fill="none" rx="3" ry="3" style="stroke:#038048;stroke-width:1.0;"/><text fill="#000000" font-family="sans-serif" font-size="14" lengthAdjust="spacing" textLength="114" x="844" y="1392.9531">WEBSITEARTICLE</text><line style="stroke:#181818;stroke-width:0.5;" x1="825" x2="963" y1="1399.9063" y2="1399.9063"/></g><!--MD5=[20bab37502bf42f2386e3acbf9f92f35]
class com.youkeda.model.Base--><g id="elem_com.youkeda.model.Base"><rect fill="#F1F1F1" height="48" id="com.youkeda.model.Base" rx="2.5" ry="2.5" style="stroke:#181818;stroke-width:0.5;" width="63" x="902.5" y="41"/><ellipse cx="917.5" cy="57" fill="#ADD1B2" rx="11" ry="11" style="stroke:#181818;stroke-width:1.0;"/><path d="M919.9731,63.1431 Q919.3921,63.4419 918.7529,63.5913 Q918.1138,63.7407 917.4082,63.7407 Q914.9014,63.7407 913.5815,62.0889 Q912.2617,60.437 912.2617,57.3159 Q912.2617,54.1865 913.5815,52.5347 Q914.9014,50.8828 917.4082,50.8828 Q918.1138,50.8828 918.7612,51.0322 Q919.4087,51.1816 919.9731,51.4805 L919.9731,54.2031 Q919.3423,53.6221 918.7488,53.3523 Q918.1553,53.0825 917.5244,53.0825 Q916.1797,53.0825 915.4949,54.1492 Q914.8101,55.2158 914.8101,57.3159 Q914.8101,59.4077 915.4949,60.4744 Q916.1797,61.541 917.5244,61.541 Q918.1553,61.541 918.7488,61.2712 Q919.3423,61.0015 919.9731,60.4204 Z " fill="#000000"/><text fill="#000000" font-family="sans-serif" font-size="14" lengthAdjust="spacing" textLength="31" x="931.5" y="62.291">Base</text><line style="stroke:#181818;stroke-width:0.5;" x1="903.5" x2="964.5" y1="73" y2="73"/><line style="stroke:#181818;stroke-width:0.5;" x1="903.5" x2="964.5" y1="81" y2="81"/></g><!--MD5=[1cb14363de53e4cf64b5a75b527eebd8]
reverse link com.youkeda.model.Base to com.youkeda.application.art.article.model.ArticleDetail--><g id="link_com.youkeda.model.Base_com.youkeda.application.art.article.model.ArticleDetail"><path codeLine="130" d="M954.05,107.42 C955.87,111.95 957.57,116.53 959,121 C1006.7,269.71 1036.92,448.44 1052.65,559.4 " fill="none" id="com.youkeda.model.Base-backto-com.youkeda.application.art.article.model.ArticleDetail" style="stroke:#181818;stroke-width:1.0;"/><polygon fill="none" points="947.62,110.2,945.94,89.08,960.43,104.54,947.62,110.2" style="stroke:#181818;stroke-width:1.0;"/></g><!--MD5=[c9877cfe57291cb3d0ccc935f9b131f6]
reverse link com.youkeda.model.Base to com.youkeda.application.art.article.model.Article--><g id="link_com.youkeda.model.Base_com.youkeda.application.art.article.model.Article"><path codeLine="131" d="M924.64,108.81 C921.31,124.03 917.22,142.72 912.58,163.93 " fill="none" id="com.youkeda.model.Base-backto-com.youkeda.application.art.article.model.Article" style="stroke:#181818;stroke-width:1.0;"/><polygon fill="none" points="917.83,107.16,928.94,89.11,931.51,110.15,917.83,107.16" style="stroke:#181818;stroke-width:1.0;"/></g><!--MD5=[83b0030ddff34f3d859d752a58c75b38]
link com.youkeda.application.art.article.model.Article to com.youkeda.application.art.article.model.ArticleDetail--><g id="link_com.youkeda.application.art.article.model.Article_com.youkeda.application.art.article.model.ArticleDetail"><path codeLine="133" d="M941.18,666 C951.14,666 961.11,666 971.07,666 " fill="none" id="com.youkeda.application.art.article.model.Article-to-com.youkeda.application.art.article.model.ArticleDetail" style="stroke:#181818;stroke-width:1.0;"/><polygon fill="#181818" points="976.28,666,967.28,662,971.28,666,967.28,670,976.28,666" style="stroke:#181818;stroke-width:1.0;"/></g><!--MD5=[521738a5db507ac801307870b8d270f2]
reverse link com.youkeda.application.art.article.model.ArticleSource to com.youkeda.application.art.article.model.Article--><g id="link_com.youkeda.application.art.article.model.ArticleSource_com.youkeda.application.art.article.model.Article"><path codeLine="134" d="M634.94,666 C644.93,666 654.92,666 664.91,666 " fill="none" id="com.youkeda.application.art.article.model.ArticleSource-backto-com.youkeda.application.art.article.model.Article" style="stroke:#181818;stroke-width:1.0;"/><polygon fill="#181818" points="629.71,666,638.71,670,634.71,666,638.71,662,629.71,666" style="stroke:#181818;stroke-width:1.0;"/></g><!--MD5=[ca3da5e3f9464e7f760fa16e26374cd4]
link com.youkeda.application.art.article.model.Article to com.youkeda.application.art.article.model.ArticleSourceType--><g id="link_com.youkeda.application.art.article.model.Article_com.youkeda.application.art.article.model.ArticleSourceType"><path codeLine="135" d="M732.05,1168.28 C727.82,1198.19 723.99,1225.24 720.79,1247.82 " fill="none" id="com.youkeda.application.art.article.model.Article-to-com.youkeda.application.art.article.model.ArticleSourceType" style="stroke:#181818;stroke-width:1.0;"/><polygon fill="#181818" points="720.08,1252.86,725.3025,1244.5098,720.7811,1247.9094,717.3815,1243.388,720.08,1252.86" style="stroke:#181818;stroke-width:1.0;"/></g><!--MD5=[ae4db915563a45ec952a2da2549e27f7]
link com.youkeda.application.art.article.model.Article to com.youkeda.application.art.article.model.RefCategory--><g id="link_com.youkeda.application.art.article.model.Article_com.youkeda.application.art.article.model.RefCategory"><path codeLine="136" d="M873.18,1168.28 C875.91,1187.82 878.48,1206.14 880.81,1222.79 " fill="none" id="com.youkeda.application.art.article.model.Article-to-com.youkeda.application.art.article.model.RefCategory" style="stroke:#181818;stroke-width:1.0;"/><polygon fill="#181818" points="881.53,1227.9,884.2323,1218.4291,880.8309,1222.9491,876.3109,1219.5477,881.53,1227.9" style="stroke:#181818;stroke-width:1.0;"/></g><!--MD5=[99680ea0474edc941be4791105f02791]
@startuml

class com.youkeda.application.art.article.model.ArticleDetail {
// 所属文章的主键 id
- String articleId

// 文章内容
- String content

// 源文章内容
- String originalContent

====

}

class com.youkeda.application.art.article.model.ArticleSource {
// 文章来源链接
- String url

// 文章来源名称
- String originalName

// 文章来源标题
- String originalTitle

// 文章来源作者
- String originalAuthor

// 文章来源创建时间
@JsonFormat(shape = JsonFormat.Shape.STRING, pattern = "yyyy/MM/dd HH:mm:ss")
- LocalDateTime originalGmtCreated

// 源文章点赞数
- int originalLikeNum

// 是否需要版权
- boolean copyright

// 源文章阅读数
- int originalReadNum

// 源文章分享数
- int originalShareNum

====

}
class com.youkeda.application.art.article.model.Article {
// 文章标题
- String title

// 发布人accountId
- String accountId

// 评价数量
- int commentNum

// 关联活动类型
- RefCategory refCategory

// 附件url
- List<String> ossUrl

// 文章详情
- ArticleDetail articleDetail

// 文章来源
- ArticleSource articleSource

// 总阅读数
- long totalReadNum

// 总点赞数
- long totalLikeNum

// 编辑次数
- int editNum

// 总分享数
- long totalShareNum

// 文章banner
- String banner

// 文章来源
- ArticleSourceType articleSourceType

// 文章作者
- String author

// 作者头像
- String avatarUrl

// 文章类型
- String articleCategory

// 状态
- String status

// 链接地址
- String linkUrl

// 额外属性
- Map<String,String> context

====

}

enum com.youkeda.application.art.article.model.ArticleSourceType {
//自定义文章
+  ORIGINAL

//爬取文章
+  CRAWLING
}

enum com.youkeda.application.art.article.model.RefCategory {
//故事集锦
+  STORY_GROUP

//专家课堂
+  EXPERT_CLASS

//官网文章
+  WEBSITEARTICLE
}


com.youkeda.model.Base <|- - com.youkeda.application.art.article.model.ArticleDetail
com.youkeda.model.Base <|- - com.youkeda.application.art.article.model.Article

com.youkeda.application.art.article.model.Article -right-> com.youkeda.application.art.article.model.ArticleDetail
com.youkeda.application.art.article.model.Article -left-> com.youkeda.application.art.article.model.ArticleSource
com.youkeda.application.art.article.model.Article - -> com.youkeda.application.art.article.model.ArticleSourceType
com.youkeda.application.art.article.model.Article - -> com.youkeda.application.art.article.model.RefCategory

@enduml

PlantUML version 1.2022.6(Wed Jun 22 01:34:49 CST 2022)
(GPL source distribution)
Java Runtime: OpenJDK Runtime Environment
JVM: OpenJDK 64-Bit Server VM
Default Encoding: UTF-8
Language: zh
Country: CN
--></g></svg>