<?xml version="1.0" encoding="UTF-8" standalone="no"?><svg xmlns="http://www.w3.org/2000/svg" xmlns:xlink="http://www.w3.org/1999/xlink" contentStyleType="text/css" height="491px" preserveAspectRatio="none" style="width:655px;height:491px;background:#FFFFFF;" version="1.1" viewBox="0 0 655 491" width="655px" zoomAndPan="magnify"><defs/><g><!--MD5=[0d852700fdad35b7061d461d6907a324]
cluster java.io--><g id="cluster_java.io"><path d="M257.5,6 L304.5,6 A3.75,3.75 0 0 1 307,8.5 L314,28.4883 L396.5,28.4883 A2.5,2.5 0 0 1 399,30.9883 L399,102.5 A2.5,2.5 0 0 1 396.5,105 L257.5,105 A2.5,2.5 0 0 1 255,102.5 L255,8.5 A2.5,2.5 0 0 1 257.5,6 " style="stroke:#000000;stroke-width:1.5;fill:none;"/><line style="stroke:#000000;stroke-width:1.5;fill:none;" x1="255" x2="314" y1="28.4883" y2="28.4883"/><text fill="#000000" font-family="sans-serif" font-size="14" font-weight="bold" lengthAdjust="spacing" textLength="46" x="259" y="21.5352">java.io</text></g><!--MD5=[ed0073de296ff6289039be097c6b722a]
cluster com.youkeda.model--><g id="cluster_com.youkeda.model"><path d="M8.5,154 L150.5,154 A3.75,3.75 0 0 1 153,156.5 L160,176.4883 L645.5,176.4883 A2.5,2.5 0 0 1 648,178.9883 L648,481.5 A2.5,2.5 0 0 1 645.5,484 L8.5,484 A2.5,2.5 0 0 1 6,481.5 L6,156.5 A2.5,2.5 0 0 1 8.5,154 " style="stroke:#000000;stroke-width:1.5;fill:none;"/><line style="stroke:#000000;stroke-width:1.5;fill:none;" x1="6" x2="160" y1="176.4883" y2="176.4883"/><text fill="#000000" font-family="sans-serif" font-size="14" font-weight="bold" lengthAdjust="spacing" textLength="141" x="10" y="169.5352">com.youkeda.model</text></g><!--MD5=[5a5af9b0547913863cbe0ddf55a9ab5e]
class java.io.Serializable--><g id="elem_java.io.Serializable"><rect codeLine="2" fill="#F1F1F1" height="48" id="java.io.Serializable" rx="2.5" ry="2.5" style="stroke:#181818;stroke-width:0.5;" width="111" x="271.5" y="41"/><ellipse cx="286.5" cy="57" fill="#B4A7E5" rx="11" ry="11" style="stroke:#181818;stroke-width:1.0;"/><path d="M282.9277,53.2651 L282.9277,51.1069 L290.3071,51.1069 L290.3071,53.2651 L287.8418,53.2651 L287.8418,61.3418 L290.3071,61.3418 L290.3071,63.5 L282.9277,63.5 L282.9277,61.3418 L285.3931,61.3418 L285.3931,53.2651 Z " fill="#000000"/><text fill="#000000" font-family="sans-serif" font-size="14" font-style="italic" lengthAdjust="spacing" textLength="79" x="300.5" y="62.291">Serializable</text><line style="stroke:#181818;stroke-width:0.5;" x1="272.5" x2="381.5" y1="73" y2="73"/><line style="stroke:#181818;stroke-width:0.5;" x1="272.5" x2="381.5" y1="81" y2="81"/></g><!--MD5=[20bab37502bf42f2386e3acbf9f92f35]
class com.youkeda.model.Base--><g id="elem_com.youkeda.model.Base"><rect codeLine="5" fill="#F1F1F1" height="278.8359" id="com.youkeda.model.Base" rx="2.5" ry="2.5" style="stroke:#181818;stroke-width:0.5;" width="609" x="22.5" y="189"/><ellipse cx="301.25" cy="205" fill="#ADD1B2" rx="11" ry="11" style="stroke:#181818;stroke-width:1.0;"/><path d="M303.7231,211.1431 Q303.1421,211.4419 302.5029,211.5913 Q301.8638,211.7407 301.1582,211.7407 Q298.6514,211.7407 297.3315,210.0889 Q296.0117,208.437 296.0117,205.3159 Q296.0117,202.1865 297.3315,200.5347 Q298.6514,198.8828 301.1582,198.8828 Q301.8638,198.8828 302.5112,199.0322 Q303.1587,199.1816 303.7231,199.4805 L303.7231,202.2031 Q303.0923,201.6221 302.4988,201.3523 Q301.9053,201.0825 301.2744,201.0825 Q299.9297,201.0825 299.2449,202.1492 Q298.5601,203.2158 298.5601,205.3159 Q298.5601,207.4077 299.2449,208.4744 Q299.9297,209.541 301.2744,209.541 Q301.9053,209.541 302.4988,209.2712 Q303.0923,209.0015 303.7231,208.4204 Z " fill="#000000"/><text fill="#000000" font-family="sans-serif" font-size="14" lengthAdjust="spacing" textLength="31" x="321.75" y="210.291">Base</text><rect fill="#FFFFFF" height="16.1328" style="stroke:#000000;stroke-width:1.0;stroke-dasharray:2.0,2.0;" width="10" x="624.5" y="186"/><text fill="#000000" font-family="sans-serif" font-size="12" font-style="italic" lengthAdjust="spacing" textLength="8" x="625.5" y="198.6016">T</text><line style="stroke:#181818;stroke-width:0.5;" x1="23.5" x2="630.5" y1="221" y2="221"/><text fill="#000000" font-family="sans-serif" font-size="14" lengthAdjust="spacing" textLength="46" x="42.5" y="238.5352">// 主键</text><text fill="#000000" font-family="sans-serif" font-size="14" lengthAdjust="spacing" textLength="25" x="42.5" y="255.0234">@Id</text><polygon fill="none" points="33.5,259.9766,37.5,263.9766,33.5,267.9766,29.5,263.9766" style="stroke:#B38D22;stroke-width:1.0;"/><text fill="#000000" font-family="sans-serif" font-size="14" lengthAdjust="spacing" textLength="58" x="42.5" y="271.5117">String id</text><text fill="#000000" font-family="sans-serif" font-size="14" lengthAdjust="spacing" textLength="4" x="42.5" y="288"> </text><text fill="#000000" font-family="sans-serif" font-size="14" lengthAdjust="spacing" textLength="583" x="42.5" y="304.4883">@JsonFormat(shape = JsonFormat.Shape.STRING, pattern = "yyyy-MM-dd HH:mm:ss")</text><rect fill="none" height="6" style="stroke:#C82930;stroke-width:1.0;" width="6" x="30.5" y="311.4414"/><text fill="#000000" font-family="sans-serif" font-size="14" lengthAdjust="spacing" textLength="185" x="42.5" y="320.9766">LocalDateTime gmtCreated</text><text fill="#000000" font-family="sans-serif" font-size="14" lengthAdjust="spacing" textLength="4" x="42.5" y="337.4648"> </text><text fill="#000000" font-family="sans-serif" font-size="14" lengthAdjust="spacing" textLength="583" x="42.5" y="353.9531">@JsonFormat(shape = JsonFormat.Shape.STRING, pattern = "yyyy-MM-dd HH:mm:ss")</text><rect fill="none" height="6" style="stroke:#C82930;stroke-width:1.0;" width="6" x="30.5" y="360.9063"/><text fill="#000000" font-family="sans-serif" font-size="14" lengthAdjust="spacing" textLength="191" x="42.5" y="370.4414">LocalDateTime gmtModified</text><text fill="#000000" font-family="sans-serif" font-size="14" lengthAdjust="spacing" textLength="4" x="42.5" y="386.9297"> </text><line style="stroke:#181818;stroke-width:1.0;" x1="23.5" x2="630.5" y1="393.8828" y2="393.8828"/><text fill="#000000" font-family="sans-serif" font-size="14" lengthAdjust="spacing" textLength="4" x="42.5" y="411.418"> </text><ellipse cx="33.5" cy="421.3711" fill="#84BE84" rx="3" ry="3" style="stroke:#038048;stroke-width:1.0;"/><text fill="#000000" font-family="sans-serif" font-size="14" lengthAdjust="spacing" textLength="90" x="42.5" y="427.9063">String getId()</text><ellipse cx="33.5" cy="437.8594" fill="#84BE84" rx="3" ry="3" style="stroke:#038048;stroke-width:1.0;"/><text fill="#000000" font-family="sans-serif" font-size="14" lengthAdjust="spacing" textLength="114" x="42.5" y="444.3945">T setId(String id)</text><text fill="#000000" font-family="sans-serif" font-size="14" lengthAdjust="spacing" textLength="4" x="42.5" y="460.8828"> </text></g><!--MD5=[e1c878561013edf149a1679bacb56839]
reverse link java.io.Serializable to com.youkeda.model.Base--><g id="link_java.io.Serializable_com.youkeda.model.Base"><path codeLine="25" d="M327,109.51 C327,131.71 327,160.09 327,188.98 " fill="none" id="java.io.Serializable-backto-com.youkeda.model.Base" style="stroke:#181818;stroke-width:1.0;stroke-dasharray:7.0,7.0;"/><polygon fill="none" points="320,109.21,327,89.21,334,109.21,320,109.21" style="stroke:#181818;stroke-width:1.0;"/><text fill="#000000" font-family="sans-serif" font-size="13" lengthAdjust="spacing" textLength="74" x="328" y="134.5684">implements</text></g><!--MD5=[9b29da7a45247c9538accb82c8d1e614]
@startuml

interface java.io.Serializable {
}

class com.youkeda.model.Base<T> {
// 主键
@Id
# String id

@JsonFormat(shape = JsonFormat.Shape.STRING, pattern = "yyyy-MM-dd HH:mm:ss")
- LocalDateTime gmtCreated

@JsonFormat(shape = JsonFormat.Shape.STRING, pattern = "yyyy-MM-dd HH:mm:ss")
- LocalDateTime gmtModified

- - - -

+ String getId()
+ T setId(String id)

}



java.io.Serializable <|.. com.youkeda.model.Base : implements

@enduml

PlantUML version 1.2022.6(Wed Jun 22 01:34:49 CST 2022)
(GPL source distribution)
Java Runtime: OpenJDK Runtime Environment
JVM: OpenJDK 64-Bit Server VM
Default Encoding: UTF-8
Language: zh
Country: CN
--></g></svg>