<?xml version="1.0" encoding="UTF-8" standalone="no"?><svg xmlns="http://www.w3.org/2000/svg" xmlns:xlink="http://www.w3.org/1999/xlink" contentStyleType="text/css" height="738px" preserveAspectRatio="none" style="width:1350px;height:738px;background:#FFFFFF;" version="1.1" viewBox="0 0 1350 738" width="1350px" zoomAndPan="magnify"><defs/><g><!--MD5=[0d852700fdad35b7061d461d6907a324]
cluster java.io--><g id="cluster_java.io"><path d="M661.5,6 L708.5,6 A3.75,3.75 0 0 1 711,8.5 L718,28.4883 L800.5,28.4883 A2.5,2.5 0 0 1 803,30.9883 L803,102.5 A2.5,2.5 0 0 1 800.5,105 L661.5,105 A2.5,2.5 0 0 1 659,102.5 L659,8.5 A2.5,2.5 0 0 1 661.5,6 " style="stroke:#000000;stroke-width:1.5;fill:none;"/><line style="stroke:#000000;stroke-width:1.5;fill:none;" x1="659" x2="718" y1="28.4883" y2="28.4883"/><text fill="#000000" font-family="sans-serif" font-size="14" font-weight="bold" lengthAdjust="spacing" textLength="46" x="663" y="21.5352">java.io</text></g><!--MD5=[ed0073de296ff6289039be097c6b722a]
cluster com.youkeda.model--><g id="cluster_com.youkeda.model"><path d="M8.5,154 L150.5,154 A3.75,3.75 0 0 1 153,156.5 L160,176.4883 L1340.5,176.4883 A2.5,2.5 0 0 1 1343,178.9883 L1343,728.5 A2.5,2.5 0 0 1 1340.5,731 L8.5,731 A2.5,2.5 0 0 1 6,728.5 L6,156.5 A2.5,2.5 0 0 1 8.5,154 " style="stroke:#000000;stroke-width:1.5;fill:none;"/><line style="stroke:#000000;stroke-width:1.5;fill:none;" x1="6" x2="160" y1="176.4883" y2="176.4883"/><text fill="#000000" font-family="sans-serif" font-size="14" font-weight="bold" lengthAdjust="spacing" textLength="141" x="10" y="169.5352">com.youkeda.model</text></g><!--MD5=[5a5af9b0547913863cbe0ddf55a9ab5e]
class java.io.Serializable--><g id="elem_java.io.Serializable"><rect codeLine="1" fill="#F1F1F1" height="48" id="java.io.Serializable" rx="2.5" ry="2.5" style="stroke:#181818;stroke-width:0.5;" width="111" x="675.5" y="41"/><ellipse cx="690.5" cy="57" fill="#B4A7E5" rx="11" ry="11" style="stroke:#181818;stroke-width:1.0;"/><path d="M686.9277,53.2651 L686.9277,51.1069 L694.3071,51.1069 L694.3071,53.2651 L691.8418,53.2651 L691.8418,61.3418 L694.3071,61.3418 L694.3071,63.5 L686.9277,63.5 L686.9277,61.3418 L689.3931,61.3418 L689.3931,53.2651 Z " fill="#000000"/><text fill="#000000" font-family="sans-serif" font-size="14" font-style="italic" lengthAdjust="spacing" textLength="79" x="704.5" y="62.291">Serializable</text><line style="stroke:#181818;stroke-width:0.5;" x1="676.5" x2="785.5" y1="73" y2="73"/><line style="stroke:#181818;stroke-width:0.5;" x1="676.5" x2="785.5" y1="81" y2="81"/></g><!--MD5=[20bab37502bf42f2386e3acbf9f92f35]
class com.youkeda.model.Base--><g id="elem_com.youkeda.model.Base"><rect codeLine="4" fill="#F1F1F1" height="344.7891" id="com.youkeda.model.Base" rx="2.5" ry="2.5" style="stroke:#181818;stroke-width:0.5;" width="609" x="22.5" y="279.5"/><ellipse cx="301.25" cy="295.5" fill="#ADD1B2" rx="11" ry="11" style="stroke:#181818;stroke-width:1.0;"/><path d="M303.7231,301.6431 Q303.1421,301.9419 302.5029,302.0913 Q301.8638,302.2407 301.1582,302.2407 Q298.6514,302.2407 297.3315,300.5889 Q296.0117,298.937 296.0117,295.8159 Q296.0117,292.6865 297.3315,291.0347 Q298.6514,289.3828 301.1582,289.3828 Q301.8638,289.3828 302.5112,289.5322 Q303.1587,289.6816 303.7231,289.9805 L303.7231,292.7031 Q303.0923,292.1221 302.4988,291.8523 Q301.9053,291.5825 301.2744,291.5825 Q299.9297,291.5825 299.2449,292.6492 Q298.5601,293.7158 298.5601,295.8159 Q298.5601,297.9077 299.2449,298.9744 Q299.9297,300.041 301.2744,300.041 Q301.9053,300.041 302.4988,299.7712 Q303.0923,299.5015 303.7231,298.9204 Z " fill="#000000"/><text fill="#000000" font-family="sans-serif" font-size="14" lengthAdjust="spacing" textLength="31" x="321.75" y="300.791">Base</text><rect fill="#FFFFFF" height="16.1328" style="stroke:#000000;stroke-width:1.0;stroke-dasharray:2.0,2.0;" width="10" x="624.5" y="276.5"/><text fill="#000000" font-family="sans-serif" font-size="12" font-style="italic" lengthAdjust="spacing" textLength="8" x="625.5" y="289.1016">T</text><line style="stroke:#181818;stroke-width:0.5;" x1="23.5" x2="630.5" y1="311.5" y2="311.5"/><text fill="#000000" font-family="sans-serif" font-size="14" lengthAdjust="spacing" textLength="46" x="42.5" y="329.0352">// 主键</text><text fill="#000000" font-family="sans-serif" font-size="14" lengthAdjust="spacing" textLength="25" x="42.5" y="345.5234">@Id</text><polygon fill="none" points="33.5,350.4766,37.5,354.4766,33.5,358.4766,29.5,354.4766" style="stroke:#B38D22;stroke-width:1.0;"/><text fill="#000000" font-family="sans-serif" font-size="14" lengthAdjust="spacing" textLength="58" x="42.5" y="362.0117">String id</text><text fill="#000000" font-family="sans-serif" font-size="14" lengthAdjust="spacing" textLength="4" x="42.5" y="378.5"> </text><text fill="#000000" font-family="sans-serif" font-size="14" lengthAdjust="spacing" textLength="256" x="42.5" y="394.9883">// 公司 id，MongoDB自动转为ObjectId</text><text fill="#000000" font-family="sans-serif" font-size="14" lengthAdjust="spacing" textLength="289" x="42.5" y="411.4766">@Field(targetType = FieldType.OBJECT_ID)</text><polygon fill="none" points="33.5,416.4297,37.5,420.4297,33.5,424.4297,29.5,420.4297" style="stroke:#B38D22;stroke-width:1.0;"/><text fill="#000000" font-family="sans-serif" font-size="14" lengthAdjust="spacing" textLength="287" x="42.5" y="427.9648">String companyId = Company.DEFAULT.id</text><text fill="#000000" font-family="sans-serif" font-size="14" lengthAdjust="spacing" textLength="4" x="42.5" y="444.4531"> </text><text fill="#000000" font-family="sans-serif" font-size="14" lengthAdjust="spacing" textLength="583" x="42.5" y="460.9414">@JsonFormat(shape = JsonFormat.Shape.STRING, pattern = "yyyy-MM-dd HH:mm:ss")</text><rect fill="none" height="6" style="stroke:#C82930;stroke-width:1.0;" width="6" x="30.5" y="467.8945"/><text fill="#000000" font-family="sans-serif" font-size="14" lengthAdjust="spacing" textLength="185" x="42.5" y="477.4297">LocalDateTime gmtCreated</text><text fill="#000000" font-family="sans-serif" font-size="14" lengthAdjust="spacing" textLength="4" x="42.5" y="493.918"> </text><text fill="#000000" font-family="sans-serif" font-size="14" lengthAdjust="spacing" textLength="583" x="42.5" y="510.4063">@JsonFormat(shape = JsonFormat.Shape.STRING, pattern = "yyyy-MM-dd HH:mm:ss")</text><rect fill="none" height="6" style="stroke:#C82930;stroke-width:1.0;" width="6" x="30.5" y="517.3594"/><text fill="#000000" font-family="sans-serif" font-size="14" lengthAdjust="spacing" textLength="191" x="42.5" y="526.8945">LocalDateTime gmtModified</text><text fill="#000000" font-family="sans-serif" font-size="14" lengthAdjust="spacing" textLength="4" x="42.5" y="543.3828"> </text><line style="stroke:#181818;stroke-width:1.0;" x1="23.5" x2="630.5" y1="550.3359" y2="550.3359"/><text fill="#000000" font-family="sans-serif" font-size="14" lengthAdjust="spacing" textLength="4" x="42.5" y="567.8711"> </text><ellipse cx="33.5" cy="577.8242" fill="#84BE84" rx="3" ry="3" style="stroke:#038048;stroke-width:1.0;"/><text fill="#000000" font-family="sans-serif" font-size="14" lengthAdjust="spacing" textLength="90" x="42.5" y="584.3594">String getId()</text><ellipse cx="33.5" cy="594.3125" fill="#84BE84" rx="3" ry="3" style="stroke:#038048;stroke-width:1.0;"/><text fill="#000000" font-family="sans-serif" font-size="14" lengthAdjust="spacing" textLength="114" x="42.5" y="600.8477">T setId(String id)</text><text fill="#000000" font-family="sans-serif" font-size="14" lengthAdjust="spacing" textLength="4" x="42.5" y="617.3359"> </text></g><!--MD5=[7cc8d2c93b593fcf745408f65aa94e52]
class com.youkeda.model.Company--><g id="elem_com.youkeda.model.Company"><rect codeLine="26" fill="#F1F1F1" height="526.1602" id="com.youkeda.model.Company" rx="2.5" ry="2.5" style="stroke:#181818;stroke-width:0.5;" width="660" x="667" y="189"/><ellipse cx="960.25" cy="205" fill="#ADD1B2" rx="11" ry="11" style="stroke:#181818;stroke-width:1.0;"/><path d="M962.7231,211.1431 Q962.1421,211.4419 961.5029,211.5913 Q960.8638,211.7407 960.1582,211.7407 Q957.6514,211.7407 956.3315,210.0889 Q955.0117,208.437 955.0117,205.3159 Q955.0117,202.1865 956.3315,200.5347 Q957.6514,198.8828 960.1582,198.8828 Q960.8638,198.8828 961.5112,199.0322 Q962.1587,199.1816 962.7231,199.4805 L962.7231,202.2031 Q962.0923,201.6221 961.4988,201.3523 Q960.9053,201.0825 960.2744,201.0825 Q958.9297,201.0825 958.2449,202.1492 Q957.5601,203.2158 957.5601,205.3159 Q957.5601,207.4077 958.2449,208.4744 Q958.9297,209.541 960.2744,209.541 Q960.9053,209.541 961.4988,209.2712 Q962.0923,209.0015 962.7231,208.4204 Z " fill="#000000"/><text fill="#000000" font-family="sans-serif" font-size="14" lengthAdjust="spacing" textLength="65" x="980.75" y="210.291">Company</text><line style="stroke:#181818;stroke-width:0.5;" x1="668" x2="1326" y1="221" y2="221"/><text fill="#000000" font-family="sans-serif" font-size="14" lengthAdjust="spacing" textLength="77" x="687" y="238.5352">@Transient</text><ellipse cx="678" cy="248.4883" fill="#84BE84" rx="3" ry="3" style="stroke:#038048;stroke-width:1.0;"/><text fill="#000000" font-family="sans-serif" font-size="14" lengthAdjust="spacing" text-decoration="underline" textLength="634" x="687" y="255.0234">final Company DEFAULT = new Company("5e72e0bfad8bcb7392fbcb79", "default", "default")</text><text fill="#000000" font-family="sans-serif" font-size="14" lengthAdjust="spacing" textLength="4" x="687" y="271.5117"> </text><rect fill="none" height="6" style="stroke:#C82930;stroke-width:1.0;" width="6" x="675" y="278.4648"/><text fill="#000000" font-family="sans-serif" font-size="14" lengthAdjust="spacing" text-decoration="underline" textLength="148" x="687" y="288">long serialVersionUID</text><text fill="#000000" font-family="sans-serif" font-size="14" lengthAdjust="spacing" textLength="4" x="687" y="304.4883"> </text><text fill="#000000" font-family="sans-serif" font-size="14" lengthAdjust="spacing" textLength="25" x="687" y="320.9766">@Id</text><polygon fill="none" points="678,325.9297,682,329.9297,678,333.9297,674,329.9297" style="stroke:#B38D22;stroke-width:1.0;"/><text fill="#000000" font-family="sans-serif" font-size="14" lengthAdjust="spacing" textLength="58" x="687" y="337.4648">String id</text><text fill="#000000" font-family="sans-serif" font-size="14" lengthAdjust="spacing" textLength="4" x="687" y="353.9531"> </text><text fill="#000000" font-family="sans-serif" font-size="14" lengthAdjust="spacing" textLength="583" x="687" y="370.4414">@JsonFormat(shape = JsonFormat.Shape.STRING, pattern = "yyyy-MM-dd HH:mm:ss")</text><rect fill="none" height="6" style="stroke:#C82930;stroke-width:1.0;" width="6" x="675" y="377.3945"/><text fill="#000000" font-family="sans-serif" font-size="14" lengthAdjust="spacing" textLength="185" x="687" y="386.9297">LocalDateTime gmtCreated</text><text fill="#000000" font-family="sans-serif" font-size="14" lengthAdjust="spacing" textLength="4" x="687" y="403.418"> </text><text fill="#000000" font-family="sans-serif" font-size="14" lengthAdjust="spacing" textLength="583" x="687" y="419.9063">@JsonFormat(shape = JsonFormat.Shape.STRING, pattern = "yyyy-MM-dd HH:mm:ss")</text><rect fill="none" height="6" style="stroke:#C82930;stroke-width:1.0;" width="6" x="675" y="426.8594"/><text fill="#000000" font-family="sans-serif" font-size="14" lengthAdjust="spacing" textLength="191" x="687" y="436.3945">LocalDateTime gmtModified</text><text fill="#000000" font-family="sans-serif" font-size="14" lengthAdjust="spacing" textLength="4" x="687" y="452.8828"> </text><text fill="#000000" font-family="sans-serif" font-size="14" lengthAdjust="spacing" textLength="74" x="687" y="469.3711">// 企业编码</text><rect fill="none" height="6" style="stroke:#C82930;stroke-width:1.0;" width="6" x="675" y="476.3242"/><text fill="#000000" font-family="sans-serif" font-size="14" lengthAdjust="spacing" textLength="78" x="687" y="485.8594">String code</text><text fill="#000000" font-family="sans-serif" font-size="14" lengthAdjust="spacing" textLength="60" x="687" y="502.3477">// 企业域</text><rect fill="none" height="6" style="stroke:#C82930;stroke-width:1.0;" width="6" x="675" y="509.3008"/><text fill="#000000" font-family="sans-serif" font-size="14" lengthAdjust="spacing" textLength="97" x="687" y="518.8359">String domain</text><text fill="#000000" font-family="sans-serif" font-size="14" lengthAdjust="spacing" textLength="102" x="687" y="535.3242">// 企业名字全称</text><rect fill="none" height="6" style="stroke:#C82930;stroke-width:1.0;" width="6" x="675" y="542.2773"/><text fill="#000000" font-family="sans-serif" font-size="14" lengthAdjust="spacing" textLength="83" x="687" y="551.8125">String name</text><text fill="#000000" font-family="sans-serif" font-size="14" lengthAdjust="spacing" textLength="74" x="687" y="568.3008">// 企业简称</text><rect fill="none" height="6" style="stroke:#C82930;stroke-width:1.0;" width="6" x="675" y="575.2539"/><text fill="#000000" font-family="sans-serif" font-size="14" lengthAdjust="spacing" textLength="120" x="687" y="584.7891">String shortName</text><text fill="#000000" font-family="sans-serif" font-size="14" lengthAdjust="spacing" textLength="110" x="687" y="601.2773">// 企业 owner id</text><rect fill="none" height="6" style="stroke:#C82930;stroke-width:1.0;" width="6" x="675" y="608.2305"/><text fill="#000000" font-family="sans-serif" font-size="14" lengthAdjust="spacing" textLength="132" x="687" y="617.7656">String ownerUserId</text><text fill="#000000" font-family="sans-serif" font-size="14" lengthAdjust="spacing" textLength="4" x="687" y="634.2539"> </text><line style="stroke:#181818;stroke-width:1.0;" x1="668" x2="1326" y1="641.207" y2="641.207"/><text fill="#000000" font-family="sans-serif" font-size="14" lengthAdjust="spacing" textLength="4" x="687" y="658.7422"> </text><ellipse cx="678" cy="668.6953" fill="#84BE84" rx="3" ry="3" style="stroke:#038048;stroke-width:1.0;"/><text fill="#000000" font-family="sans-serif" font-size="14" lengthAdjust="spacing" textLength="138" x="687" y="675.2305">«Create» Company()</text><ellipse cx="678" cy="685.1836" fill="#84BE84" rx="3" ry="3" style="stroke:#038048;stroke-width:1.0;"/><text fill="#000000" font-family="sans-serif" font-size="14" lengthAdjust="spacing" textLength="373" x="687" y="691.7188">«Create» Company(String id, String name, String code)</text><text fill="#000000" font-family="sans-serif" font-size="14" lengthAdjust="spacing" textLength="4" x="687" y="708.207"> </text></g><!--MD5=[e1c878561013edf149a1679bacb56839]
reverse link java.io.Serializable to com.youkeda.model.Base--><g id="link_java.io.Serializable_com.youkeda.model.Base"><path codeLine="59" d="M692.15,103.02 C649.03,144.11 576.37,213.35 507.17,279.3 " fill="none" id="java.io.Serializable-backto-com.youkeda.model.Base" style="stroke:#181818;stroke-width:1.0;stroke-dasharray:7.0,7.0;"/><polygon fill="none" points="687.33,97.95,706.64,89.22,696.99,108.08,687.33,97.95" style="stroke:#181818;stroke-width:1.0;"/><text fill="#000000" font-family="sans-serif" font-size="13" lengthAdjust="spacing" textLength="74" x="673" y="134.5684">implements</text></g><!--MD5=[9fce0c1746eab83f48b58da4a54dc831]
reverse link java.io.Serializable to com.youkeda.model.Company--><g id="link_java.io.Serializable_com.youkeda.model.Company"><path codeLine="60" d="M758.46,105.75 C773.55,127.59 793.7,156.75 815.92,188.91 " fill="none" id="java.io.Serializable-backto-com.youkeda.model.Company" style="stroke:#181818;stroke-width:1.0;stroke-dasharray:7.0,7.0;"/><polygon fill="none" points="752.65,109.65,747.04,89.22,764.17,101.69,752.65,109.65" style="stroke:#181818;stroke-width:1.0;"/><text fill="#000000" font-family="sans-serif" font-size="13" lengthAdjust="spacing" textLength="74" x="776" y="134.5684">implements</text></g><!--MD5=[2f99a9d90c4ffbd4bc254a3382624014]
link com.youkeda.model.Base to com.youkeda.model.Company--><g id="link_com.youkeda.model.Base_com.youkeda.model.Company"><path codeLine="61" d="M631.58,452 C641.6,452 651.63,452 661.66,452 " fill="none" id="com.youkeda.model.Base-to-com.youkeda.model.Company" style="stroke:#181818;stroke-width:1.0;stroke-dasharray:7.0,7.0;"/><polygon fill="#181818" points="666.9,452,657.9,448,661.9,452,657.9,456,666.9,452" style="stroke:#181818;stroke-width:1.0;"/></g><!--MD5=[dc78207f578d85e725cb4dfbc5950c87]
@startuml
interface java.io.Serializable {
}

class com.youkeda.model.Base<T> {
// 主键
@Id
# String id

// 公司 id，MongoDB自动转为ObjectId
@Field(targetType = FieldType.OBJECT_ID)
# String companyId = Company.DEFAULT.id

@JsonFormat(shape = JsonFormat.Shape.STRING, pattern = "yyyy-MM-dd HH:mm:ss")
- LocalDateTime gmtCreated

@JsonFormat(shape = JsonFormat.Shape.STRING, pattern = "yyyy-MM-dd HH:mm:ss")
- LocalDateTime gmtModified

- - - -

+ String getId()
+ T setId(String id)

}

class com.youkeda.model.Company {
@Transient
+ {static} final Company DEFAULT = new Company("5e72e0bfad8bcb7392fbcb79", "default", "default")

- {static} long serialVersionUID

@Id
# String id

@JsonFormat(shape = JsonFormat.Shape.STRING, pattern = "yyyy-MM-dd HH:mm:ss")
- LocalDateTime gmtCreated

@JsonFormat(shape = JsonFormat.Shape.STRING, pattern = "yyyy-MM-dd HH:mm:ss")
- LocalDateTime gmtModified

// 企业编码
- String code
// 企业域
- String domain
// 企业名字全称
- String name
// 企业简称
- String shortName
// 企业 owner id
- String ownerUserId

- - - -

+ <<Create>> Company()
+ <<Create>> Company(String id, String name, String code)

}

java.io.Serializable <|.. com.youkeda.model.Base : implements
java.io.Serializable <|.. com.youkeda.model.Company : implements
com.youkeda.model.Base .right.> com.youkeda.model.Company
@enduml

PlantUML version 1.2022.6(Wed Jun 22 01:34:49 CST 2022)
(GPL source distribution)
Java Runtime: OpenJDK Runtime Environment
JVM: OpenJDK 64-Bit Server VM
Default Encoding: UTF-8
Language: zh
Country: CN
--></g></svg>