<?xml version="1.0" encoding="UTF-8" standalone="no"?><svg xmlns="http://www.w3.org/2000/svg" xmlns:xlink="http://www.w3.org/1999/xlink" contentStyleType="text/css" height="1102px" preserveAspectRatio="none" style="width:911px;height:1102px;background:#FFFFFF;" version="1.1" viewBox="0 0 911 1102" width="911px" zoomAndPan="magnify"><defs/><g><!--MD5=[6d7c25ce75b8f10d0b66144e7f1cb173]
cluster com.youkeda.application.art.member.service--><g id="cluster_com.youkeda.application.art.member.service"><path d="M54.5,138 L369.5,138 A3.75,3.75 0 0 1 372,140.5 L379,160.4883 L467.5,160.4883 A2.5,2.5 0 0 1 470,162.9883 L470,564.5 A2.5,2.5 0 0 1 467.5,567 L54.5,567 A2.5,2.5 0 0 1 52,564.5 L52,140.5 A2.5,2.5 0 0 1 54.5,138 " style="stroke:#000000;stroke-width:1.5;fill:none;"/><line style="stroke:#000000;stroke-width:1.5;fill:none;" x1="52" x2="379" y1="160.4883" y2="160.4883"/><text fill="#000000" font-family="sans-serif" font-size="14" font-weight="bold" lengthAdjust="spacing" textLength="314" x="56" y="153.5352">com.youkeda.application.art.member.service</text></g><!--MD5=[c4f0faf0642ea81f6e021bf56b759958]
cluster com.youkeda.application.art.member.param--><g id="cluster_com.youkeda.application.art.member.param"><path d="M496.5,245.5 L806.5,245.5 A3.75,3.75 0 0 1 809,248 L816,267.9883 L816.5,267.9883 A2.5,2.5 0 0 1 819,270.4883 L819,457 A2.5,2.5 0 0 1 816.5,459.5 L496.5,459.5 A2.5,2.5 0 0 1 494,457 L494,248 A2.5,2.5 0 0 1 496.5,245.5 " style="stroke:#000000;stroke-width:1.5;fill:none;"/><line style="stroke:#000000;stroke-width:1.5;fill:none;" x1="494" x2="816" y1="267.9883" y2="267.9883"/><text fill="#000000" font-family="sans-serif" font-size="14" font-weight="bold" lengthAdjust="spacing" textLength="309" x="498" y="261.0352">com.youkeda.application.art.member.param</text></g><!--MD5=[ed0073de296ff6289039be097c6b722a]
cluster com.youkeda.model--><g id="cluster_com.youkeda.model"><path d="M185.5,6 L327.5,6 A3.75,3.75 0 0 1 330,8.5 L337,28.4883 L337.5,28.4883 A2.5,2.5 0 0 1 340,30.9883 L340,102.5 A2.5,2.5 0 0 1 337.5,105 L185.5,105 A2.5,2.5 0 0 1 183,102.5 L183,8.5 A2.5,2.5 0 0 1 185.5,6 " style="stroke:#000000;stroke-width:1.5;fill:none;"/><line style="stroke:#000000;stroke-width:1.5;fill:none;" x1="183" x2="337" y1="28.4883" y2="28.4883"/><text fill="#000000" font-family="sans-serif" font-size="14" font-weight="bold" lengthAdjust="spacing" textLength="141" x="187" y="21.5352">com.youkeda.model</text></g><!--MD5=[a4e5e89c2ef17a87970a04e8eb9b712a]
cluster org.springframework.data.mongodb.repository--><g id="cluster_org.springframework.data.mongodb.repository"><path d="M557.5,913.5 L891.5,913.5 A3.75,3.75 0 0 1 894,916 L901,935.9883 L901.5,935.9883 A2.5,2.5 0 0 1 904,938.4883 L904,1010 A2.5,2.5 0 0 1 901.5,1012.5 L557.5,1012.5 A2.5,2.5 0 0 1 555,1010 L555,916 A2.5,2.5 0 0 1 557.5,913.5 " style="stroke:#000000;stroke-width:1.5;fill:none;"/><line style="stroke:#000000;stroke-width:1.5;fill:none;" x1="555" x2="901" y1="935.9883" y2="935.9883"/><text fill="#000000" font-family="sans-serif" font-size="14" font-weight="bold" lengthAdjust="spacing" textLength="333" x="559" y="929.0352">org.springframework.data.mongodb.repository</text></g><!--MD5=[a7adf3ddef2de4dbfb59128e461766f4]
cluster com.youkeda.application.art.member.repository--><g id="cluster_com.youkeda.application.art.member.repository"><path d="M8.5,831 L347.5,831 A3.75,3.75 0 0 1 350,833.5 L357,853.4883 L513.5,853.4883 A2.5,2.5 0 0 1 516,855.9883 L516,1092.5 A2.5,2.5 0 0 1 513.5,1095 L8.5,1095 A2.5,2.5 0 0 1 6,1092.5 L6,833.5 A2.5,2.5 0 0 1 8.5,831 " style="stroke:#000000;stroke-width:1.5;fill:none;"/><line style="stroke:#000000;stroke-width:1.5;fill:none;" x1="6" x2="357" y1="853.4883" y2="853.4883"/><text fill="#000000" font-family="sans-serif" font-size="14" font-weight="bold" lengthAdjust="spacing" textLength="338" x="10" y="846.5352">com.youkeda.application.art.member.repository</text></g><!--MD5=[7af10aa7bb70fe9725064c9f227ae0dd]
cluster com.youkeda.application.art.member.service.impl--><g id="cluster_com.youkeda.application.art.member.service.impl"><path d="M65.5,600 L416.5,600 A3.75,3.75 0 0 1 419,602.5 L426,622.4883 L426.5,622.4883 A2.5,2.5 0 0 1 429,624.9883 L429,795.5 A2.5,2.5 0 0 1 426.5,798 L65.5,798 A2.5,2.5 0 0 1 63,795.5 L63,602.5 A2.5,2.5 0 0 1 65.5,600 " style="stroke:#000000;stroke-width:1.5;fill:none;"/><line style="stroke:#000000;stroke-width:1.5;fill:none;" x1="63" x2="426" y1="622.4883" y2="622.4883"/><text fill="#000000" font-family="sans-serif" font-size="14" font-weight="bold" lengthAdjust="spacing" textLength="350" x="67" y="615.5352">com.youkeda.application.art.member.service.impl</text></g><!--MD5=[0112d95a415bf996d4211332fc29200e]
cluster com.youkeda.application.art.member.util--><g id="cluster_com.youkeda.application.art.member.util"><path d="M455.5,608.5 L745.5,608.5 A3.75,3.75 0 0 1 748,611 L755,630.9883 L755.5,630.9883 A2.5,2.5 0 0 1 758,633.4883 L758,787 A2.5,2.5 0 0 1 755.5,789.5 L455.5,789.5 A2.5,2.5 0 0 1 453,787 L453,611 A2.5,2.5 0 0 1 455.5,608.5 " style="stroke:#000000;stroke-width:1.5;fill:none;"/><line style="stroke:#000000;stroke-width:1.5;fill:none;" x1="453" x2="755" y1="630.9883" y2="630.9883"/><text fill="#000000" font-family="sans-serif" font-size="14" font-weight="bold" lengthAdjust="spacing" textLength="289" x="457" y="624.0352">com.youkeda.application.art.member.util</text></g><!--MD5=[63920e68f0fd997d75ef086bd5b019f2]
class com.youkeda.application.art.member.service.CompanyService--><g id="elem_com.youkeda.application.art.member.service.CompanyService"><rect codeLine="3" fill="#F1F1F1" height="377.7656" id="com.youkeda.application.art.member.service.CompanyService" rx="2.5" ry="2.5" style="stroke:#181818;stroke-width:0.5;" width="385" x="68.5" y="173"/><ellipse cx="200.25" cy="189" fill="#B4A7E5" rx="11" ry="11" style="stroke:#181818;stroke-width:1.0;"/><path d="M196.6777,185.2651 L196.6777,183.1069 L204.0571,183.1069 L204.0571,185.2651 L201.5918,185.2651 L201.5918,193.3418 L204.0571,193.3418 L204.0571,195.5 L196.6777,195.5 L196.6777,193.3418 L199.1431,193.3418 L199.1431,185.2651 Z " fill="#000000"/><text fill="#000000" font-family="sans-serif" font-size="14" font-style="italic" lengthAdjust="spacing" textLength="113" x="220.75" y="194.291">CompanyService</text><line style="stroke:#181818;stroke-width:0.5;" x1="69.5" x2="452.5" y1="205" y2="205"/><text fill="#000000" font-family="sans-serif" font-size="14" lengthAdjust="spacing" textLength="4" x="88.5" y="222.5352"> </text><text fill="#000000" font-family="sans-serif" font-size="14" lengthAdjust="spacing" textLength="177" x="88.5" y="239.0234">// 创建企业，生成一个code</text><ellipse cx="79.5" cy="248.9766" fill="#84BE84" rx="3" ry="3" style="stroke:#038048;stroke-width:1.0;"/><text fill="#000000" font-family="sans-serif" font-size="14" lengthAdjust="spacing" textLength="240" x="88.5" y="255.5117">Company save(Company company)</text><text fill="#000000" font-family="sans-serif" font-size="14" lengthAdjust="spacing" textLength="4" x="88.5" y="272"> </text><text fill="#000000" font-family="sans-serif" font-size="14" lengthAdjust="spacing" textLength="74" x="88.5" y="288.4883">// 获取企业</text><ellipse cx="79.5" cy="298.4414" fill="#84BE84" rx="3" ry="3" style="stroke:#038048;stroke-width:1.0;"/><text fill="#000000" font-family="sans-serif" font-size="14" lengthAdjust="spacing" textLength="303" x="88.5" y="304.9766">Company find(CompanyQueryParam param)</text><text fill="#000000" font-family="sans-serif" font-size="14" lengthAdjust="spacing" textLength="4" x="88.5" y="321.4648"> </text><text fill="#000000" font-family="sans-serif" font-size="14" lengthAdjust="spacing" textLength="197" x="88.5" y="337.9531">// 根据accountId查询公司信息</text><ellipse cx="79.5" cy="347.9063" fill="#84BE84" rx="3" ry="3" style="stroke:#038048;stroke-width:1.0;"/><text fill="#000000" font-family="sans-serif" font-size="14" lengthAdjust="spacing" textLength="359" x="88.5" y="354.4414">List&lt;Company&gt; queryByAccountId(String accountId)</text><text fill="#000000" font-family="sans-serif" font-size="14" lengthAdjust="spacing" textLength="4" x="88.5" y="370.9297"> </text><text fill="#000000" font-family="sans-serif" font-size="14" lengthAdjust="spacing" textLength="158" x="88.5" y="387.418">// 根据域名查询公司信息</text><ellipse cx="79.5" cy="397.3711" fill="#84BE84" rx="3" ry="3" style="stroke:#038048;stroke-width:1.0;"/><text fill="#000000" font-family="sans-serif" font-size="14" lengthAdjust="spacing" textLength="286" x="88.5" y="403.9063">Company getByDomain(String domainUrl)</text><text fill="#000000" font-family="sans-serif" font-size="14" lengthAdjust="spacing" textLength="4" x="88.5" y="420.3945"> </text><text fill="#000000" font-family="sans-serif" font-size="14" lengthAdjust="spacing" textLength="143" x="88.5" y="436.8828">// 根据主键id删除公司</text><ellipse cx="79.5" cy="446.8359" fill="#84BE84" rx="3" ry="3" style="stroke:#038048;stroke-width:1.0;"/><text fill="#000000" font-family="sans-serif" font-size="14" lengthAdjust="spacing" textLength="205" x="88.5" y="453.3711">void delete(String companyId)</text><text fill="#000000" font-family="sans-serif" font-size="14" lengthAdjust="spacing" textLength="4" x="88.5" y="469.8594"> </text><text fill="#000000" font-family="sans-serif" font-size="14" lengthAdjust="spacing" textLength="171" x="88.5" y="486.3477">// 根据主键id查询企业信息</text><ellipse cx="79.5" cy="496.3008" fill="#84BE84" rx="3" ry="3" style="stroke:#038048;stroke-width:1.0;"/><text fill="#000000" font-family="sans-serif" font-size="14" lengthAdjust="spacing" textLength="221" x="88.5" y="502.8359">Company get(String companyId)</text><text fill="#000000" font-family="sans-serif" font-size="14" lengthAdjust="spacing" textLength="4" x="88.5" y="519.3242"> </text><line style="stroke:#181818;stroke-width:1.0;" x1="69.5" x2="452.5" y1="526.2773" y2="526.2773"/><text fill="#000000" font-family="sans-serif" font-size="14" lengthAdjust="spacing" textLength="4" x="74.5" y="543.8125"> </text></g><!--MD5=[68f5379780caaeca4e90593d5e195d77]
class com.youkeda.application.art.member.param.CompanyQueryParam--><g id="elem_com.youkeda.application.art.member.param.CompanyQueryParam"><rect codeLine="27" fill="#F1F1F1" height="163.418" id="com.youkeda.application.art.member.param.CompanyQueryParam" rx="2.5" ry="2.5" style="stroke:#181818;stroke-width:0.5;" width="231" x="510.5" y="280.5"/><ellipse cx="548" cy="296.5" fill="#ADD1B2" rx="11" ry="11" style="stroke:#181818;stroke-width:1.0;"/><path d="M550.4731,302.6431 Q549.8921,302.9419 549.2529,303.0913 Q548.6138,303.2407 547.9082,303.2407 Q545.4014,303.2407 544.0815,301.5889 Q542.7617,299.937 542.7617,296.8159 Q542.7617,293.6865 544.0815,292.0347 Q545.4014,290.3828 547.9082,290.3828 Q548.6138,290.3828 549.2612,290.5322 Q549.9087,290.6816 550.4731,290.9805 L550.4731,293.7031 Q549.8423,293.1221 549.2488,292.8523 Q548.6553,292.5825 548.0244,292.5825 Q546.6797,292.5825 545.9949,293.6492 Q545.3101,294.7158 545.3101,296.8159 Q545.3101,298.9077 545.9949,299.9744 Q546.6797,301.041 548.0244,301.041 Q548.6553,301.041 549.2488,300.7712 Q549.8423,300.5015 550.4731,299.9204 Z " fill="#000000"/><text fill="#000000" font-family="sans-serif" font-size="14" lengthAdjust="spacing" textLength="149" x="567" y="301.791">CompanyQueryParam</text><line style="stroke:#181818;stroke-width:0.5;" x1="511.5" x2="740.5" y1="312.5" y2="312.5"/><text fill="#000000" font-family="sans-serif" font-size="14" lengthAdjust="spacing" textLength="102" x="530.5" y="330.0352">// 根据编码查询</text><rect fill="none" height="6" style="stroke:#C82930;stroke-width:1.0;" width="6" x="518.5" y="336.9883"/><text fill="#000000" font-family="sans-serif" font-size="14" lengthAdjust="spacing" textLength="78" x="530.5" y="346.5234">String code</text><text fill="#000000" font-family="sans-serif" font-size="14" lengthAdjust="spacing" textLength="102" x="530.5" y="363.0117">// 根据域名查询</text><rect fill="none" height="6" style="stroke:#C82930;stroke-width:1.0;" width="6" x="518.5" y="369.9648"/><text fill="#000000" font-family="sans-serif" font-size="14" lengthAdjust="spacing" textLength="97" x="530.5" y="379.5">String domain</text><text fill="#000000" font-family="sans-serif" font-size="14" lengthAdjust="spacing" textLength="4" x="530.5" y="395.9883"> </text><line style="stroke:#181818;stroke-width:1.0;" x1="511.5" x2="740.5" y1="402.9414" y2="402.9414"/><text fill="#000000" font-family="sans-serif" font-size="14" lengthAdjust="spacing" textLength="158" x="530.5" y="420.4766">// 创建查询参数实例对象</text><ellipse cx="521.5" cy="430.4297" fill="#84BE84" rx="3" ry="3" style="stroke:#038048;stroke-width:1.0;"/><text fill="#000000" font-family="sans-serif" font-size="14" lengthAdjust="spacing" text-decoration="underline" textLength="205" x="530.5" y="436.9648">CompanyQueryParam create()</text></g><!--MD5=[7cc8d2c93b593fcf745408f65aa94e52]
class com.youkeda.model.Company--><g id="elem_com.youkeda.model.Company"><rect codeLine="38" fill="#F1F1F1" height="48" id="com.youkeda.model.Company" rx="2.5" ry="2.5" style="stroke:#181818;stroke-width:0.5;" width="97" x="212.5" y="41"/><ellipse cx="227.5" cy="57" fill="#ADD1B2" rx="11" ry="11" style="stroke:#181818;stroke-width:1.0;"/><path d="M229.9731,63.1431 Q229.3921,63.4419 228.7529,63.5913 Q228.1138,63.7407 227.4082,63.7407 Q224.9014,63.7407 223.5815,62.0889 Q222.2617,60.437 222.2617,57.3159 Q222.2617,54.1865 223.5815,52.5347 Q224.9014,50.8828 227.4082,50.8828 Q228.1138,50.8828 228.7612,51.0322 Q229.4087,51.1816 229.9731,51.4805 L229.9731,54.2031 Q229.3423,53.6221 228.7488,53.3523 Q228.1553,53.0825 227.5244,53.0825 Q226.1797,53.0825 225.4949,54.1492 Q224.8101,55.2158 224.8101,57.3159 Q224.8101,59.4077 225.4949,60.4744 Q226.1797,61.541 227.5244,61.541 Q228.1553,61.541 228.7488,61.2712 Q229.3423,61.0015 229.9731,60.4204 Z " fill="#000000"/><text fill="#000000" font-family="sans-serif" font-size="14" lengthAdjust="spacing" textLength="65" x="241.5" y="62.291">Company</text><line style="stroke:#181818;stroke-width:0.5;" x1="213.5" x2="308.5" y1="73" y2="73"/><line style="stroke:#181818;stroke-width:0.5;" x1="213.5" x2="308.5" y1="81" y2="81"/></g><!--MD5=[9b4ff873970f10bfdad59e416b4bc4cc]
class org.springframework.data.mongodb.repository.MongoRepository--><g id="elem_org.springframework.data.mongodb.repository.MongoRepository"><rect codeLine="41" fill="#F1F1F1" height="48" id="org.springframework.data.mongodb.repository.MongoRepository" rx="2.5" ry="2.5" style="stroke:#181818;stroke-width:0.5;" width="251" x="586.5" y="948.5"/><ellipse cx="601.5" cy="964.5" fill="#B4A7E5" rx="11" ry="11" style="stroke:#181818;stroke-width:1.0;"/><path d="M597.9277,960.7651 L597.9277,958.6069 L605.3071,958.6069 L605.3071,960.7651 L602.8418,960.7651 L602.8418,968.8418 L605.3071,968.8418 L605.3071,971 L597.9277,971 L597.9277,968.8418 L600.3931,968.8418 L600.3931,960.7651 Z " fill="#000000"/><text fill="#000000" font-family="sans-serif" font-size="14" font-style="italic" lengthAdjust="spacing" textLength="121" x="615.5" y="969.791">MongoRepository</text><rect fill="#FFFFFF" height="16.1328" style="stroke:#000000;stroke-width:1.0;stroke-dasharray:2.0,2.0;" width="96" x="744.5" y="945.5"/><text fill="#000000" font-family="sans-serif" font-size="12" font-style="italic" lengthAdjust="spacing" textLength="94" x="745.5" y="958.1016">Company, String</text><line style="stroke:#181818;stroke-width:0.5;" x1="587.5" x2="836.5" y1="980.5" y2="980.5"/><line style="stroke:#181818;stroke-width:0.5;" x1="587.5" x2="836.5" y1="988.5" y2="988.5"/></g><!--MD5=[3e618b2be906e093eeb07f5dab7506b4]
class com.youkeda.application.art.member.repository.CompanyRepository--><g id="elem_com.youkeda.application.art.member.repository.CompanyRepository"><rect codeLine="44" fill="#FFFFE0" height="212.8828" id="com.youkeda.application.art.member.repository.CompanyRepository" rx="2.5" ry="2.5" style="stroke:#B22222;stroke-width:0.5;" width="478" x="22" y="866"/><ellipse cx="187.75" cy="882" fill="#B4A7E5" rx="11" ry="11" style="stroke:#181818;stroke-width:1.0;"/><path d="M184.1777,878.2651 L184.1777,876.1069 L191.5571,876.1069 L191.5571,878.2651 L189.0918,878.2651 L189.0918,886.3418 L191.5571,886.3418 L191.5571,888.5 L184.1777,888.5 L184.1777,886.3418 L186.6431,886.3418 L186.6431,878.2651 Z " fill="#000000"/><text fill="#000000" font-family="sans-serif" font-size="14" font-style="italic" lengthAdjust="spacing" textLength="138" x="208.25" y="887.291">CompanyRepository</text><line style="stroke:#B22222;stroke-width:0.5;" x1="23" x2="499" y1="898" y2="898"/><text fill="#000000" font-family="sans-serif" font-size="14" lengthAdjust="spacing" textLength="171" x="42" y="915.5352">// 根据 code 查询公司信息</text><ellipse cx="33" cy="925.4883" fill="#84BE84" rx="3" ry="3" style="stroke:#038048;stroke-width:1.0;"/><text fill="#000000" font-family="sans-serif" font-size="14" lengthAdjust="spacing" textLength="320" x="42" y="932.0234">Optional&lt;Company&gt; findByCode(String code);</text><text fill="#000000" font-family="sans-serif" font-size="14" lengthAdjust="spacing" textLength="4" x="42" y="948.5117"> </text><text fill="#000000" font-family="sans-serif" font-size="14" lengthAdjust="spacing" textLength="190" x="42" y="965">// 根据 domain 查询公司信息</text><ellipse cx="33" cy="974.9531" fill="#84BE84" rx="3" ry="3" style="stroke:#038048;stroke-width:1.0;"/><text fill="#000000" font-family="sans-serif" font-size="14" lengthAdjust="spacing" textLength="356" x="42" y="981.4883">Optional&lt;Company&gt; findByDomain(String domain);</text><text fill="#000000" font-family="sans-serif" font-size="14" lengthAdjust="spacing" textLength="4" x="42" y="997.9766"> </text><text fill="#000000" font-family="sans-serif" font-size="14" lengthAdjust="spacing" textLength="197" x="42" y="1014.4648">// 根据accountId查询公司信息</text><ellipse cx="33" cy="1024.418" fill="#84BE84" rx="3" ry="3" style="stroke:#038048;stroke-width:1.0;"/><text fill="#000000" font-family="sans-serif" font-size="14" lengthAdjust="spacing" textLength="452" x="42" y="1030.9531">Optional&lt;List&lt;Company&gt;&gt; findByOwnerUserId(String accountId);</text><text fill="#000000" font-family="sans-serif" font-size="14" lengthAdjust="spacing" textLength="4" x="42" y="1047.4414"> </text><line style="stroke:#B22222;stroke-width:1.0;" x1="23" x2="499" y1="1054.3945" y2="1054.3945"/><text fill="#000000" font-family="sans-serif" font-size="14" lengthAdjust="spacing" textLength="4" x="28" y="1071.9297"> </text></g><!--MD5=[a653f1cb138e03a503cd9092a1192318]
class com.youkeda.application.art.member.service.impl.CompanyServiceImpl--><g id="elem_com.youkeda.application.art.member.service.impl.CompanyServiceImpl"><rect codeLine="58" fill="#FFFFE0" height="146.9297" id="com.youkeda.application.art.member.service.impl.CompanyServiceImpl" rx="2.5" ry="2.5" style="stroke:#B22222;stroke-width:0.5;" width="303" x="109.5" y="635"/><ellipse cx="185.25" cy="651" fill="#ADD1B2" rx="11" ry="11" style="stroke:#181818;stroke-width:1.0;"/><path d="M187.7231,657.1431 Q187.1421,657.4419 186.5029,657.5913 Q185.8638,657.7407 185.1582,657.7407 Q182.6514,657.7407 181.3315,656.0889 Q180.0117,654.437 180.0117,651.3159 Q180.0117,648.1865 181.3315,646.5347 Q182.6514,644.8828 185.1582,644.8828 Q185.8638,644.8828 186.5112,645.0322 Q187.1587,645.1816 187.7231,645.4805 L187.7231,648.2031 Q187.0923,647.6221 186.4988,647.3523 Q185.9053,647.0825 185.2744,647.0825 Q183.9297,647.0825 183.2449,648.1492 Q182.5601,649.2158 182.5601,651.3159 Q182.5601,653.4077 183.2449,654.4744 Q183.9297,655.541 185.2744,655.541 Q185.9053,655.541 186.4988,655.2712 Q187.0923,655.0015 187.7231,654.4204 Z " fill="#000000"/><text fill="#000000" font-family="sans-serif" font-size="14" lengthAdjust="spacing" textLength="143" x="205.75" y="656.291">CompanyServiceImpl</text><line style="stroke:#B22222;stroke-width:0.5;" x1="110.5" x2="411.5" y1="667" y2="667"/><rect fill="none" height="6" style="stroke:#C82930;stroke-width:1.0;" width="6" x="117.5" y="675"/><text fill="#000000" font-family="sans-serif" font-size="14" lengthAdjust="spacing" textLength="277" x="129.5" y="684.5352">CompanyRepository companyRepository</text><rect fill="none" height="6" style="stroke:#C82930;stroke-width:1.0;" width="6" x="117.5" y="691.4883"/><text fill="#000000" font-family="sans-serif" font-size="14" lengthAdjust="spacing" textLength="229" x="129.5" y="701.0234">MongoTemplate mongoTemplate</text><text fill="#000000" font-family="sans-serif" font-size="14" lengthAdjust="spacing" textLength="4" x="129.5" y="717.5117"> </text><line style="stroke:#B22222;stroke-width:1.0;" x1="110.5" x2="411.5" y1="724.4648" y2="724.4648"/><text fill="#000000" font-family="sans-serif" font-size="14" lengthAdjust="spacing" textLength="4" x="129.5" y="742"> </text><text fill="#000000" font-family="sans-serif" font-size="14" lengthAdjust="spacing" textLength="108" x="129.5" y="758.4883">@PostConstruct</text><ellipse cx="120.5" cy="768.4414" fill="#84BE84" rx="3" ry="3" style="stroke:#038048;stroke-width:1.0;"/><text fill="#000000" font-family="sans-serif" font-size="14" lengthAdjust="spacing" textLength="65" x="129.5" y="774.9766">void init()</text></g><!--MD5=[eacba7b1e7f7aa9e1005ef25b39add03]
class com.youkeda.application.art.member.util.IDUtils--><g id="elem_com.youkeda.application.art.member.util.IDUtils"><rect codeLine="68" fill="#6495ED" height="130.4414" id="com.youkeda.application.art.member.util.IDUtils" rx="2.5" ry="2.5" style="stroke:#B22222;stroke-width:0.5;" width="226" x="469" y="643.5"/><ellipse cx="555.75" cy="659.5" fill="#ADD1B2" rx="11" ry="11" style="stroke:#181818;stroke-width:1.0;"/><path d="M558.2231,665.6431 Q557.6421,665.9419 557.0029,666.0913 Q556.3638,666.2407 555.6582,666.2407 Q553.1514,666.2407 551.8315,664.5889 Q550.5117,662.937 550.5117,659.8159 Q550.5117,656.6865 551.8315,655.0347 Q553.1514,653.3828 555.6582,653.3828 Q556.3638,653.3828 557.0112,653.5322 Q557.6587,653.6816 558.2231,653.9805 L558.2231,656.7031 Q557.5923,656.1221 556.9988,655.8523 Q556.4053,655.5825 555.7744,655.5825 Q554.4297,655.5825 553.7449,656.6492 Q553.0601,657.7158 553.0601,659.8159 Q553.0601,661.9077 553.7449,662.9744 Q554.4297,664.041 555.7744,664.041 Q556.4053,664.041 556.9988,663.7712 Q557.5923,663.5015 558.2231,662.9204 Z " fill="#000000"/><text fill="#000000" font-family="sans-serif" font-size="14" lengthAdjust="spacing" textLength="44" x="576.25" y="664.791">IDUtils</text><line style="stroke:#B22222;stroke-width:0.5;" x1="470" x2="694" y1="675.5" y2="675.5"/><line style="stroke:#B22222;stroke-width:1.0;" x1="470" x2="694" y1="683.5" y2="683.5"/><text fill="#000000" font-family="sans-serif" font-size="14" lengthAdjust="spacing" textLength="88" x="489" y="701.0352">// 获取唯一ID</text><ellipse cx="480" cy="710.9883" fill="#84BE84" rx="3" ry="3" style="stroke:#038048;stroke-width:1.0;"/><text fill="#000000" font-family="sans-serif" font-size="14" lengthAdjust="spacing" text-decoration="underline" textLength="90" x="489" y="717.5234">String getId()</text><text fill="#000000" font-family="sans-serif" font-size="14" lengthAdjust="spacing" textLength="4" x="489" y="734.0117"> </text><text fill="#000000" font-family="sans-serif" font-size="14" lengthAdjust="spacing" textLength="200" x="489" y="750.5">// 根据时间生成ID，不保证唯一</text><ellipse cx="480" cy="760.4531" fill="#84BE84" rx="3" ry="3" style="stroke:#038048;stroke-width:1.0;"/><text fill="#000000" font-family="sans-serif" font-size="14" lengthAdjust="spacing" text-decoration="underline" textLength="129" x="489" y="766.9883">String generateId()</text></g><!--MD5=[112aa9d5fb660c84367ffb59e306b75c]
link com.youkeda.application.art.member.service.CompanyService to com.youkeda.application.art.member.param.CompanyQueryParam--><g id="link_com.youkeda.application.art.member.service.CompanyService_com.youkeda.application.art.member.param.CompanyQueryParam"><path codeLine="78" d="M453.84,362 C470.9,362 487.97,362 505.03,362 " fill="none" id="com.youkeda.application.art.member.service.CompanyService-to-com.youkeda.application.art.member.param.CompanyQueryParam" style="stroke:#181818;stroke-width:1.0;stroke-dasharray:7.0,7.0;"/><polygon fill="#181818" points="510.33,362,501.33,358,505.33,362,501.33,366,510.33,362" style="stroke:#181818;stroke-width:1.0;"/></g><!--MD5=[238b69c4382a913fb34c5c0e945a4aca]
reverse link com.youkeda.model.Company to com.youkeda.application.art.member.service.CompanyService--><g id="link_com.youkeda.model.Company_com.youkeda.application.art.member.service.CompanyService"><path codeLine="79" d="M261,94.22 C261,113.93 261,142.15 261,172.91 " fill="none" id="com.youkeda.model.Company-backto-com.youkeda.application.art.member.service.CompanyService" style="stroke:#181818;stroke-width:1.0;stroke-dasharray:7.0,7.0;"/><polygon fill="#181818" points="261,89.15,257,98.15,261,94.15,265,98.15,261,89.15" style="stroke:#181818;stroke-width:1.0;"/></g><!--MD5=[a410fcfbf1986eea36a3cd82d90a6dd7]
reverse link com.youkeda.application.art.member.service.CompanyService to com.youkeda.application.art.member.service.impl.CompanyServiceImpl--><g id="link_com.youkeda.application.art.member.service.CompanyService_com.youkeda.application.art.member.service.impl.CompanyServiceImpl"><path codeLine="81" d="M261,571.19 C261,593.81 261,615.57 261,634.81 " fill="none" id="com.youkeda.application.art.member.service.CompanyService-backto-com.youkeda.application.art.member.service.impl.CompanyServiceImpl" style="stroke:#181818;stroke-width:1.0;stroke-dasharray:7.0,7.0;"/><polygon fill="none" points="254,571.13,261,551.13,268,571.13,254,571.13" style="stroke:#181818;stroke-width:1.0;"/></g><!--MD5=[1f41592e3587e39267cae0c78ae2cdba]
link com.youkeda.application.art.member.service.impl.CompanyServiceImpl to com.youkeda.application.art.member.repository.CompanyRepository--><g id="link_com.youkeda.application.art.member.service.impl.CompanyServiceImpl_com.youkeda.application.art.member.repository.CompanyRepository"><path codeLine="82" d="M261,782.13 C261,806.41 261,834.05 261,860.57 " fill="none" id="com.youkeda.application.art.member.service.impl.CompanyServiceImpl-to-com.youkeda.application.art.member.repository.CompanyRepository" style="stroke:#181818;stroke-width:1.0;stroke-dasharray:7.0,7.0;"/><polygon fill="#181818" points="261,865.85,265,856.85,261,860.85,257,856.85,261,865.85" style="stroke:#181818;stroke-width:1.0;"/></g><!--MD5=[1a3e81de12ed4b1d9b7c18b8ab10cbbc]
link com.youkeda.application.art.member.service.impl.CompanyServiceImpl to com.youkeda.application.art.member.util.IDUtils--><g id="link_com.youkeda.application.art.member.service.impl.CompanyServiceImpl_com.youkeda.application.art.member.util.IDUtils"><path codeLine="83" d="M412.72,708.5 C429.7,708.5 446.68,708.5 463.66,708.5 " fill="none" id="com.youkeda.application.art.member.service.impl.CompanyServiceImpl-to-com.youkeda.application.art.member.util.IDUtils" style="stroke:#181818;stroke-width:1.0;stroke-dasharray:7.0,7.0;"/><polygon fill="#181818" points="468.93,708.5,459.93,704.5,463.93,708.5,459.93,712.5,468.93,708.5" style="stroke:#181818;stroke-width:1.0;"/></g><!--MD5=[b7d4a534a7f18a690f813ad3924df80a]
link com.youkeda.application.art.member.repository.CompanyRepository to org.springframework.data.mongodb.repository.MongoRepository--><g id="link_com.youkeda.application.art.member.repository.CompanyRepository_org.springframework.data.mongodb.repository.MongoRepository"><path codeLine="85" d="M500.04,972.5 C522.59,972.5 544.96,972.5 566.24,972.5 " fill="none" id="com.youkeda.application.art.member.repository.CompanyRepository-to-org.springframework.data.mongodb.repository.MongoRepository" style="stroke:#181818;stroke-width:1.0;stroke-dasharray:7.0,7.0;"/><polygon fill="none" points="566.28,965.5,586.28,972.5,566.28,979.5,566.28,965.5" style="stroke:#181818;stroke-width:1.0;"/><text fill="#000000" font-family="sans-serif" font-size="13" lengthAdjust="spacing" textLength="50" x="518.25" y="966.0684">extends</text></g><!--MD5=[6ff3a0096eb74bffa62a40249a07e709]
@startuml


interface com.youkeda.application.art.member.service.CompanyService {

// 创建企业，生成一个code
+ Company save(Company company)

// 获取企业
+ Company find(CompanyQueryParam param)

// 根据accountId查询公司信息
+ List<Company> queryByAccountId(String accountId)

// 根据域名查询公司信息
+ Company getByDomain(String domainUrl)

// 根据主键id删除公司
+ void delete(String companyId)

// 根据主键id查询企业信息
+ Company get(String companyId)

- - - -

}

class com.youkeda.application.art.member.param.CompanyQueryParam {
// 根据编码查询
- String code
// 根据域名查询
- String domain

- - - -
// 创建查询参数实例对象
+ {static} CompanyQueryParam create()
}

class com.youkeda.model.Company {
}

interface org.springframework.data.mongodb.repository.MongoRepository <Company, String> {
}

interface com.youkeda.application.art.member.repository.CompanyRepository #LightYellow##FireBrick {
// 根据 code 查询公司信息
+ Optional<Company> findByCode(String code);

// 根据 domain 查询公司信息
+ Optional<Company> findByDomain(String domain);

// 根据accountId查询公司信息
+ Optional<List<Company>> findByOwnerUserId(String accountId);

- - - -

}

class com.youkeda.application.art.member.service.impl.CompanyServiceImpl #LightYellow##FireBrick {
- CompanyRepository companyRepository
- MongoTemplate mongoTemplate

- - - -

@PostConstruct
+ void init()
}

class com.youkeda.application.art.member.util.IDUtils #CornflowerBlue##FireBrick {
- - - -
// 获取唯一ID
+ {static} String getId()

// 根据时间生成ID，不保证唯一
+ {static} String generateId()
}


com.youkeda.application.art.member.service.CompanyService .right.> com.youkeda.application.art.member.param.CompanyQueryParam
com.youkeda.application.art.member.service.CompanyService .up.> com.youkeda.model.Company

com.youkeda.application.art.member.service.CompanyService <|.. com.youkeda.application.art.member.service.impl.CompanyServiceImpl
com.youkeda.application.art.member.service.impl.CompanyServiceImpl .down.> com.youkeda.application.art.member.repository.CompanyRepository
com.youkeda.application.art.member.service.impl.CompanyServiceImpl .right.> com.youkeda.application.art.member.util.IDUtils

com.youkeda.application.art.member.repository.CompanyRepository .right.|>  org.springframework.data.mongodb.repository.MongoRepository: extends
@enduml

PlantUML version 1.2022.6(Wed Jun 22 01:34:49 CST 2022)
(GPL source distribution)
Java Runtime: OpenJDK Runtime Environment
JVM: OpenJDK 64-Bit Server VM
Default Encoding: UTF-8
Language: zh
Country: CN
--></g></svg>