<?xml version="1.0" encoding="UTF-8" standalone="no"?><svg xmlns="http://www.w3.org/2000/svg" xmlns:xlink="http://www.w3.org/1999/xlink" contentStyleType="text/css" height="565px" preserveAspectRatio="none" style="width:780px;height:565px;background:#FFFFFF;" version="1.1" viewBox="0 0 780 565" width="780px" zoomAndPan="magnify"><defs/><g><!--MD5=[6d7c25ce75b8f10d0b66144e7f1cb173]
cluster com.youkeda.application.art.member.service--><g id="cluster_com.youkeda.application.art.member.service"><path d="M8.5,6 L323.5,6 A3.75,3.75 0 0 1 326,8.5 L333,28.4883 L421.5,28.4883 A2.5,2.5 0 0 1 424,30.9883 L424,432.5 A2.5,2.5 0 0 1 421.5,435 L8.5,435 A2.5,2.5 0 0 1 6,432.5 L6,8.5 A2.5,2.5 0 0 1 8.5,6 " style="stroke:#000000;stroke-width:1.5;fill:none;"/><line style="stroke:#000000;stroke-width:1.5;fill:none;" x1="6" x2="333" y1="28.4883" y2="28.4883"/><text fill="#000000" font-family="sans-serif" font-size="14" font-weight="bold" lengthAdjust="spacing" textLength="314" x="10" y="21.5352">com.youkeda.application.art.member.service</text></g><!--MD5=[c4f0faf0642ea81f6e021bf56b759958]
cluster com.youkeda.application.art.member.param--><g id="cluster_com.youkeda.application.art.member.param"><path d="M450.5,113.5 L760.5,113.5 A3.75,3.75 0 0 1 763,116 L770,135.9883 L770.5,135.9883 A2.5,2.5 0 0 1 773,138.4883 L773,325 A2.5,2.5 0 0 1 770.5,327.5 L450.5,327.5 A2.5,2.5 0 0 1 448,325 L448,116 A2.5,2.5 0 0 1 450.5,113.5 " style="stroke:#000000;stroke-width:1.5;fill:none;"/><line style="stroke:#000000;stroke-width:1.5;fill:none;" x1="448" x2="770" y1="135.9883" y2="135.9883"/><text fill="#000000" font-family="sans-serif" font-size="14" font-weight="bold" lengthAdjust="spacing" textLength="309" x="452" y="129.0352">com.youkeda.application.art.member.param</text></g><!--MD5=[ed0073de296ff6289039be097c6b722a]
cluster com.youkeda.model--><g id="cluster_com.youkeda.model"><path d="M139.5,459 L281.5,459 A3.75,3.75 0 0 1 284,461.5 L291,481.4883 L291.5,481.4883 A2.5,2.5 0 0 1 294,483.9883 L294,555.5 A2.5,2.5 0 0 1 291.5,558 L139.5,558 A2.5,2.5 0 0 1 137,555.5 L137,461.5 A2.5,2.5 0 0 1 139.5,459 " style="stroke:#000000;stroke-width:1.5;fill:none;"/><line style="stroke:#000000;stroke-width:1.5;fill:none;" x1="137" x2="291" y1="481.4883" y2="481.4883"/><text fill="#000000" font-family="sans-serif" font-size="14" font-weight="bold" lengthAdjust="spacing" textLength="141" x="141" y="474.5352">com.youkeda.model</text></g><!--MD5=[63920e68f0fd997d75ef086bd5b019f2]
class com.youkeda.application.art.member.service.CompanyService--><g id="elem_com.youkeda.application.art.member.service.CompanyService"><rect codeLine="2" fill="#FFFFE0" height="377.7656" id="com.youkeda.application.art.member.service.CompanyService" rx="2.5" ry="2.5" style="stroke:#B22222;stroke-width:0.5;" width="385" x="22.5" y="41"/><ellipse cx="154.25" cy="57" fill="#B4A7E5" rx="11" ry="11" style="stroke:#181818;stroke-width:1.0;"/><path d="M150.6777,53.2651 L150.6777,51.1069 L158.0571,51.1069 L158.0571,53.2651 L155.5918,53.2651 L155.5918,61.3418 L158.0571,61.3418 L158.0571,63.5 L150.6777,63.5 L150.6777,61.3418 L153.1431,61.3418 L153.1431,53.2651 Z " fill="#000000"/><text fill="#000000" font-family="sans-serif" font-size="14" font-style="italic" lengthAdjust="spacing" textLength="113" x="174.75" y="62.291">CompanyService</text><line style="stroke:#B22222;stroke-width:0.5;" x1="23.5" x2="406.5" y1="73" y2="73"/><text fill="#000000" font-family="sans-serif" font-size="14" lengthAdjust="spacing" textLength="4" x="42.5" y="90.5352"> </text><text fill="#000000" font-family="sans-serif" font-size="14" lengthAdjust="spacing" textLength="177" x="42.5" y="107.0234">// 创建企业，生成一个code</text><ellipse cx="33.5" cy="116.9766" fill="#84BE84" rx="3" ry="3" style="stroke:#038048;stroke-width:1.0;"/><text fill="#000000" font-family="sans-serif" font-size="14" lengthAdjust="spacing" textLength="240" x="42.5" y="123.5117">Company save(Company company)</text><text fill="#000000" font-family="sans-serif" font-size="14" lengthAdjust="spacing" textLength="4" x="42.5" y="140"> </text><text fill="#000000" font-family="sans-serif" font-size="14" lengthAdjust="spacing" textLength="74" x="42.5" y="156.4883">// 获取企业</text><ellipse cx="33.5" cy="166.4414" fill="#84BE84" rx="3" ry="3" style="stroke:#038048;stroke-width:1.0;"/><text fill="#000000" font-family="sans-serif" font-size="14" lengthAdjust="spacing" textLength="303" x="42.5" y="172.9766">Company find(CompanyQueryParam param)</text><text fill="#000000" font-family="sans-serif" font-size="14" lengthAdjust="spacing" textLength="4" x="42.5" y="189.4648"> </text><text fill="#000000" font-family="sans-serif" font-size="14" lengthAdjust="spacing" textLength="197" x="42.5" y="205.9531">// 根据accountId查询公司信息</text><ellipse cx="33.5" cy="215.9063" fill="#84BE84" rx="3" ry="3" style="stroke:#038048;stroke-width:1.0;"/><text fill="#000000" font-family="sans-serif" font-size="14" lengthAdjust="spacing" textLength="359" x="42.5" y="222.4414">List&lt;Company&gt; queryByAccountId(String accountId)</text><text fill="#000000" font-family="sans-serif" font-size="14" lengthAdjust="spacing" textLength="4" x="42.5" y="238.9297"> </text><text fill="#000000" font-family="sans-serif" font-size="14" lengthAdjust="spacing" textLength="158" x="42.5" y="255.418">// 根据域名查询公司信息</text><ellipse cx="33.5" cy="265.3711" fill="#84BE84" rx="3" ry="3" style="stroke:#038048;stroke-width:1.0;"/><text fill="#000000" font-family="sans-serif" font-size="14" lengthAdjust="spacing" textLength="286" x="42.5" y="271.9063">Company getByDomain(String domainUrl)</text><text fill="#000000" font-family="sans-serif" font-size="14" lengthAdjust="spacing" textLength="4" x="42.5" y="288.3945"> </text><text fill="#000000" font-family="sans-serif" font-size="14" lengthAdjust="spacing" textLength="143" x="42.5" y="304.8828">// 根据主键id删除公司</text><ellipse cx="33.5" cy="314.8359" fill="#84BE84" rx="3" ry="3" style="stroke:#038048;stroke-width:1.0;"/><text fill="#000000" font-family="sans-serif" font-size="14" lengthAdjust="spacing" textLength="205" x="42.5" y="321.3711">void delete(String companyId)</text><text fill="#000000" font-family="sans-serif" font-size="14" lengthAdjust="spacing" textLength="4" x="42.5" y="337.8594"> </text><text fill="#000000" font-family="sans-serif" font-size="14" lengthAdjust="spacing" textLength="171" x="42.5" y="354.3477">// 根据主键id查询企业信息</text><ellipse cx="33.5" cy="364.3008" fill="#84BE84" rx="3" ry="3" style="stroke:#038048;stroke-width:1.0;"/><text fill="#000000" font-family="sans-serif" font-size="14" lengthAdjust="spacing" textLength="221" x="42.5" y="370.8359">Company get(String companyId)</text><text fill="#000000" font-family="sans-serif" font-size="14" lengthAdjust="spacing" textLength="4" x="42.5" y="387.3242"> </text><line style="stroke:#B22222;stroke-width:1.0;" x1="23.5" x2="406.5" y1="394.2773" y2="394.2773"/><text fill="#000000" font-family="sans-serif" font-size="14" lengthAdjust="spacing" textLength="4" x="28.5" y="411.8125"> </text></g><!--MD5=[68f5379780caaeca4e90593d5e195d77]
class com.youkeda.application.art.member.param.CompanyQueryParam--><g id="elem_com.youkeda.application.art.member.param.CompanyQueryParam"><rect codeLine="26" fill="#FFFFE0" height="163.418" id="com.youkeda.application.art.member.param.CompanyQueryParam" rx="2.5" ry="2.5" style="stroke:#B22222;stroke-width:0.5;" width="231" x="464.5" y="148.5"/><ellipse cx="502" cy="164.5" fill="#ADD1B2" rx="11" ry="11" style="stroke:#181818;stroke-width:1.0;"/><path d="M504.4731,170.6431 Q503.8921,170.9419 503.2529,171.0913 Q502.6138,171.2407 501.9082,171.2407 Q499.4014,171.2407 498.0815,169.5889 Q496.7617,167.937 496.7617,164.8159 Q496.7617,161.6865 498.0815,160.0347 Q499.4014,158.3828 501.9082,158.3828 Q502.6138,158.3828 503.2612,158.5322 Q503.9087,158.6816 504.4731,158.9805 L504.4731,161.7031 Q503.8423,161.1221 503.2488,160.8523 Q502.6553,160.5825 502.0244,160.5825 Q500.6797,160.5825 499.9949,161.6492 Q499.3101,162.7158 499.3101,164.8159 Q499.3101,166.9077 499.9949,167.9744 Q500.6797,169.041 502.0244,169.041 Q502.6553,169.041 503.2488,168.7712 Q503.8423,168.5015 504.4731,167.9204 Z " fill="#000000"/><text fill="#000000" font-family="sans-serif" font-size="14" lengthAdjust="spacing" textLength="149" x="521" y="169.791">CompanyQueryParam</text><line style="stroke:#B22222;stroke-width:0.5;" x1="465.5" x2="694.5" y1="180.5" y2="180.5"/><text fill="#000000" font-family="sans-serif" font-size="14" lengthAdjust="spacing" textLength="102" x="484.5" y="198.0352">// 根据编码查询</text><rect fill="none" height="6" style="stroke:#C82930;stroke-width:1.0;" width="6" x="472.5" y="204.9883"/><text fill="#000000" font-family="sans-serif" font-size="14" lengthAdjust="spacing" textLength="78" x="484.5" y="214.5234">String code</text><text fill="#000000" font-family="sans-serif" font-size="14" lengthAdjust="spacing" textLength="102" x="484.5" y="231.0117">// 根据域名查询</text><rect fill="none" height="6" style="stroke:#C82930;stroke-width:1.0;" width="6" x="472.5" y="237.9648"/><text fill="#000000" font-family="sans-serif" font-size="14" lengthAdjust="spacing" textLength="97" x="484.5" y="247.5">String domain</text><text fill="#000000" font-family="sans-serif" font-size="14" lengthAdjust="spacing" textLength="4" x="484.5" y="263.9883"> </text><line style="stroke:#B22222;stroke-width:1.0;" x1="465.5" x2="694.5" y1="270.9414" y2="270.9414"/><text fill="#000000" font-family="sans-serif" font-size="14" lengthAdjust="spacing" textLength="158" x="484.5" y="288.4766">// 创建查询参数实例对象</text><ellipse cx="475.5" cy="298.4297" fill="#84BE84" rx="3" ry="3" style="stroke:#038048;stroke-width:1.0;"/><text fill="#000000" font-family="sans-serif" font-size="14" lengthAdjust="spacing" text-decoration="underline" textLength="205" x="484.5" y="304.9648">CompanyQueryParam create()</text></g><!--MD5=[7cc8d2c93b593fcf745408f65aa94e52]
class com.youkeda.model.Company--><g id="elem_com.youkeda.model.Company"><rect codeLine="37" fill="#F1F1F1" height="48" id="com.youkeda.model.Company" rx="2.5" ry="2.5" style="stroke:#181818;stroke-width:0.5;" width="97" x="166.5" y="494"/><ellipse cx="181.5" cy="510" fill="#ADD1B2" rx="11" ry="11" style="stroke:#181818;stroke-width:1.0;"/><path d="M183.9731,516.1431 Q183.3921,516.4419 182.7529,516.5913 Q182.1138,516.7407 181.4082,516.7407 Q178.9014,516.7407 177.5815,515.0889 Q176.2617,513.437 176.2617,510.3159 Q176.2617,507.1865 177.5815,505.5347 Q178.9014,503.8828 181.4082,503.8828 Q182.1138,503.8828 182.7612,504.0322 Q183.4087,504.1816 183.9731,504.4805 L183.9731,507.2031 Q183.3423,506.6221 182.7488,506.3523 Q182.1553,506.0825 181.5244,506.0825 Q180.1797,506.0825 179.4949,507.1492 Q178.8101,508.2158 178.8101,510.3159 Q178.8101,512.4077 179.4949,513.4744 Q180.1797,514.541 181.5244,514.541 Q182.1553,514.541 182.7488,514.2712 Q183.3423,514.0015 183.9731,513.4204 Z " fill="#000000"/><text fill="#000000" font-family="sans-serif" font-size="14" lengthAdjust="spacing" textLength="65" x="195.5" y="515.291">Company</text><line style="stroke:#181818;stroke-width:0.5;" x1="167.5" x2="262.5" y1="526" y2="526"/><line style="stroke:#181818;stroke-width:0.5;" x1="167.5" x2="262.5" y1="534" y2="534"/></g><!--MD5=[112aa9d5fb660c84367ffb59e306b75c]
link com.youkeda.application.art.member.service.CompanyService to com.youkeda.application.art.member.param.CompanyQueryParam--><g id="link_com.youkeda.application.art.member.service.CompanyService_com.youkeda.application.art.member.param.CompanyQueryParam"><path codeLine="40" d="M407.84,230 C424.9,230 441.97,230 459.03,230 " fill="none" id="com.youkeda.application.art.member.service.CompanyService-to-com.youkeda.application.art.member.param.CompanyQueryParam" style="stroke:#181818;stroke-width:1.0;stroke-dasharray:7.0,7.0;"/><polygon fill="#181818" points="464.33,230,455.33,226,459.33,230,455.33,234,464.33,230" style="stroke:#181818;stroke-width:1.0;"/></g><!--MD5=[e01567ad597ff00cd9f34d0a48d99b75]
link com.youkeda.application.art.member.service.CompanyService to com.youkeda.model.Company--><g id="link_com.youkeda.application.art.member.service.CompanyService_com.youkeda.model.Company"><path codeLine="41" d="M215,419.37 C215,446.29 215,470.82 215,488.55 " fill="none" id="com.youkeda.application.art.member.service.CompanyService-to-com.youkeda.model.Company" style="stroke:#181818;stroke-width:1.0;stroke-dasharray:7.0,7.0;"/><polygon fill="#181818" points="215,493.83,219,484.83,215,488.83,211,484.83,215,493.83" style="stroke:#181818;stroke-width:1.0;"/></g><!--MD5=[a53933cf97774322676d000059210ded]
@startuml

interface com.youkeda.application.art.member.service.CompanyService #LightYellow##FireBrick {

// 创建企业，生成一个code
+ Company save(Company company)

// 获取企业
+ Company find(CompanyQueryParam param)

// 根据accountId查询公司信息
+ List<Company> queryByAccountId(String accountId)

// 根据域名查询公司信息
+ Company getByDomain(String domainUrl)

// 根据主键id删除公司
+ void delete(String companyId)

// 根据主键id查询企业信息
+ Company get(String companyId)

- - - -

}

class com.youkeda.application.art.member.param.CompanyQueryParam #LightYellow##FireBrick {
// 根据编码查询
- String code
// 根据域名查询
- String domain

- - - -
// 创建查询参数实例对象
+ {static} CompanyQueryParam create()
}

class com.youkeda.model.Company {
}

com.youkeda.application.art.member.service.CompanyService .right.> com.youkeda.application.art.member.param.CompanyQueryParam
com.youkeda.application.art.member.service.CompanyService ..> com.youkeda.model.Company
@enduml

PlantUML version 1.2022.6(Wed Jun 22 01:34:49 CST 2022)
(GPL source distribution)
Java Runtime: OpenJDK Runtime Environment
JVM: OpenJDK 64-Bit Server VM
Default Encoding: UTF-8
Language: zh
Country: CN
--></g></svg>