<?xml version="1.0" encoding="UTF-8" standalone="no"?><svg xmlns="http://www.w3.org/2000/svg" xmlns:xlink="http://www.w3.org/1999/xlink" contentStyleType="text/css" height="863px" preserveAspectRatio="none" style="width:892px;height:863px;background:#FFFFFF;" version="1.1" viewBox="0 0 892 863" width="892px" zoomAndPan="magnify"><defs/><g><!--MD5=[6c1daab17c88496ca5cea5d6fe55d776]
cluster com.youkeda.application.art.member.model--><g id="cluster_com.youkeda.application.art.member.model"><path d="M8.5,6 L318.5,6 A3.75,3.75 0 0 1 321,8.5 L328,28.4883 L701.5,28.4883 A2.5,2.5 0 0 1 704,30.9883 L704,853.5 A2.5,2.5 0 0 1 701.5,856 L8.5,856 A2.5,2.5 0 0 1 6,853.5 L6,8.5 A2.5,2.5 0 0 1 8.5,6 " style="stroke:#000000;stroke-width:1.5;fill:none;"/><line style="stroke:#000000;stroke-width:1.5;fill:none;" x1="6" x2="328" y1="28.4883" y2="28.4883"/><text fill="#000000" font-family="sans-serif" font-size="14" font-weight="bold" lengthAdjust="spacing" textLength="309" x="10" y="21.5352">com.youkeda.application.art.member.model</text></g><!--MD5=[ed0073de296ff6289039be097c6b722a]
cluster com.youkeda.model--><g id="cluster_com.youkeda.model"><path d="M730.5,47 L872.5,47 A3.75,3.75 0 0 1 875,49.5 L882,69.4883 L882.5,69.4883 A2.5,2.5 0 0 1 885,71.9883 L885,143.5 A2.5,2.5 0 0 1 882.5,146 L730.5,146 A2.5,2.5 0 0 1 728,143.5 L728,49.5 A2.5,2.5 0 0 1 730.5,47 " style="stroke:#000000;stroke-width:1.5;fill:none;"/><line style="stroke:#000000;stroke-width:1.5;fill:none;" x1="728" x2="882" y1="69.4883" y2="69.4883"/><text fill="#000000" font-family="sans-serif" font-size="14" font-weight="bold" lengthAdjust="spacing" textLength="141" x="732" y="62.5352">com.youkeda.model</text></g><!--MD5=[6e61922ced4c1a25474e2085c6849e75]
class com.youkeda.application.art.member.model.Tree--><g id="elem_com.youkeda.application.art.member.model.Tree"><rect codeLine="2" fill="#F1F1F1" height="130.4414" id="com.youkeda.application.art.member.model.Tree" rx="2.5" ry="2.5" style="stroke:#181818;stroke-width:0.5;" width="187" x="86.5" y="41"/><ellipse cx="154.25" cy="57" fill="#B4A7E5" rx="11" ry="11" style="stroke:#181818;stroke-width:1.0;"/><path d="M150.6777,53.2651 L150.6777,51.1069 L158.0571,51.1069 L158.0571,53.2651 L155.5918,53.2651 L155.5918,61.3418 L158.0571,61.3418 L158.0571,63.5 L150.6777,63.5 L150.6777,61.3418 L153.1431,61.3418 L153.1431,53.2651 Z " fill="#000000"/><text fill="#000000" font-family="sans-serif" font-size="14" font-style="italic" lengthAdjust="spacing" textLength="31" x="174.75" y="62.291">Tree</text><rect fill="#FFFFFF" height="16.1328" style="stroke:#000000;stroke-width:1.0;stroke-dasharray:2.0,2.0;" width="10" x="266.5" y="38"/><text fill="#000000" font-family="sans-serif" font-size="12" font-style="italic" lengthAdjust="spacing" textLength="8" x="267.5" y="50.6016">T</text><line style="stroke:#181818;stroke-width:0.5;" x1="87.5" x2="272.5" y1="73" y2="73"/><line style="stroke:#181818;stroke-width:0.5;" x1="87.5" x2="272.5" y1="81" y2="81"/><ellipse cx="97.5" cy="92" fill="#84BE84" rx="3" ry="3" style="stroke:#038048;stroke-width:1.0;"/><text fill="#000000" font-family="sans-serif" font-size="14" lengthAdjust="spacing" textLength="90" x="106.5" y="98.5352">String getId()</text><ellipse cx="97.5" cy="108.4883" fill="#84BE84" rx="3" ry="3" style="stroke:#038048;stroke-width:1.0;"/><text fill="#000000" font-family="sans-serif" font-size="14" lengthAdjust="spacing" textLength="134" x="106.5" y="115.0234">String getParentId()</text><ellipse cx="97.5" cy="124.9766" fill="#84BE84" rx="3" ry="3" style="stroke:#038048;stroke-width:1.0;"/><text fill="#000000" font-family="sans-serif" font-size="14" lengthAdjust="spacing" textLength="161" x="106.5" y="131.5117">void setParentId(String)</text><ellipse cx="97.5" cy="141.4648" fill="#84BE84" rx="3" ry="3" style="stroke:#038048;stroke-width:1.0;"/><text fill="#000000" font-family="sans-serif" font-size="14" lengthAdjust="spacing" textLength="149" x="106.5" y="148">List&lt;T&gt; getChildren()</text><ellipse cx="97.5" cy="157.9531" fill="#84BE84" rx="3" ry="3" style="stroke:#038048;stroke-width:1.0;"/><text fill="#000000" font-family="sans-serif" font-size="14" lengthAdjust="spacing" textLength="137" x="106.5" y="164.4883">void addChildren(T)</text></g><!--MD5=[25786413f78e162bda8d007b65a401ca]
class com.youkeda.application.art.member.model.Department--><g id="elem_com.youkeda.application.art.member.model.Department"><rect codeLine="10" fill="#F1F1F1" height="592.1133" id="com.youkeda.application.art.member.model.Department" rx="2.5" ry="2.5" style="stroke:#181818;stroke-width:0.5;" width="315" x="22.5" y="248"/><ellipse cx="135.25" cy="264" fill="#ADD1B2" rx="11" ry="11" style="stroke:#181818;stroke-width:1.0;"/><path d="M137.7231,270.1431 Q137.1421,270.4419 136.5029,270.5913 Q135.8638,270.7407 135.1582,270.7407 Q132.6514,270.7407 131.3315,269.0889 Q130.0117,267.437 130.0117,264.3159 Q130.0117,261.1865 131.3315,259.5347 Q132.6514,257.8828 135.1582,257.8828 Q135.8638,257.8828 136.5112,258.0322 Q137.1587,258.1816 137.7231,258.4805 L137.7231,261.2031 Q137.0923,260.6221 136.4988,260.3523 Q135.9053,260.0825 135.2744,260.0825 Q133.9297,260.0825 133.2449,261.1492 Q132.5601,262.2158 132.5601,264.3159 Q132.5601,266.4077 133.2449,267.4744 Q133.9297,268.541 135.2744,268.541 Q135.9053,268.541 136.4988,268.2712 Q137.0923,268.0015 137.7231,267.4204 Z " fill="#000000"/><text fill="#000000" font-family="sans-serif" font-size="14" lengthAdjust="spacing" textLength="81" x="155.75" y="269.291">Department</text><line style="stroke:#181818;stroke-width:0.5;" x1="23.5" x2="336.5" y1="280" y2="280"/><text fill="#000000" font-family="sans-serif" font-size="14" lengthAdjust="spacing" textLength="4" x="42.5" y="297.5352"> </text><rect fill="none" height="6" style="stroke:#C82930;stroke-width:1.0;" width="6" x="30.5" y="304.4883"/><text fill="#000000" font-family="sans-serif" font-size="14" lengthAdjust="spacing" text-decoration="underline" textLength="148" x="42.5" y="314.0234">long serialVersionUID</text><text fill="#000000" font-family="sans-serif" font-size="14" lengthAdjust="spacing" textLength="4" x="42.5" y="330.5117"> </text><text fill="#000000" font-family="sans-serif" font-size="14" lengthAdjust="spacing" textLength="74" x="42.5" y="347">// 部门名称</text><rect fill="none" height="6" style="stroke:#C82930;stroke-width:1.0;" width="6" x="30.5" y="353.9531"/><text fill="#000000" font-family="sans-serif" font-size="14" lengthAdjust="spacing" textLength="83" x="42.5" y="363.4883">String name</text><text fill="#000000" font-family="sans-serif" font-size="14" lengthAdjust="spacing" textLength="4" x="42.5" y="379.9766"> </text><text fill="#000000" font-family="sans-serif" font-size="14" lengthAdjust="spacing" textLength="74" x="42.5" y="396.4648">// 部门描述</text><rect fill="none" height="6" style="stroke:#C82930;stroke-width:1.0;" width="6" x="30.5" y="403.418"/><text fill="#000000" font-family="sans-serif" font-size="14" lengthAdjust="spacing" textLength="76" x="42.5" y="412.9531">String desc</text><text fill="#000000" font-family="sans-serif" font-size="14" lengthAdjust="spacing" textLength="4" x="42.5" y="429.4414"> </text><text fill="#000000" font-family="sans-serif" font-size="14" lengthAdjust="spacing" textLength="116" x="42.5" y="445.9297">// 主管，部门经理</text><text fill="#000000" font-family="sans-serif" font-size="14" lengthAdjust="spacing" textLength="289" x="42.5" y="462.418">@Field(targetType = FieldType.OBJECT_ID)</text><rect fill="none" height="6" style="stroke:#C82930;stroke-width:1.0;" width="6" x="30.5" y="469.3711"/><text fill="#000000" font-family="sans-serif" font-size="14" lengthAdjust="spacing" textLength="175" x="42.5" y="478.9063">String managerAccountId</text><text fill="#000000" font-family="sans-serif" font-size="14" lengthAdjust="spacing" textLength="4" x="42.5" y="495.3945"> </text><text fill="#000000" font-family="sans-serif" font-size="14" lengthAdjust="spacing" textLength="73" x="42.5" y="511.8828">// 父部门Id</text><text fill="#000000" font-family="sans-serif" font-size="14" lengthAdjust="spacing" textLength="289" x="42.5" y="528.3711">@Field(targetType = FieldType.OBJECT_ID)</text><rect fill="none" height="6" style="stroke:#C82930;stroke-width:1.0;" width="6" x="30.5" y="535.3242"/><text fill="#000000" font-family="sans-serif" font-size="14" lengthAdjust="spacing" textLength="103" x="42.5" y="544.8594">String parentId</text><text fill="#000000" font-family="sans-serif" font-size="14" lengthAdjust="spacing" textLength="4" x="42.5" y="561.3477"> </text><text fill="#000000" font-family="sans-serif" font-size="14" lengthAdjust="spacing" textLength="94" x="42.5" y="577.8359">// 上级部门Ids</text><rect fill="none" height="6" style="stroke:#C82930;stroke-width:1.0;" width="6" x="30.5" y="584.7891"/><text fill="#000000" font-family="sans-serif" font-size="14" lengthAdjust="spacing" textLength="155" x="42.5" y="594.3242">List&lt;String&gt; parentIds</text><text fill="#000000" font-family="sans-serif" font-size="14" lengthAdjust="spacing" textLength="4" x="42.5" y="610.8125"> </text><text fill="#000000" font-family="sans-serif" font-size="14" lengthAdjust="spacing" textLength="60" x="42.5" y="627.3008">// 子部门</text><text fill="#000000" font-family="sans-serif" font-size="14" lengthAdjust="spacing" textLength="77" x="42.5" y="643.7891">@Transient</text><rect fill="none" height="6" style="stroke:#C82930;stroke-width:1.0;" width="6" x="30.5" y="650.7422"/><text fill="#000000" font-family="sans-serif" font-size="14" lengthAdjust="spacing" textLength="186" x="42.5" y="660.2773">List&lt;Department&gt; children</text><text fill="#000000" font-family="sans-serif" font-size="14" lengthAdjust="spacing" textLength="4" x="42.5" y="676.7656"> </text><text fill="#000000" font-family="sans-serif" font-size="14" lengthAdjust="spacing" textLength="60" x="42.5" y="693.2539">// 排序值</text><rect fill="none" height="6" style="stroke:#C82930;stroke-width:1.0;" width="6" x="30.5" y="700.207"/><text fill="#000000" font-family="sans-serif" font-size="14" lengthAdjust="spacing" textLength="49" x="42.5" y="709.7422">int sort</text><text fill="#000000" font-family="sans-serif" font-size="14" lengthAdjust="spacing" textLength="4" x="42.5" y="726.2305"> </text><text fill="#000000" font-family="sans-serif" font-size="14" lengthAdjust="spacing" textLength="74" x="42.5" y="742.7188">// 员工人数</text><rect fill="none" height="6" style="stroke:#C82930;stroke-width:1.0;" width="6" x="30.5" y="749.6719"/><text fill="#000000" font-family="sans-serif" font-size="14" lengthAdjust="spacing" textLength="124" x="42.5" y="759.207">long memberNum</text><text fill="#000000" font-family="sans-serif" font-size="14" lengthAdjust="spacing" textLength="4" x="42.5" y="775.6953"> </text><line style="stroke:#181818;stroke-width:1.0;" x1="23.5" x2="336.5" y1="782.6484" y2="782.6484"/><text fill="#000000" font-family="sans-serif" font-size="14" lengthAdjust="spacing" textLength="4" x="42.5" y="800.1836"> </text><ellipse cx="33.5" cy="810.1367" fill="#84BE84" rx="3" ry="3" style="stroke:#038048;stroke-width:1.0;"/><text fill="#000000" font-family="sans-serif" font-size="14" lengthAdjust="spacing" textLength="154" x="42.5" y="816.6719">«Create» Department()</text><ellipse cx="33.5" cy="826.625" fill="#84BE84" rx="3" ry="3" style="stroke:#038048;stroke-width:1.0;"/><text fill="#000000" font-family="sans-serif" font-size="14" lengthAdjust="spacing" textLength="212" x="42.5" y="833.1602">«Create» Department(String id)</text></g><!--MD5=[a45efadd5daa3d420569e8b19d0d2634]
class com.youkeda.application.art.member.model.DepartmentAccount--><g id="elem_com.youkeda.application.art.member.model.DepartmentAccount"><rect codeLine="47" fill="#F1F1F1" height="229.3711" id="com.youkeda.application.art.member.model.DepartmentAccount" rx="2.5" ry="2.5" style="stroke:#181818;stroke-width:0.5;" width="315" x="372.5" y="429.5"/><ellipse cx="457.25" cy="445.5" fill="#ADD1B2" rx="11" ry="11" style="stroke:#181818;stroke-width:1.0;"/><path d="M459.7231,451.6431 Q459.1421,451.9419 458.5029,452.0913 Q457.8638,452.2407 457.1582,452.2407 Q454.6514,452.2407 453.3315,450.5889 Q452.0117,448.937 452.0117,445.8159 Q452.0117,442.6865 453.3315,441.0347 Q454.6514,439.3828 457.1582,439.3828 Q457.8638,439.3828 458.5112,439.5322 Q459.1587,439.6816 459.7231,439.9805 L459.7231,442.7031 Q459.0923,442.1221 458.4988,441.8523 Q457.9053,441.5825 457.2744,441.5825 Q455.9297,441.5825 455.2449,442.6492 Q454.5601,443.7158 454.5601,445.8159 Q454.5601,447.9077 455.2449,448.9744 Q455.9297,450.041 457.2744,450.041 Q457.9053,450.041 458.4988,449.7712 Q459.0923,449.5015 459.7231,448.9204 Z " fill="#000000"/><text fill="#000000" font-family="sans-serif" font-size="14" lengthAdjust="spacing" textLength="137" x="477.75" y="450.791">DepartmentAccount</text><line style="stroke:#181818;stroke-width:0.5;" x1="373.5" x2="686.5" y1="461.5" y2="461.5"/><rect fill="none" height="6" style="stroke:#C82930;stroke-width:1.0;" width="6" x="380.5" y="469.5"/><text fill="#000000" font-family="sans-serif" font-size="14" lengthAdjust="spacing" text-decoration="underline" textLength="148" x="392.5" y="479.0352">long serialVersionUID</text><text fill="#000000" font-family="sans-serif" font-size="14" lengthAdjust="spacing" textLength="4" x="392.5" y="495.5234"> </text><text fill="#000000" font-family="sans-serif" font-size="14" lengthAdjust="spacing" textLength="64" x="392.5" y="512.0117">// 部门 ID</text><text fill="#000000" font-family="sans-serif" font-size="14" lengthAdjust="spacing" textLength="289" x="392.5" y="528.5">@Field(targetType = FieldType.OBJECT_ID)</text><rect fill="none" height="6" style="stroke:#C82930;stroke-width:1.0;" width="6" x="380.5" y="535.4531"/><text fill="#000000" font-family="sans-serif" font-size="14" lengthAdjust="spacing" textLength="138" x="392.5" y="544.9883">String departmentId</text><text fill="#000000" font-family="sans-serif" font-size="14" lengthAdjust="spacing" textLength="4" x="392.5" y="561.4766"> </text><text fill="#000000" font-family="sans-serif" font-size="14" lengthAdjust="spacing" textLength="64" x="392.5" y="577.9648">// 账户 ID</text><text fill="#000000" font-family="sans-serif" font-size="14" lengthAdjust="spacing" textLength="289" x="392.5" y="594.4531">@Field(targetType = FieldType.OBJECT_ID)</text><rect fill="none" height="6" style="stroke:#C82930;stroke-width:1.0;" width="6" x="380.5" y="601.4063"/><text fill="#000000" font-family="sans-serif" font-size="14" lengthAdjust="spacing" textLength="112" x="392.5" y="610.9414">String accountId</text><text fill="#000000" font-family="sans-serif" font-size="14" lengthAdjust="spacing" textLength="4" x="392.5" y="627.4297"> </text><line style="stroke:#181818;stroke-width:1.0;" x1="373.5" x2="686.5" y1="634.3828" y2="634.3828"/><text fill="#000000" font-family="sans-serif" font-size="14" lengthAdjust="spacing" textLength="4" x="378.5" y="651.918"> </text></g><!--MD5=[20bab37502bf42f2386e3acbf9f92f35]
class com.youkeda.model.Base--><g id="elem_com.youkeda.model.Base"><rect fill="#F1F1F1" height="48" id="com.youkeda.model.Base" rx="2.5" ry="2.5" style="stroke:#181818;stroke-width:0.5;" width="63" x="744.5" y="82"/><ellipse cx="759.5" cy="98" fill="#ADD1B2" rx="11" ry="11" style="stroke:#181818;stroke-width:1.0;"/><path d="M761.9731,104.1431 Q761.3921,104.4419 760.7529,104.5913 Q760.1138,104.7407 759.4082,104.7407 Q756.9014,104.7407 755.5815,103.0889 Q754.2617,101.437 754.2617,98.3159 Q754.2617,95.1865 755.5815,93.5347 Q756.9014,91.8828 759.4082,91.8828 Q760.1138,91.8828 760.7612,92.0322 Q761.4087,92.1816 761.9731,92.4805 L761.9731,95.2031 Q761.3423,94.6221 760.7488,94.3523 Q760.1553,94.0825 759.5244,94.0825 Q758.1797,94.0825 757.4949,95.1492 Q756.8101,96.2158 756.8101,98.3159 Q756.8101,100.4077 757.4949,101.4744 Q758.1797,102.541 759.5244,102.541 Q760.1553,102.541 760.7488,102.2712 Q761.3423,102.0015 761.9731,101.4204 Z " fill="#000000"/><text fill="#000000" font-family="sans-serif" font-size="14" lengthAdjust="spacing" textLength="31" x="773.5" y="103.291">Base</text><line style="stroke:#181818;stroke-width:0.5;" x1="745.5" x2="806.5" y1="114" y2="114"/><line style="stroke:#181818;stroke-width:0.5;" x1="745.5" x2="806.5" y1="122" y2="122"/></g><!--MD5=[07b1e024b1251a6fb178a5fe3cf2d764]
reverse link com.youkeda.application.art.member.model.Tree to com.youkeda.application.art.member.model.Department--><g id="link_com.youkeda.application.art.member.model.Tree_com.youkeda.application.art.member.model.Department"><path codeLine="62" d="M180,191.45 C180,208.73 180,227.83 180,247.93 " fill="none" id="com.youkeda.application.art.member.model.Tree-backto-com.youkeda.application.art.member.model.Department" style="stroke:#181818;stroke-width:1.0;stroke-dasharray:7.0,7.0;"/><polygon fill="none" points="173,191.33,180,171.33,187,191.33,173,191.33" style="stroke:#181818;stroke-width:1.0;"/><text fill="#000000" font-family="sans-serif" font-size="13" lengthAdjust="spacing" textLength="74" x="181" y="214.5684">implements</text></g><!--MD5=[3ea43f2dc0a1bb31d94662a8495ed0f7]
reverse link com.youkeda.model.Base to com.youkeda.application.art.member.model.Department--><g id="link_com.youkeda.model.Base_com.youkeda.application.art.member.model.Department"><path codeLine="63" d="M741.11,144.41 C730.1,154.36 717.31,164.21 704,171 C562.52,243.21 483.7,154.9 355,248 C349.09,252.28 343.34,256.82 337.76,261.59 " fill="none" id="com.youkeda.model.Base-backto-com.youkeda.application.art.member.model.Department" style="stroke:#181818;stroke-width:1.0;"/><polygon fill="none" points="736.61,139.04,755.83,130.12,746.36,149.08,736.61,139.04" style="stroke:#181818;stroke-width:1.0;"/><text fill="#000000" font-family="sans-serif" font-size="13" lengthAdjust="spacing" textLength="50" x="598" y="214.5684">extends</text></g><!--MD5=[9874d3831a143b4df99484c473f98fb6]
reverse link com.youkeda.model.Base to com.youkeda.application.art.member.model.DepartmentAccount--><g id="link_com.youkeda.model.Base_com.youkeda.application.art.member.model.DepartmentAccount"><path codeLine="64" d="M752.97,147.82 C717.03,211.52 646.32,336.84 594.13,429.35 " fill="none" id="com.youkeda.model.Base-backto-com.youkeda.application.art.member.model.DepartmentAccount" style="stroke:#181818;stroke-width:1.0;"/><polygon fill="none" points="747.02,144.11,762.95,130.13,759.22,150.99,747.02,144.11" style="stroke:#181818;stroke-width:1.0;"/><text fill="#000000" font-family="sans-serif" font-size="13" lengthAdjust="spacing" textLength="50" x="723" y="214.5684">extends</text></g><!--MD5=[827fc5259e0febdc8b2e713e1d74ef2f]
link com.youkeda.application.art.member.model.DepartmentAccount to com.youkeda.application.art.member.model.Department--><g id="link_com.youkeda.application.art.member.model.DepartmentAccount_com.youkeda.application.art.member.model.Department"><path codeLine="66" d="M372.15,544 C360.62,544 349.09,544 337.57,544 " fill="none" id="com.youkeda.application.art.member.model.DepartmentAccount-com.youkeda.application.art.member.model.Department" style="stroke:#181818;stroke-width:1.0;stroke-dasharray:7.0,7.0;"/></g><!--MD5=[2aee3af74725f35b0a2ce536d61e6122]
@startuml

interface com.youkeda.application.art.member.model.Tree <T> {
+ String getId()
+ String getParentId()
+ void setParentId(String)
+ List<T> getChildren()
+ void addChildren(T)
}

class com.youkeda.application.art.member.model.Department {

- {static} long serialVersionUID

// 部门名称
- String name

// 部门描述
- String desc

// 主管，部门经理
@Field(targetType = FieldType.OBJECT_ID)
- String managerAccountId

// 父部门Id
@Field(targetType = FieldType.OBJECT_ID)
- String parentId

// 上级部门Ids
- List<String> parentIds

// 子部门
@Transient
- List<Department> children

// 排序值
- int sort

// 员工人数
- long memberNum

- - - -

+ <<Create>> Department()
+ <<Create>> Department(String id)
}

class com.youkeda.application.art.member.model.DepartmentAccount {
- {static} long serialVersionUID

// 部门 ID
@Field(targetType = FieldType.OBJECT_ID)
- String departmentId

// 账户 ID
@Field(targetType = FieldType.OBJECT_ID)
- String accountId

- - - -

}

com.youkeda.application.art.member.model.Tree <|.. com.youkeda.application.art.member.model.Department : implements
com.youkeda.model.Base <|- - com.youkeda.application.art.member.model.Department : extends
com.youkeda.model.Base <|- - com.youkeda.application.art.member.model.DepartmentAccount : extends

com.youkeda.application.art.member.model.Department .left. com.youkeda.application.art.member.model.DepartmentAccount

@enduml

PlantUML version 1.2022.6(Wed Jun 22 01:34:49 CST 2022)
(GPL source distribution)
Java Runtime: OpenJDK Runtime Environment
JVM: OpenJDK 64-Bit Server VM
Default Encoding: UTF-8
Language: zh
Country: CN
--></g></svg>