<?xml version="1.0" encoding="UTF-8" standalone="no"?><svg xmlns="http://www.w3.org/2000/svg" xmlns:xlink="http://www.w3.org/1999/xlink" contentStyleType="text/css" height="1699px" preserveAspectRatio="none" style="width:1007px;height:1699px;background:#FFFFFF;" version="1.1" viewBox="0 0 1007 1699" width="1007px" zoomAndPan="magnify"><defs/><g><!--MD5=[6c1daab17c88496ca5cea5d6fe55d776]
cluster com.youkeda.application.art.member.model--><g id="cluster_com.youkeda.application.art.member.model"><path d="M119.5,1428 L429.5,1428 A3.75,3.75 0 0 1 432,1430.5 L439,1450.4883 L852.5,1450.4883 A2.5,2.5 0 0 1 855,1452.9883 L855,1689.5 A2.5,2.5 0 0 1 852.5,1692 L119.5,1692 A2.5,2.5 0 0 1 117,1689.5 L117,1430.5 A2.5,2.5 0 0 1 119.5,1428 " style="stroke:#000000;stroke-width:1.5;fill:none;"/><line style="stroke:#000000;stroke-width:1.5;fill:none;" x1="117" x2="439" y1="1450.4883" y2="1450.4883"/><text fill="#000000" font-family="sans-serif" font-size="14" font-weight="bold" lengthAdjust="spacing" textLength="309" x="121" y="1443.5352">com.youkeda.application.art.member.model</text></g><!--MD5=[59f2a503c5d927aaf9778479b1cad82b]
cluster com.youkeda.application.art.member.api--><g id="cluster_com.youkeda.application.art.member.api"><path d="M8.5,109 L295.5,109 A3.75,3.75 0 0 1 298,111.5 L305,131.4883 L997.5,131.4883 A2.5,2.5 0 0 1 1000,133.9883 L1000,1376.5 A2.5,2.5 0 0 1 997.5,1379 L8.5,1379 A2.5,2.5 0 0 1 6,1376.5 L6,111.5 A2.5,2.5 0 0 1 8.5,109 " style="stroke:#000000;stroke-width:1.5;fill:none;"/><line style="stroke:#000000;stroke-width:1.5;fill:none;" x1="6" x2="305" y1="131.4883" y2="131.4883"/><text fill="#000000" font-family="sans-serif" font-size="14" font-weight="bold" lengthAdjust="spacing" textLength="286" x="10" y="124.5352">com.youkeda.application.art.member.api</text></g><!--MD5=[925f3417b9f47dfb76dce4a2d6d30940]
class com.youkeda.application.art.member.model.AddDepartmentAccountParam--><g id="elem_com.youkeda.application.art.member.model.AddDepartmentAccountParam"><rect codeLine="1" fill="#F1F1F1" height="113.9531" id="com.youkeda.application.art.member.model.AddDepartmentAccountParam" rx="2.5" ry="2.5" style="stroke:#181818;stroke-width:0.5;" width="240" x="133" y="1512.5"/><ellipse cx="148" cy="1528.5" fill="#ADD1B2" rx="11" ry="11" style="stroke:#181818;stroke-width:1.0;"/><path d="M150.4731,1534.6431 Q149.8921,1534.9419 149.2529,1535.0913 Q148.6138,1535.2407 147.9082,1535.2407 Q145.4014,1535.2407 144.0815,1533.5889 Q142.7617,1531.937 142.7617,1528.8159 Q142.7617,1525.6865 144.0815,1524.0347 Q145.4014,1522.3828 147.9082,1522.3828 Q148.6138,1522.3828 149.2612,1522.5322 Q149.9087,1522.6816 150.4731,1522.9805 L150.4731,1525.7031 Q149.8423,1525.1221 149.2488,1524.8523 Q148.6553,1524.5825 148.0244,1524.5825 Q146.6797,1524.5825 145.9949,1525.6492 Q145.3101,1526.7158 145.3101,1528.8159 Q145.3101,1530.9077 145.9949,1531.9744 Q146.6797,1533.041 148.0244,1533.041 Q148.6553,1533.041 149.2488,1532.7712 Q149.8423,1532.5015 150.4731,1531.9204 Z " fill="#000000"/><text fill="#000000" font-family="sans-serif" font-size="14" lengthAdjust="spacing" textLength="208" x="162" y="1533.791">AddDepartmentAccountParam</text><line style="stroke:#181818;stroke-width:0.5;" x1="134" x2="372" y1="1544.5" y2="1544.5"/><rect fill="none" height="6" style="stroke:#C82930;stroke-width:1.0;" width="6" x="141" y="1552.5"/><text fill="#000000" font-family="sans-serif" font-size="14" lengthAdjust="spacing" textLength="138" x="153" y="1562.0352">String departmentId</text><rect fill="none" height="6" style="stroke:#C82930;stroke-width:1.0;" width="6" x="141" y="1568.9883"/><text fill="#000000" font-family="sans-serif" font-size="14" lengthAdjust="spacing" textLength="114" x="153" y="1578.5234">Account account</text><text fill="#000000" font-family="sans-serif" font-size="14" lengthAdjust="spacing" textLength="4" x="153" y="1595.0117"> </text><line style="stroke:#181818;stroke-width:1.0;" x1="134" x2="372" y1="1601.9648" y2="1601.9648"/><line style="stroke:#181818;stroke-width:1.0;" x1="134" x2="372" y1="1603.9648" y2="1603.9648"/><text fill="#000000" font-family="sans-serif" font-size="14" lengthAdjust="spacing" textLength="4" x="139" y="1619.5"> </text></g><!--MD5=[259dc0795718142d0382f140fce87ea6]
class com.youkeda.application.art.member.model.DeleteAccountParam--><g id="elem_com.youkeda.application.art.member.model.DeleteAccountParam"><rect codeLine="8" fill="#F1F1F1" height="113.9531" id="com.youkeda.application.art.member.model.DeleteAccountParam" rx="2.5" ry="2.5" style="stroke:#181818;stroke-width:0.5;" width="190" x="408" y="1512.5"/><ellipse cx="430.2" cy="1528.5" fill="#ADD1B2" rx="11" ry="11" style="stroke:#181818;stroke-width:1.0;"/><path d="M432.6731,1534.6431 Q432.0921,1534.9419 431.4529,1535.0913 Q430.8138,1535.2407 430.1082,1535.2407 Q427.6014,1535.2407 426.2815,1533.5889 Q424.9617,1531.937 424.9617,1528.8159 Q424.9617,1525.6865 426.2815,1524.0347 Q427.6014,1522.3828 430.1082,1522.3828 Q430.8138,1522.3828 431.4612,1522.5322 Q432.1087,1522.6816 432.6731,1522.9805 L432.6731,1525.7031 Q432.0423,1525.1221 431.4488,1524.8523 Q430.8553,1524.5825 430.2244,1524.5825 Q428.8797,1524.5825 428.1949,1525.6492 Q427.5101,1526.7158 427.5101,1528.8159 Q427.5101,1530.9077 428.1949,1531.9744 Q428.8797,1533.041 430.2244,1533.041 Q430.8553,1533.041 431.4488,1532.7712 Q432.0423,1532.5015 432.6731,1531.9204 Z " fill="#000000"/><text fill="#000000" font-family="sans-serif" font-size="14" lengthAdjust="spacing" textLength="142" x="445.8" y="1533.791">DeleteAccountParam</text><line style="stroke:#181818;stroke-width:0.5;" x1="409" x2="597" y1="1544.5" y2="1544.5"/><rect fill="none" height="6" style="stroke:#C82930;stroke-width:1.0;" width="6" x="416" y="1552.5"/><text fill="#000000" font-family="sans-serif" font-size="14" lengthAdjust="spacing" textLength="138" x="428" y="1562.0352">String departmentId</text><rect fill="none" height="6" style="stroke:#C82930;stroke-width:1.0;" width="6" x="416" y="1568.9883"/><text fill="#000000" font-family="sans-serif" font-size="14" lengthAdjust="spacing" textLength="164" x="428" y="1578.5234">List&lt;String&gt; accountIds</text><text fill="#000000" font-family="sans-serif" font-size="14" lengthAdjust="spacing" textLength="4" x="428" y="1595.0117"> </text><line style="stroke:#181818;stroke-width:1.0;" x1="409" x2="597" y1="1601.9648" y2="1601.9648"/><line style="stroke:#181818;stroke-width:1.0;" x1="409" x2="597" y1="1603.9648" y2="1603.9648"/><text fill="#000000" font-family="sans-serif" font-size="14" lengthAdjust="spacing" textLength="4" x="414" y="1619.5"> </text></g><!--MD5=[33fe788548ca0e5bc96adae4f3715fe4]
class com.youkeda.application.art.member.model.AdjustDepartmentParam--><g id="elem_com.youkeda.application.art.member.model.AdjustDepartmentParam"><rect codeLine="15" fill="#F1F1F1" height="212.8828" id="com.youkeda.application.art.member.model.AdjustDepartmentParam" rx="2.5" ry="2.5" style="stroke:#181818;stroke-width:0.5;" width="206" x="633" y="1463"/><ellipse cx="650.7" cy="1479" fill="#ADD1B2" rx="11" ry="11" style="stroke:#181818;stroke-width:1.0;"/><path d="M653.1731,1485.1431 Q652.5921,1485.4419 651.9529,1485.5913 Q651.3138,1485.7407 650.6082,1485.7407 Q648.1014,1485.7407 646.7815,1484.0889 Q645.4617,1482.437 645.4617,1479.3159 Q645.4617,1476.1865 646.7815,1474.5347 Q648.1014,1472.8828 650.6082,1472.8828 Q651.3138,1472.8828 651.9612,1473.0322 Q652.6087,1473.1816 653.1731,1473.4805 L653.1731,1476.2031 Q652.5423,1475.6221 651.9488,1475.3523 Q651.3553,1475.0825 650.7244,1475.0825 Q649.3797,1475.0825 648.6949,1476.1492 Q648.0101,1477.2158 648.0101,1479.3159 Q648.0101,1481.4077 648.6949,1482.4744 Q649.3797,1483.541 650.7244,1483.541 Q651.3553,1483.541 651.9488,1483.2712 Q652.5423,1483.0015 653.1731,1482.4204 Z " fill="#000000"/><text fill="#000000" font-family="sans-serif" font-size="14" lengthAdjust="spacing" textLength="168" x="665.3" y="1484.291">AdjustDepartmentParam</text><line style="stroke:#181818;stroke-width:0.5;" x1="634" x2="838" y1="1495" y2="1495"/><text fill="#000000" font-family="sans-serif" font-size="14" lengthAdjust="spacing" textLength="73" x="653" y="1512.5352">// 源部门id</text><rect fill="none" height="6" style="stroke:#C82930;stroke-width:1.0;" width="6" x="641" y="1519.4883"/><text fill="#000000" font-family="sans-serif" font-size="14" lengthAdjust="spacing" textLength="180" x="653" y="1529.0234">String originDepartmentId</text><text fill="#000000" font-family="sans-serif" font-size="14" lengthAdjust="spacing" textLength="4" x="653" y="1545.5117"> </text><text fill="#000000" font-family="sans-serif" font-size="14" lengthAdjust="spacing" textLength="87" x="653" y="1562">// 目的部门Id</text><rect fill="none" height="6" style="stroke:#C82930;stroke-width:1.0;" width="6" x="641" y="1568.9531"/><text fill="#000000" font-family="sans-serif" font-size="14" lengthAdjust="spacing" textLength="168" x="653" y="1578.4883">String destDepartmentId</text><text fill="#000000" font-family="sans-serif" font-size="14" lengthAdjust="spacing" textLength="4" x="653" y="1594.9766"> </text><text fill="#000000" font-family="sans-serif" font-size="14" lengthAdjust="spacing" textLength="108" x="653" y="1611.4648">// 员工的账户Ids</text><rect fill="none" height="6" style="stroke:#C82930;stroke-width:1.0;" width="6" x="641" y="1618.418"/><text fill="#000000" font-family="sans-serif" font-size="14" lengthAdjust="spacing" textLength="164" x="653" y="1627.9531">List&lt;String&gt; accountIds</text><text fill="#000000" font-family="sans-serif" font-size="14" lengthAdjust="spacing" textLength="4" x="653" y="1644.4414"> </text><line style="stroke:#181818;stroke-width:1.0;" x1="634" x2="838" y1="1651.3945" y2="1651.3945"/><line style="stroke:#181818;stroke-width:1.0;" x1="634" x2="838" y1="1653.3945" y2="1653.3945"/><text fill="#000000" font-family="sans-serif" font-size="14" lengthAdjust="spacing" textLength="4" x="639" y="1668.9297"> </text></g><!--MD5=[2284fe480adc69ccf5323cbb566fb157]
class com.youkeda.application.art.member.api.DepartmentApi--><g id="elem_com.youkeda.application.art.member.api.DepartmentApi"><rect codeLine="28" fill="#F1F1F1" height="1218.668" id="com.youkeda.application.art.member.api.DepartmentApi" rx="2.5" ry="2.5" style="stroke:#181818;stroke-width:0.5;" width="962" x="22" y="144"/><ellipse cx="446.75" cy="160" fill="#ADD1B2" rx="11" ry="11" style="stroke:#181818;stroke-width:1.0;"/><path d="M449.2231,166.1431 Q448.6421,166.4419 448.0029,166.5913 Q447.3638,166.7407 446.6582,166.7407 Q444.1514,166.7407 442.8315,165.0889 Q441.5117,163.437 441.5117,160.3159 Q441.5117,157.1865 442.8315,155.5347 Q444.1514,153.8828 446.6582,153.8828 Q447.3638,153.8828 448.0112,154.0322 Q448.6587,154.1816 449.2231,154.4805 L449.2231,157.2031 Q448.5923,156.6221 447.9988,156.3523 Q447.4053,156.0825 446.7744,156.0825 Q445.4297,156.0825 444.7449,157.1492 Q444.0601,158.2158 444.0601,160.3159 Q444.0601,162.4077 444.7449,163.4744 Q445.4297,164.541 446.7744,164.541 Q447.4053,164.541 447.9988,164.2712 Q448.5923,164.0015 449.2231,163.4204 Z " fill="#000000"/><text fill="#000000" font-family="sans-serif" font-size="14" lengthAdjust="spacing" textLength="104" x="467.25" y="165.291">DepartmentApi</text><line style="stroke:#181818;stroke-width:0.5;" x1="23" x2="983" y1="176" y2="176"/><text fill="#000000" font-family="sans-serif" font-size="14" lengthAdjust="spacing" textLength="4" x="42" y="193.5352"> </text><text fill="#000000" font-family="sans-serif" font-size="14" lengthAdjust="spacing" textLength="83" x="42" y="210.0234">@Autowired</text><rect fill="none" height="6" style="stroke:#C82930;stroke-width:1.0;" width="6" x="30" y="216.9766"/><text fill="#000000" font-family="sans-serif" font-size="14" lengthAdjust="spacing" textLength="261" x="42" y="226.5117">DepartmentService departmentService</text><text fill="#000000" font-family="sans-serif" font-size="14" lengthAdjust="spacing" textLength="4" x="42" y="243"> </text><text fill="#000000" font-family="sans-serif" font-size="14" lengthAdjust="spacing" textLength="83" x="42" y="259.4883">@Autowired</text><rect fill="none" height="6" style="stroke:#C82930;stroke-width:1.0;" width="6" x="30" y="266.4414"/><text fill="#000000" font-family="sans-serif" font-size="14" lengthAdjust="spacing" textLength="373" x="42" y="275.9766">DepartmentAccountService departmentAccountService</text><text fill="#000000" font-family="sans-serif" font-size="14" lengthAdjust="spacing" textLength="4" x="42" y="292.4648"> </text><text fill="#000000" font-family="sans-serif" font-size="14" lengthAdjust="spacing" textLength="83" x="42" y="308.9531">@Autowired</text><rect fill="none" height="6" style="stroke:#C82930;stroke-width:1.0;" width="6" x="30" y="315.9063"/><text fill="#000000" font-family="sans-serif" font-size="14" lengthAdjust="spacing" textLength="227" x="42" y="325.4414">CompanyService companyService</text><text fill="#000000" font-family="sans-serif" font-size="14" lengthAdjust="spacing" textLength="4" x="42" y="341.9297"> </text><text fill="#000000" font-family="sans-serif" font-size="14" lengthAdjust="spacing" textLength="83" x="42" y="358.418">@Autowired</text><rect fill="none" height="6" style="stroke:#C82930;stroke-width:1.0;" width="6" x="30" y="365.3711"/><text fill="#000000" font-family="sans-serif" font-size="14" lengthAdjust="spacing" textLength="210" x="42" y="374.9063">AccountService accountService</text><text fill="#000000" font-family="sans-serif" font-size="14" lengthAdjust="spacing" textLength="4" x="42" y="391.3945"> </text><line style="stroke:#181818;stroke-width:1.0;" x1="23" x2="983" y1="398.3477" y2="398.3477"/><line style="stroke:#181818;stroke-width:1.0;" x1="23" x2="983" y1="400.3477" y2="400.3477"/><text fill="#000000" font-family="sans-serif" font-size="14" lengthAdjust="spacing" textLength="4" x="42" y="415.8828"> </text><text fill="#000000" font-family="sans-serif" font-size="14" lengthAdjust="spacing" textLength="208" x="42" y="432.3711">@PostMapping(path = "/save")</text><text fill="#000000" font-family="sans-serif" font-size="14" lengthAdjust="spacing" textLength="111" x="42" y="448.8594">@ResponseBody</text><ellipse cx="33" cy="458.8125" fill="#84BE84" rx="3" ry="3" style="stroke:#038048;stroke-width:1.0;"/><text fill="#000000" font-family="sans-serif" font-size="14" lengthAdjust="spacing" textLength="458" x="42" y="465.3477">Result&lt;Department&gt; save(@RequestBody Department department)</text><text fill="#000000" font-family="sans-serif" font-size="14" lengthAdjust="spacing" textLength="4" x="42" y="481.8359"> </text><text fill="#000000" font-family="sans-serif" font-size="14" lengthAdjust="spacing" textLength="220" x="42" y="498.3242">@PostMapping(path = "/delete")</text><text fill="#000000" font-family="sans-serif" font-size="14" lengthAdjust="spacing" textLength="111" x="42" y="514.8125">@ResponseBody</text><ellipse cx="33" cy="524.7656" fill="#84BE84" rx="3" ry="3" style="stroke:#038048;stroke-width:1.0;"/><text fill="#000000" font-family="sans-serif" font-size="14" lengthAdjust="spacing" textLength="236" x="42" y="531.3008">Result delete(String departmentId)</text><text fill="#000000" font-family="sans-serif" font-size="14" lengthAdjust="spacing" textLength="4" x="42" y="547.7891"> </text><text fill="#000000" font-family="sans-serif" font-size="14" lengthAdjust="spacing" textLength="130" x="42" y="564.2773">// 添加部门成员信息</text><text fill="#000000" font-family="sans-serif" font-size="14" lengthAdjust="spacing" textLength="241" x="42" y="580.7656">@PostMapping(path = "/user/add")</text><text fill="#000000" font-family="sans-serif" font-size="14" lengthAdjust="spacing" textLength="111" x="42" y="597.2539">@ResponseBody</text><ellipse cx="33" cy="607.207" fill="#84BE84" rx="3" ry="3" style="stroke:#038048;stroke-width:1.0;"/><text fill="#000000" font-family="sans-serif" font-size="14" lengthAdjust="spacing" textLength="635" x="42" y="613.7422">Result addUser(@RequestBody AddDepartmentAccountParam addDepartmentAccountParam)</text><text fill="#000000" font-family="sans-serif" font-size="14" lengthAdjust="spacing" textLength="4" x="42" y="630.2305"> </text><text fill="#000000" font-family="sans-serif" font-size="14" lengthAdjust="spacing" textLength="130" x="42" y="646.7188">// 批量删除用户信息</text><text fill="#000000" font-family="sans-serif" font-size="14" lengthAdjust="spacing" textLength="264" x="42" y="663.207">@PostMapping(path = "/users/delete")</text><text fill="#000000" font-family="sans-serif" font-size="14" lengthAdjust="spacing" textLength="111" x="42" y="679.6953">@ResponseBody</text><ellipse cx="33" cy="689.6484" fill="#84BE84" rx="3" ry="3" style="stroke:#038048;stroke-width:1.0;"/><text fill="#000000" font-family="sans-serif" font-size="14" lengthAdjust="spacing" textLength="527" x="42" y="696.1836">Result deleteUsers(@RequestBody DeleteAccountParam deleteAccountParam)</text><text fill="#000000" font-family="sans-serif" font-size="14" lengthAdjust="spacing" textLength="4" x="42" y="712.6719"> </text><text fill="#000000" font-family="sans-serif" font-size="14" lengthAdjust="spacing" textLength="216" x="42" y="729.1602">@GetMapping(value = "/query")</text><text fill="#000000" font-family="sans-serif" font-size="14" lengthAdjust="spacing" textLength="111" x="42" y="745.6484">@ResponseBody</text><ellipse cx="33" cy="755.6016" fill="#84BE84" rx="3" ry="3" style="stroke:#038048;stroke-width:1.0;"/><text fill="#000000" font-family="sans-serif" font-size="14" lengthAdjust="spacing" textLength="193" x="42" y="762.1367">Result&lt;Department&gt; query(</text><text fill="#000000" font-family="sans-serif" font-size="14" lengthAdjust="spacing" textLength="190" x="42" y="778.625">HttpServletRequest request,</text><text fill="#000000" font-family="sans-serif" font-size="14" lengthAdjust="spacing" textLength="506" x="42" y="795.1133">@RequestParam(value = "companyId", required = false) String companyId,</text><text fill="#000000" font-family="sans-serif" font-size="14" lengthAdjust="spacing" textLength="548" x="42" y="811.6016">@RequestParam(value = "companyCode", required = false) String companyCode</text><text fill="#000000" font-family="sans-serif" font-size="14" lengthAdjust="spacing" textLength="5" x="42" y="828.0898">)</text><text fill="#000000" font-family="sans-serif" font-size="14" lengthAdjust="spacing" textLength="4" x="42" y="844.5781"> </text><text fill="#000000" font-family="sans-serif" font-size="14" lengthAdjust="spacing" textLength="277" x="42" y="861.0664">@GetMapping(value = "/queryaccounts")</text><text fill="#000000" font-family="sans-serif" font-size="14" lengthAdjust="spacing" textLength="111" x="42" y="877.5547">@ResponseBody</text><ellipse cx="33" cy="887.5078" fill="#84BE84" rx="3" ry="3" style="stroke:#038048;stroke-width:1.0;"/><text fill="#000000" font-family="sans-serif" font-size="14" lengthAdjust="spacing" textLength="533" x="42" y="894.043">Result&lt;Paging&lt;Account&gt;&gt; queryAccounts(DepartmentAccountParam param)</text><text fill="#000000" font-family="sans-serif" font-size="14" lengthAdjust="spacing" textLength="4" x="42" y="910.5313"> </text><text fill="#000000" font-family="sans-serif" font-size="14" lengthAdjust="spacing" textLength="284" x="42" y="927.0195">@GetMapping(path = "/querybyuserinfo")</text><text fill="#000000" font-family="sans-serif" font-size="14" lengthAdjust="spacing" textLength="111" x="42" y="943.5078">@ResponseBody</text><ellipse cx="33" cy="953.4609" fill="#84BE84" rx="3" ry="3" style="stroke:#038048;stroke-width:1.0;"/><text fill="#000000" font-family="sans-serif" font-size="14" lengthAdjust="spacing" textLength="311" x="42" y="959.9961">Result&lt;List&lt;Department&gt;&gt; queryByUserInfo(</text><text fill="#000000" font-family="sans-serif" font-size="14" lengthAdjust="spacing" textLength="506" x="42" y="976.4844">@RequestParam(value = "companyId", required = false) String companyId,</text><text fill="#000000" font-family="sans-serif" font-size="14" lengthAdjust="spacing" textLength="482" x="42" y="992.9727">@RequestParam(value = "keywords", required = false) String keywords</text><text fill="#000000" font-family="sans-serif" font-size="14" lengthAdjust="spacing" textLength="5" x="42" y="1009.4609">)</text><text fill="#000000" font-family="sans-serif" font-size="14" lengthAdjust="spacing" textLength="4" x="42" y="1025.9492"> </text><text fill="#000000" font-family="sans-serif" font-size="14" lengthAdjust="spacing" textLength="225" x="42" y="1042.4375">@PostMapping(value = "/adjust")</text><text fill="#000000" font-family="sans-serif" font-size="14" lengthAdjust="spacing" textLength="111" x="42" y="1058.9258">@ResponseBody</text><ellipse cx="33" cy="1068.8789" fill="#84BE84" rx="3" ry="3" style="stroke:#038048;stroke-width:1.0;"/><text fill="#000000" font-family="sans-serif" font-size="14" lengthAdjust="spacing" textLength="418" x="42" y="1075.4141">Result adjust(@RequestBody AdjustDepartmentParam param)</text><text fill="#000000" font-family="sans-serif" font-size="14" lengthAdjust="spacing" textLength="4" x="42" y="1091.9023"> </text><text fill="#000000" font-family="sans-serif" font-size="14" lengthAdjust="spacing" textLength="361" x="42" y="1108.3906">@GetMapping(value = "/query/departmentkeyword")</text><text fill="#000000" font-family="sans-serif" font-size="14" lengthAdjust="spacing" textLength="111" x="42" y="1124.8789">@ResponseBody</text><ellipse cx="33" cy="1134.832" fill="#84BE84" rx="3" ry="3" style="stroke:#038048;stroke-width:1.0;"/><text fill="#000000" font-family="sans-serif" font-size="14" lengthAdjust="spacing" textLength="287" x="42" y="1141.3672">Result&lt;List&lt;Account&gt;&gt; queryByKeyword(</text><text fill="#000000" font-family="sans-serif" font-size="14" lengthAdjust="spacing" textLength="369" x="42" y="1157.8555">@RequestParam("departmentId") String departmentId,</text><text fill="#000000" font-family="sans-serif" font-size="14" lengthAdjust="spacing" textLength="299" x="42" y="1174.3438">@RequestParam("keyword") String keyword,</text><text fill="#000000" font-family="sans-serif" font-size="14" lengthAdjust="spacing" textLength="186" x="42" y="1190.832">HttpServletRequest request</text><text fill="#000000" font-family="sans-serif" font-size="14" lengthAdjust="spacing" textLength="5" x="42" y="1207.3203">)</text><text fill="#000000" font-family="sans-serif" font-size="14" lengthAdjust="spacing" textLength="4" x="42" y="1223.8086"> </text><text fill="#000000" font-family="sans-serif" font-size="14" lengthAdjust="spacing" textLength="760" x="42" y="1240.2969">@RequestMapping(path = "/query/acountdepartment", method = {RequestMethod.GET, RequestMethod.POST})</text><text fill="#000000" font-family="sans-serif" font-size="14" lengthAdjust="spacing" textLength="111" x="42" y="1256.7852">@ResponseBody</text><ellipse cx="33" cy="1266.7383" fill="#84BE84" rx="3" ry="3" style="stroke:#038048;stroke-width:1.0;"/><text fill="#000000" font-family="sans-serif" font-size="14" lengthAdjust="spacing" textLength="936" x="42" y="1273.2734">Result&lt;List&lt;Department&gt;&gt; queryByAccountId(@SessionAttribute(value = MemberUtil.LOGIN_KEY, required = false) LoginUser loginUser)</text><text fill="#000000" font-family="sans-serif" font-size="14" lengthAdjust="spacing" textLength="4" x="42" y="1289.7617"> </text><text fill="#000000" font-family="sans-serif" font-size="14" lengthAdjust="spacing" textLength="253" x="42" y="1306.25">@GetMapping("/existondepartment")</text><text fill="#000000" font-family="sans-serif" font-size="14" lengthAdjust="spacing" textLength="111" x="42" y="1322.7383">@ResponseBody</text><ellipse cx="33" cy="1332.6914" fill="#84BE84" rx="3" ry="3" style="stroke:#038048;stroke-width:1.0;"/><text fill="#000000" font-family="sans-serif" font-size="14" lengthAdjust="spacing" textLength="429" x="42" y="1339.2266">Result accountExistOnDepartment(HttpServletRequest request,</text><text fill="#000000" font-family="sans-serif" font-size="14" lengthAdjust="spacing" textLength="396" x="42" y="1355.7148">@RequestParam(value = "departmentId", required = false)</text></g><g id="elem_GMN14485"><path d="M350.5,6 L350.5,61.9316 A0,0 0 0 0 350.5,61.9316 L499,61.9316 L503,143.96 L507,61.9316 L655.5,61.9316 A0,0 0 0 0 655.5,61.9316 L655.5,16 L645.5,6 L350.5,6 A0,0 0 0 0 350.5,6 " fill="#FEFFDD" style="stroke:#181818;stroke-width:0.5;"/><path d="M645.5,6 L645.5,16 L655.5,16 L645.5,6 " fill="#FEFFDD" style="stroke:#181818;stroke-width:0.5;"/><text fill="#000000" font-family="sans-serif" font-size="13" lengthAdjust="spacing" textLength="78" x="356.5" y="23.5684">@NeedLogin</text><text fill="#000000" font-family="sans-serif" font-size="13" lengthAdjust="spacing" textLength="74" x="356.5" y="38.8789">@Controller</text><text fill="#000000" font-family="sans-serif" font-size="13" lengthAdjust="spacing" textLength="284" x="356.5" y="54.1895">@RequestMapping(path = "/api/department")</text></g><!--MD5=[d2200ebf69047f63984a71e105de8c2d]
link com.youkeda.application.art.member.api.DepartmentApi to com.youkeda.application.art.member.model.AdjustDepartmentParam--><g id="link_com.youkeda.application.art.member.api.DepartmentApi_com.youkeda.application.art.member.model.AdjustDepartmentParam"><path codeLine="109" d="M677.2,1363.09 C687.16,1397.88 696.37,1430.04 704.4,1458.09 " fill="none" id="com.youkeda.application.art.member.api.DepartmentApi-to-com.youkeda.application.art.member.model.AdjustDepartmentParam" style="stroke:#181818;stroke-width:1.0;stroke-dasharray:7.0,7.0;"/><polygon fill="#181818" points="705.78,1462.92,707.1536,1453.1674,704.4064,1458.1124,699.4614,1455.3652,705.78,1462.92" style="stroke:#181818;stroke-width:1.0;"/><text fill="#000000" font-family="sans-serif" font-size="13" lengthAdjust="spacing" textLength="75" x="689" y="1408.5684">dependency</text></g><!--MD5=[00d5bec280990787fb3af1dae2144769]
link com.youkeda.application.art.member.api.DepartmentApi to com.youkeda.application.art.member.model.AddDepartmentAccountParam--><g id="link_com.youkeda.application.art.member.api.DepartmentApi_com.youkeda.application.art.member.model.AddDepartmentAccountParam"><path codeLine="110" d="M316.09,1363.09 C298.44,1420.55 283,1470.83 271.81,1507.27 " fill="none" id="com.youkeda.application.art.member.api.DepartmentApi-to-com.youkeda.application.art.member.model.AddDepartmentAccountParam" style="stroke:#181818;stroke-width:1.0;stroke-dasharray:7.0,7.0;"/><polygon fill="#181818" points="270.33,1512.09,276.778,1504.6453,271.7864,1507.3068,269.1249,1502.3151,270.33,1512.09" style="stroke:#181818;stroke-width:1.0;"/><text fill="#000000" font-family="sans-serif" font-size="13" lengthAdjust="spacing" textLength="75" x="305" y="1408.5684">dependency</text></g><!--MD5=[5e3c3a8c1bbf87727964d09d7f657b4e]
link com.youkeda.application.art.member.api.DepartmentApi to com.youkeda.application.art.member.model.DeleteAccountParam--><g id="link_com.youkeda.application.art.member.api.DepartmentApi_com.youkeda.application.art.member.model.DeleteAccountParam"><path codeLine="111" d="M503,1363.09 C503,1420.31 503,1470.42 503,1506.82 " fill="none" id="com.youkeda.application.art.member.api.DepartmentApi-to-com.youkeda.application.art.member.model.DeleteAccountParam" style="stroke:#181818;stroke-width:1.0;stroke-dasharray:7.0,7.0;"/><polygon fill="#181818" points="503,1512.09,507,1503.09,503,1507.09,499,1503.09,503,1512.09" style="stroke:#181818;stroke-width:1.0;"/><text fill="#000000" font-family="sans-serif" font-size="13" lengthAdjust="spacing" textLength="75" x="504" y="1408.5684">dependency</text></g><!--MD5=[6bc041e75a5ecf238f04fb8c5e3a3920]
@startuml
class com.youkeda.application.art.member.model.AddDepartmentAccountParam {
- String departmentId
- Account account

====

}
class com.youkeda.application.art.member.model.DeleteAccountParam {
- String departmentId
- List<String> accountIds

====

}
class com.youkeda.application.art.member.model.AdjustDepartmentParam {
// 源部门id
- String originDepartmentId

// 目的部门Id
- String destDepartmentId

// 员工的账户Ids
- List<String> accountIds

====

}
class com.youkeda.application.art.member.api.DepartmentApi {

@Autowired
- DepartmentService departmentService

@Autowired
- DepartmentAccountService departmentAccountService

@Autowired
- CompanyService companyService

@Autowired
- AccountService accountService

====

@PostMapping(path = "/save")
@ResponseBody
+ Result<Department> save(@RequestBody Department department)

@PostMapping(path = "/delete")
@ResponseBody
+ Result delete(String departmentId)

// 添加部门成员信息
@PostMapping(path = "/user/add")
@ResponseBody
+ Result addUser(@RequestBody AddDepartmentAccountParam addDepartmentAccountParam)

// 批量删除用户信息
@PostMapping(path = "/users/delete")
@ResponseBody
+ Result deleteUsers(@RequestBody DeleteAccountParam deleteAccountParam)

@GetMapping(value = "/query")
@ResponseBody
+ Result<Department> query(
    HttpServletRequest request,
    @RequestParam(value = "companyId", required = false) String companyId,
    @RequestParam(value = "companyCode", required = false) String companyCode
  )

@GetMapping(value = "/queryaccounts")
@ResponseBody
+ Result<Paging<Account>> queryAccounts(DepartmentAccountParam param)

@GetMapping(path = "/querybyuserinfo")
@ResponseBody
+ Result<List<Department>> queryByUserInfo(
    @RequestParam(value = "companyId", required = false) String companyId,
    @RequestParam(value = "keywords", required = false) String keywords
  )

@PostMapping(value = "/adjust")
@ResponseBody
+ Result adjust(@RequestBody AdjustDepartmentParam param)

@GetMapping(value = "/query/departmentkeyword")
@ResponseBody
+ Result<List<Account>> queryByKeyword(
    @RequestParam("departmentId") String departmentId,
    @RequestParam("keyword") String keyword,
    HttpServletRequest request
  )

@RequestMapping(path = "/query/acountdepartment", method = {RequestMethod.GET, RequestMethod.POST})
@ResponseBody
+ Result<List<Department>> queryByAccountId(@SessionAttribute(value = MemberUtil.LOGIN_KEY, required = false) LoginUser loginUser)

@GetMapping("/existondepartment")
@ResponseBody
+ Result accountExistOnDepartment(HttpServletRequest request,
    @RequestParam(value = "departmentId", required = false)
  }

note top of com.youkeda.application.art.member.api.DepartmentApi
@NeedLogin
@Controller
@RequestMapping(path = "/api/department")
end note

com.youkeda.application.art.member.api.DepartmentApi ..> com.youkeda.application.art.member.model.AdjustDepartmentParam : dependency
com.youkeda.application.art.member.api.DepartmentApi ..> com.youkeda.application.art.member.model.AddDepartmentAccountParam : dependency
com.youkeda.application.art.member.api.DepartmentApi ..> com.youkeda.application.art.member.model.DeleteAccountParam : dependency

@enduml

PlantUML version 1.2022.6(Wed Jun 22 01:34:49 CST 2022)
(GPL source distribution)
Java Runtime: OpenJDK Runtime Environment
JVM: OpenJDK 64-Bit Server VM
Default Encoding: UTF-8
Language: zh
Country: CN
--></g></svg>