<?xml version="1.0" encoding="UTF-8" standalone="no"?><svg xmlns="http://www.w3.org/2000/svg" xmlns:xlink="http://www.w3.org/1999/xlink" contentStyleType="text/css" height="1935px" preserveAspectRatio="none" style="width:969px;height:1935px;background:#FFFFFF;" version="1.1" viewBox="0 0 969 1935" width="969px" zoomAndPan="magnify"><defs/><g><!--MD5=[ed0073de296ff6289039be097c6b722a]
cluster com.youkeda.model--><g id="cluster_com.youkeda.model"><path d="M615.5,6 L757.5,6 A3.75,3.75 0 0 1 760,8.5 L767,28.4883 L767.5,28.4883 A2.5,2.5 0 0 1 770,30.9883 L770,102.5 A2.5,2.5 0 0 1 767.5,105 L615.5,105 A2.5,2.5 0 0 1 613,102.5 L613,8.5 A2.5,2.5 0 0 1 615.5,6 " style="stroke:#000000;stroke-width:1.5;fill:none;"/><line style="stroke:#000000;stroke-width:1.5;fill:none;" x1="613" x2="767" y1="28.4883" y2="28.4883"/><text fill="#000000" font-family="sans-serif" font-size="14" font-weight="bold" lengthAdjust="spacing" textLength="141" x="617" y="21.5352">com.youkeda.model</text></g><!--MD5=[c84feb2aec7c2e67ec732e172f7e3b98]
cluster com.youkeda.application.art.exam.model--><g id="cluster_com.youkeda.application.art.exam.model"><path d="M8.5,154 L297.5,154 A3.75,3.75 0 0 1 300,156.5 L307,176.4883 L897.5,176.4883 A2.5,2.5 0 0 1 900,178.9883 L900,1925.5 A2.5,2.5 0 0 1 897.5,1928 L8.5,1928 A2.5,2.5 0 0 1 6,1925.5 L6,156.5 A2.5,2.5 0 0 1 8.5,154 " style="stroke:#000000;stroke-width:1.5;fill:none;"/><line style="stroke:#000000;stroke-width:1.5;fill:none;" x1="6" x2="307" y1="176.4883" y2="176.4883"/><text fill="#000000" font-family="sans-serif" font-size="14" font-weight="bold" lengthAdjust="spacing" textLength="288" x="10" y="169.5352">com.youkeda.application.art.exam.model</text></g><!--MD5=[20bab37502bf42f2386e3acbf9f92f35]
class com.youkeda.model.Base--><g id="elem_com.youkeda.model.Base"><rect codeLine="1" fill="#F1F1F1" height="48" id="com.youkeda.model.Base" rx="2.5" ry="2.5" style="stroke:#181818;stroke-width:0.5;" width="75" x="653.5" y="41"/><ellipse cx="668.5" cy="57" fill="#ADD1B2" rx="11" ry="11" style="stroke:#181818;stroke-width:1.0;"/><path d="M670.9731,63.1431 Q670.3921,63.4419 669.7529,63.5913 Q669.1138,63.7407 668.4082,63.7407 Q665.9014,63.7407 664.5815,62.0889 Q663.2617,60.437 663.2617,57.3159 Q663.2617,54.1865 664.5815,52.5347 Q665.9014,50.8828 668.4082,50.8828 Q669.1138,50.8828 669.7612,51.0322 Q670.4087,51.1816 670.9731,51.4805 L670.9731,54.2031 Q670.3423,53.6221 669.7488,53.3523 Q669.1553,53.0825 668.5244,53.0825 Q667.1797,53.0825 666.4949,54.1492 Q665.8101,55.2158 665.8101,57.3159 Q665.8101,59.4077 666.4949,60.4744 Q667.1797,61.541 668.5244,61.541 Q669.1553,61.541 669.7488,61.2712 Q670.3423,61.0015 670.9731,60.4204 Z " fill="#000000"/><text fill="#000000" font-family="sans-serif" font-size="14" lengthAdjust="spacing" textLength="31" x="682.5" y="62.291">Base</text><rect fill="#FFFFFF" height="16.1328" style="stroke:#000000;stroke-width:1.0;stroke-dasharray:2.0,2.0;" width="10" x="721.5" y="38"/><text fill="#000000" font-family="sans-serif" font-size="12" font-style="italic" lengthAdjust="spacing" textLength="8" x="722.5" y="50.6016">T</text><line style="stroke:#181818;stroke-width:0.5;" x1="654.5" x2="727.5" y1="73" y2="73"/><line style="stroke:#181818;stroke-width:0.5;" x1="654.5" x2="727.5" y1="81" y2="81"/></g><!--MD5=[58a5abff61bd5a6d5169013ff2c2d4f1]
class com.youkeda.application.art.exam.model.RegistrationPoint--><g id="elem_com.youkeda.application.art.exam.model.RegistrationPoint"><rect codeLine="4" fill="#F1F1F1" height="443.7188" id="com.youkeda.application.art.exam.model.RegistrationPoint" rx="2.5" ry="2.5" style="stroke:#181818;stroke-width:0.5;" width="189" x="596.5" y="337.5"/><ellipse cx="629.05" cy="353.5" fill="#ADD1B2" rx="11" ry="11" style="stroke:#181818;stroke-width:1.0;"/><path d="M631.5231,359.6431 Q630.9421,359.9419 630.3029,360.0913 Q629.6638,360.2407 628.9582,360.2407 Q626.4514,360.2407 625.1315,358.5889 Q623.8117,356.937 623.8117,353.8159 Q623.8117,350.6865 625.1315,349.0347 Q626.4514,347.3828 628.9582,347.3828 Q629.6638,347.3828 630.3112,347.5322 Q630.9587,347.6816 631.5231,347.9805 L631.5231,350.7031 Q630.8923,350.1221 630.2988,349.8523 Q629.7053,349.5825 629.0744,349.5825 Q627.7297,349.5825 627.0449,350.6492 Q626.3601,351.7158 626.3601,353.8159 Q626.3601,355.9077 627.0449,356.9744 Q627.7297,358.041 629.0744,358.041 Q629.7053,358.041 630.2988,357.7712 Q630.8923,357.5015 631.5231,356.9204 Z " fill="#000000"/><text fill="#000000" font-family="sans-serif" font-size="14" lengthAdjust="spacing" textLength="118" x="646.95" y="358.791">RegistrationPoint</text><line style="stroke:#181818;stroke-width:0.5;" x1="597.5" x2="784.5" y1="369.5" y2="369.5"/><text fill="#000000" font-family="sans-serif" font-size="14" lengthAdjust="spacing" textLength="88" x="616.5" y="387.0352">// 报名点名称</text><rect fill="none" height="6" style="stroke:#C82930;stroke-width:1.0;" width="6" x="604.5" y="393.9883"/><text fill="#000000" font-family="sans-serif" font-size="14" lengthAdjust="spacing" textLength="83" x="616.5" y="403.5234">String name</text><text fill="#000000" font-family="sans-serif" font-size="14" lengthAdjust="spacing" textLength="4" x="616.5" y="420.0117"> </text><text fill="#000000" font-family="sans-serif" font-size="14" lengthAdjust="spacing" textLength="88" x="616.5" y="436.5">// 报名点别称</text><rect fill="none" height="6" style="stroke:#C82930;stroke-width:1.0;" width="6" x="604.5" y="443.4531"/><text fill="#000000" font-family="sans-serif" font-size="14" lengthAdjust="spacing" textLength="108" x="616.5" y="452.9883">String aliaName</text><text fill="#000000" font-family="sans-serif" font-size="14" lengthAdjust="spacing" textLength="4" x="616.5" y="469.4766"> </text><text fill="#000000" font-family="sans-serif" font-size="14" lengthAdjust="spacing" textLength="88" x="616.5" y="485.9648">// 报名点地址</text><rect fill="none" height="6" style="stroke:#C82930;stroke-width:1.0;" width="6" x="604.5" y="492.918"/><text fill="#000000" font-family="sans-serif" font-size="14" lengthAdjust="spacing" textLength="99" x="616.5" y="502.4531">String address</text><text fill="#000000" font-family="sans-serif" font-size="14" lengthAdjust="spacing" textLength="4" x="616.5" y="518.9414"> </text><text fill="#000000" font-family="sans-serif" font-size="14" lengthAdjust="spacing" textLength="115" x="616.5" y="535.4297">// 报名点负责人id</text><rect fill="none" height="6" style="stroke:#C82930;stroke-width:1.0;" width="6" x="604.5" y="542.3828"/><text fill="#000000" font-family="sans-serif" font-size="14" lengthAdjust="spacing" textLength="105" x="616.5" y="551.918">String chargeId</text><text fill="#000000" font-family="sans-serif" font-size="14" lengthAdjust="spacing" textLength="4" x="616.5" y="568.4063"> </text><text fill="#000000" font-family="sans-serif" font-size="14" lengthAdjust="spacing" textLength="102" x="616.5" y="584.8945">// 报名点负责人</text><text fill="#000000" font-family="sans-serif" font-size="14" lengthAdjust="spacing" textLength="77" x="616.5" y="601.3828">@Transient</text><rect fill="none" height="6" style="stroke:#C82930;stroke-width:1.0;" width="6" x="604.5" y="608.3359"/><text fill="#000000" font-family="sans-serif" font-size="14" lengthAdjust="spacing" textLength="163" x="616.5" y="617.8711">Account chargeAccount</text><text fill="#000000" font-family="sans-serif" font-size="14" lengthAdjust="spacing" textLength="4" x="616.5" y="634.3594"> </text><text fill="#000000" font-family="sans-serif" font-size="14" lengthAdjust="spacing" textLength="73" x="616.5" y="650.8477">// 考级点id</text><rect fill="none" height="6" style="stroke:#C82930;stroke-width:1.0;" width="6" x="604.5" y="657.8008"/><text fill="#000000" font-family="sans-serif" font-size="14" lengthAdjust="spacing" textLength="122" x="616.5" y="667.3359">String examOrgId</text><text fill="#000000" font-family="sans-serif" font-size="14" lengthAdjust="spacing" textLength="4" x="616.5" y="683.8242"> </text><text fill="#000000" font-family="sans-serif" font-size="14" lengthAdjust="spacing" textLength="60" x="616.5" y="700.3125">// 考级点</text><text fill="#000000" font-family="sans-serif" font-size="14" lengthAdjust="spacing" textLength="77" x="616.5" y="716.8008">@Transient</text><rect fill="none" height="6" style="stroke:#C82930;stroke-width:1.0;" width="6" x="604.5" y="723.7539"/><text fill="#000000" font-family="sans-serif" font-size="14" lengthAdjust="spacing" textLength="132" x="616.5" y="733.2891">ExamOrg examOrg</text><text fill="#000000" font-family="sans-serif" font-size="14" lengthAdjust="spacing" textLength="4" x="616.5" y="749.7773"> </text><line style="stroke:#181818;stroke-width:1.0;" x1="597.5" x2="784.5" y1="756.7305" y2="756.7305"/><line style="stroke:#181818;stroke-width:1.0;" x1="597.5" x2="784.5" y1="758.7305" y2="758.7305"/><text fill="#000000" font-family="sans-serif" font-size="14" lengthAdjust="spacing" textLength="4" x="602.5" y="774.2656"> </text></g><!--MD5=[2a3f142093e6f706952feb261e394c06]
class com.youkeda.application.art.exam.model.Association--><g id="elem_com.youkeda.application.art.exam.model.Association"><rect codeLine="32" fill="#F1F1F1" height="130.4414" id="com.youkeda.application.art.exam.model.Association" rx="2.5" ry="2.5" style="stroke:#181818;stroke-width:0.5;" width="111" x="22.5" y="494.5"/><ellipse cx="37.5" cy="510.5" fill="#EB937F" rx="11" ry="11" style="stroke:#181818;stroke-width:1.0;"/><path d="M41.1143,517 L33.3945,517 L33.3945,504.6069 L41.1143,504.6069 L41.1143,506.7651 L35.8433,506.7651 L35.8433,509.438 L40.6162,509.438 L40.6162,511.5962 L35.8433,511.5962 L35.8433,514.8418 L41.1143,514.8418 Z " fill="#000000"/><text fill="#000000" font-family="sans-serif" font-size="14" lengthAdjust="spacing" textLength="79" x="51.5" y="515.791">Association</text><line style="stroke:#181818;stroke-width:0.5;" x1="23.5" x2="132.5" y1="526.5" y2="526.5"/><text fill="#000000" font-family="sans-serif" font-size="14" lengthAdjust="spacing" textLength="74" x="42.5" y="544.0352">// 音乐协会</text><ellipse cx="33.5" cy="553.9883" fill="none" rx="3" ry="3" style="stroke:#038048;stroke-width:1.0;"/><text fill="#000000" font-family="sans-serif" font-size="14" lengthAdjust="spacing" textLength="44" x="42.5" y="560.5234">MUSIC</text><text fill="#000000" font-family="sans-serif" font-size="14" lengthAdjust="spacing" textLength="4" x="42.5" y="577.0117"> </text><text fill="#000000" font-family="sans-serif" font-size="14" lengthAdjust="spacing" textLength="74" x="42.5" y="593.5">// 戏剧协会</text><ellipse cx="33.5" cy="603.4531" fill="none" rx="3" ry="3" style="stroke:#038048;stroke-width:1.0;"/><text fill="#000000" font-family="sans-serif" font-size="14" lengthAdjust="spacing" textLength="51" x="42.5" y="609.9883">DRAMA</text><line style="stroke:#181818;stroke-width:0.5;" x1="23.5" x2="132.5" y1="616.9414" y2="616.9414"/></g><!--MD5=[0c75474bc950c3bb5895deb85bb5f065]
class com.youkeda.application.art.exam.model.ExamOrg--><g id="elem_com.youkeda.application.art.exam.model.ExamOrg"><rect codeLine="40" fill="#F1F1F1" height="740.5078" id="com.youkeda.application.art.exam.model.ExamOrg" rx="2.5" ry="2.5" style="stroke:#181818;stroke-width:0.5;" width="241" x="244.5" y="189"/><ellipse cx="328.75" cy="205" fill="#ADD1B2" rx="11" ry="11" style="stroke:#181818;stroke-width:1.0;"/><path d="M331.2231,211.1431 Q330.6421,211.4419 330.0029,211.5913 Q329.3638,211.7407 328.6582,211.7407 Q326.1514,211.7407 324.8315,210.0889 Q323.5117,208.437 323.5117,205.3159 Q323.5117,202.1865 324.8315,200.5347 Q326.1514,198.8828 328.6582,198.8828 Q329.3638,198.8828 330.0112,199.0322 Q330.6587,199.1816 331.2231,199.4805 L331.2231,202.2031 Q330.5923,201.6221 329.9988,201.3523 Q329.4053,201.0825 328.7744,201.0825 Q327.4297,201.0825 326.7449,202.1492 Q326.0601,203.2158 326.0601,205.3159 Q326.0601,207.4077 326.7449,208.4744 Q327.4297,209.541 328.7744,209.541 Q329.4053,209.541 329.9988,209.2712 Q330.5923,209.0015 331.2231,208.4204 Z " fill="#000000"/><text fill="#000000" font-family="sans-serif" font-size="14" lengthAdjust="spacing" textLength="64" x="349.25" y="210.291">ExamOrg</text><line style="stroke:#181818;stroke-width:0.5;" x1="245.5" x2="484.5" y1="221" y2="221"/><text fill="#000000" font-family="sans-serif" font-size="14" lengthAdjust="spacing" textLength="88" x="264.5" y="238.5352">// 考级点编号</text><rect fill="none" height="6" style="stroke:#C82930;stroke-width:1.0;" width="6" x="252.5" y="245.4883"/><text fill="#000000" font-family="sans-serif" font-size="14" lengthAdjust="spacing" textLength="76" x="264.5" y="255.0234">String num</text><text fill="#000000" font-family="sans-serif" font-size="14" lengthAdjust="spacing" textLength="4" x="264.5" y="271.5117"> </text><text fill="#000000" font-family="sans-serif" font-size="14" lengthAdjust="spacing" textLength="46" x="264.5" y="288">// 协会</text><rect fill="none" height="6" style="stroke:#C82930;stroke-width:1.0;" width="6" x="252.5" y="294.9531"/><text fill="#000000" font-family="sans-serif" font-size="14" lengthAdjust="spacing" textLength="160" x="264.5" y="304.4883">Association association</text><text fill="#000000" font-family="sans-serif" font-size="14" lengthAdjust="spacing" textLength="4" x="264.5" y="320.9766"> </text><text fill="#000000" font-family="sans-serif" font-size="14" lengthAdjust="spacing" textLength="88" x="264.5" y="337.4648">// 考级点名称</text><rect fill="none" height="6" style="stroke:#C82930;stroke-width:1.0;" width="6" x="252.5" y="344.418"/><text fill="#000000" font-family="sans-serif" font-size="14" lengthAdjust="spacing" textLength="83" x="264.5" y="353.9531">String name</text><text fill="#000000" font-family="sans-serif" font-size="14" lengthAdjust="spacing" textLength="4" x="264.5" y="370.4414"> </text><text fill="#000000" font-family="sans-serif" font-size="14" lengthAdjust="spacing" textLength="88" x="264.5" y="386.9297">// 考级点别称</text><rect fill="none" height="6" style="stroke:#C82930;stroke-width:1.0;" width="6" x="252.5" y="393.8828"/><text fill="#000000" font-family="sans-serif" font-size="14" lengthAdjust="spacing" textLength="76" x="264.5" y="403.418">String alias</text><text fill="#000000" font-family="sans-serif" font-size="14" lengthAdjust="spacing" textLength="4" x="264.5" y="419.9063"> </text><text fill="#000000" font-family="sans-serif" font-size="14" lengthAdjust="spacing" textLength="88" x="264.5" y="436.3945">// 考级点区号</text><rect fill="none" height="6" style="stroke:#C82930;stroke-width:1.0;" width="6" x="252.5" y="443.3477"/><text fill="#000000" font-family="sans-serif" font-size="14" lengthAdjust="spacing" textLength="111" x="264.5" y="452.8828">String areaCode</text><text fill="#000000" font-family="sans-serif" font-size="14" lengthAdjust="spacing" textLength="4" x="264.5" y="469.3711"> </text><text fill="#000000" font-family="sans-serif" font-size="14" lengthAdjust="spacing" textLength="88" x="264.5" y="485.8594">// 考级点地址</text><rect fill="none" height="6" style="stroke:#C82930;stroke-width:1.0;" width="6" x="252.5" y="492.8125"/><text fill="#000000" font-family="sans-serif" font-size="14" lengthAdjust="spacing" textLength="99" x="264.5" y="502.3477">String address</text><text fill="#000000" font-family="sans-serif" font-size="14" lengthAdjust="spacing" textLength="4" x="264.5" y="518.8359"> </text><text fill="#000000" font-family="sans-serif" font-size="14" lengthAdjust="spacing" textLength="59" x="264.5" y="535.3242">// 领队id</text><rect fill="none" height="6" style="stroke:#C82930;stroke-width:1.0;" width="6" x="252.5" y="542.2773"/><text fill="#000000" font-family="sans-serif" font-size="14" lengthAdjust="spacing" textLength="101" x="264.5" y="551.8125">String leaderId</text><text fill="#000000" font-family="sans-serif" font-size="14" lengthAdjust="spacing" textLength="4" x="264.5" y="568.3008"> </text><text fill="#000000" font-family="sans-serif" font-size="14" lengthAdjust="spacing" textLength="46" x="264.5" y="584.7891">// 领队</text><text fill="#000000" font-family="sans-serif" font-size="14" lengthAdjust="spacing" textLength="77" x="264.5" y="601.2773">@Transient</text><rect fill="none" height="6" style="stroke:#C82930;stroke-width:1.0;" width="6" x="252.5" y="608.2305"/><text fill="#000000" font-family="sans-serif" font-size="14" lengthAdjust="spacing" textLength="159" x="264.5" y="617.7656">Account leaderAccount</text><text fill="#000000" font-family="sans-serif" font-size="14" lengthAdjust="spacing" textLength="4" x="264.5" y="634.2539"> </text><text fill="#000000" font-family="sans-serif" font-size="14" lengthAdjust="spacing" textLength="115" x="264.5" y="650.7422">// 考级点负责人id</text><rect fill="none" height="6" style="stroke:#C82930;stroke-width:1.0;" width="6" x="252.5" y="657.6953"/><text fill="#000000" font-family="sans-serif" font-size="14" lengthAdjust="spacing" textLength="105" x="264.5" y="667.2305">String chargeId</text><text fill="#000000" font-family="sans-serif" font-size="14" lengthAdjust="spacing" textLength="143" x="264.5" y="683.7188">// 多个考级点负责人id</text><rect fill="none" height="6" style="stroke:#C82930;stroke-width:1.0;" width="6" x="252.5" y="690.6719"/><text fill="#000000" font-family="sans-serif" font-size="14" lengthAdjust="spacing" textLength="157" x="264.5" y="700.207">List&lt;String&gt; chargeIds</text><text fill="#000000" font-family="sans-serif" font-size="14" lengthAdjust="spacing" textLength="4" x="264.5" y="716.6953"> </text><text fill="#000000" font-family="sans-serif" font-size="14" lengthAdjust="spacing" textLength="102" x="264.5" y="733.1836">// 考生报名次数</text><rect fill="none" height="6" style="stroke:#C82930;stroke-width:1.0;" width="6" x="252.5" y="740.1367"/><text fill="#000000" font-family="sans-serif" font-size="14" lengthAdjust="spacing" textLength="140" x="264.5" y="749.6719">Integer signUpIndex</text><text fill="#000000" font-family="sans-serif" font-size="14" lengthAdjust="spacing" textLength="4" x="264.5" y="766.1602"> </text><text fill="#000000" font-family="sans-serif" font-size="14" lengthAdjust="spacing" textLength="102" x="264.5" y="782.6484">// 考级点负责人</text><text fill="#000000" font-family="sans-serif" font-size="14" lengthAdjust="spacing" textLength="77" x="264.5" y="799.1367">@Transient</text><rect fill="none" height="6" style="stroke:#C82930;stroke-width:1.0;" width="6" x="252.5" y="806.0898"/><text fill="#000000" font-family="sans-serif" font-size="14" lengthAdjust="spacing" textLength="163" x="264.5" y="815.625">Account chargeAccount</text><text fill="#000000" font-family="sans-serif" font-size="14" lengthAdjust="spacing" textLength="4" x="264.5" y="832.1133"> </text><text fill="#000000" font-family="sans-serif" font-size="14" lengthAdjust="spacing" textLength="130" x="264.5" y="848.6016">// 多个考级点负责人</text><text fill="#000000" font-family="sans-serif" font-size="14" lengthAdjust="spacing" textLength="77" x="264.5" y="865.0898">@Transient</text><rect fill="none" height="6" style="stroke:#C82930;stroke-width:1.0;" width="6" x="252.5" y="872.043"/><text fill="#000000" font-family="sans-serif" font-size="14" lengthAdjust="spacing" textLength="215" x="264.5" y="881.5781">List&lt;Account&gt; chargeAccounts</text><text fill="#000000" font-family="sans-serif" font-size="14" lengthAdjust="spacing" textLength="4" x="264.5" y="898.0664"> </text><line style="stroke:#181818;stroke-width:1.0;" x1="245.5" x2="484.5" y1="905.0195" y2="905.0195"/><line style="stroke:#181818;stroke-width:1.0;" x1="245.5" x2="484.5" y1="907.0195" y2="907.0195"/><text fill="#000000" font-family="sans-serif" font-size="14" lengthAdjust="spacing" textLength="4" x="250.5" y="922.5547"> </text></g><!--MD5=[a03294f653840d62c05d0c6581909f3d]
class com.youkeda.application.art.exam.model.Exam--><g id="elem_com.youkeda.application.art.exam.model.Exam"><rect codeLine="86" fill="#F1F1F1" height="905.3906" id="com.youkeda.application.art.exam.model.Exam" rx="2.5" ry="2.5" style="stroke:#181818;stroke-width:0.5;" width="609" x="274.5" y="1007"/><ellipse cx="555.75" cy="1023" fill="#ADD1B2" rx="11" ry="11" style="stroke:#181818;stroke-width:1.0;"/><path d="M558.2231,1029.1431 Q557.6421,1029.4419 557.0029,1029.5913 Q556.3638,1029.7407 555.6582,1029.7407 Q553.1514,1029.7407 551.8315,1028.0889 Q550.5117,1026.437 550.5117,1023.3159 Q550.5117,1020.1865 551.8315,1018.5347 Q553.1514,1016.8828 555.6582,1016.8828 Q556.3638,1016.8828 557.0112,1017.0322 Q557.6587,1017.1816 558.2231,1017.4805 L558.2231,1020.2031 Q557.5923,1019.6221 556.9988,1019.3523 Q556.4053,1019.0825 555.7744,1019.0825 Q554.4297,1019.0825 553.7449,1020.1492 Q553.0601,1021.2158 553.0601,1023.3159 Q553.0601,1025.4077 553.7449,1026.4744 Q554.4297,1027.541 555.7744,1027.541 Q556.4053,1027.541 556.9988,1027.2712 Q557.5923,1027.0015 558.2231,1026.4204 Z " fill="#000000"/><text fill="#000000" font-family="sans-serif" font-size="14" lengthAdjust="spacing" textLength="38" x="576.25" y="1028.291">Exam</text><line style="stroke:#181818;stroke-width:0.5;" x1="275.5" x2="882.5" y1="1039" y2="1039"/><text fill="#000000" font-family="sans-serif" font-size="14" lengthAdjust="spacing" textLength="74" x="294.5" y="1056.5352">// 考试名称</text><rect fill="none" height="6" style="stroke:#C82930;stroke-width:1.0;" width="6" x="282.5" y="1063.4883"/><text fill="#000000" font-family="sans-serif" font-size="14" lengthAdjust="spacing" textLength="83" x="294.5" y="1073.0234">String name</text><text fill="#000000" font-family="sans-serif" font-size="14" lengthAdjust="spacing" textLength="4" x="294.5" y="1089.5117"> </text><text fill="#000000" font-family="sans-serif" font-size="14" lengthAdjust="spacing" textLength="102" x="294.5" y="1106">// 报名开始时间</text><text fill="#000000" font-family="sans-serif" font-size="14" lengthAdjust="spacing" textLength="583" x="294.5" y="1122.4883">@JsonFormat(shape = JsonFormat.Shape.STRING, pattern = "yyyy-MM-dd HH:mm:ss")</text><rect fill="none" height="6" style="stroke:#C82930;stroke-width:1.0;" width="6" x="282.5" y="1129.4414"/><text fill="#000000" font-family="sans-serif" font-size="14" lengthAdjust="spacing" textLength="184" x="294.5" y="1138.9766">LocalDateTime signUpStart</text><text fill="#000000" font-family="sans-serif" font-size="14" lengthAdjust="spacing" textLength="4" x="294.5" y="1155.4648"> </text><text fill="#000000" font-family="sans-serif" font-size="14" lengthAdjust="spacing" textLength="102" x="294.5" y="1171.9531">// 报名结束时间</text><text fill="#000000" font-family="sans-serif" font-size="14" lengthAdjust="spacing" textLength="583" x="294.5" y="1188.4414">@JsonFormat(shape = JsonFormat.Shape.STRING, pattern = "yyyy-MM-dd HH:mm:ss")</text><rect fill="none" height="6" style="stroke:#C82930;stroke-width:1.0;" width="6" x="282.5" y="1195.3945"/><text fill="#000000" font-family="sans-serif" font-size="14" lengthAdjust="spacing" textLength="178" x="294.5" y="1204.9297">LocalDateTime signUpEnd</text><text fill="#000000" font-family="sans-serif" font-size="14" lengthAdjust="spacing" textLength="4" x="294.5" y="1221.418"> </text><text fill="#000000" font-family="sans-serif" font-size="14" lengthAdjust="spacing" textLength="102" x="294.5" y="1237.9063">// 考试开始时间</text><text fill="#000000" font-family="sans-serif" font-size="14" lengthAdjust="spacing" textLength="583" x="294.5" y="1254.3945">@JsonFormat(shape = JsonFormat.Shape.STRING, pattern = "yyyy-MM-dd HH:mm:ss")</text><rect fill="none" height="6" style="stroke:#C82930;stroke-width:1.0;" width="6" x="282.5" y="1261.3477"/><text fill="#000000" font-family="sans-serif" font-size="14" lengthAdjust="spacing" textLength="174" x="294.5" y="1270.8828">LocalDateTime examStart</text><text fill="#000000" font-family="sans-serif" font-size="14" lengthAdjust="spacing" textLength="4" x="294.5" y="1287.3711"> </text><text fill="#000000" font-family="sans-serif" font-size="14" lengthAdjust="spacing" textLength="102" x="294.5" y="1303.8594">// 考试结束时间</text><text fill="#000000" font-family="sans-serif" font-size="14" lengthAdjust="spacing" textLength="583" x="294.5" y="1320.3477">@JsonFormat(shape = JsonFormat.Shape.STRING, pattern = "yyyy-MM-dd HH:mm:ss")</text><rect fill="none" height="6" style="stroke:#C82930;stroke-width:1.0;" width="6" x="282.5" y="1327.3008"/><text fill="#000000" font-family="sans-serif" font-size="14" lengthAdjust="spacing" textLength="168" x="294.5" y="1336.8359">LocalDateTime examEnd</text><text fill="#000000" font-family="sans-serif" font-size="14" lengthAdjust="spacing" textLength="4" x="294.5" y="1353.3242"> </text><text fill="#000000" font-family="sans-serif" font-size="14" lengthAdjust="spacing" textLength="73" x="294.5" y="1369.8125">// 考级点id</text><rect fill="none" height="6" style="stroke:#C82930;stroke-width:1.0;" width="6" x="282.5" y="1376.7656"/><text fill="#000000" font-family="sans-serif" font-size="14" lengthAdjust="spacing" textLength="122" x="294.5" y="1386.3008">String examOrgId</text><text fill="#000000" font-family="sans-serif" font-size="14" lengthAdjust="spacing" textLength="4" x="294.5" y="1402.7891"> </text><text fill="#000000" font-family="sans-serif" font-size="14" lengthAdjust="spacing" textLength="56" x="294.5" y="1419.2773">//考级点</text><text fill="#000000" font-family="sans-serif" font-size="14" lengthAdjust="spacing" textLength="77" x="294.5" y="1435.7656">@Transient</text><rect fill="none" height="6" style="stroke:#C82930;stroke-width:1.0;" width="6" x="282.5" y="1442.7188"/><text fill="#000000" font-family="sans-serif" font-size="14" lengthAdjust="spacing" textLength="132" x="294.5" y="1452.2539">ExamOrg examOrg</text><text fill="#000000" font-family="sans-serif" font-size="14" lengthAdjust="spacing" textLength="4" x="294.5" y="1468.7422"> </text><text fill="#000000" font-family="sans-serif" font-size="14" lengthAdjust="spacing" textLength="73" x="294.5" y="1485.2305">// 报名点id</text><rect fill="none" height="6" style="stroke:#C82930;stroke-width:1.0;" width="6" x="282.5" y="1492.1836"/><text fill="#000000" font-family="sans-serif" font-size="14" lengthAdjust="spacing" textLength="138" x="294.5" y="1501.7188">String registrationId</text><text fill="#000000" font-family="sans-serif" font-size="14" lengthAdjust="spacing" textLength="4" x="294.5" y="1518.207"> </text><text fill="#000000" font-family="sans-serif" font-size="14" lengthAdjust="spacing" textLength="60" x="294.5" y="1534.6953">// 报名点</text><text fill="#000000" font-family="sans-serif" font-size="14" lengthAdjust="spacing" textLength="77" x="294.5" y="1551.1836">@Transient</text><rect fill="none" height="6" style="stroke:#C82930;stroke-width:1.0;" width="6" x="282.5" y="1558.1367"/><text fill="#000000" font-family="sans-serif" font-size="14" lengthAdjust="spacing" textLength="237" x="294.5" y="1567.6719">RegistrationPoint registrationPoint</text><text fill="#000000" font-family="sans-serif" font-size="14" lengthAdjust="spacing" textLength="4" x="294.5" y="1584.1602"> </text><text fill="#000000" font-family="sans-serif" font-size="14" lengthAdjust="spacing" textLength="109" x="294.5" y="1600.6484">// 考试进度/阶段</text><rect fill="none" height="6" style="stroke:#C82930;stroke-width:1.0;" width="6" x="282.5" y="1607.6016"/><text fill="#000000" font-family="sans-serif" font-size="14" lengthAdjust="spacing" textLength="156" x="294.5" y="1617.1367">ExamStage examStage</text><text fill="#000000" font-family="sans-serif" font-size="14" lengthAdjust="spacing" textLength="4" x="294.5" y="1633.625"> </text><text fill="#000000" font-family="sans-serif" font-size="14" lengthAdjust="spacing" textLength="60" x="294.5" y="1650.1133">// 结算单</text><rect fill="none" height="6" style="stroke:#C82930;stroke-width:1.0;" width="6" x="282.5" y="1657.0664"/><text fill="#000000" font-family="sans-serif" font-size="14" lengthAdjust="spacing" textLength="124" x="294.5" y="1666.6016">String paymentUrl</text><text fill="#000000" font-family="sans-serif" font-size="14" lengthAdjust="spacing" textLength="4" x="294.5" y="1683.0898"> </text><text fill="#000000" font-family="sans-serif" font-size="14" lengthAdjust="spacing" textLength="60" x="294.5" y="1699.5781">// 发放单</text><rect fill="none" height="6" style="stroke:#C82930;stroke-width:1.0;" width="6" x="282.5" y="1706.5313"/><text fill="#000000" font-family="sans-serif" font-size="14" lengthAdjust="spacing" textLength="140" x="294.5" y="1716.0664">String statementsUrl</text><text fill="#000000" font-family="sans-serif" font-size="14" lengthAdjust="spacing" textLength="4" x="294.5" y="1732.5547"> </text><text fill="#000000" font-family="sans-serif" font-size="14" lengthAdjust="spacing" textLength="102" x="294.5" y="1749.043">// 上传的文件名</text><rect fill="none" height="6" style="stroke:#C82930;stroke-width:1.0;" width="6" x="282.5" y="1755.9961"/><text fill="#000000" font-family="sans-serif" font-size="14" lengthAdjust="spacing" textLength="105" x="294.5" y="1765.5313">String fileName</text><text fill="#000000" font-family="sans-serif" font-size="14" lengthAdjust="spacing" textLength="4" x="294.5" y="1782.0195"> </text><text fill="#000000" font-family="sans-serif" font-size="14" lengthAdjust="spacing" textLength="65" x="294.5" y="1798.5078">// 文件url</text><rect fill="none" height="6" style="stroke:#C82930;stroke-width:1.0;" width="6" x="282.5" y="1805.4609"/><text fill="#000000" font-family="sans-serif" font-size="14" lengthAdjust="spacing" textLength="86" x="294.5" y="1814.9961">String fileUrl</text><text fill="#000000" font-family="sans-serif" font-size="14" lengthAdjust="spacing" textLength="4" x="294.5" y="1831.4844"> </text><text fill="#000000" font-family="sans-serif" font-size="14" lengthAdjust="spacing" textLength="102" x="294.5" y="1847.9727">// 考试报名人数</text><rect fill="none" height="6" style="stroke:#C82930;stroke-width:1.0;" width="6" x="282.5" y="1854.9258"/><text fill="#000000" font-family="sans-serif" font-size="14" lengthAdjust="spacing" textLength="143" x="294.5" y="1864.4609">long signUpNum = 0</text><text fill="#000000" font-family="sans-serif" font-size="14" lengthAdjust="spacing" textLength="4" x="294.5" y="1880.9492"> </text><line style="stroke:#181818;stroke-width:1.0;" x1="275.5" x2="882.5" y1="1887.9023" y2="1887.9023"/><line style="stroke:#181818;stroke-width:1.0;" x1="275.5" x2="882.5" y1="1889.9023" y2="1889.9023"/><text fill="#000000" font-family="sans-serif" font-size="14" lengthAdjust="spacing" textLength="4" x="280.5" y="1905.4375"> </text></g><!--MD5=[ce1e7ef98e47beba78dae1a96a5e79e0]
class com.youkeda.application.art.exam.model.ExamStage--><g id="elem_com.youkeda.application.art.exam.model.ExamStage"><rect codeLine="142" fill="#F1F1F1" height="229.3711" id="com.youkeda.application.art.exam.model.ExamStage" rx="2.5" ry="2.5" style="stroke:#181818;stroke-width:0.5;" width="142" x="22" y="1345"/><ellipse cx="52.3" cy="1361" fill="#EB937F" rx="11" ry="11" style="stroke:#181818;stroke-width:1.0;"/><path d="M55.9143,1367.5 L48.1945,1367.5 L48.1945,1355.1069 L55.9143,1355.1069 L55.9143,1357.2651 L50.6433,1357.2651 L50.6433,1359.938 L55.4162,1359.938 L55.4162,1362.0962 L50.6433,1362.0962 L50.6433,1365.3418 L55.9143,1365.3418 Z " fill="#000000"/><text fill="#000000" font-family="sans-serif" font-size="14" lengthAdjust="spacing" textLength="76" x="69.7" y="1366.291">ExamStage</text><line style="stroke:#181818;stroke-width:0.5;" x1="23" x2="163" y1="1377" y2="1377"/><text fill="#000000" font-family="sans-serif" font-size="14" lengthAdjust="spacing" textLength="60" x="42" y="1394.5352">// 初始化</text><ellipse cx="33" cy="1404.4883" fill="none" rx="3" ry="3" style="stroke:#038048;stroke-width:1.0;"/><text fill="#000000" font-family="sans-serif" font-size="14" lengthAdjust="spacing" textLength="27" x="42" y="1411.0234">INIT</text><text fill="#000000" font-family="sans-serif" font-size="14" lengthAdjust="spacing" textLength="4" x="42" y="1427.5117"> </text><text fill="#000000" font-family="sans-serif" font-size="14" lengthAdjust="spacing" textLength="116" x="42" y="1444">// 通知打印准考证</text><ellipse cx="33" cy="1453.9531" fill="none" rx="3" ry="3" style="stroke:#038048;stroke-width:1.0;"/><text fill="#000000" font-family="sans-serif" font-size="14" lengthAdjust="spacing" textLength="62" x="42" y="1460.4883">NOTICED</text><text fill="#000000" font-family="sans-serif" font-size="14" lengthAdjust="spacing" textLength="4" x="42" y="1476.9766"> </text><text fill="#000000" font-family="sans-serif" font-size="14" lengthAdjust="spacing" textLength="74" x="42" y="1493.4648">// 发布成绩</text><ellipse cx="33" cy="1503.418" fill="none" rx="3" ry="3" style="stroke:#038048;stroke-width:1.0;"/><text fill="#000000" font-family="sans-serif" font-size="14" lengthAdjust="spacing" textLength="58" x="42" y="1509.9531">RELEASE</text><text fill="#000000" font-family="sans-serif" font-size="14" lengthAdjust="spacing" textLength="4" x="42" y="1526.4414"> </text><text fill="#000000" font-family="sans-serif" font-size="14" lengthAdjust="spacing" textLength="88" x="42" y="1542.9297">// 上传缴费单</text><ellipse cx="33" cy="1552.8828" fill="none" rx="3" ry="3" style="stroke:#038048;stroke-width:1.0;"/><text fill="#000000" font-family="sans-serif" font-size="14" lengthAdjust="spacing" textLength="56" x="42" y="1559.418">UPLOAD</text><line style="stroke:#181818;stroke-width:0.5;" x1="23" x2="163" y1="1566.3711" y2="1566.3711"/></g><!--MD5=[11548f50fae55810ca4f242e0e4f9ea9]
reverse link com.youkeda.model.Base to com.youkeda.application.art.exam.model.RegistrationPoint--><g id="link_com.youkeda.model.Base_com.youkeda.application.art.exam.model.RegistrationPoint"><path codeLine="156" d="M691,109.37 C691,161.05 691,251.27 691,337.35 " fill="none" id="com.youkeda.model.Base-backto-com.youkeda.application.art.exam.model.RegistrationPoint" style="stroke:#181818;stroke-width:1.0;"/><polygon fill="none" points="684,109.09,691,89.09,698,109.09,684,109.09" style="stroke:#181818;stroke-width:1.0;"/><text fill="#000000" font-family="sans-serif" font-size="13" lengthAdjust="spacing" textLength="50" x="692" y="134.5684">extends</text></g><!--MD5=[7c800a95342489b0e27258a82b20d34b]
reverse link com.youkeda.model.Base to com.youkeda.application.art.exam.model.ExamOrg--><g id="link_com.youkeda.model.Base_com.youkeda.application.art.exam.model.ExamOrg"><path codeLine="157" d="M636.37,97.45 C616.62,110.67 595.21,127.32 579,146 C543.91,186.45 512.63,233.66 485.54,281.39 " fill="none" id="com.youkeda.model.Base-backto-com.youkeda.application.art.exam.model.ExamOrg" style="stroke:#181818;stroke-width:1.0;"/><polygon fill="none" points="632.86,91.39,653.49,86.55,640.39,103.2,632.86,91.39" style="stroke:#181818;stroke-width:1.0;"/><text fill="#000000" font-family="sans-serif" font-size="13" lengthAdjust="spacing" textLength="50" x="604" y="134.5684">extends</text></g><!--MD5=[e19c262257c2f3a45b4dda45f12a9804]
reverse link com.youkeda.model.Base to com.youkeda.application.art.exam.model.Exam--><g id="link_com.youkeda.model.Base_com.youkeda.application.art.exam.model.Exam"><path codeLine="158" d="M746.45,91.25 C768.22,104.26 790.87,122.43 803,146 C962.44,455.83 872.38,588.53 803,930 C797.84,955.39 791.42,981.08 784.05,1006.73 " fill="none" id="com.youkeda.model.Base-backto-com.youkeda.application.art.exam.model.Exam" style="stroke:#181818;stroke-width:1.0;"/><polygon fill="none" points="742.82,97.24,728.61,81.51,749.52,84.95,742.82,97.24" style="stroke:#181818;stroke-width:1.0;"/><text fill="#000000" font-family="sans-serif" font-size="13" lengthAdjust="spacing" textLength="50" x="892" y="564.5684">extends</text></g><!--MD5=[cfbc0ceb54b3ff8dca29ea78ae8d18e9]
reverse link com.youkeda.application.art.exam.model.ExamOrg to com.youkeda.application.art.exam.model.RegistrationPoint--><g id="link_com.youkeda.application.art.exam.model.ExamOrg_com.youkeda.application.art.exam.model.RegistrationPoint"><path codeLine="160" d="M491.08,559.5 C526.14,559.5 563.59,559.5 596.5,559.5 " fill="none" id="com.youkeda.application.art.exam.model.ExamOrg-backto-com.youkeda.application.art.exam.model.RegistrationPoint" style="stroke:#181818;stroke-width:1.0;"/><polygon fill="#181818" points="485.93,559.5,494.93,563.5,490.93,559.5,494.93,555.5,485.93,559.5" style="stroke:#181818;stroke-width:1.0;"/><text fill="#000000" font-family="sans-serif" font-size="13" lengthAdjust="spacing" textLength="74" x="504" y="553.0684">Association</text></g><!--MD5=[7fc72ce30ef83c7441072e7f2913dc64]
reverse link com.youkeda.application.art.exam.model.Association to com.youkeda.application.art.exam.model.ExamOrg--><g id="link_com.youkeda.application.art.exam.model.Association_com.youkeda.application.art.exam.model.ExamOrg"><path codeLine="162" d="M138.93,559.5 C169.67,559.5 208.06,559.5 244.44,559.5 " fill="none" id="com.youkeda.application.art.exam.model.Association-backto-com.youkeda.application.art.exam.model.ExamOrg" style="stroke:#181818;stroke-width:1.0;"/><polygon fill="#181818" points="133.68,559.5,142.68,563.5,138.68,559.5,142.68,555.5,133.68,559.5" style="stroke:#181818;stroke-width:1.0;"/><text fill="#000000" font-family="sans-serif" font-size="13" lengthAdjust="spacing" textLength="74" x="152" y="553.0684">Association</text></g><!--MD5=[d423805474010875d627eb9228b968c9]
reverse link com.youkeda.application.art.exam.model.ExamStage to com.youkeda.application.art.exam.model.Exam--><g id="link_com.youkeda.application.art.exam.model.ExamStage_com.youkeda.application.art.exam.model.Exam"><path codeLine="164" d="M169.32,1459.5 C199.25,1459.5 235.68,1459.5 274.35,1459.5 " fill="none" id="com.youkeda.application.art.exam.model.ExamStage-backto-com.youkeda.application.art.exam.model.Exam" style="stroke:#181818;stroke-width:1.0;"/><polygon fill="#181818" points="164.19,1459.5,173.19,1463.5,169.19,1459.5,173.19,1455.5,164.19,1459.5" style="stroke:#181818;stroke-width:1.0;"/><text fill="#000000" font-family="sans-serif" font-size="13" lengthAdjust="spacing" textLength="74" x="182.25" y="1453.0684">Association</text></g><!--MD5=[eb8acca1e548cd9591b9233ed3552280]
reverse link com.youkeda.application.art.exam.model.ExamOrg to com.youkeda.application.art.exam.model.Exam--><g id="link_com.youkeda.application.art.exam.model.ExamOrg_com.youkeda.application.art.exam.model.Exam"><path codeLine="165" d="M454.32,935.32 C459.95,958.95 465.65,982.85 471.35,1006.77 " fill="none" id="com.youkeda.application.art.exam.model.ExamOrg-backto-com.youkeda.application.art.exam.model.Exam" style="stroke:#181818;stroke-width:1.0;"/><polygon fill="#181818" points="453.12,930.29,451.3146,939.972,454.2787,935.1539,459.0968,938.118,453.12,930.29" style="stroke:#181818;stroke-width:1.0;"/><text fill="#000000" font-family="sans-serif" font-size="13" lengthAdjust="spacing" textLength="74" x="463" y="973.5684">Association</text></g><!--MD5=[176d8395951de399048782f4f84cfe04]
reverse link com.youkeda.application.art.exam.model.RegistrationPoint to com.youkeda.application.art.exam.model.Exam--><g id="link_com.youkeda.application.art.exam.model.RegistrationPoint_com.youkeda.application.art.exam.model.Exam"><path codeLine="166" d="M662.77,786.85 C654.38,854.14 644.87,930.35 635.35,1006.67 " fill="none" id="com.youkeda.application.art.exam.model.RegistrationPoint-backto-com.youkeda.application.art.exam.model.Exam" style="stroke:#181818;stroke-width:1.0;"/><polygon fill="#181818" points="663.42,781.61,658.3436,790.0498,662.8051,786.572,666.2828,791.0336,663.42,781.61" style="stroke:#181818;stroke-width:1.0;"/><text fill="#000000" font-family="sans-serif" font-size="13" lengthAdjust="spacing" textLength="74" x="641" y="973.5684">Association</text></g><!--MD5=[3c5e8b4511aaad0e3d0aa9863f0c3d60]
@startuml
class com.youkeda.model.Base<T> {
}

class com.youkeda.application.art.exam.model.RegistrationPoint {
// 报名点名称
- String name

// 报名点别称
- String aliaName

// 报名点地址
- String address

// 报名点负责人id
- String chargeId

// 报名点负责人
@Transient
- Account chargeAccount

// 考级点id
- String examOrgId

// 考级点
@Transient
- ExamOrg examOrg

====

}

enum com.youkeda.application.art.exam.model.Association {
// 音乐协会
+  MUSIC

// 戏剧协会
+  DRAMA
}

class com.youkeda.application.art.exam.model.ExamOrg {
// 考级点编号
- String num

// 协会
- Association association

// 考级点名称
- String name

// 考级点别称
- String alias

// 考级点区号
- String areaCode

// 考级点地址
- String address

// 领队id
- String leaderId

// 领队
@Transient
- Account leaderAccount

// 考级点负责人id
- String chargeId
// 多个考级点负责人id
- List<String> chargeIds

// 考生报名次数
- Integer signUpIndex

// 考级点负责人
@Transient
- Account chargeAccount

// 多个考级点负责人
@Transient
- List<Account> chargeAccounts

====

}

class com.youkeda.application.art.exam.model.Exam {
// 考试名称
- String name

// 报名开始时间
@JsonFormat(shape = JsonFormat.Shape.STRING, pattern = "yyyy-MM-dd HH:mm:ss")
- LocalDateTime signUpStart

// 报名结束时间
@JsonFormat(shape = JsonFormat.Shape.STRING, pattern = "yyyy-MM-dd HH:mm:ss")
- LocalDateTime signUpEnd

// 考试开始时间
@JsonFormat(shape = JsonFormat.Shape.STRING, pattern = "yyyy-MM-dd HH:mm:ss")
- LocalDateTime examStart

// 考试结束时间
@JsonFormat(shape = JsonFormat.Shape.STRING, pattern = "yyyy-MM-dd HH:mm:ss")
- LocalDateTime examEnd

// 考级点id
- String examOrgId

//考级点
@Transient
- ExamOrg examOrg

// 报名点id
- String registrationId

// 报名点
@Transient
- RegistrationPoint registrationPoint

// 考试进度/阶段
- ExamStage examStage

// 结算单
- String paymentUrl

// 发放单
- String statementsUrl

// 上传的文件名
- String fileName

// 文件url
- String fileUrl

// 考试报名人数
- long signUpNum = 0

====

}

enum com.youkeda.application.art.exam.model.ExamStage {
// 初始化
+ INIT

// 通知打印准考证
+ NOTICED

// 发布成绩
+ RELEASE

// 上传缴费单
+  UPLOAD
}

com.youkeda.model.Base <|- - com.youkeda.application.art.exam.model.RegistrationPoint : extends
com.youkeda.model.Base <|- - com.youkeda.application.art.exam.model.ExamOrg : extends
com.youkeda.model.Base <|- - com.youkeda.application.art.exam.model.Exam : extends

com.youkeda.application.art.exam.model.RegistrationPoint -left-> com.youkeda.application.art.exam.model.ExamOrg : Association

com.youkeda.application.art.exam.model.ExamOrg -left-> com.youkeda.application.art.exam.model.Association : Association

com.youkeda.application.art.exam.model.Exam -left-> com.youkeda.application.art.exam.model.ExamStage : Association
com.youkeda.application.art.exam.model.Exam -up-> com.youkeda.application.art.exam.model.ExamOrg : Association
com.youkeda.application.art.exam.model.Exam -up-> com.youkeda.application.art.exam.model.RegistrationPoint : Association

@enduml

PlantUML version 1.2022.6(Wed Jun 22 01:34:49 CST 2022)
(GPL source distribution)
Java Runtime: OpenJDK Runtime Environment
JVM: OpenJDK 64-Bit Server VM
Default Encoding: UTF-8
Language: zh
Country: CN
--></g></svg>