<?xml version="1.0" encoding="UTF-8" standalone="no"?><svg xmlns="http://www.w3.org/2000/svg" xmlns:xlink="http://www.w3.org/1999/xlink" contentStyleType="text/css" height="839px" preserveAspectRatio="none" style="width:1073px;height:839px;background:#FFFFFF;" version="1.1" viewBox="0 0 1073 839" width="1073px" zoomAndPan="magnify"><defs/><g><!--MD5=[385f28159e0b3671880c4ed74d6b24f1]
cluster com.youkeda.application.art.role.model--><g id="cluster_com.youkeda.application.art.role.model"><path d="M8.5,6 L287.5,6 A3.75,3.75 0 0 1 290,8.5 L297,28.4883 L1063.5,28.4883 A2.5,2.5 0 0 1 1066,30.9883 L1066,829.5 A2.5,2.5 0 0 1 1063.5,832 L8.5,832 A2.5,2.5 0 0 1 6,829.5 L6,8.5 A2.5,2.5 0 0 1 8.5,6 " style="stroke:#000000;stroke-width:1.5;fill:none;"/><line style="stroke:#000000;stroke-width:1.5;fill:none;" x1="6" x2="297" y1="28.4883" y2="28.4883"/><text fill="#000000" font-family="sans-serif" font-size="14" font-weight="bold" lengthAdjust="spacing" textLength="278" x="10" y="21.5352">com.youkeda.application.art.role.model</text></g><!--MD5=[9ad2c9a9a5cc2e06e837a4a335afd41e]
class com.youkeda.application.art.role.model.PermissionAccount--><g id="elem_com.youkeda.application.art.role.model.PermissionAccount"><rect codeLine="1" fill="#F1F1F1" height="179.9063" id="com.youkeda.application.art.role.model.PermissionAccount" rx="2.5" ry="2.5" style="stroke:#181818;stroke-width:0.5;" width="163" x="22.5" y="297.5"/><ellipse cx="37.5" cy="313.5" fill="#ADD1B2" rx="11" ry="11" style="stroke:#181818;stroke-width:1.0;"/><path d="M39.9731,319.6431 Q39.3921,319.9419 38.7529,320.0913 Q38.1138,320.2407 37.4082,320.2407 Q34.9014,320.2407 33.5815,318.5889 Q32.2617,316.937 32.2617,313.8159 Q32.2617,310.6865 33.5815,309.0347 Q34.9014,307.3828 37.4082,307.3828 Q38.1138,307.3828 38.7612,307.5322 Q39.4087,307.6816 39.9731,307.9805 L39.9731,310.7031 Q39.3423,310.1221 38.7488,309.8523 Q38.1553,309.5825 37.5244,309.5825 Q36.1797,309.5825 35.4949,310.6492 Q34.8101,311.7158 34.8101,313.8159 Q34.8101,315.9077 35.4949,316.9744 Q36.1797,318.041 37.5244,318.041 Q38.1553,318.041 38.7488,317.7712 Q39.3423,317.5015 39.9731,316.9204 Z " fill="#000000"/><text fill="#000000" font-family="sans-serif" font-size="14" lengthAdjust="spacing" textLength="131" x="51.5" y="318.791">PermissionAccount</text><line style="stroke:#181818;stroke-width:0.5;" x1="23.5" x2="184.5" y1="329.5" y2="329.5"/><text fill="#000000" font-family="sans-serif" font-size="14" lengthAdjust="spacing" textLength="4" x="42.5" y="347.0352"> </text><text fill="#000000" font-family="sans-serif" font-size="14" lengthAdjust="spacing" textLength="74" x="42.5" y="363.5234">// 权限主键</text><rect fill="none" height="6" style="stroke:#C82930;stroke-width:1.0;" width="6" x="30.5" y="370.4766"/><text fill="#000000" font-family="sans-serif" font-size="14" lengthAdjust="spacing" textLength="134" x="42.5" y="380.0117">String permissionId</text><text fill="#000000" font-family="sans-serif" font-size="14" lengthAdjust="spacing" textLength="4" x="42.5" y="396.5"> </text><text fill="#000000" font-family="sans-serif" font-size="14" lengthAdjust="spacing" textLength="74" x="42.5" y="412.9883">// 用户主键</text><rect fill="none" height="6" style="stroke:#C82930;stroke-width:1.0;" width="6" x="30.5" y="419.9414"/><text fill="#000000" font-family="sans-serif" font-size="14" lengthAdjust="spacing" textLength="112" x="42.5" y="429.4766">String accountId</text><text fill="#000000" font-family="sans-serif" font-size="14" lengthAdjust="spacing" textLength="4" x="42.5" y="445.9648"> </text><line style="stroke:#181818;stroke-width:1.0;" x1="23.5" x2="184.5" y1="452.918" y2="452.918"/><text fill="#000000" font-family="sans-serif" font-size="14" lengthAdjust="spacing" textLength="4" x="28.5" y="470.4531"> </text></g><!--MD5=[cecff8b6244b68486dd4eeabd6e53d75]
class com.youkeda.application.art.role.model.Permission--><g id="elem_com.youkeda.application.art.role.model.Permission"><rect codeLine="13" fill="#F1F1F1" height="311.8125" id="com.youkeda.application.art.role.model.Permission" rx="2.5" ry="2.5" style="stroke:#181818;stroke-width:0.5;" width="184" x="221" y="231.5"/><ellipse cx="271.25" cy="247.5" fill="#ADD1B2" rx="11" ry="11" style="stroke:#181818;stroke-width:1.0;"/><path d="M273.7231,253.6431 Q273.1421,253.9419 272.5029,254.0913 Q271.8638,254.2407 271.1582,254.2407 Q268.6514,254.2407 267.3315,252.5889 Q266.0117,250.937 266.0117,247.8159 Q266.0117,244.6865 267.3315,243.0347 Q268.6514,241.3828 271.1582,241.3828 Q271.8638,241.3828 272.5112,241.5322 Q273.1587,241.6816 273.7231,241.9805 L273.7231,244.7031 Q273.0923,244.1221 272.4988,243.8523 Q271.9053,243.5825 271.2744,243.5825 Q269.9297,243.5825 269.2449,244.6492 Q268.5601,245.7158 268.5601,247.8159 Q268.5601,249.9077 269.2449,250.9744 Q269.9297,252.041 271.2744,252.041 Q271.9053,252.041 272.4988,251.7712 Q273.0923,251.5015 273.7231,250.9204 Z " fill="#000000"/><text fill="#000000" font-family="sans-serif" font-size="14" lengthAdjust="spacing" textLength="75" x="291.75" y="252.791">Permission</text><line style="stroke:#181818;stroke-width:0.5;" x1="222" x2="404" y1="263.5" y2="263.5"/><text fill="#000000" font-family="sans-serif" font-size="14" lengthAdjust="spacing" textLength="102" x="241" y="281.0352">// 权限中文标题</text><rect fill="none" height="6" style="stroke:#C82930;stroke-width:1.0;" width="6" x="229" y="287.9883"/><text fill="#000000" font-family="sans-serif" font-size="14" lengthAdjust="spacing" textLength="71" x="241" y="297.5234">String title</text><text fill="#000000" font-family="sans-serif" font-size="14" lengthAdjust="spacing" textLength="4" x="241" y="314.0117"> </text><text fill="#000000" font-family="sans-serif" font-size="14" lengthAdjust="spacing" textLength="144" x="241" y="330.5">// 权限名称，英文单词</text><rect fill="none" height="6" style="stroke:#C82930;stroke-width:1.0;" width="6" x="229" y="337.4531"/><text fill="#000000" font-family="sans-serif" font-size="14" lengthAdjust="spacing" textLength="83" x="241" y="346.9883">String name</text><text fill="#000000" font-family="sans-serif" font-size="14" lengthAdjust="spacing" textLength="4" x="241" y="363.4766"> </text><text fill="#000000" font-family="sans-serif" font-size="14" lengthAdjust="spacing" textLength="74" x="241" y="379.9648">// 权限备注</text><rect fill="none" height="6" style="stroke:#C82930;stroke-width:1.0;" width="6" x="229" y="386.918"/><text fill="#000000" font-family="sans-serif" font-size="14" lengthAdjust="spacing" textLength="94" x="241" y="396.4531">String remark</text><text fill="#000000" font-family="sans-serif" font-size="14" lengthAdjust="spacing" textLength="4" x="241" y="412.9414"> </text><text fill="#000000" font-family="sans-serif" font-size="14" lengthAdjust="spacing" textLength="116" x="241" y="429.4297">// 关联的其他主键</text><rect fill="none" height="6" style="stroke:#C82930;stroke-width:1.0;" width="6" x="229" y="436.3828"/><text fill="#000000" font-family="sans-serif" font-size="14" lengthAdjust="spacing" textLength="77" x="241" y="445.918">String refId</text><text fill="#000000" font-family="sans-serif" font-size="14" lengthAdjust="spacing" textLength="4" x="241" y="462.4063"> </text><text fill="#000000" font-family="sans-serif" font-size="14" lengthAdjust="spacing" textLength="158" x="241" y="478.8945">// 关联的其他数据表名称</text><rect fill="none" height="6" style="stroke:#C82930;stroke-width:1.0;" width="6" x="229" y="485.8477"/><text fill="#000000" font-family="sans-serif" font-size="14" lengthAdjust="spacing" textLength="103" x="241" y="495.3828">String refName</text><text fill="#000000" font-family="sans-serif" font-size="14" lengthAdjust="spacing" textLength="4" x="241" y="511.8711"> </text><line style="stroke:#181818;stroke-width:1.0;" x1="222" x2="404" y1="518.8242" y2="518.8242"/><text fill="#000000" font-family="sans-serif" font-size="14" lengthAdjust="spacing" textLength="4" x="227" y="536.3594"> </text></g><!--MD5=[ddf19a92c33a201ab6a48b8850ddea70]
class com.youkeda.application.art.role.model.RoleType--><g id="elem_com.youkeda.application.art.role.model.RoleType"><rect codeLine="33" fill="#F1F1F1" height="130.4414" id="com.youkeda.application.art.role.model.RoleType" rx="2.5" ry="2.5" style="stroke:#181818;stroke-width:0.5;" width="114" x="688" y="686"/><ellipse cx="711.55" cy="702" fill="#EB937F" rx="11" ry="11" style="stroke:#181818;stroke-width:1.0;"/><path d="M715.1643,708.5 L707.4445,708.5 L707.4445,696.1069 L715.1643,696.1069 L715.1643,698.2651 L709.8933,698.2651 L709.8933,700.938 L714.6662,700.938 L714.6662,703.0962 L709.8933,703.0962 L709.8933,706.3418 L715.1643,706.3418 Z " fill="#000000"/><text fill="#000000" font-family="sans-serif" font-size="14" lengthAdjust="spacing" textLength="63" x="727.45" y="707.291">RoleType</text><line style="stroke:#181818;stroke-width:0.5;" x1="689" x2="801" y1="718" y2="718"/><text fill="#000000" font-family="sans-serif" font-size="14" lengthAdjust="spacing" textLength="74" x="708" y="735.5352">// 系统角色</text><ellipse cx="699" cy="745.4883" fill="none" rx="3" ry="3" style="stroke:#038048;stroke-width:1.0;"/><text fill="#000000" font-family="sans-serif" font-size="14" lengthAdjust="spacing" textLength="54" x="708" y="752.0234">SYSTEM</text><text fill="#000000" font-family="sans-serif" font-size="14" lengthAdjust="spacing" textLength="4" x="708" y="768.5117"> </text><text fill="#000000" font-family="sans-serif" font-size="14" lengthAdjust="spacing" textLength="88" x="708" y="785">// 自定义角色</text><ellipse cx="699" cy="794.9531" fill="none" rx="3" ry="3" style="stroke:#038048;stroke-width:1.0;"/><text fill="#000000" font-family="sans-serif" font-size="14" lengthAdjust="spacing" textLength="60" x="708" y="801.4883">CUSTOM</text><line style="stroke:#181818;stroke-width:0.5;" x1="689" x2="801" y1="808.4414" y2="808.4414"/></g><!--MD5=[67f6b9f9bb0867e866472cc8f1b8fb9c]
class com.youkeda.application.art.role.model.Role--><g id="elem_com.youkeda.application.art.role.model.Role"><rect codeLine="42" fill="#F1F1F1" height="476.6953" id="com.youkeda.application.art.role.model.Role" rx="2.5" ry="2.5" style="stroke:#181818;stroke-width:0.5;" width="609" x="440.5" y="149"/><ellipse cx="725.75" cy="165" fill="#ADD1B2" rx="11" ry="11" style="stroke:#181818;stroke-width:1.0;"/><path d="M728.2231,171.1431 Q727.6421,171.4419 727.0029,171.5913 Q726.3638,171.7407 725.6582,171.7407 Q723.1514,171.7407 721.8315,170.0889 Q720.5117,168.437 720.5117,165.3159 Q720.5117,162.1865 721.8315,160.5347 Q723.1514,158.8828 725.6582,158.8828 Q726.3638,158.8828 727.0112,159.0322 Q727.6587,159.1816 728.2231,159.4805 L728.2231,162.2031 Q727.5923,161.6221 726.9988,161.3523 Q726.4053,161.0825 725.7744,161.0825 Q724.4297,161.0825 723.7449,162.1492 Q723.0601,163.2158 723.0601,165.3159 Q723.0601,167.4077 723.7449,168.4744 Q724.4297,169.541 725.7744,169.541 Q726.4053,169.541 726.9988,169.2712 Q727.5923,169.0015 728.2231,168.4204 Z " fill="#000000"/><text fill="#000000" font-family="sans-serif" font-size="14" lengthAdjust="spacing" textLength="30" x="746.25" y="170.291">Role</text><line style="stroke:#181818;stroke-width:0.5;" x1="441.5" x2="1048.5" y1="181" y2="181"/><text fill="#000000" font-family="sans-serif" font-size="14" lengthAdjust="spacing" textLength="74" x="460.5" y="198.5352">// 角色标题</text><rect fill="none" height="6" style="stroke:#C82930;stroke-width:1.0;" width="6" x="448.5" y="205.4883"/><text fill="#000000" font-family="sans-serif" font-size="14" lengthAdjust="spacing" textLength="71" x="460.5" y="215.0234">String title</text><text fill="#000000" font-family="sans-serif" font-size="14" lengthAdjust="spacing" textLength="4" x="460.5" y="231.5117"> </text><text fill="#000000" font-family="sans-serif" font-size="14" lengthAdjust="spacing" textLength="74" x="460.5" y="248">// 角色名称</text><rect fill="none" height="6" style="stroke:#C82930;stroke-width:1.0;" width="6" x="448.5" y="254.9531"/><text fill="#000000" font-family="sans-serif" font-size="14" lengthAdjust="spacing" textLength="83" x="460.5" y="264.4883">String name</text><text fill="#000000" font-family="sans-serif" font-size="14" lengthAdjust="spacing" textLength="4" x="460.5" y="280.9766"> </text><text fill="#000000" font-family="sans-serif" font-size="14" lengthAdjust="spacing" textLength="74" x="460.5" y="297.4648">// 角色备注</text><rect fill="none" height="6" style="stroke:#C82930;stroke-width:1.0;" width="6" x="448.5" y="304.418"/><text fill="#000000" font-family="sans-serif" font-size="14" lengthAdjust="spacing" textLength="94" x="460.5" y="313.9531">String remark</text><text fill="#000000" font-family="sans-serif" font-size="14" lengthAdjust="spacing" textLength="4" x="460.5" y="330.4414"> </text><text fill="#000000" font-family="sans-serif" font-size="14" lengthAdjust="spacing" textLength="74" x="460.5" y="346.9297">// 角色类型</text><rect fill="none" height="6" style="stroke:#C82930;stroke-width:1.0;" width="6" x="448.5" y="353.8828"/><text fill="#000000" font-family="sans-serif" font-size="14" lengthAdjust="spacing" textLength="127" x="460.5" y="363.418">RoleType roleType</text><text fill="#000000" font-family="sans-serif" font-size="14" lengthAdjust="spacing" textLength="4" x="460.5" y="379.9063"> </text><text fill="#000000" font-family="sans-serif" font-size="14" lengthAdjust="spacing" textLength="116" x="460.5" y="396.3945">// 角色关联的用户</text><rect fill="none" height="6" style="stroke:#C82930;stroke-width:1.0;" width="6" x="448.5" y="403.3477"/><text fill="#000000" font-family="sans-serif" font-size="14" lengthAdjust="spacing" textLength="164" x="460.5" y="412.8828">List&lt;String&gt; accountIds</text><text fill="#000000" font-family="sans-serif" font-size="14" lengthAdjust="spacing" textLength="4" x="460.5" y="429.3711"> </text><text fill="#000000" font-family="sans-serif" font-size="14" lengthAdjust="spacing" textLength="116" x="460.5" y="445.8594">// 角色关联的部门</text><rect fill="none" height="6" style="stroke:#C82930;stroke-width:1.0;" width="6" x="448.5" y="452.8125"/><text fill="#000000" font-family="sans-serif" font-size="14" lengthAdjust="spacing" textLength="190" x="460.5" y="462.3477">List&lt;String&gt; departmentIds</text><text fill="#000000" font-family="sans-serif" font-size="14" lengthAdjust="spacing" textLength="4" x="460.5" y="478.8359"> </text><text fill="#000000" font-family="sans-serif" font-size="14" lengthAdjust="spacing" textLength="101" x="460.5" y="495.3242">// 关联的权限id</text><rect fill="none" height="6" style="stroke:#C82930;stroke-width:1.0;" width="6" x="448.5" y="502.2773"/><text fill="#000000" font-family="sans-serif" font-size="14" lengthAdjust="spacing" textLength="186" x="460.5" y="511.8125">List&lt;String&gt; permissionIds</text><text fill="#000000" font-family="sans-serif" font-size="14" lengthAdjust="spacing" textLength="4" x="460.5" y="528.3008"> </text><text fill="#000000" font-family="sans-serif" font-size="14" lengthAdjust="spacing" textLength="74" x="460.5" y="544.7891">// 过期时间</text><text fill="#000000" font-family="sans-serif" font-size="14" lengthAdjust="spacing" textLength="583" x="460.5" y="561.2773">@JsonFormat(shape = JsonFormat.Shape.STRING, pattern = "yyyy-MM-dd HH:mm:ss")</text><rect fill="none" height="6" style="stroke:#C82930;stroke-width:1.0;" width="6" x="448.5" y="568.2305"/><text fill="#000000" font-family="sans-serif" font-size="14" lengthAdjust="spacing" textLength="148" x="460.5" y="577.7656">LocalDateTime expire</text><text fill="#000000" font-family="sans-serif" font-size="14" lengthAdjust="spacing" textLength="4" x="460.5" y="594.2539"> </text><line style="stroke:#181818;stroke-width:1.0;" x1="441.5" x2="1048.5" y1="601.207" y2="601.207"/><text fill="#000000" font-family="sans-serif" font-size="14" lengthAdjust="spacing" textLength="4" x="446.5" y="618.7422"> </text></g><!--MD5=[5250d098a11c2a98fcfc3f7108b530f0]
class com.youkeda.application.art.role.model.Base--><g id="elem_com.youkeda.application.art.role.model.Base"><rect fill="#F1F1F1" height="48" id="com.youkeda.application.art.role.model.Base" rx="2.5" ry="2.5" style="stroke:#181818;stroke-width:0.5;" width="63" x="281.5" y="41"/><ellipse cx="296.5" cy="57" fill="#ADD1B2" rx="11" ry="11" style="stroke:#181818;stroke-width:1.0;"/><path d="M298.9731,63.1431 Q298.3921,63.4419 297.7529,63.5913 Q297.1138,63.7407 296.4082,63.7407 Q293.9014,63.7407 292.5815,62.0889 Q291.2617,60.437 291.2617,57.3159 Q291.2617,54.1865 292.5815,52.5347 Q293.9014,50.8828 296.4082,50.8828 Q297.1138,50.8828 297.7612,51.0322 Q298.4087,51.1816 298.9731,51.4805 L298.9731,54.2031 Q298.3423,53.6221 297.7488,53.3523 Q297.1553,53.0825 296.5244,53.0825 Q295.1797,53.0825 294.4949,54.1492 Q293.8101,55.2158 293.8101,57.3159 Q293.8101,59.4077 294.4949,60.4744 Q295.1797,61.541 296.5244,61.541 Q297.1553,61.541 297.7488,61.2712 Q298.3423,61.0015 298.9731,60.4204 Z " fill="#000000"/><text fill="#000000" font-family="sans-serif" font-size="14" lengthAdjust="spacing" textLength="31" x="310.5" y="62.291">Base</text><line style="stroke:#181818;stroke-width:0.5;" x1="282.5" x2="343.5" y1="73" y2="73"/><line style="stroke:#181818;stroke-width:0.5;" x1="282.5" x2="343.5" y1="81" y2="81"/></g><!--MD5=[83fc497cc6a8c2a12a1be08133e242dc]
reverse link com.youkeda.application.art.role.model.Base to com.youkeda.application.art.role.model.PermissionAccount--><g id="link_com.youkeda.application.art.role.model.Base_com.youkeda.application.art.role.model.PermissionAccount"><path codeLine="73" d="M264.22,94.98 C243.51,109.19 220.42,127.81 204,149 C169.95,192.94 145.4,250.17 129.14,297.45 " fill="none" id="com.youkeda.application.art.role.model.Base-backto-com.youkeda.application.art.role.model.PermissionAccount" style="stroke:#181818;stroke-width:1.0;"/><polygon fill="none" points="260.63,88.96,281.21,83.91,268.28,100.69,260.63,88.96" style="stroke:#181818;stroke-width:1.0;"/></g><!--MD5=[cb70a7ed63d00113511f9f52093d79a0]
reverse link com.youkeda.application.art.role.model.Base to com.youkeda.application.art.role.model.Permission--><g id="link_com.youkeda.application.art.role.model.Base_com.youkeda.application.art.role.model.Permission"><path codeLine="74" d="M313,109.17 C313,140.97 313,186.32 313,231.15 " fill="none" id="com.youkeda.application.art.role.model.Base-backto-com.youkeda.application.art.role.model.Permission" style="stroke:#181818;stroke-width:1.0;"/><polygon fill="none" points="306,109.05,313,89.05,320,109.05,306,109.05" style="stroke:#181818;stroke-width:1.0;"/></g><!--MD5=[8f24588bb846d6b560a7854ace338dad]
reverse link com.youkeda.application.art.role.model.Base to com.youkeda.application.art.role.model.Role--><g id="link_com.youkeda.application.art.role.model.Base_com.youkeda.application.art.role.model.Role"><path codeLine="75" d="M360.44,101.19 C382.08,117.25 409.69,137.73 440.15,160.34 " fill="none" id="com.youkeda.application.art.role.model.Base-backto-com.youkeda.application.art.role.model.Role" style="stroke:#181818;stroke-width:1.0;"/><polygon fill="none" points="355.96,106.59,344.07,89.05,364.3,95.34,355.96,106.59" style="stroke:#181818;stroke-width:1.0;"/></g><!--MD5=[8b041f517be9e1df6fc3d813edf01f29]
link com.youkeda.application.art.role.model.Role to com.youkeda.application.art.role.model.RoleType--><g id="link_com.youkeda.application.art.role.model.Role_com.youkeda.application.art.role.model.RoleType"><path codeLine="77" d="M745,626.1 C745,645.69 745,664.29 745,680.84 " fill="none" id="com.youkeda.application.art.role.model.Role-to-com.youkeda.application.art.role.model.RoleType" style="stroke:#181818;stroke-width:1.0;"/><polygon fill="#181818" points="745,685.91,749,676.91,745,680.91,741,676.91,745,685.91" style="stroke:#181818;stroke-width:1.0;"/></g><!--MD5=[97dd167bedc043468ebbae038c549e5f]
link com.youkeda.application.art.role.model.PermissionAccount to com.youkeda.application.art.role.model.Permission--><g id="link_com.youkeda.application.art.role.model.PermissionAccount_com.youkeda.application.art.role.model.Permission"><path codeLine="79" d="M185.64,387.5 C197.41,387.5 209.19,387.5 220.96,387.5 " fill="none" id="com.youkeda.application.art.role.model.PermissionAccount-com.youkeda.application.art.role.model.Permission" style="stroke:#181818;stroke-width:1.0;stroke-dasharray:7.0,7.0;"/></g><!--MD5=[faea7c4a4f264c8c60ccb1ade960fb1b]
@startuml
class com.youkeda.application.art.role.model.PermissionAccount {

// 权限主键
- String permissionId

// 用户主键
- String accountId

- - - -

}

class com.youkeda.application.art.role.model.Permission {
// 权限中文标题
- String title

// 权限名称，英文单词
- String name

// 权限备注
- String remark

// 关联的其他主键
- String refId

// 关联的其他数据表名称
- String refName

- - - -

}

enum com.youkeda.application.art.role.model.RoleType {

// 系统角色
+  SYSTEM

// 自定义角色
+  CUSTOM
}

class com.youkeda.application.art.role.model.Role {
// 角色标题
- String title

// 角色名称
- String name

// 角色备注
- String remark

// 角色类型
- RoleType roleType

// 角色关联的用户
- List<String> accountIds

// 角色关联的部门
- List<String> departmentIds

// 关联的权限id
- List<String> permissionIds

// 过期时间
@JsonFormat(shape = JsonFormat.Shape.STRING, pattern = "yyyy-MM-dd HH:mm:ss")
- LocalDateTime expire

- - - -

}


com.youkeda.application.art.role.model.Base <|- - com.youkeda.application.art.role.model.PermissionAccount
com.youkeda.application.art.role.model.Base <|- - com.youkeda.application.art.role.model.Permission
com.youkeda.application.art.role.model.Base <|- - com.youkeda.application.art.role.model.Role

com.youkeda.application.art.role.model.Role - -> com.youkeda.application.art.role.model.RoleType

com.youkeda.application.art.role.model.PermissionAccount .right. com.youkeda.application.art.role.model.Permission
@enduml

PlantUML version 1.2022.6(Wed Jun 22 01:34:49 CST 2022)
(GPL source distribution)
Java Runtime: OpenJDK Runtime Environment
JVM: OpenJDK 64-Bit Server VM
Default Encoding: UTF-8
Language: zh
Country: CN
--></g></svg>