<?xml version="1.0" encoding="UTF-8" standalone="no"?><svg xmlns="http://www.w3.org/2000/svg" xmlns:xlink="http://www.w3.org/1999/xlink" contentStyleType="text/css" height="1671px" preserveAspectRatio="none" style="width:1350px;height:1671px;background:#FFFFFF;" version="1.1" viewBox="0 0 1350 1671" width="1350px" zoomAndPan="magnify"><defs/><g><!--MD5=[0d852700fdad35b7061d461d6907a324]
cluster java.io--><g id="cluster_java.io"><path d="M661.5,6 L708.5,6 A3.75,3.75 0 0 1 711,8.5 L718,28.4883 L800.5,28.4883 A2.5,2.5 0 0 1 803,30.9883 L803,102.5 A2.5,2.5 0 0 1 800.5,105 L661.5,105 A2.5,2.5 0 0 1 659,102.5 L659,8.5 A2.5,2.5 0 0 1 661.5,6 " style="stroke:#000000;stroke-width:1.5;fill:none;"/><line style="stroke:#000000;stroke-width:1.5;fill:none;" x1="659" x2="718" y1="28.4883" y2="28.4883"/><text fill="#000000" font-family="sans-serif" font-size="14" font-weight="bold" lengthAdjust="spacing" textLength="46" x="663" y="21.5352">java.io</text></g><!--MD5=[ed0073de296ff6289039be097c6b722a]
cluster com.youkeda.model--><g id="cluster_com.youkeda.model"><path d="M8.5,154 L150.5,154 A3.75,3.75 0 0 1 153,156.5 L160,176.4883 L1340.5,176.4883 A2.5,2.5 0 0 1 1343,178.9883 L1343,712.5 A2.5,2.5 0 0 1 1340.5,715 L8.5,715 A2.5,2.5 0 0 1 6,712.5 L6,156.5 A2.5,2.5 0 0 1 8.5,154 " style="stroke:#000000;stroke-width:1.5;fill:none;"/><line style="stroke:#000000;stroke-width:1.5;fill:none;" x1="6" x2="160" y1="176.4883" y2="176.4883"/><text fill="#000000" font-family="sans-serif" font-size="14" font-weight="bold" lengthAdjust="spacing" textLength="141" x="10" y="169.5352">com.youkeda.model</text></g><!--MD5=[6c1daab17c88496ca5cea5d6fe55d776]
cluster com.youkeda.application.art.member.model--><g id="cluster_com.youkeda.application.art.member.model"><path d="M153.5,764 L463.5,764 A3.75,3.75 0 0 1 466,766.5 L473,786.4883 L500.5,786.4883 A2.5,2.5 0 0 1 503,788.9883 L503,1661.5 A2.5,2.5 0 0 1 500.5,1664 L153.5,1664 A2.5,2.5 0 0 1 151,1661.5 L151,766.5 A2.5,2.5 0 0 1 153.5,764 " style="stroke:#000000;stroke-width:1.5;fill:none;"/><line style="stroke:#000000;stroke-width:1.5;fill:none;" x1="151" x2="473" y1="786.4883" y2="786.4883"/><text fill="#000000" font-family="sans-serif" font-size="14" font-weight="bold" lengthAdjust="spacing" textLength="309" x="155" y="779.5352">com.youkeda.application.art.member.model</text></g><!--MD5=[5a5af9b0547913863cbe0ddf55a9ab5e]
class java.io.Serializable--><g id="elem_java.io.Serializable"><rect codeLine="1" fill="#F1F1F1" height="48" id="java.io.Serializable" rx="2.5" ry="2.5" style="stroke:#181818;stroke-width:0.5;" width="111" x="675.5" y="41"/><ellipse cx="690.5" cy="57" fill="#B4A7E5" rx="11" ry="11" style="stroke:#181818;stroke-width:1.0;"/><path d="M686.9277,53.2651 L686.9277,51.1069 L694.3071,51.1069 L694.3071,53.2651 L691.8418,53.2651 L691.8418,61.3418 L694.3071,61.3418 L694.3071,63.5 L686.9277,63.5 L686.9277,61.3418 L689.3931,61.3418 L689.3931,53.2651 Z " fill="#000000"/><text fill="#000000" font-family="sans-serif" font-size="14" font-style="italic" lengthAdjust="spacing" textLength="79" x="704.5" y="62.291">Serializable</text><line style="stroke:#181818;stroke-width:0.5;" x1="676.5" x2="785.5" y1="73" y2="73"/><line style="stroke:#181818;stroke-width:0.5;" x1="676.5" x2="785.5" y1="81" y2="81"/></g><!--MD5=[20bab37502bf42f2386e3acbf9f92f35]
class com.youkeda.model.Base--><g id="elem_com.youkeda.model.Base"><rect codeLine="4" fill="#F1F1F1" height="328.3008" id="com.youkeda.model.Base" rx="2.5" ry="2.5" style="stroke:#181818;stroke-width:0.5;" width="609" x="22.5" y="280"/><ellipse cx="301.25" cy="296" fill="#ADD1B2" rx="11" ry="11" style="stroke:#181818;stroke-width:1.0;"/><path d="M303.7231,302.1431 Q303.1421,302.4419 302.5029,302.5913 Q301.8638,302.7407 301.1582,302.7407 Q298.6514,302.7407 297.3315,301.0889 Q296.0117,299.437 296.0117,296.3159 Q296.0117,293.1865 297.3315,291.5347 Q298.6514,289.8828 301.1582,289.8828 Q301.8638,289.8828 302.5112,290.0322 Q303.1587,290.1816 303.7231,290.4805 L303.7231,293.2031 Q303.0923,292.6221 302.4988,292.3523 Q301.9053,292.0825 301.2744,292.0825 Q299.9297,292.0825 299.2449,293.1492 Q298.5601,294.2158 298.5601,296.3159 Q298.5601,298.4077 299.2449,299.4744 Q299.9297,300.541 301.2744,300.541 Q301.9053,300.541 302.4988,300.2712 Q303.0923,300.0015 303.7231,299.4204 Z " fill="#000000"/><text fill="#000000" font-family="sans-serif" font-size="14" lengthAdjust="spacing" textLength="31" x="321.75" y="301.291">Base</text><rect fill="#FFFFFF" height="16.1328" style="stroke:#000000;stroke-width:1.0;stroke-dasharray:2.0,2.0;" width="10" x="624.5" y="277"/><text fill="#000000" font-family="sans-serif" font-size="12" font-style="italic" lengthAdjust="spacing" textLength="8" x="625.5" y="289.6016">T</text><line style="stroke:#181818;stroke-width:0.5;" x1="23.5" x2="630.5" y1="312" y2="312"/><text fill="#000000" font-family="sans-serif" font-size="14" lengthAdjust="spacing" textLength="46" x="42.5" y="329.5352">// 主键</text><text fill="#000000" font-family="sans-serif" font-size="14" lengthAdjust="spacing" textLength="25" x="42.5" y="346.0234">@Id</text><polygon fill="none" points="33.5,350.9766,37.5,354.9766,33.5,358.9766,29.5,354.9766" style="stroke:#B38D22;stroke-width:1.0;"/><text fill="#000000" font-family="sans-serif" font-size="14" lengthAdjust="spacing" textLength="58" x="42.5" y="362.5117">String id</text><text fill="#000000" font-family="sans-serif" font-size="14" lengthAdjust="spacing" textLength="4" x="42.5" y="379"> </text><text fill="#000000" font-family="sans-serif" font-size="14" lengthAdjust="spacing" textLength="256" x="42.5" y="395.4883">// 公司 id，MongoDB自动转为ObjectId</text><text fill="#000000" font-family="sans-serif" font-size="14" lengthAdjust="spacing" textLength="289" x="42.5" y="411.9766">@Field(targetType = FieldType.OBJECT_ID)</text><polygon fill="none" points="33.5,416.9297,37.5,420.9297,33.5,424.9297,29.5,420.9297" style="stroke:#B38D22;stroke-width:1.0;"/><text fill="#000000" font-family="sans-serif" font-size="14" lengthAdjust="spacing" textLength="287" x="42.5" y="428.4648">String companyId = Company.DEFAULT.id</text><text fill="#000000" font-family="sans-serif" font-size="14" lengthAdjust="spacing" textLength="4" x="42.5" y="444.9531"> </text><text fill="#000000" font-family="sans-serif" font-size="14" lengthAdjust="spacing" textLength="583" x="42.5" y="461.4414">@JsonFormat(shape = JsonFormat.Shape.STRING, pattern = "yyyy-MM-dd HH:mm:ss")</text><rect fill="none" height="6" style="stroke:#C82930;stroke-width:1.0;" width="6" x="30.5" y="468.3945"/><text fill="#000000" font-family="sans-serif" font-size="14" lengthAdjust="spacing" textLength="185" x="42.5" y="477.9297">LocalDateTime gmtCreated</text><text fill="#000000" font-family="sans-serif" font-size="14" lengthAdjust="spacing" textLength="4" x="42.5" y="494.418"> </text><text fill="#000000" font-family="sans-serif" font-size="14" lengthAdjust="spacing" textLength="583" x="42.5" y="510.9063">@JsonFormat(shape = JsonFormat.Shape.STRING, pattern = "yyyy-MM-dd HH:mm:ss")</text><rect fill="none" height="6" style="stroke:#C82930;stroke-width:1.0;" width="6" x="30.5" y="517.8594"/><text fill="#000000" font-family="sans-serif" font-size="14" lengthAdjust="spacing" textLength="191" x="42.5" y="527.3945">LocalDateTime gmtModified</text><text fill="#000000" font-family="sans-serif" font-size="14" lengthAdjust="spacing" textLength="4" x="42.5" y="543.8828"> </text><line style="stroke:#181818;stroke-width:1.0;" x1="23.5" x2="630.5" y1="550.8359" y2="550.8359"/><text fill="#000000" font-family="sans-serif" font-size="14" lengthAdjust="spacing" textLength="4" x="42.5" y="568.3711"> </text><ellipse cx="33.5" cy="578.3242" fill="#84BE84" rx="3" ry="3" style="stroke:#038048;stroke-width:1.0;"/><text fill="#000000" font-family="sans-serif" font-size="14" lengthAdjust="spacing" textLength="90" x="42.5" y="584.8594">String getId()</text><ellipse cx="33.5" cy="594.8125" fill="#84BE84" rx="3" ry="3" style="stroke:#038048;stroke-width:1.0;"/><text fill="#000000" font-family="sans-serif" font-size="14" lengthAdjust="spacing" textLength="114" x="42.5" y="601.3477">T setId(String id)</text></g><!--MD5=[7cc8d2c93b593fcf745408f65aa94e52]
class com.youkeda.model.Company--><g id="elem_com.youkeda.model.Company"><rect codeLine="25" fill="#F1F1F1" height="509.6719" id="com.youkeda.model.Company" rx="2.5" ry="2.5" style="stroke:#181818;stroke-width:0.5;" width="660" x="667" y="189"/><ellipse cx="960.25" cy="205" fill="#ADD1B2" rx="11" ry="11" style="stroke:#181818;stroke-width:1.0;"/><path d="M962.7231,211.1431 Q962.1421,211.4419 961.5029,211.5913 Q960.8638,211.7407 960.1582,211.7407 Q957.6514,211.7407 956.3315,210.0889 Q955.0117,208.437 955.0117,205.3159 Q955.0117,202.1865 956.3315,200.5347 Q957.6514,198.8828 960.1582,198.8828 Q960.8638,198.8828 961.5112,199.0322 Q962.1587,199.1816 962.7231,199.4805 L962.7231,202.2031 Q962.0923,201.6221 961.4988,201.3523 Q960.9053,201.0825 960.2744,201.0825 Q958.9297,201.0825 958.2449,202.1492 Q957.5601,203.2158 957.5601,205.3159 Q957.5601,207.4077 958.2449,208.4744 Q958.9297,209.541 960.2744,209.541 Q960.9053,209.541 961.4988,209.2712 Q962.0923,209.0015 962.7231,208.4204 Z " fill="#000000"/><text fill="#000000" font-family="sans-serif" font-size="14" lengthAdjust="spacing" textLength="65" x="980.75" y="210.291">Company</text><line style="stroke:#181818;stroke-width:0.5;" x1="668" x2="1326" y1="221" y2="221"/><text fill="#000000" font-family="sans-serif" font-size="14" lengthAdjust="spacing" textLength="77" x="687" y="238.5352">@Transient</text><ellipse cx="678" cy="248.4883" fill="#84BE84" rx="3" ry="3" style="stroke:#038048;stroke-width:1.0;"/><text fill="#000000" font-family="sans-serif" font-size="14" lengthAdjust="spacing" text-decoration="underline" textLength="634" x="687" y="255.0234">final Company DEFAULT = new Company("5e72e0bfad8bcb7392fbcb79", "default", "default")</text><text fill="#000000" font-family="sans-serif" font-size="14" lengthAdjust="spacing" textLength="4" x="687" y="271.5117"> </text><rect fill="none" height="6" style="stroke:#C82930;stroke-width:1.0;" width="6" x="675" y="278.4648"/><text fill="#000000" font-family="sans-serif" font-size="14" lengthAdjust="spacing" text-decoration="underline" textLength="148" x="687" y="288">long serialVersionUID</text><text fill="#000000" font-family="sans-serif" font-size="14" lengthAdjust="spacing" textLength="4" x="687" y="304.4883"> </text><text fill="#000000" font-family="sans-serif" font-size="14" lengthAdjust="spacing" textLength="25" x="687" y="320.9766">@Id</text><polygon fill="none" points="678,325.9297,682,329.9297,678,333.9297,674,329.9297" style="stroke:#B38D22;stroke-width:1.0;"/><text fill="#000000" font-family="sans-serif" font-size="14" lengthAdjust="spacing" textLength="58" x="687" y="337.4648">String id</text><text fill="#000000" font-family="sans-serif" font-size="14" lengthAdjust="spacing" textLength="4" x="687" y="353.9531"> </text><text fill="#000000" font-family="sans-serif" font-size="14" lengthAdjust="spacing" textLength="583" x="687" y="370.4414">@JsonFormat(shape = JsonFormat.Shape.STRING, pattern = "yyyy-MM-dd HH:mm:ss")</text><rect fill="none" height="6" style="stroke:#C82930;stroke-width:1.0;" width="6" x="675" y="377.3945"/><text fill="#000000" font-family="sans-serif" font-size="14" lengthAdjust="spacing" textLength="185" x="687" y="386.9297">LocalDateTime gmtCreated</text><text fill="#000000" font-family="sans-serif" font-size="14" lengthAdjust="spacing" textLength="4" x="687" y="403.418"> </text><text fill="#000000" font-family="sans-serif" font-size="14" lengthAdjust="spacing" textLength="583" x="687" y="419.9063">@JsonFormat(shape = JsonFormat.Shape.STRING, pattern = "yyyy-MM-dd HH:mm:ss")</text><rect fill="none" height="6" style="stroke:#C82930;stroke-width:1.0;" width="6" x="675" y="426.8594"/><text fill="#000000" font-family="sans-serif" font-size="14" lengthAdjust="spacing" textLength="191" x="687" y="436.3945">LocalDateTime gmtModified</text><text fill="#000000" font-family="sans-serif" font-size="14" lengthAdjust="spacing" textLength="4" x="687" y="452.8828"> </text><text fill="#000000" font-family="sans-serif" font-size="14" lengthAdjust="spacing" textLength="74" x="687" y="469.3711">// 企业编码</text><rect fill="none" height="6" style="stroke:#C82930;stroke-width:1.0;" width="6" x="675" y="476.3242"/><text fill="#000000" font-family="sans-serif" font-size="14" lengthAdjust="spacing" textLength="78" x="687" y="485.8594">String code</text><text fill="#000000" font-family="sans-serif" font-size="14" lengthAdjust="spacing" textLength="60" x="687" y="502.3477">// 企业域</text><rect fill="none" height="6" style="stroke:#C82930;stroke-width:1.0;" width="6" x="675" y="509.3008"/><text fill="#000000" font-family="sans-serif" font-size="14" lengthAdjust="spacing" textLength="97" x="687" y="518.8359">String domain</text><text fill="#000000" font-family="sans-serif" font-size="14" lengthAdjust="spacing" textLength="102" x="687" y="535.3242">// 企业名字全称</text><rect fill="none" height="6" style="stroke:#C82930;stroke-width:1.0;" width="6" x="675" y="542.2773"/><text fill="#000000" font-family="sans-serif" font-size="14" lengthAdjust="spacing" textLength="83" x="687" y="551.8125">String name</text><text fill="#000000" font-family="sans-serif" font-size="14" lengthAdjust="spacing" textLength="74" x="687" y="568.3008">// 企业简称</text><rect fill="none" height="6" style="stroke:#C82930;stroke-width:1.0;" width="6" x="675" y="575.2539"/><text fill="#000000" font-family="sans-serif" font-size="14" lengthAdjust="spacing" textLength="120" x="687" y="584.7891">String shortName</text><text fill="#000000" font-family="sans-serif" font-size="14" lengthAdjust="spacing" textLength="110" x="687" y="601.2773">// 企业 owner id</text><rect fill="none" height="6" style="stroke:#C82930;stroke-width:1.0;" width="6" x="675" y="608.2305"/><text fill="#000000" font-family="sans-serif" font-size="14" lengthAdjust="spacing" textLength="132" x="687" y="617.7656">String ownerUserId</text><text fill="#000000" font-family="sans-serif" font-size="14" lengthAdjust="spacing" textLength="4" x="687" y="634.2539"> </text><line style="stroke:#181818;stroke-width:1.0;" x1="668" x2="1326" y1="641.207" y2="641.207"/><text fill="#000000" font-family="sans-serif" font-size="14" lengthAdjust="spacing" textLength="4" x="687" y="658.7422"> </text><ellipse cx="678" cy="668.6953" fill="#84BE84" rx="3" ry="3" style="stroke:#038048;stroke-width:1.0;"/><text fill="#000000" font-family="sans-serif" font-size="14" lengthAdjust="spacing" textLength="138" x="687" y="675.2305">«Create» Company()</text><ellipse cx="678" cy="685.1836" fill="#84BE84" rx="3" ry="3" style="stroke:#038048;stroke-width:1.0;"/><text fill="#000000" font-family="sans-serif" font-size="14" lengthAdjust="spacing" textLength="373" x="687" y="691.7188">«Create» Company(String id, String name, String code)</text></g><!--MD5=[dab4c5e985ed2f2c858cff6aa3a52dd1]
class com.youkeda.application.art.member.model.User--><g id="elem_com.youkeda.application.art.member.model.User"><rect codeLine="57" fill="#F1F1F1" height="691.043" id="com.youkeda.application.art.member.model.User" rx="2.5" ry="2.5" style="stroke:#181818;stroke-width:0.5;" width="320" x="167" y="799"/><ellipse cx="307.25" cy="815" fill="#ADD1B2" rx="11" ry="11" style="stroke:#181818;stroke-width:1.0;"/><path d="M309.7231,821.1431 Q309.1421,821.4419 308.5029,821.5913 Q307.8638,821.7407 307.1582,821.7407 Q304.6514,821.7407 303.3315,820.0889 Q302.0117,818.437 302.0117,815.3159 Q302.0117,812.1865 303.3315,810.5347 Q304.6514,808.8828 307.1582,808.8828 Q307.8638,808.8828 308.5112,809.0322 Q309.1587,809.1816 309.7231,809.4805 L309.7231,812.2031 Q309.0923,811.6221 308.4988,811.3523 Q307.9053,811.0825 307.2744,811.0825 Q305.9297,811.0825 305.2449,812.1492 Q304.5601,813.2158 304.5601,815.3159 Q304.5601,817.4077 305.2449,818.4744 Q305.9297,819.541 307.2744,819.541 Q307.9053,819.541 308.4988,819.2712 Q309.0923,819.0015 309.7231,818.4204 Z " fill="#000000"/><text fill="#000000" font-family="sans-serif" font-size="14" lengthAdjust="spacing" textLength="31" x="327.75" y="820.291">User</text><line style="stroke:#181818;stroke-width:0.5;" x1="168" x2="486" y1="831" y2="831"/><rect fill="none" height="6" style="stroke:#C82930;stroke-width:1.0;" width="6" x="175" y="839"/><text fill="#000000" font-family="sans-serif" font-size="14" lengthAdjust="spacing" text-decoration="underline" textLength="148" x="187" y="848.5352">long serialVersionUID</text><text fill="#000000" font-family="sans-serif" font-size="14" lengthAdjust="spacing" textLength="4" x="187" y="865.0234"> </text><text fill="#000000" font-family="sans-serif" font-size="14" lengthAdjust="spacing" textLength="270" x="187" y="881.5117">// 命名空间，默认存短ID，用户可以自定义</text><rect fill="none" height="6" style="stroke:#C82930;stroke-width:1.0;" width="6" x="175" y="888.4648"/><text fill="#000000" font-family="sans-serif" font-size="14" lengthAdjust="spacing" textLength="122" x="187" y="898">String namespace</text><text fill="#000000" font-family="sans-serif" font-size="14" lengthAdjust="spacing" textLength="102" x="187" y="914.4883">// 用户个人签名</text><rect fill="none" height="6" style="stroke:#C82930;stroke-width:1.0;" width="6" x="175" y="921.4414"/><text fill="#000000" font-family="sans-serif" font-size="14" lengthAdjust="spacing" textLength="122" x="187" y="930.9766">String description</text><text fill="#000000" font-family="sans-serif" font-size="14" lengthAdjust="spacing" textLength="60" x="187" y="947.4648">// 手机号</text><rect fill="none" height="6" style="stroke:#C82930;stroke-width:1.0;" width="6" x="175" y="954.418"/><text fill="#000000" font-family="sans-serif" font-size="14" lengthAdjust="spacing" textLength="92" x="187" y="963.9531">String mobile</text><text fill="#000000" font-family="sans-serif" font-size="14" lengthAdjust="spacing" textLength="46" x="187" y="980.4414">// 邮箱</text><rect fill="none" height="6" style="stroke:#C82930;stroke-width:1.0;" width="6" x="175" y="987.3945"/><text fill="#000000" font-family="sans-serif" font-size="14" lengthAdjust="spacing" textLength="82" x="187" y="996.9297">String email</text><text fill="#000000" font-family="sans-serif" font-size="14" lengthAdjust="spacing" textLength="60" x="187" y="1013.418">// 用户名</text><rect fill="none" height="6" style="stroke:#C82930;stroke-width:1.0;" width="6" x="175" y="1020.3711"/><text fill="#000000" font-family="sans-serif" font-size="14" lengthAdjust="spacing" textLength="114" x="187" y="1029.9063">String userName</text><text fill="#000000" font-family="sans-serif" font-size="14" lengthAdjust="spacing" textLength="74" x="187" y="1046.3945">// 用户名称</text><rect fill="none" height="6" style="stroke:#C82930;stroke-width:1.0;" width="6" x="175" y="1053.3477"/><text fill="#000000" font-family="sans-serif" font-size="14" lengthAdjust="spacing" textLength="83" x="187" y="1062.8828">String name</text><text fill="#000000" font-family="sans-serif" font-size="14" lengthAdjust="spacing" textLength="46" x="187" y="1079.3711">// 昵称</text><rect fill="none" height="6" style="stroke:#C82930;stroke-width:1.0;" width="6" x="175" y="1086.3242"/><text fill="#000000" font-family="sans-serif" font-size="14" lengthAdjust="spacing" textLength="112" x="187" y="1095.8594">String nickName</text><text fill="#000000" font-family="sans-serif" font-size="14" lengthAdjust="spacing" textLength="46" x="187" y="1112.3477">// 头像</text><rect fill="none" height="6" style="stroke:#C82930;stroke-width:1.0;" width="6" x="175" y="1119.3008"/><text fill="#000000" font-family="sans-serif" font-size="14" lengthAdjust="spacing" textLength="107" x="187" y="1128.8359">String avatarUrl</text><text fill="#000000" font-family="sans-serif" font-size="14" lengthAdjust="spacing" textLength="46" x="187" y="1145.3242">// 性别</text><rect fill="none" height="6" style="stroke:#C82930;stroke-width:1.0;" width="6" x="175" y="1152.2773"/><text fill="#000000" font-family="sans-serif" font-size="14" lengthAdjust="spacing" textLength="103" x="187" y="1161.8125">Gender gender</text><text fill="#000000" font-family="sans-serif" font-size="14" lengthAdjust="spacing" textLength="74" x="187" y="1178.3008">// 用户状态</text><rect fill="none" height="6" style="stroke:#C82930;stroke-width:1.0;" width="6" x="175" y="1185.2539"/><text fill="#000000" font-family="sans-serif" font-size="14" lengthAdjust="spacing" textLength="118" x="187" y="1194.7891">UserStatus status</text><text fill="#000000" font-family="sans-serif" font-size="14" lengthAdjust="spacing" textLength="4" x="187" y="1211.2773"> </text><text fill="#000000" font-family="sans-serif" font-size="14" lengthAdjust="spacing" textLength="88" x="187" y="1227.7656">// 出生年月日</text><text fill="#000000" font-family="sans-serif" font-size="14" lengthAdjust="spacing" textLength="265" x="187" y="1244.2539">@JsonFormat(pattern = "yyyy-MM-dd")</text><rect fill="none" height="6" style="stroke:#C82930;stroke-width:1.0;" width="6" x="175" y="1251.207"/><text fill="#000000" font-family="sans-serif" font-size="14" lengthAdjust="spacing" textLength="92" x="187" y="1260.7422">Date birthday</text><text fill="#000000" font-family="sans-serif" font-size="14" lengthAdjust="spacing" textLength="4" x="187" y="1277.2305"> </text><text fill="#000000" font-family="sans-serif" font-size="14" lengthAdjust="spacing" textLength="294" x="187" y="1293.7188">@JsonSerialize(using = NullSerializer.class)</text><rect fill="none" height="6" style="stroke:#C82930;stroke-width:1.0;" width="6" x="175" y="1300.6719"/><text fill="#000000" font-family="sans-serif" font-size="14" lengthAdjust="spacing" textLength="74" x="187" y="1310.207">String pwd</text><text fill="#000000" font-family="sans-serif" font-size="14" lengthAdjust="spacing" textLength="4" x="187" y="1326.6953"> </text><text fill="#000000" font-family="sans-serif" font-size="14" lengthAdjust="spacing" textLength="74" x="187" y="1343.1836">// 密码盐值</text><text fill="#000000" font-family="sans-serif" font-size="14" lengthAdjust="spacing" textLength="86" x="187" y="1359.6719">@JsonIgnore</text><rect fill="none" height="6" style="stroke:#C82930;stroke-width:1.0;" width="6" x="175" y="1366.625"/><text fill="#000000" font-family="sans-serif" font-size="14" lengthAdjust="spacing" textLength="123" x="187" y="1376.1602">String slot = "ykd"</text><text fill="#000000" font-family="sans-serif" font-size="14" lengthAdjust="spacing" textLength="4" x="187" y="1392.6484"> </text><text fill="#000000" font-family="sans-serif" font-size="14" lengthAdjust="spacing" textLength="102" x="187" y="1409.1367">// 用户协议版本</text><rect fill="none" height="6" style="stroke:#C82930;stroke-width:1.0;" width="6" x="175" y="1416.0898"/><text fill="#000000" font-family="sans-serif" font-size="14" lengthAdjust="spacing" textLength="171" x="187" y="1425.625">String agreementVersion</text><text fill="#000000" font-family="sans-serif" font-size="14" lengthAdjust="spacing" textLength="4" x="187" y="1442.1133"> </text><line style="stroke:#181818;stroke-width:1.0;" x1="168" x2="486" y1="1449.0664" y2="1449.0664"/><text fill="#000000" font-family="sans-serif" font-size="14" lengthAdjust="spacing" textLength="4" x="187" y="1466.6016"> </text><ellipse cx="178" cy="1476.5547" fill="#84BE84" rx="3" ry="3" style="stroke:#038048;stroke-width:1.0;"/><text fill="#000000" font-family="sans-serif" font-size="14" lengthAdjust="spacing" text-decoration="underline" textLength="87" x="187" y="1483.0898">User create()</text></g><!--MD5=[9f956073b1687a8003a0b544c121b410]
class com.youkeda.application.art.member.model.Gender--><g id="elem_com.youkeda.application.art.member.model.Gender"><rect codeLine="100" fill="#F1F1F1" height="97.4648" id="com.youkeda.application.art.member.model.Gender" rx="2.5" ry="2.5" style="stroke:#181818;stroke-width:0.5;" width="82" x="215" y="1551"/><ellipse cx="230" cy="1567" fill="#EB937F" rx="11" ry="11" style="stroke:#181818;stroke-width:1.0;"/><path d="M233.6143,1573.5 L225.8945,1573.5 L225.8945,1561.1069 L233.6143,1561.1069 L233.6143,1563.2651 L228.3433,1563.2651 L228.3433,1565.938 L233.1162,1565.938 L233.1162,1568.0962 L228.3433,1568.0962 L228.3433,1571.3418 L233.6143,1571.3418 Z " fill="#000000"/><text fill="#000000" font-family="sans-serif" font-size="14" lengthAdjust="spacing" textLength="50" x="244" y="1572.291">Gender</text><line style="stroke:#181818;stroke-width:0.5;" x1="216" x2="296" y1="1583" y2="1583"/><ellipse cx="226" cy="1594" fill="none" rx="3" ry="3" style="stroke:#038048;stroke-width:1.0;"/><text fill="#000000" font-family="sans-serif" font-size="14" lengthAdjust="spacing" textLength="33" x="235" y="1600.5352">male</text><ellipse cx="226" cy="1610.4883" fill="none" rx="3" ry="3" style="stroke:#038048;stroke-width:1.0;"/><text fill="#000000" font-family="sans-serif" font-size="14" lengthAdjust="spacing" textLength="46" x="235" y="1617.0234">female</text><ellipse cx="226" cy="1626.9766" fill="none" rx="3" ry="3" style="stroke:#038048;stroke-width:1.0;"/><text fill="#000000" font-family="sans-serif" font-size="14" lengthAdjust="spacing" textLength="55" x="235" y="1633.5117">unknow</text><line style="stroke:#181818;stroke-width:0.5;" x1="216" x2="296" y1="1640.4648" y2="1640.4648"/></g><!--MD5=[f993e81d25ed31a6331f7261d586c121]
class com.youkeda.application.art.member.model.UserStatus--><g id="elem_com.youkeda.application.art.member.model.UserStatus"><rect codeLine="106" fill="#F1F1F1" height="97.4648" id="com.youkeda.application.art.member.model.UserStatus" rx="2.5" ry="2.5" style="stroke:#181818;stroke-width:0.5;" width="105" x="332.5" y="1551"/><ellipse cx="347.5" cy="1567" fill="#EB937F" rx="11" ry="11" style="stroke:#181818;stroke-width:1.0;"/><path d="M351.1143,1573.5 L343.3945,1573.5 L343.3945,1561.1069 L351.1143,1561.1069 L351.1143,1563.2651 L345.8433,1563.2651 L345.8433,1565.938 L350.6162,1565.938 L350.6162,1568.0962 L345.8433,1568.0962 L345.8433,1571.3418 L351.1143,1571.3418 Z " fill="#000000"/><text fill="#000000" font-family="sans-serif" font-size="14" lengthAdjust="spacing" textLength="73" x="361.5" y="1572.291">UserStatus</text><line style="stroke:#181818;stroke-width:0.5;" x1="333.5" x2="436.5" y1="1583" y2="1583"/><ellipse cx="343.5" cy="1594" fill="none" rx="3" ry="3" style="stroke:#038048;stroke-width:1.0;"/><text fill="#000000" font-family="sans-serif" font-size="14" lengthAdjust="spacing" textLength="55" x="352.5" y="1600.5352">enabled</text><ellipse cx="343.5" cy="1610.4883" fill="none" rx="3" ry="3" style="stroke:#038048;stroke-width:1.0;"/><text fill="#000000" font-family="sans-serif" font-size="14" lengthAdjust="spacing" textLength="58" x="352.5" y="1617.0234">disabled</text><ellipse cx="343.5" cy="1626.9766" fill="none" rx="3" ry="3" style="stroke:#038048;stroke-width:1.0;"/><text fill="#000000" font-family="sans-serif" font-size="14" lengthAdjust="spacing" textLength="51" x="352.5" y="1633.5117">deleted</text><line style="stroke:#181818;stroke-width:0.5;" x1="333.5" x2="436.5" y1="1640.4648" y2="1640.4648"/></g><!--MD5=[e1c878561013edf149a1679bacb56839]
reverse link java.io.Serializable to com.youkeda.model.Base--><g id="link_java.io.Serializable_com.youkeda.model.Base"><path codeLine="112" d="M691.48,102.88 C647.22,144.18 572.45,213.96 502.11,279.6 " fill="none" id="java.io.Serializable-backto-com.youkeda.model.Base" style="stroke:#181818;stroke-width:1.0;stroke-dasharray:7.0,7.0;"/><polygon fill="none" points="686.94,97.54,706.34,89.02,696.49,107.78,686.94,97.54" style="stroke:#181818;stroke-width:1.0;"/><text fill="#000000" font-family="sans-serif" font-size="13" lengthAdjust="spacing" textLength="74" x="664" y="134.5684">implements</text></g><!--MD5=[9fce0c1746eab83f48b58da4a54dc831]
reverse link java.io.Serializable to com.youkeda.model.Company--><g id="link_java.io.Serializable_com.youkeda.model.Company"><path codeLine="113" d="M758.93,105.58 C774.38,127.48 795.04,156.76 817.75,188.94 " fill="none" id="java.io.Serializable-backto-com.youkeda.model.Company" style="stroke:#181818;stroke-width:1.0;stroke-dasharray:7.0,7.0;"/><polygon fill="none" points="753.05,109.39,747.24,89.02,764.49,101.32,753.05,109.39" style="stroke:#181818;stroke-width:1.0;"/><text fill="#000000" font-family="sans-serif" font-size="13" lengthAdjust="spacing" textLength="74" x="776" y="134.5684">implements</text></g><!--MD5=[2f99a9d90c4ffbd4bc254a3382624014]
link com.youkeda.model.Base to com.youkeda.model.Company--><g id="link_com.youkeda.model.Base_com.youkeda.model.Company"><path codeLine="114" d="M631.58,444 C641.6,444 651.63,444 661.66,444 " fill="none" id="com.youkeda.model.Base-to-com.youkeda.model.Company" style="stroke:#181818;stroke-width:1.0;stroke-dasharray:7.0,7.0;"/><polygon fill="#181818" points="666.9,444,657.9,440,661.9,444,657.9,448,666.9,444" style="stroke:#181818;stroke-width:1.0;"/></g><!--MD5=[873369a4c94584d98e0342203f463c2d]
reverse link com.youkeda.model.Base to com.youkeda.application.art.member.model.User--><g id="link_com.youkeda.model.Base_com.youkeda.application.art.member.model.User"><path codeLine="116" d="M327,628.48 C327,680.94 327,739.9 327,798.68 " fill="none" id="com.youkeda.model.Base-backto-com.youkeda.application.art.member.model.User" style="stroke:#181818;stroke-width:1.0;"/><polygon fill="none" points="320,628.33,327,608.33,334,628.33,320,628.33" style="stroke:#181818;stroke-width:1.0;"/><text fill="#000000" font-family="sans-serif" font-size="13" lengthAdjust="spacing" textLength="50" x="328" y="744.5684">extends</text></g><!--MD5=[773ed2f7715a2ed95f31fe214d6083eb]
link com.youkeda.application.art.member.model.User to com.youkeda.application.art.member.model.Gender--><g id="link_com.youkeda.application.art.member.model.User_com.youkeda.application.art.member.model.Gender"><path codeLine="118" d="M272.96,1490.28 C269.73,1510.88 266.79,1529.67 264.29,1545.6 " fill="none" id="com.youkeda.application.art.member.model.User-to-com.youkeda.application.art.member.model.Gender" style="stroke:#181818;stroke-width:1.0;stroke-dasharray:7.0,7.0;"/><polygon fill="#181818" points="263.46,1550.89,268.8233,1542.6296,264.2449,1545.952,260.9225,1541.3736,263.46,1550.89" style="stroke:#181818;stroke-width:1.0;"/></g><!--MD5=[c8e3f147fe000c2486ceef317c5e4538]
link com.youkeda.application.art.member.model.User to com.youkeda.application.art.member.model.UserStatus--><g id="link_com.youkeda.application.art.member.model.User_com.youkeda.application.art.member.model.UserStatus"><path codeLine="119" d="M371.14,1490.28 C373.78,1510.88 376.19,1529.67 378.23,1545.6 " fill="none" id="com.youkeda.application.art.member.model.User-to-com.youkeda.application.art.member.model.UserStatus" style="stroke:#181818;stroke-width:1.0;stroke-dasharray:7.0,7.0;"/><polygon fill="#181818" points="378.9,1550.89,381.7093,1541.4503,378.257,1545.9315,373.7758,1542.4792,378.9,1550.89" style="stroke:#181818;stroke-width:1.0;"/></g><!--MD5=[aef6061ab8dec590a55b2214e745e05a]
@startuml
interface java.io.Serializable {
}

class com.youkeda.model.Base<T> {
// 主键
@Id
# String id

// 公司 id，MongoDB自动转为ObjectId
@Field(targetType = FieldType.OBJECT_ID)
# String companyId = Company.DEFAULT.id

@JsonFormat(shape = JsonFormat.Shape.STRING, pattern = "yyyy-MM-dd HH:mm:ss")
- LocalDateTime gmtCreated

@JsonFormat(shape = JsonFormat.Shape.STRING, pattern = "yyyy-MM-dd HH:mm:ss")
- LocalDateTime gmtModified

- - - -

+ String getId()
+ T setId(String id)
}

class com.youkeda.model.Company {
@Transient
+ {static} final Company DEFAULT = new Company("5e72e0bfad8bcb7392fbcb79", "default", "default")

- {static} long serialVersionUID

@Id
# String id

@JsonFormat(shape = JsonFormat.Shape.STRING, pattern = "yyyy-MM-dd HH:mm:ss")
- LocalDateTime gmtCreated

@JsonFormat(shape = JsonFormat.Shape.STRING, pattern = "yyyy-MM-dd HH:mm:ss")
- LocalDateTime gmtModified

// 企业编码
- String code
// 企业域
- String domain
// 企业名字全称
- String name
// 企业简称
- String shortName
// 企业 owner id
- String ownerUserId

- - - -

+ <<Create>> Company()
+ <<Create>> Company(String id, String name, String code)
}

class com.youkeda.application.art.member.model.User {
- {static} long serialVersionUID

// 命名空间，默认存短ID，用户可以自定义
- String namespace
// 用户个人签名
- String description
// 手机号
- String mobile
// 邮箱
- String email
// 用户名
- String userName
// 用户名称
- String name
// 昵称
- String nickName
// 头像
- String avatarUrl
// 性别
- Gender gender
// 用户状态
- UserStatus status

// 出生年月日
@JsonFormat(pattern = "yyyy-MM-dd")
- Date birthday

@JsonSerialize(using = NullSerializer.class)
- String pwd

// 密码盐值
@JsonIgnore
- String slot = "ykd"

// 用户协议版本
- String agreementVersion

- - - -

+ {static} User create()
}

enum com.youkeda.application.art.member.model.Gender {
+  male
+  female
+  unknow
}

enum com.youkeda.application.art.member.model.UserStatus {
+  enabled
+  disabled
+  deleted
}

java.io.Serializable <|.. com.youkeda.model.Base : implements
java.io.Serializable <|.. com.youkeda.model.Company : implements
com.youkeda.model.Base .right.> com.youkeda.model.Company

com.youkeda.model.Base <|- - com.youkeda.application.art.member.model.User : extends

com.youkeda.application.art.member.model.User .down.> com.youkeda.application.art.member.model.Gender
com.youkeda.application.art.member.model.User .down.> com.youkeda.application.art.member.model.UserStatus

@enduml

PlantUML version 1.2022.6(Wed Jun 22 01:34:49 CST 2022)
(GPL source distribution)
Java Runtime: OpenJDK Runtime Environment
JVM: OpenJDK 64-Bit Server VM
Default Encoding: UTF-8
Language: zh
Country: CN
--></g></svg>