<?xml version="1.0" encoding="UTF-8" standalone="no"?><svg xmlns="http://www.w3.org/2000/svg" xmlns:xlink="http://www.w3.org/1999/xlink" contentStyleType="text/css" height="1215px" preserveAspectRatio="none" style="width:946px;height:1215px;background:#FFFFFF;" version="1.1" viewBox="0 0 946 1215" width="946px" zoomAndPan="magnify"><defs/><g><!--MD5=[6d7c25ce75b8f10d0b66144e7f1cb173]
cluster com.youkeda.application.art.member.service--><g id="cluster_com.youkeda.application.art.member.service"><path d="M8.5,368 L323.5,368 A3.75,3.75 0 0 1 326,370.5 L333,390.4883 L563.5,390.4883 A2.5,2.5 0 0 1 566,392.9883 L566,876.5 A2.5,2.5 0 0 1 563.5,879 L8.5,879 A2.5,2.5 0 0 1 6,876.5 L6,370.5 A2.5,2.5 0 0 1 8.5,368 " style="stroke:#000000;stroke-width:1.5;fill:none;"/><line style="stroke:#000000;stroke-width:1.5;fill:none;" x1="6" x2="333" y1="390.4883" y2="390.4883"/><text fill="#000000" font-family="sans-serif" font-size="14" font-weight="bold" lengthAdjust="spacing" textLength="314" x="10" y="383.5352">com.youkeda.application.art.member.service</text></g><!--MD5=[7af10aa7bb70fe9725064c9f227ae0dd]
cluster com.youkeda.application.art.member.service.impl--><g id="cluster_com.youkeda.application.art.member.service.impl"><path d="M100.5,985.5 L451.5,985.5 A3.75,3.75 0 0 1 454,988 L461,1007.9883 L461.5,1007.9883 A2.5,2.5 0 0 1 464,1010.4883 L464,1148 A2.5,2.5 0 0 1 461.5,1150.5 L100.5,1150.5 A2.5,2.5 0 0 1 98,1148 L98,988 A2.5,2.5 0 0 1 100.5,985.5 " style="stroke:#000000;stroke-width:1.5;fill:none;"/><line style="stroke:#000000;stroke-width:1.5;fill:none;" x1="98" x2="461" y1="1007.9883" y2="1007.9883"/><text fill="#000000" font-family="sans-serif" font-size="14" font-weight="bold" lengthAdjust="spacing" textLength="350" x="102" y="1001.0352">com.youkeda.application.art.member.service.impl</text></g><!--MD5=[b432157a29d2f286fec4a196c7bd9440]
cluster com.youkeda.application.art.member.exception--><g id="cluster_com.youkeda.application.art.member.exception"><path d="M76.5,154 L410.5,154 A3.75,3.75 0 0 1 413,156.5 L420,176.4883 L672.5,176.4883 A2.5,2.5 0 0 1 675,178.9883 L675,332.5 A2.5,2.5 0 0 1 672.5,335 L76.5,335 A2.5,2.5 0 0 1 74,332.5 L74,156.5 A2.5,2.5 0 0 1 76.5,154 " style="stroke:#000000;stroke-width:1.5;fill:none;"/><line style="stroke:#000000;stroke-width:1.5;fill:none;" x1="74" x2="420" y1="176.4883" y2="176.4883"/><text fill="#000000" font-family="sans-serif" font-size="14" font-weight="bold" lengthAdjust="spacing" textLength="333" x="78" y="169.5352">com.youkeda.application.art.member.exception</text></g><!--MD5=[a7adf3ddef2de4dbfb59128e461766f4]
cluster com.youkeda.application.art.member.repository--><g id="cluster_com.youkeda.application.art.member.repository"><path d="M538.5,928 L877.5,928 A3.75,3.75 0 0 1 880,930.5 L887,950.4883 L887.5,950.4883 A2.5,2.5 0 0 1 890,952.9883 L890,1205.5 A2.5,2.5 0 0 1 887.5,1208 L538.5,1208 A2.5,2.5 0 0 1 536,1205.5 L536,930.5 A2.5,2.5 0 0 1 538.5,928 " style="stroke:#000000;stroke-width:1.5;fill:none;"/><line style="stroke:#000000;stroke-width:1.5;fill:none;" x1="536" x2="887" y1="950.4883" y2="950.4883"/><text fill="#000000" font-family="sans-serif" font-size="14" font-weight="bold" lengthAdjust="spacing" textLength="338" x="540" y="943.5352">com.youkeda.application.art.member.repository</text></g><!--MD5=[a4e5e89c2ef17a87970a04e8eb9b712a]
cluster org.springframework.data.mongodb.repository--><g id="cluster_org.springframework.data.mongodb.repository"><path d="M592.5,574 L926.5,574 A3.75,3.75 0 0 1 929,576.5 L936,596.4883 L936.5,596.4883 A2.5,2.5 0 0 1 939,598.9883 L939,670.5 A2.5,2.5 0 0 1 936.5,673 L592.5,673 A2.5,2.5 0 0 1 590,670.5 L590,576.5 A2.5,2.5 0 0 1 592.5,574 " style="stroke:#000000;stroke-width:1.5;fill:none;"/><line style="stroke:#000000;stroke-width:1.5;fill:none;" x1="590" x2="936" y1="596.4883" y2="596.4883"/><text fill="#000000" font-family="sans-serif" font-size="14" font-weight="bold" lengthAdjust="spacing" textLength="333" x="594" y="589.5352">org.springframework.data.mongodb.repository</text></g><!--MD5=[aa8f7b917213fcc1c2766e2d59b49067]
cluster java.lang--><g id="cluster_java.lang"><path d="M300.5,6 L364.5,6 A3.75,3.75 0 0 1 367,8.5 L374,28.4883 L427.5,28.4883 A2.5,2.5 0 0 1 430,30.9883 L430,102.5 A2.5,2.5 0 0 1 427.5,105 L300.5,105 A2.5,2.5 0 0 1 298,102.5 L298,8.5 A2.5,2.5 0 0 1 300.5,6 " style="stroke:#000000;stroke-width:1.5;fill:none;"/><line style="stroke:#000000;stroke-width:1.5;fill:none;" x1="298" x2="374" y1="28.4883" y2="28.4883"/><text fill="#000000" font-family="sans-serif" font-size="14" font-weight="bold" lengthAdjust="spacing" textLength="63" x="302" y="21.5352">java.lang</text></g><!--MD5=[0a146f1efc15ea6ccdfaabfdf3c2296a]
class com.youkeda.application.art.member.service.UserService--><g id="elem_com.youkeda.application.art.member.service.UserService"><rect codeLine="2" fill="#FFFFE0" height="460.207" id="com.youkeda.application.art.member.service.UserService" rx="2.5" ry="2.5" style="stroke:#B22222;stroke-width:0.5;" width="528" x="22" y="403"/><ellipse cx="242.25" cy="419" fill="#B4A7E5" rx="11" ry="11" style="stroke:#181818;stroke-width:1.0;"/><path d="M238.6777,415.2651 L238.6777,413.1069 L246.0571,413.1069 L246.0571,415.2651 L243.5918,415.2651 L243.5918,423.3418 L246.0571,423.3418 L246.0571,425.5 L238.6777,425.5 L238.6777,423.3418 L241.1431,423.3418 L241.1431,415.2651 Z " fill="#000000"/><text fill="#000000" font-family="sans-serif" font-size="14" font-style="italic" lengthAdjust="spacing" textLength="79" x="262.75" y="424.291">UserService</text><line style="stroke:#B22222;stroke-width:0.5;" x1="23" x2="549" y1="435" y2="435"/><text fill="#000000" font-family="sans-serif" font-size="14" lengthAdjust="spacing" textLength="4" x="28" y="452.5352"> </text><line style="stroke:#B22222;stroke-width:1.0;" x1="23" x2="549" y1="459.4883" y2="459.4883"/><text fill="#000000" font-family="sans-serif" font-size="14" lengthAdjust="spacing" textLength="153" x="42" y="477.0234">// 根据 userId 获取用户</text><ellipse cx="33" cy="486.9766" fill="#84BE84" rx="3" ry="3" style="stroke:#038048;stroke-width:1.0;"/><text fill="#000000" font-family="sans-serif" font-size="14" lengthAdjust="spacing" textLength="229" x="42" y="493.5117">User getWithUserId(String userId)</text><text fill="#000000" font-family="sans-serif" font-size="14" lengthAdjust="spacing" textLength="4" x="42" y="510"> </text><text fill="#000000" font-family="sans-serif" font-size="14" lengthAdjust="spacing" textLength="179" x="42" y="526.4883">// 根据 userName 获取用户</text><ellipse cx="33" cy="536.4414" fill="#84BE84" rx="3" ry="3" style="stroke:#038048;stroke-width:1.0;"/><text fill="#000000" font-family="sans-serif" font-size="14" lengthAdjust="spacing" textLength="281" x="42" y="542.9766">User getWithUserName(String userName)</text><text fill="#000000" font-family="sans-serif" font-size="14" lengthAdjust="spacing" textLength="4" x="42" y="559.4648"> </text><text fill="#000000" font-family="sans-serif" font-size="14" lengthAdjust="spacing" textLength="157" x="42" y="575.9531">// 根据 mobile 获取用户</text><ellipse cx="33" cy="585.9063" fill="#84BE84" rx="3" ry="3" style="stroke:#038048;stroke-width:1.0;"/><text fill="#000000" font-family="sans-serif" font-size="14" lengthAdjust="spacing" textLength="235" x="42" y="592.4414">User getWithMobile(String mobile)</text><text fill="#000000" font-family="sans-serif" font-size="14" lengthAdjust="spacing" textLength="4" x="42" y="608.9297"> </text><text fill="#000000" font-family="sans-serif" font-size="14" lengthAdjust="spacing" textLength="74" x="42" y="625.418">// 生成密码</text><ellipse cx="33" cy="635.3711" fill="#84BE84" rx="3" ry="3" style="stroke:#038048;stroke-width:1.0;"/><text fill="#000000" font-family="sans-serif" font-size="14" lengthAdjust="spacing" textLength="287" x="42" y="641.9063">String getMd5Pwd(String slot, String pwd)</text><text fill="#000000" font-family="sans-serif" font-size="14" lengthAdjust="spacing" textLength="4" x="42" y="658.3945"> </text><text fill="#000000" font-family="sans-serif" font-size="14" lengthAdjust="spacing" textLength="102" x="42" y="674.8828">// 修改用户信息</text><ellipse cx="33" cy="684.8359" fill="#84BE84" rx="3" ry="3" style="stroke:#038048;stroke-width:1.0;"/><text fill="#000000" font-family="sans-serif" font-size="14" lengthAdjust="spacing" textLength="158" x="42" y="691.3711">User update(User user)</text><text fill="#000000" font-family="sans-serif" font-size="14" lengthAdjust="spacing" textLength="4" x="42" y="707.8594"> </text><text fill="#000000" font-family="sans-serif" font-size="14" lengthAdjust="spacing" textLength="74" x="42" y="724.3477">// 注册用户</text><ellipse cx="33" cy="734.3008" fill="#84BE84" rx="3" ry="3" style="stroke:#038048;stroke-width:1.0;"/><text fill="#000000" font-family="sans-serif" font-size="14" lengthAdjust="spacing" textLength="364" x="42" y="740.8359">User reg(User user) throws UserNameInUseException</text><text fill="#000000" font-family="sans-serif" font-size="14" lengthAdjust="spacing" textLength="4" x="42" y="757.3242"> </text><text fill="#000000" font-family="sans-serif" font-size="14" lengthAdjust="spacing" textLength="74" x="42" y="773.8125">// 修改密码</text><ellipse cx="33" cy="783.7656" fill="#84BE84" rx="3" ry="3" style="stroke:#038048;stroke-width:1.0;"/><text fill="#000000" font-family="sans-serif" font-size="14" lengthAdjust="spacing" textLength="502" x="42" y="790.3008">changePwd(String userId, String newPwd) throws UserPwdErrorException</text><text fill="#000000" font-family="sans-serif" font-size="14" lengthAdjust="spacing" textLength="4" x="42" y="806.7891"> </text><text fill="#000000" font-family="sans-serif" font-size="14" lengthAdjust="spacing" textLength="74" x="42" y="823.2773">// 重置密码</text><ellipse cx="33" cy="833.2305" fill="#84BE84" rx="3" ry="3" style="stroke:#038048;stroke-width:1.0;"/><text fill="#000000" font-family="sans-serif" font-size="14" lengthAdjust="spacing" textLength="261" x="42" y="839.7656">restPwd(String userId, String newPwd)</text><text fill="#000000" font-family="sans-serif" font-size="14" lengthAdjust="spacing" textLength="4" x="42" y="856.2539"> </text></g><!--MD5=[c96a0d46ab9ced854c29cda89047be0d]
class com.youkeda.application.art.member.service.impl.UserServiceImpl--><g id="elem_com.youkeda.application.art.member.service.impl.UserServiceImpl"><rect codeLine="31" fill="#FFFFE0" height="113.9531" id="com.youkeda.application.art.member.service.impl.UserServiceImpl" rx="2.5" ry="2.5" style="stroke:#B22222;stroke-width:0.5;" width="255" x="173.5" y="1020.5"/><ellipse cx="242.25" cy="1036.5" fill="#ADD1B2" rx="11" ry="11" style="stroke:#181818;stroke-width:1.0;"/><path d="M244.7231,1042.6431 Q244.1421,1042.9419 243.5029,1043.0913 Q242.8638,1043.2407 242.1582,1043.2407 Q239.6514,1043.2407 238.3315,1041.5889 Q237.0117,1039.937 237.0117,1036.8159 Q237.0117,1033.6865 238.3315,1032.0347 Q239.6514,1030.3828 242.1582,1030.3828 Q242.8638,1030.3828 243.5112,1030.5322 Q244.1587,1030.6816 244.7231,1030.9805 L244.7231,1033.7031 Q244.0923,1033.1221 243.4988,1032.8523 Q242.9053,1032.5825 242.2744,1032.5825 Q240.9297,1032.5825 240.2449,1033.6492 Q239.5601,1034.7158 239.5601,1036.8159 Q239.5601,1038.9077 240.2449,1039.9744 Q240.9297,1041.041 242.2744,1041.041 Q242.9053,1041.041 243.4988,1040.7712 Q244.0923,1040.5015 244.7231,1039.9204 Z " fill="#000000"/><text fill="#000000" font-family="sans-serif" font-size="14" lengthAdjust="spacing" textLength="109" x="262.75" y="1041.791">UserServiceImpl</text><line style="stroke:#B22222;stroke-width:0.5;" x1="174.5" x2="427.5" y1="1052.5" y2="1052.5"/><rect fill="none" height="6" style="stroke:#C82930;stroke-width:1.0;" width="6" x="181.5" y="1060.5"/><text fill="#000000" font-family="sans-serif" font-size="14" lengthAdjust="spacing" textLength="229" x="193.5" y="1070.0352">MongoTemplate mongoTemplate</text><rect fill="none" height="6" style="stroke:#C82930;stroke-width:1.0;" width="6" x="181.5" y="1076.9883"/><text fill="#000000" font-family="sans-serif" font-size="14" lengthAdjust="spacing" textLength="211" x="193.5" y="1086.5234">UserRepository userRepository</text><text fill="#000000" font-family="sans-serif" font-size="14" lengthAdjust="spacing" textLength="4" x="193.5" y="1103.0117"> </text><line style="stroke:#B22222;stroke-width:1.0;" x1="174.5" x2="427.5" y1="1109.9648" y2="1109.9648"/><text fill="#000000" font-family="sans-serif" font-size="14" lengthAdjust="spacing" textLength="4" x="179.5" y="1127.5"> </text></g><!--MD5=[a579f1fa99523dd5715d2966b70bb580]
class com.youkeda.application.art.member.exception.UserNameInUseException--><g id="elem_com.youkeda.application.art.member.exception.UserNameInUseException"><rect codeLine="39" fill="#FFFFE0" height="130.4414" id="com.youkeda.application.art.member.exception.UserNameInUseException" rx="2.5" ry="2.5" style="stroke:#B22222;stroke-width:0.5;" width="340" x="319" y="189"/><ellipse cx="396.75" cy="205" fill="#ADD1B2" rx="11" ry="11" style="stroke:#181818;stroke-width:1.0;"/><path d="M399.2231,211.1431 Q398.6421,211.4419 398.0029,211.5913 Q397.3638,211.7407 396.6582,211.7407 Q394.1514,211.7407 392.8315,210.0889 Q391.5117,208.437 391.5117,205.3159 Q391.5117,202.1865 392.8315,200.5347 Q394.1514,198.8828 396.6582,198.8828 Q397.3638,198.8828 398.0112,199.0322 Q398.6587,199.1816 399.2231,199.4805 L399.2231,202.2031 Q398.5923,201.6221 397.9988,201.3523 Q397.4053,201.0825 396.7744,201.0825 Q395.4297,201.0825 394.7449,202.1492 Q394.0601,203.2158 394.0601,205.3159 Q394.0601,207.4077 394.7449,208.4744 Q395.4297,209.541 396.7744,209.541 Q397.4053,209.541 397.9988,209.2712 Q398.5923,209.0015 399.2231,208.4204 Z " fill="#000000"/><text fill="#000000" font-family="sans-serif" font-size="14" lengthAdjust="spacing" textLength="176" x="417.25" y="210.291">UserNameInUseException</text><line style="stroke:#B22222;stroke-width:0.5;" x1="320" x2="658" y1="221" y2="221"/><rect fill="none" height="6" style="stroke:#C82930;stroke-width:1.0;" width="6" x="327" y="229"/><text fill="#000000" font-family="sans-serif" font-size="14" lengthAdjust="spacing" textLength="65" x="339" y="238.5352">User user</text><line style="stroke:#B22222;stroke-width:1.0;" x1="320" x2="658" y1="245.4883" y2="245.4883"/><text fill="#000000" font-family="sans-serif" font-size="14" lengthAdjust="spacing" textLength="4" x="339" y="263.0234"> </text><ellipse cx="330" cy="272.9766" fill="#84BE84" rx="3" ry="3" style="stroke:#038048;stroke-width:1.0;"/><text fill="#000000" font-family="sans-serif" font-size="14" lengthAdjust="spacing" textLength="314" x="339" y="279.5117">«Create» UserNameInUseException(User user)</text><text fill="#000000" font-family="sans-serif" font-size="14" lengthAdjust="spacing" textLength="4" x="339" y="296"> </text><ellipse cx="330" cy="305.9531" fill="#84BE84" rx="3" ry="3" style="stroke:#038048;stroke-width:1.0;"/><text fill="#000000" font-family="sans-serif" font-size="14" lengthAdjust="spacing" textLength="144" x="339" y="312.4883">public User getUser()</text></g><!--MD5=[20fc8ac91d35013f7a728acd79dafa1d]
class com.youkeda.application.art.member.exception.UserPwdErrorException--><g id="elem_com.youkeda.application.art.member.exception.UserPwdErrorException"><rect codeLine="48" fill="#FFFFE0" height="48" id="com.youkeda.application.art.member.exception.UserPwdErrorException" rx="2.5" ry="2.5" style="stroke:#B22222;stroke-width:0.5;" width="194" x="90" y="230"/><ellipse cx="105" cy="246" fill="#ADD1B2" rx="11" ry="11" style="stroke:#181818;stroke-width:1.0;"/><path d="M107.4731,252.1431 Q106.8921,252.4419 106.2529,252.5913 Q105.6138,252.7407 104.9082,252.7407 Q102.4014,252.7407 101.0815,251.0889 Q99.7617,249.437 99.7617,246.3159 Q99.7617,243.1865 101.0815,241.5347 Q102.4014,239.8828 104.9082,239.8828 Q105.6138,239.8828 106.2612,240.0322 Q106.9087,240.1816 107.4731,240.4805 L107.4731,243.2031 Q106.8423,242.6221 106.2488,242.3523 Q105.6553,242.0825 105.0244,242.0825 Q103.6797,242.0825 102.9949,243.1492 Q102.3101,244.2158 102.3101,246.3159 Q102.3101,248.4077 102.9949,249.4744 Q103.6797,250.541 105.0244,250.541 Q105.6553,250.541 106.2488,250.2712 Q106.8423,250.0015 107.4731,249.4204 Z " fill="#000000"/><text fill="#000000" font-family="sans-serif" font-size="14" lengthAdjust="spacing" textLength="162" x="119" y="251.291">UserPwdErrorException</text><line style="stroke:#B22222;stroke-width:0.5;" x1="91" x2="283" y1="262" y2="262"/><line style="stroke:#B22222;stroke-width:0.5;" x1="91" x2="283" y1="270" y2="270"/></g><!--MD5=[e742258a9144e6e2c792d7dc1cc85c70]
class com.youkeda.application.art.member.repository.UserRepository--><g id="elem_com.youkeda.application.art.member.repository.UserRepository"><rect codeLine="51" fill="#FFFFE0" height="229.3711" id="com.youkeda.application.art.member.repository.UserRepository" rx="2.5" ry="2.5" style="stroke:#B22222;stroke-width:0.5;" width="301" x="562.5" y="963"/><ellipse cx="656.75" cy="979" fill="#B4A7E5" rx="11" ry="11" style="stroke:#181818;stroke-width:1.0;"/><path d="M653.1777,975.2651 L653.1777,973.1069 L660.5571,973.1069 L660.5571,975.2651 L658.0918,975.2651 L658.0918,983.3418 L660.5571,983.3418 L660.5571,985.5 L653.1777,985.5 L653.1777,983.3418 L655.6431,983.3418 L655.6431,975.2651 Z " fill="#000000"/><text fill="#000000" font-family="sans-serif" font-size="14" font-style="italic" lengthAdjust="spacing" textLength="104" x="677.25" y="984.291">UserRepository</text><line style="stroke:#B22222;stroke-width:0.5;" x1="563.5" x2="862.5" y1="995" y2="995"/><text fill="#000000" font-family="sans-serif" font-size="14" lengthAdjust="spacing" textLength="4" x="568.5" y="1012.5352"> </text><line style="stroke:#B22222;stroke-width:1.0;" x1="563.5" x2="862.5" y1="1019.4883" y2="1019.4883"/><text fill="#000000" font-family="sans-serif" font-size="14" lengthAdjust="spacing" textLength="4" x="582.5" y="1037.0234"> </text><text fill="#000000" font-family="sans-serif" font-size="14" lengthAdjust="spacing" textLength="146" x="582.5" y="1053.5117">// 根据手机号查询user</text><ellipse cx="573.5" cy="1063.4648" fill="#84BE84" rx="3" ry="3" style="stroke:#038048;stroke-width:1.0;"/><text fill="#000000" font-family="sans-serif" font-size="14" lengthAdjust="spacing" textLength="229" x="582.5" y="1070">User findByMobile(String mobile);</text><text fill="#000000" font-family="sans-serif" font-size="14" lengthAdjust="spacing" textLength="4" x="582.5" y="1086.4883"> </text><text fill="#000000" font-family="sans-serif" font-size="14" lengthAdjust="spacing" textLength="181" x="582.5" y="1102.9766">// 根据 userName 查询user</text><ellipse cx="573.5" cy="1112.9297" fill="#84BE84" rx="3" ry="3" style="stroke:#038048;stroke-width:1.0;"/><text fill="#000000" font-family="sans-serif" font-size="14" lengthAdjust="spacing" textLength="275" x="582.5" y="1119.4648">User findByUserName(String userName);</text><text fill="#000000" font-family="sans-serif" font-size="14" lengthAdjust="spacing" textLength="4" x="582.5" y="1135.9531"> </text><text fill="#000000" font-family="sans-serif" font-size="14" lengthAdjust="spacing" textLength="149" x="582.5" y="1152.4414">// 根据 email 查询user</text><ellipse cx="573.5" cy="1162.3945" fill="#84BE84" rx="3" ry="3" style="stroke:#038048;stroke-width:1.0;"/><text fill="#000000" font-family="sans-serif" font-size="14" lengthAdjust="spacing" textLength="210" x="582.5" y="1168.9297">User findByEmail(String email);</text><text fill="#000000" font-family="sans-serif" font-size="14" lengthAdjust="spacing" textLength="4" x="582.5" y="1185.418"> </text></g><!--MD5=[9b4ff873970f10bfdad59e416b4bc4cc]
class org.springframework.data.mongodb.repository.MongoRepository--><g id="elem_org.springframework.data.mongodb.repository.MongoRepository"><rect codeLine="66" fill="#F1F1F1" height="48" id="org.springframework.data.mongodb.repository.MongoRepository" rx="2.5" ry="2.5" style="stroke:#181818;stroke-width:0.5;" width="223" x="606.5" y="609"/><ellipse cx="621.5" cy="625" fill="#B4A7E5" rx="11" ry="11" style="stroke:#181818;stroke-width:1.0;"/><path d="M617.9277,621.2651 L617.9277,619.1069 L625.3071,619.1069 L625.3071,621.2651 L622.8418,621.2651 L622.8418,629.3418 L625.3071,629.3418 L625.3071,631.5 L617.9277,631.5 L617.9277,629.3418 L620.3931,629.3418 L620.3931,621.2651 Z " fill="#000000"/><text fill="#000000" font-family="sans-serif" font-size="14" font-style="italic" lengthAdjust="spacing" textLength="121" x="635.5" y="630.291">MongoRepository</text><rect fill="#FFFFFF" height="16.1328" style="stroke:#000000;stroke-width:1.0;stroke-dasharray:2.0,2.0;" width="68" x="764.5" y="606"/><text fill="#000000" font-family="sans-serif" font-size="12" font-style="italic" lengthAdjust="spacing" textLength="66" x="765.5" y="618.6016">User, String</text><line style="stroke:#181818;stroke-width:0.5;" x1="607.5" x2="828.5" y1="641" y2="641"/><line style="stroke:#181818;stroke-width:0.5;" x1="607.5" x2="828.5" y1="649" y2="649"/></g><!--MD5=[46c05dfe24a0851e179497c4631d3ff2]
class java.lang.Exception--><g id="elem_java.lang.Exception"><rect fill="#F1F1F1" height="48" id="java.lang.Exception" rx="2.5" ry="2.5" style="stroke:#181818;stroke-width:0.5;" width="100" x="314" y="41"/><ellipse cx="329" cy="57" fill="#ADD1B2" rx="11" ry="11" style="stroke:#181818;stroke-width:1.0;"/><path d="M331.4731,63.1431 Q330.8921,63.4419 330.2529,63.5913 Q329.6138,63.7407 328.9082,63.7407 Q326.4014,63.7407 325.0815,62.0889 Q323.7617,60.437 323.7617,57.3159 Q323.7617,54.1865 325.0815,52.5347 Q326.4014,50.8828 328.9082,50.8828 Q329.6138,50.8828 330.2612,51.0322 Q330.9087,51.1816 331.4731,51.4805 L331.4731,54.2031 Q330.8423,53.6221 330.2488,53.3523 Q329.6553,53.0825 329.0244,53.0825 Q327.6797,53.0825 326.9949,54.1492 Q326.3101,55.2158 326.3101,57.3159 Q326.3101,59.4077 326.9949,60.4744 Q327.6797,61.541 329.0244,61.541 Q329.6553,61.541 330.2488,61.2712 Q330.8423,61.0015 331.4731,60.4204 Z " fill="#000000"/><text fill="#000000" font-family="sans-serif" font-size="14" lengthAdjust="spacing" textLength="68" x="343" y="62.291">Exception</text><line style="stroke:#181818;stroke-width:0.5;" x1="315" x2="413" y1="73" y2="73"/><line style="stroke:#181818;stroke-width:0.5;" x1="315" x2="413" y1="81" y2="81"/></g><!--MD5=[792a4c278290209224495d0b13263841]
reverse link java.lang.Exception to com.youkeda.application.art.member.exception.UserNameInUseException--><g id="link_java.lang.Exception_com.youkeda.application.art.member.exception.UserNameInUseException"><path codeLine="69" d="M390.83,106.14 C406.91,130.19 427.72,161.32 446.04,188.73 " fill="none" id="java.lang.Exception-backto-com.youkeda.application.art.member.exception.UserNameInUseException" style="stroke:#181818;stroke-width:1.0;"/><polygon fill="none" points="384.87,109.82,379.58,89.31,396.51,102.04,384.87,109.82" style="stroke:#181818;stroke-width:1.0;"/><text fill="#000000" font-family="sans-serif" font-size="13" lengthAdjust="spacing" textLength="50" x="412" y="134.5684">extends</text></g><!--MD5=[0504f55765325c020379c9b72f3e9400]
reverse link java.lang.Exception to com.youkeda.application.art.member.exception.UserPwdErrorException--><g id="link_java.lang.Exception_com.youkeda.application.art.member.exception.UserPwdErrorException"><path codeLine="70" d="M328.06,103.97 C292.28,141.77 238.54,198.55 208.78,229.99 " fill="none" id="java.lang.Exception-backto-com.youkeda.application.art.member.exception.UserPwdErrorException" style="stroke:#181818;stroke-width:1.0;"/><polygon fill="none" points="323.11,99.02,341.94,89.31,333.28,108.64,323.11,99.02" style="stroke:#181818;stroke-width:1.0;"/><text fill="#000000" font-family="sans-serif" font-size="13" lengthAdjust="spacing" textLength="50" x="312" y="134.5684">extends</text></g><!--MD5=[3623fa7d41eeaaf384c414856d5f91c7]
reverse link com.youkeda.application.art.member.exception.UserNameInUseException to com.youkeda.application.art.member.service.UserService--><g id="link_com.youkeda.application.art.member.exception.UserNameInUseException_com.youkeda.application.art.member.service.UserService"><path codeLine="72" d="M451.87,323.95 C439.42,347.08 424.76,374.31 409.4,402.83 " fill="none" id="com.youkeda.application.art.member.exception.UserNameInUseException-backto-com.youkeda.application.art.member.service.UserService" style="stroke:#181818;stroke-width:1.0;stroke-dasharray:7.0,7.0;"/><polygon fill="#181818" points="454.33,319.38,446.5389,325.4048,451.9578,323.7814,453.5812,329.2004,454.33,319.38" style="stroke:#181818;stroke-width:1.0;"/></g><!--MD5=[035febd3485704cb7e228a531447e7bf]
reverse link com.youkeda.application.art.member.exception.UserPwdErrorException to com.youkeda.application.art.member.service.UserService--><g id="link_com.youkeda.application.art.member.exception.UserPwdErrorException_com.youkeda.application.art.member.service.UserService"><path codeLine="73" d="M194.33,282.91 C201.5,310.23 213.17,354.65 225.81,402.79 " fill="none" id="com.youkeda.application.art.member.exception.UserPwdErrorException-backto-com.youkeda.application.art.member.service.UserService" style="stroke:#181818;stroke-width:1.0;stroke-dasharray:7.0,7.0;"/><polygon fill="#181818" points="193.04,278.02,191.4565,287.7407,194.3097,282.8561,199.1943,285.7093,193.04,278.02" style="stroke:#181818;stroke-width:1.0;"/></g><!--MD5=[2fd28cdee64681e3483393c2c8c907ba]
reverse link com.youkeda.application.art.member.service.UserService to com.youkeda.application.art.member.service.impl.UserServiceImpl--><g id="link_com.youkeda.application.art.member.service.UserService_com.youkeda.application.art.member.service.impl.UserServiceImpl"><path codeLine="75" d="M294.45,883.24 C296.2,934.77 297.87,984.24 299.09,1020.23 " fill="none" id="com.youkeda.application.art.member.service.UserService-backto-com.youkeda.application.art.member.service.impl.UserServiceImpl" style="stroke:#181818;stroke-width:1.0;stroke-dasharray:7.0,7.0;"/><polygon fill="none" points="287.45,883.25,293.76,863.03,301.44,882.78,287.45,883.25" style="stroke:#181818;stroke-width:1.0;"/><text fill="#000000" font-family="sans-serif" font-size="13" lengthAdjust="spacing" textLength="74" x="296" y="908.5684">implements</text></g><!--MD5=[dd4afda85ed0f3ebb8e1f9c56fce93c4]
link com.youkeda.application.art.member.service.impl.UserServiceImpl to com.youkeda.application.art.member.repository.UserRepository--><g id="link_com.youkeda.application.art.member.service.impl.UserServiceImpl_com.youkeda.application.art.member.repository.UserRepository"><path codeLine="77" d="M428.54,1077.5 C471.43,1077.5 514.32,1077.5 557.21,1077.5 " fill="none" id="com.youkeda.application.art.member.service.impl.UserServiceImpl-to-com.youkeda.application.art.member.repository.UserRepository" style="stroke:#181818;stroke-width:1.0;stroke-dasharray:7.0,7.0;"/><polygon fill="#181818" points="562.44,1077.5,553.44,1073.5,557.44,1077.5,553.44,1081.5,562.44,1077.5" style="stroke:#181818;stroke-width:1.0;"/></g><!--MD5=[7c656e687936185d1c859ce86c1d0a25]
reverse link org.springframework.data.mongodb.repository.MongoRepository to com.youkeda.application.art.member.repository.UserRepository--><g id="link_org.springframework.data.mongodb.repository.MongoRepository_com.youkeda.application.art.member.repository.UserRepository"><path codeLine="79" d="M717.51,677.3 C716.77,742.92 715.34,869.75 714.28,962.91 " fill="none" id="org.springframework.data.mongodb.repository.MongoRepository-backto-com.youkeda.application.art.member.repository.UserRepository" style="stroke:#181818;stroke-width:1.0;"/><polygon fill="none" points="710.51,677.09,717.74,657.17,724.51,677.25,710.51,677.09" style="stroke:#181818;stroke-width:1.0;"/><text fill="#000000" font-family="sans-serif" font-size="13" lengthAdjust="spacing" textLength="50" x="715" y="908.5684">extends</text></g><!--MD5=[13aa62d8e8f631c98ca9557c1c33946f]
@startuml

interface com.youkeda.application.art.member.service.UserService #LightYellow##FireBrick {

- - - -
// 根据 userId 获取用户
+ User getWithUserId(String userId)

// 根据 userName 获取用户
+ User getWithUserName(String userName)

// 根据 mobile 获取用户
+ User getWithMobile(String mobile)

// 生成密码
+ String getMd5Pwd(String slot, String pwd)

// 修改用户信息
+ User update(User user)

// 注册用户
+ User reg(User user) throws UserNameInUseException

// 修改密码
+ changePwd(String userId, String newPwd) throws UserPwdErrorException

// 重置密码
+ restPwd(String userId, String newPwd)

}

class com.youkeda.application.art.member.service.impl.UserServiceImpl #LightYellow##FireBrick {
- MongoTemplate mongoTemplate
- UserRepository userRepository

- - - -

}

class com.youkeda.application.art.member.exception.UserNameInUseException #LightYellow##FireBrick {
- User user
- - - -

+ <<Create>> UserNameInUseException(User user)

+ public User getUser()
}

class com.youkeda.application.art.member.exception.UserPwdErrorException #LightYellow##FireBrick {
}

interface com.youkeda.application.art.member.repository.UserRepository #LightYellow##FireBrick {

- - - -

// 根据手机号查询user
+ User findByMobile(String mobile);

// 根据 userName 查询user
+ User findByUserName(String userName);

// 根据 email 查询user
+ User findByEmail(String email);

}

interface org.springframework.data.mongodb.repository.MongoRepository <User, String> {
}

com.youkeda.application.art.member.exception.UserNameInUseException -up-|> java.lang.Exception : extends
com.youkeda.application.art.member.exception.UserPwdErrorException -up-|> java.lang.Exception : extends

com.youkeda.application.art.member.service.UserService .up.> com.youkeda.application.art.member.exception.UserNameInUseException
com.youkeda.application.art.member.service.UserService .up.> com.youkeda.application.art.member.exception.UserPwdErrorException

com.youkeda.application.art.member.service.UserService <|.. com.youkeda.application.art.member.service.impl.UserServiceImpl : implements

com.youkeda.application.art.member.service.impl.UserServiceImpl .right.> com.youkeda.application.art.member.repository.UserRepository

com.youkeda.application.art.member.repository.UserRepository -up-|> org.springframework.data.mongodb.repository.MongoRepository : extends
@enduml

PlantUML version 1.2022.6(Wed Jun 22 01:34:49 CST 2022)
(GPL source distribution)
Java Runtime: OpenJDK Runtime Environment
JVM: OpenJDK 64-Bit Server VM
Default Encoding: UTF-8
Language: zh
Country: CN
--></g></svg>